<svg width="24" height="24" viewBox="0 0 24 24" fill="none" xmlns="http://www.w3.org/2000/svg">
<path d="M12 2C17.5228 2 22 6.47715 22 12C22 17.5228 17.5228 22 12 22C6.47715 22 2 17.5228 2 12C2 6.47715 6.47715 2 12 2ZM12 3.5C7.30558 3.5 3.5 7.30558 3.5 12C3.5 16.6944 7.30558 20.5 12 20.5C16.6944 20.5 20.5 16.6944 20.5 12C20.5 7.30558 16.6944 3.5 12 3.5ZM16.2566 8.00052C16.6363 8.00052 16.9501 8.30144 16.9997 8.69188L17.0066 8.80042V15.205C17.0066 15.6468 16.6708 16.0049 16.2566 16.0049C15.8769 16.0049 15.5631 15.704 15.5134 15.3136L15.5066 15.205L15.5064 12.8195L13.2473 12.82C12.8657 12.82 12.5502 12.5179 12.5003 12.1259L12.4934 12.0169V8.8205C12.4934 8.37695 12.831 8.01739 13.2473 8.01739C13.629 8.01739 13.9445 8.31952 13.9944 8.71152L14.0013 8.8205V11.2138H15.4856V8.8205C15.4856 8.59873 15.57 8.39795 15.7064 8.25262L15.7983 8.16719C15.925 8.06269 16.084 8.00052 16.2566 8.00052ZM9.24342 9.6014C8.82921 9.6014 8.50748 9.90441 8.50748 10.3003V10.4565C8.50748 10.8708 8.17169 11.2065 7.75748 11.2065C7.34327 11.2065 7.00748 10.8708 7.00748 10.4565V10.3003C7.00748 8.9741 8.00078 8.00052 9.24342 8.00052C10.4861 8.00052 11.496 8.9741 11.496 10.3003L11.4927 11.1259C11.4931 12.3164 10.5685 13.2911 9.39815 13.3706L9.24342 13.3759C8.82921 13.3795 8.49342 13.7153 8.49342 14.1295V14.404H10.693C11.1351 14.404 11.4934 14.7624 11.4934 15.2045C11.4934 15.6465 11.1351 16.0049 10.693 16.0049H7.99342C7.44114 16.0049 6.99342 15.5572 6.99342 15.0049V13.8918C6.99342 12.7247 7.93951 11.7786 9.10656 11.7786H9.24342C9.6578 11.7747 9.99414 11.4398 9.99627 11.0255L10.0036 10.3003C10.0043 9.90371 9.65764 9.6014 9.24342 9.6014Z" fill="black"/>
</svg>
