<svg width="24" height="24" viewBox="0 0 24 24" fill="none" xmlns="http://www.w3.org/2000/svg">
<path d="M8.4625 6.80905L11.7461 20.426C11.9237 21.1626 12.9571 21.2011 13.1892 20.4798L16.4458 10.3575L17.0319 12.4532C17.1225 12.7772 17.4178 13.0012 17.7542 13.0012H21.2478C21.662 13.0012 21.9978 12.6654 21.9978 12.2512C21.9978 11.837 21.662 11.5012 21.2478 11.5012H18.3232L17.2183 7.55053C17.018 6.83439 16.0098 6.81496 15.782 7.52284L12.5787 17.4797L9.22543 3.57419C9.04291 2.81728 7.97051 2.80542 7.7713 3.5581L5.66895 11.5012H2.75012C2.33591 11.5012 2.00012 11.837 2.00012 12.2512C2.00012 12.6654 2.33591 13.0012 2.75012 13.0012H6.24627C6.58657 13.0012 6.88423 12.7721 6.9713 12.4431L8.4625 6.80905Z" fill="black"/>
</svg>
