<svg width="24" height="24" viewBox="0 0 24 24" fill="none" xmlns="http://www.w3.org/2000/svg">
<path d="M9.4692 9.6432L8.76897 3.76843L8.76711 3.69484C8.76711 2.80622 9.48748 2.08585 10.3761 2.08585C11.1789 2.08585 11.9218 2.50551 12.3544 3.22026L12.4408 3.38093L15.3857 9.46995L19.3428 9.35414C20.7765 9.31203 21.9728 10.4401 22.0151 11.8847L22.016 11.95C22.016 13.3843 20.8532 14.5471 19.3969 14.5468L15.4327 14.4307L12.4409 20.619C12.058 21.411 11.2558 21.9142 10.3761 21.9142C9.48748 21.9142 8.76711 21.1938 8.76744 20.2828L8.77395 20.1648L9.48082 14.2566L7.34874 14.1943L7.07984 14.93C6.79932 15.6973 6.06935 16.2077 5.25237 16.2077C4.37643 16.2077 3.66635 15.4976 3.66635 14.6213L3.66671 13.8617L3.51167 13.8295C2.62168 13.6437 1.984 12.8591 1.984 11.95C1.984 11.0407 2.62215 10.2562 3.51222 10.0711L3.66671 10.039L3.66635 9.27827C3.66635 8.47624 4.26447 7.80342 5.101 7.70021L5.25237 7.69225C5.99731 7.69225 6.67524 8.11741 7.01683 8.81929L7.07965 8.96943L7.34928 9.70533L9.4692 9.6432ZM10.3761 3.58585C10.3159 3.58585 10.2671 3.63464 10.2668 3.67246L11.1532 11.0945L6.31272 11.2364L5.68531 9.52109L5.65276 9.44202C5.5784 9.28973 5.42297 9.19225 5.29886 9.19081L5.24063 9.19296C5.19904 9.19817 5.16635 9.23493 5.16635 9.27791L5.16729 11.2587L3.81775 11.5397C3.62335 11.5801 3.484 11.7514 3.484 11.95C3.484 12.1488 3.62349 12.3205 3.81778 12.361L5.16729 12.642L5.16635 14.6217C5.16635 14.6692 5.20486 14.7077 5.25237 14.7077C5.43953 14.7077 5.60676 14.5908 5.67101 14.415L6.31126 12.6634L11.1652 12.8051L10.2683 20.2763L10.2671 20.3052C10.2671 20.3654 10.3159 20.4142 10.3761 20.4142C10.6804 20.4142 10.9579 20.2401 11.0904 19.9661L14.5053 12.9029L19.4188 13.0471C20.0248 13.0471 20.5161 12.5559 20.5161 11.961L20.5155 11.9178C20.4977 11.3122 19.9924 10.8357 19.3868 10.8535L14.4583 10.9977L11.1066 4.06557L11.0542 3.96738C10.9109 3.73107 10.6538 3.58585 10.3761 3.58585Z" fill="black"/>
</svg>
