<svg width="24" height="24" viewBox="0 0 24 24" fill="none" xmlns="http://www.w3.org/2000/svg">
<path d="M6.561 18.4992L3.28033 21.7803C2.98744 22.0732 2.51256 22.0732 2.21967 21.7803C1.9534 21.5141 1.9292 21.0974 2.14705 20.8038L2.21967 20.7197L20.7197 2.21966C20.9859 1.9534 21.4026 1.92919 21.6962 2.14704L21.7803 2.21966C22.0466 2.48593 22.0708 2.90259 21.8529 3.1962L21.7803 3.28032L18.7794 6.28117C19.2061 7.18247 19.4594 8.18444 19.4958 9.24527L19.5 9.49622V13.5932L20.88 16.7492C20.9491 16.9071 20.9847 17.0776 20.9847 17.25C20.9847 17.9403 20.4251 18.5 19.7347 18.5L15 18.4995C15 20.1583 13.6569 21.5015 12 21.5015C10.4023 21.5015 9.09634 20.2526 9.00509 18.6778L8.99955 18.4992H6.561L3.28033 21.7803L6.561 18.4992ZM13.4995 18.4992L10.5 18.4995C10.5 19.3299 11.1716 20.0015 12 20.0015C12.7797 20.0015 13.4204 19.4066 13.4931 18.6459L13.4995 18.4992ZM12 1.99622C13.8977 1.99622 15.6322 2.69765 16.9541 3.86028L15.8918 4.92338C14.8438 4.03198 13.4846 3.49622 12 3.49622C8.67984 3.49622 6.00048 6.17047 6 9.49622V13.9058L5.30055 15.5142L3.11048 17.7046C2.99463 17.408 2.99143 17.0672 3.12835 16.752L4.5 13.5941V9.49611C4.5006 5.34132 7.85209 1.99622 12 1.99622ZM17.6362 7.42643L8.061 16.9992L19.3525 17L18 13.9068L18.0001 9.50907L17.9964 9.28387C17.974 8.632 17.8486 8.00773 17.6362 7.42643Z" fill="black"/>
</svg>
