<svg width="24" height="24" viewBox="0 0 24 24" fill="none" xmlns="http://www.w3.org/2000/svg">
<path d="M12 1.99622C16.0499 1.99622 19.3567 5.19096 19.4958 9.24527L19.5 9.49622V13.5932L20.88 16.7492C20.9491 16.9071 20.9847 17.0776 20.9847 17.25C20.9847 17.9403 20.4251 18.5 19.7347 18.5L15 18.4995C15 20.1583 13.6569 21.5015 12 21.5015C10.4023 21.5015 9.09634 20.2526 9.00509 18.6778L8.99955 18.4992L4.27486 18.5C4.10353 18.5 3.93402 18.4648 3.77686 18.3965C3.14366 18.1215 2.85331 17.3852 3.12835 16.752L4.5 13.5941V9.49611C4.5006 5.34132 7.85209 1.99622 12 1.99622ZM13.4995 18.4992L10.5 18.4995C10.5 19.3299 11.1716 20.0015 12 20.0015C12.7797 20.0015 13.4204 19.4066 13.4931 18.6459L13.4995 18.4992ZM12 3.49622C8.67984 3.49622 6.00048 6.17047 6 9.49622V13.9058L4.65602 17H19.3525L18 13.9068L18.0001 9.50907L17.9964 9.28387C17.8853 6.0504 15.2416 3.49622 12 3.49622ZM8.5 9.49999H10.5C11.0399 9.49999 11.3909 10.0468 11.1973 10.5271L11.1512 10.6221L9.79239 13H10.5C10.9142 13 11.25 13.3358 11.25 13.75C11.25 14.1297 10.9678 14.4435 10.6018 14.4931L10.5 14.5H8.5C7.96012 14.5 7.60908 13.9532 7.80272 13.4729L7.84882 13.3779L9.20762 11H8.5C8.08579 11 7.75 10.6642 7.75 10.25C7.75 9.8703 8.03215 9.5565 8.39823 9.50684L8.5 9.49999ZM12.5 6.49999H15C15.5361 6.49999 15.8873 7.03993 15.7003 7.51933L15.6556 7.61422L13.7746 11H15C15.4142 11 15.75 11.3358 15.75 11.75C15.75 12.1297 15.4678 12.4435 15.1018 12.4931L15 12.5H12.5C11.9639 12.5 11.6127 11.96 11.7997 11.4807L11.8444 11.3858L13.7254 7.99999H12.5C12.0858 7.99999 11.75 7.66421 11.75 7.24999C11.75 6.8703 12.0322 6.5565 12.3982 6.50684L12.5 6.49999Z" fill="black"/>
</svg>
