<svg width="24" height="24" viewBox="0 0 24 24" fill="none" xmlns="http://www.w3.org/2000/svg">
<path d="M10.4286 19.924L13.9911 18.4118C14.1244 19.2921 13.6531 20.1845 12.7958 20.5485C11.9385 20.9124 10.9692 20.6314 10.4286 19.924ZM15.8613 2.09349C17.947 3.23304 19.5128 4.69616 20.543 6.48058C21.5732 8.265 22.0575 10.3526 22.0015 12.7286C21.9917 13.1427 21.6481 13.4705 21.234 13.4608C20.8199 13.451 20.4921 13.1074 20.5019 12.6933C20.5516 10.582 20.1304 8.76593 19.244 7.23058C18.3575 5.69524 16.9954 4.42242 15.1421 3.40984C14.7786 3.21124 14.6449 2.75557 14.8435 2.39207C15.0421 2.02857 15.4978 1.8949 15.8613 2.09349ZM6.71144 6.51505C9.57319 5.24091 12.9156 6.44567 14.3109 9.26056L14.4092 9.46998L15.6966 12.3618L17.3949 13.8316C17.4876 13.9118 17.5679 14.0053 17.661 14.1564L17.7197 14.2707C17.9991 14.902 17.7138 15.6402 17.0825 15.9196L6.75587 20.4898C6.59654 20.5603 6.42423 20.5967 6.25 20.5967C5.55964 20.5967 5 20.0371 5 19.3471L4.99891 17.0041L3.75654 14.2128C2.44303 11.2626 3.76572 7.82656 6.71144 6.51505ZM5.12689 13.6028L6.49877 16.6851L6.49982 18.9628L16.1149 14.7075L14.4622 13.2773L13.0453 10.0941L12.9603 9.91283C11.9289 7.83246 9.44846 6.9384 7.32154 7.88536C5.13205 8.86019 4.15056 11.4099 5.12689 13.6028ZM15.6237 5.69414C16.5907 6.22141 17.3657 6.98877 17.94 7.98345C18.5142 8.97812 18.7913 10.033 18.7644 11.134C18.7543 11.5481 18.4105 11.8756 17.9964 11.8655C17.5823 11.8554 17.2548 11.5115 17.2649 11.0975C17.2849 10.2759 17.0792 9.49251 16.6409 8.73345C16.2027 7.97438 15.6272 7.40452 14.9056 7.01108C14.542 6.81278 14.4079 6.35723 14.6062 5.99356C14.8045 5.6299 15.2601 5.49584 15.6237 5.69414Z" fill="black"/>
</svg>
