<svg width="24" height="24" viewBox="0 0 24 24" fill="none" xmlns="http://www.w3.org/2000/svg">
<path d="M12.7481 3.00128L20.3019 3.00179L20.4021 3.01571L20.5009 3.04331L20.562 3.06924C20.6411 3.10413 20.715 3.15466 20.7799 3.21959L20.8206 3.26363L20.8812 3.34511L20.9183 3.41014L20.957 3.50045L20.9762 3.56458L20.9898 3.62852L20.9991 3.72172L20.9996 11.2552C20.9996 11.6694 20.6638 12.0052 20.2496 12.0052C19.8699 12.0052 19.5561 11.723 19.5065 11.3569L19.4996 11.2552L19.4991 5.55928L5.55911 19.5043L11.2496 19.5052C11.6293 19.5052 11.9431 19.7873 11.9928 20.1534L11.9996 20.2552C11.9996 20.6349 11.7175 20.9487 11.3514 20.9983L11.2496 21.0052L3.71378 21.0044L3.68479 21.0015C3.61873 20.9969 3.55602 20.9831 3.49674 20.962L3.40661 20.9231L3.38942 20.9126C3.18522 20.8022 3.03877 20.5992 3.00535 20.3598L2.99811 20.2552V12.7513C2.99811 12.3371 3.33389 12.0013 3.74811 12.0013C4.1278 12.0013 4.4416 12.2834 4.49126 12.6495L4.49811 12.7513V18.4433L18.4381 4.50028L12.7481 4.50128C12.3684 4.50128 12.0546 4.21913 12.005 3.85305L11.9981 3.75128C11.9981 3.37159 12.2803 3.05779 12.6463 3.00813L12.7481 3.00128Z" fill="black"/>
</svg>
