<svg width="24" height="24" viewBox="0 0 24 24" fill="none" xmlns="http://www.w3.org/2000/svg">
<path d="M5.25022 20.5L18.2502 20.5038C18.6644 20.5039 19 20.8398 19 21.254C19 21.6337 18.7177 21.9474 18.3516 21.997L18.2498 22.0038L5.24978 22C4.83557 21.9999 4.5 21.664 4.5 21.2498C4.5 20.8701 4.78234 20.5564 5.14844 20.5068L5.25022 20.5ZM6.21972 7.21849L11.2174 2.22187C11.4835 1.95578 11.8999 1.93148 12.1935 2.14904L12.2776 2.22157L17.2811 7.21818C17.5742 7.51087 17.5745 7.98574 17.2818 8.27884C17.0157 8.54529 16.5991 8.56978 16.3053 8.35212L16.2211 8.27956L12.5 4.56426V18.2489C12.5 18.6286 12.2178 18.9424 11.8518 18.992L11.75 18.9989C11.3703 18.9989 11.0565 18.7167 11.0068 18.3507L11 18.2489V4.55926L7.28028 8.27926C7.01398 8.5455 6.59732 8.56966 6.30373 8.35177L6.21961 8.27915C5.95338 8.01285 5.92921 7.59619 6.1471 7.3026L6.21972 7.21849L11.2174 2.22187L6.21972 7.21849Z" fill="black"/>
</svg>
