<svg width="24" height="24" viewBox="0 0 24 24" fill="none" xmlns="http://www.w3.org/2000/svg">
<path d="M12.0007 2.0007C17.5236 2.0007 22.0007 6.47785 22.0007 12.0007C22.0007 17.5236 17.5236 22.0007 12.0007 22.0007C6.47785 22.0007 2.0007 17.5236 2.0007 12.0007C2.0007 6.47785 6.47785 2.0007 12.0007 2.0007ZM12.0007 3.5007C7.30628 3.5007 3.5007 7.30628 3.5007 12.0007C3.5007 16.6951 7.30628 20.5007 12.0007 20.5007C16.6951 20.5007 20.5007 16.6951 20.5007 12.0007C20.5007 7.30628 16.6951 3.5007 12.0007 3.5007ZM11.6478 7.55379L11.7204 7.46967C11.9866 7.2034 12.4033 7.1792 12.6969 7.39705L12.781 7.46967L16.7819 11.4705C17.0482 11.7368 17.0723 12.1535 16.8544 12.4471L16.7818 12.5313L12.7802 16.5313C12.4873 16.8241 12.0124 16.824 11.7196 16.531C11.4534 16.2647 11.4292 15.8481 11.6471 15.5545L11.7198 15.4704L14.4417 12.7497L7.75 12.75C7.3703 12.75 7.05651 12.4678 7.00684 12.1018L7 12C7 11.6203 7.28215 11.3065 7.64823 11.2568L7.75 11.25L14.4397 11.2497L11.7204 8.53033C11.4541 8.26406 11.4299 7.8474 11.6478 7.55379L11.7204 7.46967L11.6478 7.55379Z" fill="black"/>
</svg>
