<svg width="24" height="24" viewBox="0 0 24 24" fill="none" xmlns="http://www.w3.org/2000/svg">
<path d="M21.7775 2.22211C22.0436 2.48835 22.0678 2.90501 21.8502 3.19864L21.7776 3.28277L15.5549 9.5065L21.2475 9.50745C21.6272 9.50745 21.941 9.78961 21.9907 10.1557L21.9975 10.2575C21.9975 10.6371 21.7154 10.9509 21.3493 11.0006L21.2475 11.0075L13.6972 11.0051L13.6822 11.0038C13.614 10.9987 13.5485 10.984 13.4869 10.9615L13.389 10.916C13.1841 10.8058 13.0369 10.6024 13.0033 10.3624L12.996 10.2575V2.75356C12.996 2.33935 13.3318 2.00356 13.746 2.00356C14.1257 2.00356 14.4395 2.28571 14.4891 2.65179L14.496 2.75356L14.4959 8.4445L20.7177 2.22223C21.0103 1.92931 21.4848 1.92925 21.7775 2.22211ZM11.0024 13.7548V21.2587C11.0024 21.6729 10.6666 22.0087 10.2524 22.0087C9.87269 22.0087 9.5589 21.7265 9.50924 21.3605L9.50239 21.2587L9.50189 15.5635L3.28028 21.7795C2.98742 22.0724 2.51255 22.0724 2.21962 21.7796C1.95332 21.5134 1.92907 21.0967 2.14689 20.8031L2.2195 20.7189L8.43989 14.5045L2.75086 14.5048C2.37117 14.5048 2.05737 14.2226 2.00771 13.8566L2.00086 13.7548C2.00086 13.3406 2.33665 13.0048 2.75086 13.0048L10.3051 13.0066L10.3787 13.0154L10.4762 13.0388L10.529 13.0575L10.6153 13.0982L10.7038 13.1557C10.7597 13.198 10.8094 13.2478 10.8515 13.3036L10.9184 13.4095L10.9591 13.5031L10.9804 13.574L10.9918 13.6286L10.9979 13.6865L10.9985 13.6781L11.0024 13.7548Z" fill="black"/>
</svg>
