<svg width="24" height="24" viewBox="0 0 24 24" fill="none" xmlns="http://www.w3.org/2000/svg">
<path d="M15.001 8.99902H9.004L9.00499 6.74985C9.00499 6.09015 8.21463 5.75181 7.7373 6.20717L2.23357 11.4575C1.92382 11.753 1.92382 12.2474 2.23359 12.5429L7.73731 17.7929L7.81958 17.8615C8.30003 18.2096 9.00499 17.8732 9.00499 17.2502L9.004 15H15.001L15.0016 17.2502C15.0016 17.9101 15.7924 18.2483 16.2696 17.7926L21.7667 12.5426C22.0761 12.2471 22.0761 11.7533 21.7668 11.4578L16.2696 6.20748C15.7924 5.75169 15.0016 6.08994 15.0016 6.74985L15.001 8.99902ZM3.837 12L7.504 8.50102L7.50499 9.74964C7.50499 10.1639 7.84077 10.4996 8.25499 10.4996H15.7516L15.8533 10.4928C16.2194 10.4431 16.5016 10.1293 16.5016 9.74964L16.501 8.50302L20.162 12L16.501 15.496L16.5016 14.2507C16.5016 13.8365 16.1658 13.5007 15.7516 13.5007H8.25499L8.15322 13.5076C7.78714 13.5572 7.50499 13.871 7.50499 14.2507L7.504 15.498L3.837 12Z" fill="black"/>
</svg>
