<svg width="24" height="24" viewBox="0 0 24 24" fill="none" xmlns="http://www.w3.org/2000/svg">
<path d="M11.2507 3.00128L3.69697 3.00179L3.59673 3.01571L3.49789 3.04331L3.43758 3.06888C3.35837 3.10371 3.28414 3.15439 3.21892 3.21959L3.17821 3.26363L3.11767 3.34511L3.08048 3.41014L3.0418 3.50045L3.02261 3.56458L3.00904 3.62852L2.99972 3.72172L2.99919 11.2552C2.99919 11.6694 3.33498 12.0052 3.74919 12.0052C4.12889 12.0052 4.44268 11.723 4.49234 11.3569L4.49919 11.2552L4.49964 5.55928L19.7192 20.7846C19.9855 21.0509 20.4021 21.0751 20.6958 20.8573L20.7799 20.7847C21.0462 20.5184 21.0705 20.1018 20.8526 19.8082L20.78 19.724L5.56064 4.50028L11.2507 4.50128C11.6304 4.50128 11.9442 4.21913 11.9939 3.85305L12.0007 3.75128C12.0007 3.37159 11.7186 3.05779 11.3525 3.00813L11.2507 3.00128Z" fill="black"/>
</svg>
