<svg width="24" height="24" viewBox="0 0 24 24" fill="none" xmlns="http://www.w3.org/2000/svg">
<path d="M4.75 1.99982C5.1297 1.99982 5.44349 2.28197 5.49315 2.64805L5.5 2.74982V8.43982L10.0743 3.87995C12.5163 1.43801 16.4385 1.37845 18.9526 3.70127L19.1385 3.87995C21.6415 6.38295 21.6415 10.4411 19.1385 12.9441L10.2933 21.7833C10.0003 22.076 9.52558 22.0757 9.23269 21.7828C8.93979 21.4899 8.94013 21.0149 9.23315 20.7221L18.0778 11.8834C19.995 9.96623 19.995 6.85782 18.0778 4.94061C16.2187 3.0815 13.2395 3.02517 11.3118 4.7723L11.1342 4.94138L6.562 9.49982L12.25 9.5C12.6297 9.5 12.9435 9.78215 12.9932 10.1482L13 10.25C13 10.6297 12.7178 10.9435 12.3518 10.9932L12.25 11H4.75C4.3703 11 4.05651 10.7178 4.00685 10.3518L4 10.25V2.74982C4 2.3356 4.33579 1.99982 4.75 1.99982Z" fill="black"/>
</svg>
