<svg width="24" height="24" viewBox="0 0 24 24" fill="none" xmlns="http://www.w3.org/2000/svg">
<path d="M21.2501 4.5C21.6298 4.5 21.9436 4.78215 21.9932 5.14823L22.0001 5.25V18.2541C22.0001 18.6683 21.6643 19.0041 21.2501 19.0041C20.8704 19.0041 20.5566 18.7219 20.5069 18.3558L20.5001 18.2541V5.25C20.5001 4.83579 20.8359 4.5 21.2501 4.5ZM12.6472 6.30373L12.7198 6.21961C12.9861 5.95338 13.4028 5.92921 13.6964 6.1471L13.7805 6.21972L18.7771 11.2174C19.0432 11.4835 19.0675 11.8999 18.8499 12.1935L18.7774 12.2776L13.7808 17.2811C13.4881 17.5742 13.0132 17.5745 12.7201 17.2818C12.4537 17.0157 12.4292 16.5991 12.6468 16.3053L12.7194 16.2211L16.4303 12.504L2.75029 12.5049C2.37059 12.5049 2.0568 12.2228 2.00714 11.8567L2.00029 11.7549C2.00029 11.3752 2.28244 11.0615 2.64852 11.0118L2.75029 11.0049L16.4433 11.004L12.7197 7.28028C12.4535 7.01398 12.4293 6.59732 12.6472 6.30373L12.7198 6.21961L12.6472 6.30373Z" fill="black"/>
</svg>
