<svg width="24" height="24" viewBox="0 0 24 24" fill="none" xmlns="http://www.w3.org/2000/svg">
<path d="M14.7828 2.21965L19.2778 6.71441C19.5439 6.98047 19.5683 7.39676 19.3509 7.69038L19.2784 7.77451L14.7834 12.2794C14.4908 12.5726 14.0159 12.5731 13.7227 12.2805C13.4562 12.0145 13.4315 11.5979 13.649 11.3041L13.7216 11.2199L16.9384 7.997L5.24258 7.99766C4.86289 7.99766 4.54909 7.71551 4.49943 7.34943L4.49258 7.24766C4.49258 6.86797 4.77474 6.55417 5.14081 6.50451L5.24258 6.49766L16.9404 6.497L13.7222 3.28035C13.4559 3.01409 13.4317 2.59743 13.6495 2.30381L13.7221 2.21969C13.9884 1.95341 14.405 1.92919 14.6987 2.14704L14.7828 2.21965L19.2778 6.71441L14.7828 2.21965ZM19.5006 16.6491L19.5074 16.7509C19.5074 17.1306 19.2253 17.4444 18.8592 17.494L18.7574 17.5009L7.06142 17.5L10.2826 20.7194C10.549 20.9856 10.5733 21.4023 10.3556 21.696L10.283 21.7801C10.0169 22.0465 9.60022 22.0709 9.30652 21.8531L9.22237 21.7806L4.72237 17.2843C4.45599 17.0182 4.43161 16.6015 4.64934 16.3078L4.72192 16.2237L9.22193 11.7199C9.5147 11.4269 9.98957 11.4267 10.2826 11.7194C10.549 11.9856 10.5733 12.4023 10.3556 12.696L10.283 12.7801L7.06542 16L18.7574 16.0009C19.1371 16.0009 19.4509 16.283 19.5006 16.6491L19.5074 16.7509L19.5006 16.6491Z" fill="black"/>
</svg>
