<svg width="24" height="24" viewBox="0 0 24 24" fill="none" xmlns="http://www.w3.org/2000/svg">
<path d="M21.25 4C21.6642 4 22 4.33579 22 4.75V11.25C22 13.3211 20.3211 15 18.25 15H4.58583L8.30516 18.7197C8.57143 18.9859 8.59564 19.4026 8.37778 19.6962L8.30516 19.7803C8.0389 20.0466 7.62223 20.0708 7.32862 19.8529L7.2445 19.7803L2.2445 14.7803C1.97824 14.5141 1.95403 14.0974 2.17189 13.8038L2.2445 13.7197L7.2445 8.71967C7.5374 8.42678 8.01227 8.42678 8.30516 8.71967C8.57143 8.98594 8.59564 9.4026 8.37778 9.69621L8.30516 9.78033L4.58583 13.5H18.25C19.4409 13.5 20.4156 12.5748 20.4948 11.404L20.5 11.25V4.75C20.5 4.33579 20.8358 4 21.25 4Z" fill="black"/>
</svg>
