<svg width="24" height="24" viewBox="0 0 24 24" fill="none" xmlns="http://www.w3.org/2000/svg">
<path d="M12.7481 3.00128L20.3019 3.00179L20.4021 3.01571L20.5009 3.04331L20.5613 3.06888C20.6405 3.10371 20.7147 3.15439 20.7799 3.21959L20.8206 3.26363L20.8812 3.34511L20.9183 3.41014L20.957 3.50045L20.9762 3.56458L20.9898 3.62852L20.9991 3.72172L20.9996 11.2552C20.9996 11.6694 20.6639 12.0052 20.2496 12.0052C19.8699 12.0052 19.5561 11.723 19.5065 11.3569L19.4996 11.2552L19.4992 5.55928L4.27958 20.7846C4.01335 21.0509 3.59669 21.0751 3.30305 20.8573L3.21892 20.7847C2.95263 20.5184 2.92837 20.1018 3.14619 19.8082L3.2188 19.724L18.4382 4.50028L12.7481 4.50128C12.3684 4.50128 12.0546 4.21913 12.005 3.85305L11.9981 3.75128C11.9981 3.37159 12.2803 3.05779 12.6463 3.00813L12.7481 3.00128Z" fill="black"/>
</svg>
