<svg width="24" height="24" viewBox="0 0 24 24" fill="none" xmlns="http://www.w3.org/2000/svg">
<path d="M18.6195 3.31842C19.008 3.31842 19.3291 3.6071 19.3799 3.98164L19.3869 4.08577V6.97963C19.3869 7.36811 19.0982 7.68916 18.7237 7.73997L18.6195 7.74698H15.7257C15.3019 7.74698 14.9583 7.40342 14.9583 6.97963C14.9583 6.59115 15.247 6.27009 15.6215 6.21928L15.7257 6.21228L16.7044 6.21182C13.7917 3.87107 9.52213 4.05209 6.81934 6.75488C3.92254 9.65168 3.92254 14.3483 6.81934 17.2451C9.71614 20.1419 14.4128 20.1419 17.3096 17.2451C19.0725 15.4822 19.8107 12.9926 19.3476 10.5892C19.2675 10.1731 19.5398 9.77076 19.956 9.69058C20.3721 9.61041 20.7744 9.88277 20.8546 10.2989C21.413 13.1972 20.5217 16.2034 18.3948 18.3303C14.8986 21.8265 9.23028 21.8265 5.73414 18.3303C2.23801 14.8342 2.23801 9.16582 5.73414 5.66968C9.05475 2.34907 14.3349 2.18235 17.8523 5.16954L17.8522 4.08577C17.8522 3.66197 18.1957 3.31842 18.6195 3.31842Z" fill="black"/>
</svg>
