<svg width="24" height="24" viewBox="0 0 24 24" fill="none" xmlns="http://www.w3.org/2000/svg">
<path d="M5.50999 3.31842C5.12152 3.31842 4.80046 3.6071 4.74965 3.98164L4.74264 4.08577V6.97963C4.74264 7.36811 5.03133 7.68916 5.40587 7.73997L5.50999 7.74698H8.40385C8.82765 7.74698 9.1712 7.40342 9.1712 6.97963C9.1712 6.59115 8.88252 6.27009 8.50798 6.21928L8.40385 6.21228L7.42512 6.21182C10.3378 3.87107 14.6074 4.05209 17.3102 6.75488C20.207 9.65168 20.207 14.3483 17.3102 17.2451C14.4134 20.1419 9.71674 20.1419 6.81994 17.2451C5.05698 15.4822 4.31887 12.9926 4.7819 10.5892C4.86207 10.1731 4.58971 9.77076 4.17357 9.69058C3.75743 9.61041 3.35508 9.88277 3.27491 10.2989C2.71652 13.1972 3.60781 16.2034 5.73475 18.3303C9.23088 21.8265 14.8992 21.8265 18.3954 18.3303C21.8915 14.8342 21.8915 9.16582 18.3954 5.66968C15.0748 2.34907 9.79458 2.18235 6.2772 5.16954L6.27735 4.08577C6.27735 3.66197 5.93379 3.31842 5.50999 3.31842Z" fill="black"/>
</svg>
