<svg width="24" height="24" viewBox="0 0 24 24" fill="none" xmlns="http://www.w3.org/2000/svg">
<path d="M3.39455 20.9154C3.18663 20.8038 3.03904 20.6001 3.0054 20.3601L2.99811 20.2552V12.7513C2.99811 12.3371 3.33389 12.0013 3.74811 12.0013C4.1278 12.0013 4.4416 12.2835 4.49126 12.6495L4.49811 12.7513L4.49711 18.445L19.7192 3.21973C19.9855 2.95343 20.4021 2.92918 20.6958 3.147L20.7799 3.21961C21.0462 3.48584 21.0705 3.9025 20.8526 4.19614L20.78 4.28027L5.55811 19.505L11.2496 19.5052C11.6293 19.5052 11.9431 19.7873 11.9928 20.1534L11.9996 20.2552C11.9996 20.6349 11.7175 20.9487 11.3514 20.9983L11.2496 21.0052L3.68986 21.002C3.60711 20.9965 3.52873 20.9769 3.45617 20.9462L3.39455 20.9154Z" fill="black"/>
</svg>
