<svg width="24" height="24" viewBox="0 0 24 24" fill="none" xmlns="http://www.w3.org/2000/svg">
<path d="M19.25 1.99982C18.8703 1.99982 18.5565 2.28197 18.5068 2.64805L18.5 2.74982V8.43982L13.9257 3.87995C11.4837 1.43801 7.56155 1.37845 5.04739 3.70127L4.86152 3.87995C2.35852 6.38295 2.35852 10.4411 4.86152 12.9441L13.7067 21.7833C13.9997 22.076 14.4744 22.0757 14.7673 21.7828C15.0602 21.4899 15.0599 21.0149 14.7668 20.7221L5.92218 11.8834C4.00497 9.96623 4.00497 6.85782 5.92218 4.94061C7.78129 3.0815 10.7605 3.02517 12.6882 4.7723L12.8658 4.94138L17.438 9.49982L11.75 9.5C11.3703 9.5 11.0565 9.78215 11.0068 10.1482L11 10.25C11 10.6297 11.2822 10.9435 11.6482 10.9932L11.75 11H19.25C19.6297 11 19.9435 10.7178 19.9932 10.3518L20 10.25V2.74982C20 2.3356 19.6642 1.99982 19.25 1.99982Z" fill="black"/>
</svg>
