<svg width="24" height="24" viewBox="0 0 24 24" fill="none" xmlns="http://www.w3.org/2000/svg">
<path d="M13.7481 5.5L21.3019 5.50052L21.4021 5.51444L21.501 5.54205L21.5613 5.5676C21.6405 5.60246 21.7147 5.65315 21.78 5.71836L21.8207 5.7624L21.8642 5.81878L21.9184 5.9089L21.957 5.99922L21.9762 6.0633L21.9898 6.1273L21.9991 6.2215L21.9996 13.7539C21.9996 14.1681 21.6639 14.5039 21.2496 14.5039C20.8699 14.5039 20.5561 14.2217 20.5065 13.8557L20.4996 13.7539L20.4992 8.059L12.7804 15.7793C12.5141 16.0455 12.0974 16.0698 11.8038 15.8519L11.7197 15.7793L8.7492 12.8089L3.27952 18.2786C2.98663 18.5715 2.51175 18.5715 2.21886 18.2786C1.95259 18.0123 1.92839 17.5957 2.14624 17.3021L2.21886 17.2179L8.21886 11.2179C8.48512 10.9517 8.90178 10.9275 9.19539 11.1453L9.27951 11.2179L12.25 14.1883L19.4372 7H13.7481C13.3684 7 13.0546 6.71785 13.005 6.35177L12.9981 6.25C12.9981 5.8703 13.2803 5.55651 13.6463 5.50685L13.7481 5.5Z" fill="black"/>
</svg>
