<svg width="24" height="24" viewBox="0 0 24 24" fill="none" xmlns="http://www.w3.org/2000/svg">
<path d="M11.7716 3.74346C14.1131 1.39988 17.912 1.39988 20.2552 3.74302C22.5383 6.02609 22.5968 9.6913 20.4308 12.0452L20.2427 12.2426L11.4426 21.0408L11.4061 21.071C9.94482 22.3878 7.69082 22.3431 6.28345 20.9357C4.96443 19.6167 4.84231 17.554 5.9171 16.0973C5.94044 16.0519 5.96869 16.0082 6.0019 15.967L6.05546 15.9074L6.14237 15.8197L6.28345 15.6718L6.28637 15.6747L13.7221 8.22035C13.988 7.95373 14.4046 7.92897 14.6985 8.14643L14.7828 8.21894C15.0494 8.48485 15.0741 8.90148 14.8567 9.19538L14.7842 9.2796L7.18956 16.8927C6.47192 17.7683 6.5218 19.0626 7.3392 19.88C8.16826 20.709 9.48791 20.7485 10.3637 19.9984L19.1964 11.1679C20.9519 9.41028 20.9519 6.56104 19.1945 4.80368C17.4921 3.10124 14.7649 3.04804 12.9985 4.64408L12.8306 4.80368L12.818 4.81799L3.2817 14.3543C2.9888 14.6472 2.51393 14.6472 2.22104 14.3543C1.95477 14.0881 1.93056 13.6714 2.14842 13.3778L2.22104 13.2937L11.7699 3.74302L11.7716 3.74346Z" fill="black"/>
</svg>
