<svg width="24" height="24" viewBox="0 0 24 24" fill="none" xmlns="http://www.w3.org/2000/svg">
<path d="M13.461 4.93463C13.7539 5.11826 14.0089 5.35511 14.2133 5.6323L14.3298 5.80336L17.2749 10.499L21.5 10.5C21.8797 10.5 22.1935 10.7821 22.2432 11.1482L22.25 11.25C22.25 11.6642 21.9142 12 21.5 12L18.2159 11.999L18.2216 12.008L18.2129 11.999C19.0111 12.8486 19.5 13.9922 19.5 15.25C19.5 17.8733 17.3734 20 14.75 20C12.1266 20 10 17.8733 10 15.25C10 12.6266 12.1266 10.5 14.75 10.5L15.5059 10.499L13.059 6.60029C12.9588 6.44057 12.8238 6.30558 12.6641 6.20541C12.1182 5.86309 11.4098 5.99427 11.0196 6.4888L10.941 6.60029L3.38539 18.6484C3.16533 18.9994 2.70245 19.1054 2.35153 18.8854C2.03252 18.6853 1.91585 18.2846 2.06261 17.9497L2.11461 17.8515L9.67023 5.80336C10.4771 4.51666 12.1743 4.12772 13.461 4.93463ZM14.75 12C12.9551 12 11.5 13.455 11.5 15.25C11.5 17.0449 12.9551 18.5 14.75 18.5C16.5449 18.5 18 17.0449 18 15.25C18 13.455 16.5449 12 14.75 12Z" fill="black"/>
</svg>
