<svg width="24" height="24" viewBox="0 0 24 24" fill="none" xmlns="http://www.w3.org/2000/svg">
<path d="M7.3746 4.3414C7.68453 3.86397 8.39246 3.89225 8.66332 4.39287C10.2179 7.26622 11.0038 9.47718 11.0038 11.0804C11.0038 12.7659 10.3926 14.0618 9.17394 14.8777C8.82974 15.1081 8.36391 15.0159 8.13347 14.6717C7.90304 14.3275 7.99526 13.8617 8.33945 13.6312C9.11693 13.1107 9.50378 12.2905 9.50378 11.0804C9.50378 10.0216 9.02452 8.48171 8.05662 6.49084L7.88074 6.13483L7.63195 6.40358C7.28859 6.76134 6.89875 7.11686 6.46263 7.47065L6.12687 7.73568L5.21392 8.43262C3.84737 9.51105 3.40809 10.226 3.51453 11.4864C3.6115 12.6345 4.25897 13.3177 5.61743 13.6126C6.23349 12.2559 6.52745 10.9765 6.50914 9.77049C6.50286 9.35633 6.83351 9.01548 7.24768 9.0092C7.66184 9.00291 8.00269 9.33356 8.00897 9.74773C8.0312 11.2121 7.6748 12.7353 6.94803 14.3137C6.18479 15.9713 4.86912 17.1884 3.036 17.947C2.65326 18.1054 2.21459 17.9235 2.05621 17.5407C1.89782 17.158 2.0797 16.7193 2.46243 16.561C3.42639 16.1621 4.19706 15.6238 4.78387 14.9413C3.1239 14.4221 2.16177 13.293 2.01985 11.6126C1.86087 9.73019 2.55649 8.62018 4.29213 7.24942L5.12866 6.6108L5.49813 6.32155C6.33098 5.64837 6.95575 4.98662 7.3746 4.3414ZM11.75 6.00003H17C18.5977 6.00003 19.9037 7.24895 19.9949 8.82375L20 9.00003V10L21.0007 10.0179C21.1828 10.0179 21.3535 10.0666 21.5007 10.1517C21.7663 10.3054 21.9548 10.5778 21.9933 10.8964L22.0007 11.0179V13.0179C22.0007 13.388 21.7996 13.7112 21.5007 13.8841C21.3903 13.9479 21.2667 13.9912 21.1349 14.0089L21.0007 14.0179L20 14V15C20 16.5977 18.7511 17.9037 17.1763 17.9949L17 18H6.75C6.33579 18 6 17.6642 6 17.25C6 16.8703 6.28216 16.5565 6.64823 16.5069L6.75 16.5H17C17.7797 16.5 18.4205 15.9051 18.4931 15.1445L18.5 15V9.00003C18.5 8.22033 17.9051 7.57958 17.1445 7.50689L17 7.50003H11.75C11.3358 7.50003 11 7.16424 11 6.75003C11 6.37033 11.2822 6.05653 11.6482 6.00687L11.75 6.00003H17H11.75Z" fill="black"/>
</svg>
