<svg width="24" height="24" viewBox="0 0 24 24" fill="none" xmlns="http://www.w3.org/2000/svg">
<path d="M17 6C18.6569 6 20 7.34315 20 9V10H21.0003C21.1824 10 21.3532 10.0487 21.5003 10.1338C21.7992 10.3067 22.0003 10.6299 22.0003 11V13C22.0003 13.3701 21.7992 13.6933 21.5003 13.8662C21.3532 13.9513 21.1824 14 21.0003 14H20V15C20 16.6569 18.6569 18 17 18H4.99968C3.34283 18 1.99968 16.6569 1.99968 15V9C1.99968 7.34315 3.34283 6 4.99968 6H17ZM16.9982 7.5H4.99968C4.21998 7.5 3.57923 8.09489 3.50655 8.85554L3.49968 9V15C3.49968 15.7797 4.09457 16.4204 4.85522 16.4931L4.99968 16.5H16.9982C17.7778 16.5 18.4186 15.9051 18.4913 15.1445L18.4982 15V9C18.4982 8.2203 17.9032 7.57955 17.1426 7.50687L16.9982 7.5ZM5.99968 9H10C10.5128 9 10.9355 9.38604 10.9933 9.88338L11 10V14C11 14.5128 10.614 14.9355 10.1166 14.9933L10 15H5.99968C5.48684 15 5.06417 14.614 5.00641 14.1166L4.99968 14V10C4.99968 9.48717 5.38572 9.06449 5.88306 9.00673L5.99968 9H10H5.99968Z" fill="black"/>
</svg>
