<svg width="24" height="24" viewBox="0 0 24 24" fill="none" xmlns="http://www.w3.org/2000/svg">
<path d="M17 6C18.6569 6 20 7.34315 20 9V10H21.0003C21.1824 10 21.3532 10.0487 21.5003 10.1338C21.7992 10.3067 22.0003 10.6299 22.0003 11V13C22.0003 13.3701 21.7992 13.6933 21.5003 13.8662C21.3532 13.9513 21.1824 14 21.0003 14H20V15C20 16.6569 18.6569 18 17 18H4.99968C3.34283 18 1.99968 16.6569 1.99968 15V9C1.99968 7.34315 3.34283 6 4.99968 6H17ZM16.9982 7.5H4.99968C4.21998 7.5 3.57923 8.09489 3.50655 8.85554L3.49968 9V15C3.49968 15.7797 4.09457 16.4204 4.85522 16.4931L4.99968 16.5H16.9982C17.7778 16.5 18.4186 15.9051 18.4913 15.1445L18.4982 15V9C18.4982 8.2203 17.9032 7.57955 17.1426 7.50687L16.9982 7.5ZM6.00299 8.99875H7C7.51284 8.99875 7.93551 9.3848 7.99328 9.88213L8 9.99875V13.9988C8 14.5116 7.61396 14.9343 7.11662 14.992L7 14.9988H6.00299C5.49014 14.9988 5.06748 14.6127 5.00971 14.1154L5.00299 13.9988V9.99875C5.00299 9.48592 5.38903 9.06324 5.88636 9.00548L6.00299 8.99875H7H6.00299Z" fill="black"/>
</svg>
