<svg width="24" height="24" viewBox="0 0 24 24" fill="none" xmlns="http://www.w3.org/2000/svg">
<path d="M8.24396 11.2001C8.47539 11.3327 8.66728 11.5245 8.79986 11.756L12.8092 18.7544C13.221 19.4732 12.9721 20.3897 12.2533 20.8015C12.0263 20.9316 11.7693 21 11.5076 21H3.48898C2.66056 21 1.98898 20.3284 1.98898 19.5C1.98898 19.2384 2.0574 18.9813 2.18744 18.7544L6.19677 11.756C6.60858 11.0371 7.52514 10.7883 8.24396 11.2001ZM7.5 18C7.22385 18 7 18.2239 7 18.5C7 18.7761 7.22385 19 7.5 19C7.77614 19 8 18.7761 8 18.5C8 18.2239 7.77614 18 7.5 18ZM17 6C18.6569 6 20 7.34315 20 9V10H21.0003C21.1824 10 21.3532 10.0487 21.5003 10.1338C21.7992 10.3067 22.0003 10.6299 22.0003 11V13C22.0003 13.3701 21.7992 13.6933 21.5003 13.8662C21.3532 13.9513 21.1824 14 21.0003 14H20V15C20 16.6569 18.6569 18 17 18H13.529L12.67 16.5H16.9981C17.7778 16.5 18.4186 15.9051 18.4913 15.1445L18.4981 15V9C18.4981 8.2203 17.9032 7.57955 17.1426 7.50687L16.9981 7.5H4.99967C4.21997 7.5 3.57922 8.09489 3.50654 8.85554L3.49967 9L3.49898 14.453L2.36432 16.4347C2.13181 16.0085 1.99967 15.5197 1.99967 15V9C1.99967 7.34315 3.34282 6 4.99967 6H17ZM7.49832 13C7.25286 13 7.04871 13.1769 7.00637 13.4101L6.99832 13.5V16.5L7.00637 16.5899C7.04871 16.8231 7.25286 17 7.49832 17C7.74378 17 7.94792 16.8231 7.99026 16.5899L7.99832 16.5V13.5L7.99026 13.4101C7.94792 13.1769 7.74378 13 7.49832 13Z" fill="black"/>
</svg>
