<svg width="24" height="24" viewBox="0 0 24 24" fill="none" xmlns="http://www.w3.org/2000/svg">
<path d="M12.0007 2.00073C17.5236 2.00073 22.0007 6.47788 22.0007 12.0007C22.0007 17.5236 17.5236 22.0007 12.0007 22.0007C6.47785 22.0007 2.0007 17.5236 2.0007 12.0007C2.0007 6.47788 6.47785 2.00073 12.0007 2.00073ZM12.0007 3.50073C7.30628 3.50073 3.5007 7.30631 3.5007 12.0007C3.5007 16.6952 7.30628 20.5007 12.0007 20.5007C16.6951 20.5007 20.5007 16.6952 20.5007 12.0007C20.5007 7.30631 16.6951 3.50073 12.0007 3.50073ZM7.75 11.25H16.25C16.6642 11.25 17 11.5858 17 12C17 12.3797 16.7178 12.6935 16.3518 12.7432L16.25 12.75H7.75C7.33578 12.75 7 12.4142 7 12C7 11.6203 7.28215 11.3065 7.64823 11.2569L7.75 11.25H16.25H7.75Z" fill="black"/>
</svg>
