<svg width="24" height="24" viewBox="0 0 24 24" fill="none" xmlns="http://www.w3.org/2000/svg">
<path d="M5.27645 4.22501L9.00311 7.9519L9.00364 7.9379L10.5036 9.4389L10.5031 9.4519L11.4461 10.3959L11.4546 10.3899L12.5196 11.4549L12.5111 11.4609L19.7718 18.721C20.0647 19.0139 20.0647 19.4888 19.7718 19.7817C19.4789 20.0745 19.004 20.0745 18.7112 19.7816L14.8061 15.8759L10.3055 20.7552C9.86683 21.2306 9.09146 20.9616 9.01106 20.3514L9.00427 20.2466V14.3845L7.88374 15.3181C7.56551 15.5832 7.09259 15.5402 6.82745 15.222C6.58641 14.9327 6.60006 14.5155 6.84363 14.2429L6.92357 14.1657L9.00427 12.4321L9.00311 10.0729L4.21577 5.28565C3.92288 4.99275 3.92289 4.51787 4.21579 4.22499C4.50869 3.9321 4.98356 3.93211 5.27645 4.22501ZM11.3551 12.4249L10.5043 13.1347V18.3277L13.7451 14.8149L11.3551 12.4249ZM10.2293 3.17231L10.3054 3.2447L15.017 8.34902C15.2839 8.63809 15.2789 9.07799 15.0222 9.3609L14.946 9.43394L13.6756 10.4909L12.6106 9.4259L13.3796 8.78662L10.5043 5.67165L10.5036 7.3179L9.00364 5.8169L9.00427 3.75341C9.00427 3.14255 9.67515 2.81594 10.1481 3.11329L10.2293 3.17231Z" fill="black"/>
</svg>
