<svg width="24" height="24" viewBox="0 0 24 24" fill="none" xmlns="http://www.w3.org/2000/svg">
<path d="M9.00427 9.60805V3.7534C9.00427 3.1066 9.7564 2.77849 10.2293 3.1723L10.3054 3.24469L15.017 8.349C15.2839 8.63808 15.2789 9.07798 15.0223 9.36089L14.946 9.43392L11.8692 11.9975L14.9463 14.564C15.2483 14.8158 15.3006 15.2524 15.0832 15.5662L15.0172 15.6485L10.3055 20.7552C9.86683 21.2306 9.09146 20.9616 9.01106 20.3514L9.00427 20.2466V14.3845L7.88374 15.3181C7.56551 15.5832 7.09259 15.5402 6.82745 15.222C6.58641 14.9327 6.60006 14.5155 6.84363 14.2429L6.92357 14.1657L9.00427 12.4321V11.5613L6.92328 9.82565C6.60518 9.56035 6.56239 9.08741 6.82769 8.76931C7.06888 8.48013 7.48167 8.41847 7.79372 8.60898L7.88404 8.67373L9.00427 9.60805V3.7534V9.60805ZM10.6976 12.9736L10.5043 13.1347V18.3277L13.38 15.2109L10.6976 12.9736ZM16 11C16.5523 11 17 11.4477 17 12C17 12.5523 16.5523 13 16 13C15.4477 13 15 12.5523 15 12C15 11.4477 15.4477 11 16 11ZM5 11C5.55228 11 6 11.4477 6 12C6 12.5523 5.55228 13 5 13C4.44772 13 4 12.5523 4 12C4 11.4477 4.44772 11 5 11ZM10.5043 5.67164V10.8591L10.6981 11.0208L13.3796 8.78661L10.5043 5.67164Z" fill="black"/>
</svg>
