<svg width="24" height="24" viewBox="0 0 24 24" fill="none" xmlns="http://www.w3.org/2000/svg">
<path d="M9.00427 9.60806V3.75341C9.00427 3.10661 9.7564 2.7785 10.2293 3.17231L10.3054 3.2447L15.017 8.34902C15.2839 8.63809 15.2789 9.07799 15.0223 9.3609L14.946 9.43394L11.8692 11.9975L14.9463 14.564C15.2483 14.8158 15.3006 15.2524 15.0832 15.5662L15.0172 15.6485L10.3055 20.7552C9.86683 21.2306 9.09146 20.9616 9.01106 20.3514L9.00427 20.2466V14.3845L7.88375 15.3181C7.56551 15.5832 7.09259 15.5402 6.82745 15.222C6.58641 14.9327 6.60006 14.5155 6.84363 14.2429L6.92357 14.1657L9.00427 12.4321V11.5613L6.92328 9.82567C6.60518 9.56036 6.56239 9.08742 6.82769 8.76932C7.06888 8.48014 7.48167 8.41849 7.79372 8.60899L7.88404 8.67374L9.00427 9.60806V3.75341V9.60806ZM10.6976 12.9736L10.5043 13.1347V18.3277L13.38 15.2109L10.6976 12.9736ZM18.2699 7.37152C18.5852 7.10291 19.0586 7.14077 19.3272 7.45609C20.3983 8.71346 20.9971 10.3089 20.9971 11.9949C20.9971 13.686 20.3946 15.2861 19.3174 16.5451C19.0481 16.8599 18.5747 16.8967 18.2599 16.6274C17.9452 16.3581 17.9083 15.8847 18.1776 15.57C19.0245 14.5802 19.4971 13.325 19.4971 11.9949C19.4971 10.6688 19.0274 9.41728 18.1854 8.4288C17.9167 8.11349 17.9546 7.64013 18.2699 7.37152ZM16.2752 9.18476C16.5905 8.91615 17.0639 8.95401 17.3325 9.26933C17.9762 10.0249 18.3362 10.9842 18.3362 11.9972C18.3362 13.0133 17.9739 13.9754 17.3266 14.7319C17.0573 15.0466 16.5839 15.0835 16.2692 14.8142C15.9544 14.5449 15.9176 14.0715 16.1869 13.7567C16.6038 13.2694 16.8362 12.6522 16.8362 11.9972C16.8362 11.3441 16.6052 10.7287 16.1907 10.242C15.9221 9.92673 15.9599 9.45337 16.2752 9.18476ZM10.5043 5.67165V10.8591L10.6981 11.0208L13.3796 8.78662L10.5043 5.67165Z" fill="black"/>
</svg>
