<svg width="24" height="24" viewBox="0 0 24 24" fill="none" xmlns="http://www.w3.org/2000/svg">
<path d="M10.6976 12.9736L13.38 15.2109L10.5043 18.3277V13.1347L10.6976 12.9736ZM11.8692 11.9975L14.946 9.43392C15.2757 9.15921 15.3081 8.66436 15.017 8.349L10.3054 3.24469C9.84229 2.74302 9.00427 3.07067 9.00427 3.7534V9.60805L7.88404 8.67372C7.56594 8.40842 7.093 8.45121 6.82769 8.76931C6.56239 9.08741 6.60518 9.56035 6.92328 9.82565L9.00427 11.5613V12.4321L6.92357 14.1657C6.60534 14.4308 6.56231 14.9037 6.82745 15.222C7.09259 15.5402 7.56551 15.5832 7.88375 15.3181L9.00427 14.3845V20.2466C9.00427 20.9294 9.84246 21.257 10.3055 20.7552L15.0172 15.6485C15.308 15.3333 15.2757 14.8387 14.9463 14.564L11.8692 11.9975ZM10.6981 11.0208L10.5043 10.8591V5.67164L13.3796 8.78661L10.6981 11.0208Z" fill="black"/>
</svg>
