<svg width="24" height="24" viewBox="0 0 24 24" fill="none" xmlns="http://www.w3.org/2000/svg">
<path d="M18.2514 2.49821C19.9844 2.49821 21.4007 3.85453 21.4963 5.56368L21.5014 5.7481L21.5008 17.7519C21.5006 19.5468 20.0456 21.0018 18.2507 21.0018H6.25006C4.51701 21.0018 3.10076 19.6455 3.00514 17.9364L3 17.7519L3.0006 5.74812C3.00081 3.95329 4.45582 2.49821 6.25065 2.49821H18.2514ZM11.5 9.49821L4.5 9.49921L4.5001 17.7519L4.50728 17.9126C4.58839 18.8038 5.33765 19.5018 6.25 19.5018L11.5 19.5012V9.49821ZM20 15.4982L13 15.4992V19.5012L18.2506 19.5018C19.2172 19.5018 20.0007 18.7183 20.0008 17.7518L20 15.4982ZM18.2514 3.99821L13 3.99721V13.9992L20 13.9982L20.0013 5.74818L19.9941 5.58745C19.913 4.69625 19.1638 3.99821 18.2514 3.99821ZM11.5 3.99721L6.25073 3.99821L6.10723 4.00402C5.20785 4.07709 4.50071 4.8301 4.5006 5.74824L4.5 7.99921L11.5 7.99821V3.99721Z" fill="black"/>
</svg>
