<svg width="24" height="24" viewBox="0 0 24 24" fill="none" xmlns="http://www.w3.org/2000/svg">
<path d="M6.19053 21.8539C5.69439 22.2109 5.00252 21.8563 5.00252 21.2451V6.24921C5.00252 4.45428 6.45759 2.99921 8.25252 2.99921H15.7509C17.5458 2.99921 19.0009 4.45428 19.0009 6.24921V21.2451C19.0009 21.8563 18.309 22.2109 17.8129 21.8539L12.0017 17.673L6.19053 21.8539ZM17.5009 6.24921C17.5009 5.28271 16.7174 4.49921 15.7509 4.49921H8.25252C7.28602 4.49921 6.50252 5.28271 6.50252 6.24921V19.7816L11.5637 16.1402C11.8254 15.952 12.1781 15.952 12.4397 16.1402L17.5009 19.7816V6.24921Z" fill="black"/>
</svg>
