<svg width="24" height="24" viewBox="0 0 24 24" fill="none" xmlns="http://www.w3.org/2000/svg">
<path d="M17.5 12C20.5376 12 23 14.4624 23 17.5C23 20.5376 20.5376 23 17.5 23C14.4624 23 12 20.5376 12 17.5C12 14.4624 14.4624 12 17.5 12ZM12.0223 13.9993C11.7256 14.4626 11.486 14.966 11.3136 15.4996L4.25354 15.4999C3.83933 15.4999 3.50354 15.8357 3.50354 16.2499V17.1572C3.50354 17.8129 3.78953 18.4359 4.28671 18.8634C5.54479 19.945 7.4408 20.5011 10 20.5011C10.5988 20.5011 11.1614 20.4706 11.6881 20.4101C11.9371 20.9103 12.2509 21.374 12.6171 21.7905C11.8149 21.9313 10.942 22.0011 10 22.0011C7.1105 22.0011 4.87168 21.3445 3.30882 20.0008C2.48019 19.2884 2.00354 18.25 2.00354 17.1572V16.2499C2.00354 15.0073 3.0109 13.9999 4.25354 13.9999L12.0223 13.9993ZM17.5 13.9992L17.4101 14.0073C17.206 14.0443 17.0451 14.2053 17.0081 14.4094L17 14.4992L16.9996 16.9992L14.4976 17L14.4078 17.0081C14.2037 17.0451 14.0427 17.206 14.0057 17.4101L13.9976 17.5L14.0057 17.5899C14.0427 17.794 14.2037 17.9549 14.4078 17.9919L14.4976 18L17.0006 17.9992L17.0011 20.5035L17.0092 20.5934C17.0462 20.7974 17.2071 20.9584 17.4112 20.9954L17.5011 21.0035L17.591 20.9954C17.7951 20.9584 17.956 20.7974 17.993 20.5934L18.0011 20.5035L18.0006 17.9992L20.5046 18L20.5944 17.9919C20.7985 17.9549 20.9595 17.794 20.9965 17.5899L21.0046 17.5L20.9965 17.4101C20.9595 17.206 20.7985 17.0451 20.5944 17.0081L20.5046 17L17.9996 16.9992L18 14.4992L17.9919 14.4094C17.9549 14.2053 17.794 14.0443 17.5899 14.0073L17.5 13.9992ZM10.0003 2.00049C10.38 2.00049 10.6938 2.28264 10.7435 2.64872L10.7503 2.75049L10.7495 3.49949L14.25 3.49999C15.4926 3.49999 16.5 4.50735 16.5 5.74999V10.2546C16.5 10.5557 16.4408 10.8431 16.3335 11.1056C15.2082 11.3083 14.1841 11.8018 13.3407 12.5048L5.75 12.5046C4.50736 12.5046 3.5 11.4972 3.5 10.2546V5.74999C3.5 4.50735 4.50736 3.49999 5.75 3.49999L9.24954 3.49949L9.25033 2.75049C9.25033 2.40531 9.48352 2.1146 9.80095 2.02728L9.89856 2.00733L10.0003 2.00049ZM14.25 4.99999H5.75C5.33578 4.99999 5 5.33578 5 5.74999V10.2546C5 10.6688 5.33578 11.0046 5.75 11.0046H14.25C14.6642 11.0046 15 10.6688 15 10.2546V5.74999C15 5.33578 14.6642 4.99999 14.25 4.99999ZM7.74929 6.49999C8.43925 6.49999 8.99858 7.05932 8.99858 7.74928C8.99858 8.43925 8.43925 8.99857 7.74929 8.99857C7.05932 8.99857 6.5 8.43925 6.5 7.74928C6.5 7.05932 7.05932 6.49999 7.74929 6.49999ZM12.242 6.49999C12.932 6.49999 13.4913 7.05932 13.4913 7.74928C13.4913 8.43925 12.932 8.99857 12.242 8.99857C11.5521 8.99857 10.9927 8.43925 10.9927 7.74928C10.9927 7.05932 11.5521 6.49999 12.242 6.49999Z" fill="black"/>
</svg>
