<svg width="24" height="24" viewBox="0 0 24 24" fill="none" xmlns="http://www.w3.org/2000/svg">
<path d="M14.25 2.00137C14.6297 2.00137 14.9435 2.28352 14.9932 2.6496L15 2.75137V3.50348C15 4.13624 14.8041 4.72325 14.4696 5.20717C15.9231 5.70563 16.9733 7.07409 16.9995 8.69146C17.1307 8.57105 17.3068 8.498 17.5 8.498L18.2469 8.49798C19.4895 8.49284 20.4927 7.48133 20.4876 6.2387L20.4814 4.7531C20.4797 4.33889 20.8141 4.00172 21.2283 4C21.6425 3.99829 21.9797 4.33269 21.9814 4.7469L21.9876 6.23249C21.9958 8.23674 20.4302 9.88024 18.4522 9.99194L18.2376 9.998H17.5C17.3078 9.998 17.1324 9.92566 16.9997 9.80673L17 11.5H21.2514C21.6656 11.5 22.0014 11.8358 22.0014 12.25C22.0014 12.6297 21.7193 12.9435 21.3532 12.9932L21.2514 13H17V14.9994L17.2376 15L17.4522 15.0061C19.3643 15.114 20.891 16.6534 20.9832 18.5663L20.9876 18.7655L20.9814 20.2511C20.9797 20.6653 20.6425 20.9997 20.2283 20.998C19.8486 20.9964 19.536 20.713 19.4878 20.3467L19.4814 20.2449L19.4876 18.7593C19.4925 17.5684 18.5714 16.5898 17.4009 16.5058L17.2469 16.5L16.7713 16.5C16.1343 18.5288 14.239 20.0005 12 20.0005C9.76098 20.0005 7.86569 18.5288 7.22873 16.5L6.7407 16.5C5.49807 16.5052 4.49488 17.5167 4.50002 18.7593L4.50616 20.2449C4.50787 20.6591 4.17348 20.9963 3.75927 20.998C3.34506 20.9997 3.00789 20.6653 3.00617 20.2511L3 18.7655C2.99175 16.7613 4.55733 15.1178 6.53536 15.0061L6.75 15L7 14.9994V13H2.75C2.33579 13 2 12.6642 2 12.25C2 11.8703 2.28215 11.5565 2.64823 11.5068L2.75 11.5H7V9.99737L6.75 9.998L6.53536 9.99194C4.62326 9.88396 3.09658 8.3446 3.00438 6.43167L3 6.23249L3.00617 4.7469C3.00789 4.33269 3.34506 3.99829 3.75927 4C4.13896 4.00157 4.45159 4.28502 4.49973 4.6513L4.50616 4.7531L4.50002 6.2387C4.4951 7.42955 5.41622 8.40815 6.58667 8.49215L6.7407 8.49798L7.00857 8.4979C7.1117 6.96565 8.13521 5.68563 9.53089 5.20609C9.23312 4.7769 9.04525 4.2654 9.00718 3.71262L9 3.50348V2.75137C9 2.33715 9.33579 2.00137 9.75 2.00137C10.1297 2.00137 10.4435 2.28352 10.4932 2.6496L10.5 2.75137V3.50348C10.5 4.3319 11.1716 5.00348 12 5.00348C12.7797 5.00348 13.4204 4.40859 13.4931 3.64794L13.5 3.50348V2.75137C13.5 2.33715 13.8358 2.00137 14.25 2.00137ZM13.25 6.50348H10.75C9.50736 6.50348 8.5 7.51084 8.5 8.75348V15.0005C8.5 16.9335 10.067 18.5005 12 18.5005C13.933 18.5005 15.5 16.9335 15.5 15.0005V8.75348C15.5 7.51084 14.4926 6.50348 13.25 6.50348Z" fill="black"/>
</svg>
