<svg width="24" height="24" viewBox="0 0 24 24" fill="none" xmlns="http://www.w3.org/2000/svg">
<path d="M17.5 12C20.5376 12 23 14.4624 23 17.5C23 20.5376 20.5376 23 17.5 23C14.4624 23 12 20.5376 12 17.5C12 14.4624 14.4624 12 17.5 12ZM17.75 3C19.5449 3 21 4.45507 21 6.25L21.0012 12.0226C20.5378 11.7257 20.0342 11.4861 19.5004 11.3136L19.5 8.5H4.5V17.75C4.5 18.7165 5.2835 19.5 6.25 19.5L11.3136 19.5004C11.4861 20.0342 11.7257 20.5378 12.0226 21.0012L6.25 21C4.45507 21 3 19.5449 3 17.75V6.25C3 4.45507 4.45507 3 6.25 3H17.75ZM20.1465 15.1464L16.0541 19.2388L14.9 17.7C14.7343 17.4791 14.4209 17.4343 14.2 17.6C13.9791 17.7657 13.9343 18.0791 14.1 18.3L15.6 20.3C15.7826 20.5434 16.1384 20.5687 16.3536 20.3535L20.8536 15.8535C21.0488 15.6583 21.0488 15.3417 20.8536 15.1464C20.6583 14.9512 20.3417 14.9512 20.1465 15.1464ZM17.75 4.5H6.25C5.2835 4.5 4.5 5.2835 4.5 6.25V7H19.5V6.25C19.5 5.2835 18.7165 4.5 17.75 4.5Z" fill="black"/>
</svg>
