<svg width="24" height="24" viewBox="0 0 24 24" fill="none" xmlns="http://www.w3.org/2000/svg">
<path d="M12 11C15.0376 11 17.5 13.4624 17.5 16.5C17.5 19.5376 15.0376 22 12 22C8.96244 22 6.5 19.5376 6.5 16.5C6.5 13.4624 8.96244 11 12 11ZM11.5 12.9992C11.2515 12.9992 11.0453 13.203 11.0065 13.4701L11 13.5612L11.0011 16.9665L11 17C11 17.2455 11.1766 17.4496 11.4095 17.4919L11.4992 17.5H14.5013L14.5911 17.4919C14.7949 17.4549 14.9555 17.294 14.9925 17.0899L15.0006 17L14.9925 16.9101C14.9555 16.706 14.7949 16.5451 14.5911 16.5081L14.5013 16.5L12.001 16.4992L12 13.5612L11.9935 13.4701C11.9547 13.203 11.7485 12.9992 11.5 12.9992ZM12.0144 2.49593C15.9573 2.49593 18.8898 3.33771 20.7899 5.06515C21.7447 5.93314 22.1825 7.2269 21.961 8.48805L21.9179 8.69786L21.726 9.51447C21.41 10.8591 20.1455 11.7607 18.7713 11.6213L17.0167 11.4432C15.8454 11.3244 14.8796 10.4731 14.6148 9.32588L14.2256 7.63994C14.2105 7.57453 14.1697 7.51795 14.1124 7.48292C13.791 7.28638 13.0787 7.16345 12.0144 7.16345C10.5495 7.16345 9.86159 7.39276 9.82259 7.55637L9.41396 9.32635C9.14918 10.4732 8.18389 11.3244 7.01292 11.4436L5.26722 11.6213C3.89664 11.7608 2.63432 10.8646 2.31407 9.52469L2.11876 8.7075C1.80042 7.3756 2.23342 5.97609 3.24828 5.05666C5.14873 3.33494 8.07806 2.49593 12.0144 2.49593ZM12.0144 3.99593C8.41697 3.99593 5.83789 4.73462 4.25538 6.16831C3.64646 6.71996 3.38667 7.55967 3.57767 8.35881L3.77298 9.176C3.91855 9.78506 4.49233 10.1924 5.11532 10.129L6.86102 9.95131C7.39328 9.89713 7.83205 9.51022 7.9524 8.98892L8.36223 7.21384C8.63151 6.08361 9.89198 5.66345 12.0144 5.66345C13.3324 5.66345 14.2796 5.82693 14.895 6.20322C15.2959 6.44842 15.5814 6.84461 15.6871 7.30255L16.0764 8.98846C16.1967 9.5099 16.6357 9.89686 17.1681 9.95088L18.9227 10.1289C19.5474 10.1923 20.1221 9.78249 20.2658 9.17129L20.4577 8.35468L20.491 8.18373C20.6059 7.4414 20.3424 6.68551 19.7809 6.17505C18.199 4.73693 15.6176 3.99593 12.0144 3.99593Z" fill="black"/>
</svg>
