<svg width="24" height="24" viewBox="0 0 24 24" fill="none" xmlns="http://www.w3.org/2000/svg">
<path d="M9.52544 3.57168L10.4271 5.5774C10.9098 6.65123 10.6554 7.91324 9.79439 8.71619L8.30009 10.1096C8.25641 10.1504 8.22876 10.2054 8.22213 10.2647C8.17778 10.6619 8.447 11.4353 9.06727 12.5096C9.51832 13.2909 9.92657 13.8387 10.2741 14.1469C10.5162 14.3616 10.6494 14.408 10.7062 14.3911L12.7165 13.7765C13.8421 13.4323 15.0619 13.8427 15.7506 14.7972L17.0313 16.5722C17.8374 17.6894 17.6925 19.2307 16.6922 20.178L15.8058 21.0174C14.8494 21.9232 13.4879 22.2607 12.2191 21.9066C9.46503 21.1378 6.99572 18.8137 4.78384 14.9826C2.56889 11.1462 1.7917 7.8418 2.50815 5.07001C2.81781 3.872 3.69677 2.90866 4.85024 2.48678L5.05658 2.41802L6.22358 2.06626C7.54608 1.66762 8.95908 2.31185 9.52544 3.57168ZM6.65648 3.50243L5.48948 3.85419L5.33092 3.90849C4.65597 4.16804 4.14309 4.73866 3.96042 5.44539C3.35777 7.7769 4.04663 10.7058 6.08288 14.2326C8.11641 17.7548 10.3054 19.8151 12.6224 20.4618C13.3836 20.6743 14.2006 20.4718 14.7744 19.9283L15.6608 19.0889C16.1154 18.6583 16.1813 17.9577 15.8149 17.4499L14.5342 15.6749C14.2211 15.241 13.6667 15.0545 13.155 15.2109L11.1397 15.8271C9.97 16.1757 8.90832 15.2343 7.76823 13.2596C6.99993 11.9289 6.64183 10.9002 6.7314 10.0982C6.7778 9.6828 6.97137 9.2977 7.27709 9.01261L8.77139 7.61916C9.16278 7.25418 9.27842 6.68054 9.05899 6.19244L8.15732 4.18671C7.89989 3.61406 7.25762 3.32123 6.65648 3.50243ZM20.25 10.9987L13.6964 10.9982L13.597 10.9845L13.495 10.9559L13.4472 10.9357C13.3637 10.9003 13.2861 10.8483 13.2183 10.7805C13.175 10.7372 13.1381 10.6899 13.1076 10.6399L13.0588 10.5441L13.0338 10.4779L13.0102 10.3825L12.999 10.2774L12.9985 3.74481C12.9985 3.3306 13.3343 2.99481 13.7485 2.99481C14.1282 2.99481 14.442 3.27697 14.4916 3.64304L14.4985 3.74481L14.4976 8.4388L20.7185 2.2155C20.9847 1.94916 21.4013 1.92485 21.695 2.14263L21.7791 2.21523C22.0455 2.48142 22.0698 2.89808 21.852 3.19175L21.7794 3.27589L15.5596 9.4978L20.25 9.4987C20.6297 9.4987 20.9435 9.78086 20.9932 10.1469L21 10.2487C21 10.6284 20.7179 10.9422 20.3518 10.9919L20.25 10.9987Z" fill="black"/>
</svg>
