<svg width="24" height="24" viewBox="0 0 24 24" fill="none" xmlns="http://www.w3.org/2000/svg">
<path d="M9.52544 3.57168L10.4271 5.5774C10.9098 6.65123 10.6554 7.91323 9.79439 8.71618L8.30009 10.1096C8.25641 10.1504 8.22876 10.2054 8.22213 10.2647C8.17778 10.6619 8.447 11.4353 9.06727 12.5096C9.51832 13.2908 9.92657 13.8387 10.2741 14.1469C10.5162 14.3615 10.6494 14.408 10.7062 14.3911L12.7165 13.7765C13.8421 13.4323 15.0619 13.8427 15.7506 14.7972L17.0313 16.5722C17.8374 17.6894 17.6925 19.2307 16.6922 20.178L15.8058 21.0174C14.8494 21.9232 13.4879 22.2607 12.2191 21.9066C9.46503 21.1378 6.99572 18.8137 4.78384 14.9826C2.56889 11.1462 1.7917 7.84179 2.50815 5.07C2.83602 3.80152 3.80215 2.79613 5.05658 2.41801L6.22358 2.06625C7.54608 1.66761 8.95908 2.31185 9.52544 3.57168ZM6.65648 3.50242L5.48948 3.85419C4.73682 4.08106 4.15715 4.68429 3.96042 5.44538C3.35777 7.7769 4.04663 10.7058 6.08288 14.2326C8.11641 17.7548 10.3054 19.8151 12.6224 20.4618C13.3836 20.6743 14.2006 20.4718 14.7744 19.9283L15.6608 19.0889C16.1154 18.6583 16.1813 17.9577 15.8149 17.4499L14.5342 15.6749C14.2211 15.241 13.6667 15.0545 13.155 15.2109L11.1397 15.8271C9.97 16.1757 8.90832 15.2343 7.76823 13.2596C6.99993 11.9289 6.64183 10.9002 6.7314 10.0982C6.7778 9.6828 6.97137 9.29769 7.27709 9.0126L8.77139 7.61915C9.16278 7.25417 9.27842 6.68053 9.05899 6.19243L8.15732 4.18671C7.89989 3.61406 7.25762 3.32122 6.65648 3.50242ZM17.1485 2.00387L17.2502 1.99702C17.6299 1.99702 17.9437 2.27918 17.9934 2.64525L18.0002 2.74702L17.9996 6.00079L21.252 6.00167C21.6317 6.00167 21.9455 6.28383 21.9951 6.6499L22.002 6.75167C22.002 7.13137 21.7198 7.44516 21.3537 7.49483L21.252 7.50167L17.9996 7.50079L18.0002 10.75C18.0002 11.1297 17.7181 11.4435 17.352 11.4931L17.2502 11.5C16.8705 11.5 16.5567 11.2178 16.5071 10.8518L16.5002 10.75L16.4996 7.50079L13.2485 7.50167C12.8688 7.50167 12.555 7.21952 12.5053 6.85344L12.4985 6.75167C12.4985 6.37198 12.7806 6.05818 13.1467 6.00852L13.2485 6.00167L16.4996 6.00079L16.5002 2.74702C16.5002 2.36733 16.7824 2.05353 17.1485 2.00387L17.2502 1.99702L17.1485 2.00387Z" fill="black"/>
</svg>
