<svg width="24" height="24" viewBox="0 0 24 24" fill="none" xmlns="http://www.w3.org/2000/svg">
<path d="M9.98012 2.05442L10.2016 2.0995L11.0179 2.29134C12.3625 2.60736 13.2641 3.87178 13.1246 5.24601L12.9467 7.00018C12.8278 8.17152 11.9765 9.13725 10.8293 9.40209L9.14371 9.79124C9.07826 9.80636 9.02165 9.84716 8.98662 9.90446C8.79014 10.2259 8.66724 10.938 8.66724 12.0021C8.66724 12.7883 8.73328 13.3877 8.85546 13.7879C8.89834 13.9284 8.94032 14.0262 8.97116 14.089L9.02 14.1796L9.06008 14.1937L10.8298 14.6023C11.9766 14.8671 12.8278 15.8324 12.947 17.0033L13.1247 18.7486C13.2642 20.1192 12.368 21.3815 11.0281 21.7018L10.2112 21.897C8.87929 22.2153 7.47972 21.7823 6.56031 20.7673C4.83887 18.867 4 15.938 4 12.0021C4 8.05981 4.84164 5.1276 6.56881 3.22759C7.43411 2.27571 8.72262 1.83763 9.98012 2.05442ZM7.67875 4.23657C6.24088 5.81833 5.5 8.39949 5.5 12.0021C5.5 15.5991 6.23856 18.1779 7.672 19.7603C8.22365 20.3692 9.06339 20.6291 9.86256 20.4381L10.6794 20.2428C11.2884 20.0973 11.6958 19.5235 11.6324 18.9005L11.4547 17.1552C11.4006 16.623 11.0137 16.1842 10.4924 16.0639L8.67217 15.6418L8.53664 15.5988C7.53818 15.223 7.16724 14.0078 7.16724 12.0021C7.16724 10.6845 7.33067 9.7374 7.70682 9.1221C7.95199 8.72104 8.3482 8.43547 8.80625 8.3297L10.4919 7.94054C11.0133 7.82015 11.4003 7.38119 11.4543 6.84876L11.6323 5.09458C11.6957 4.46994 11.2859 3.8952 10.6747 3.75155L9.85844 3.55972L9.68748 3.52644C8.94512 3.41152 8.1892 3.67504 7.67875 4.23657ZM15.6471 7.30373L15.7197 7.21962C15.986 6.95339 16.4027 6.92923 16.6963 7.14713L16.7804 7.21975L20.777 11.2174C21.0431 11.4835 21.0674 11.8998 20.8499 12.1934L20.7774 12.2775L16.7808 16.281C16.4881 16.5741 16.0133 16.5745 15.7201 16.2819C15.4536 16.0159 15.4291 15.5992 15.6467 15.3054L15.7192 15.2212L18.43 12.5049L12.0005 12.505C11.6208 12.505 11.3071 12.2228 11.2574 11.8567L11.2505 11.755C11.2505 11.3753 11.5327 11.0615 11.8988 11.0118L12.0005 11.005L18.443 11.0049L15.7196 8.28028C15.4534 8.01398 15.4292 7.59731 15.6471 7.30373L15.7197 7.21962L15.6471 7.30373Z" fill="black"/>
</svg>
