<svg width="24" height="24" viewBox="0 0 24 24" fill="none" xmlns="http://www.w3.org/2000/svg">
<path d="M9.52544 3.57168L10.4271 5.5774C10.9098 6.65123 10.6554 7.91324 9.79439 8.71619L8.30009 10.1096C8.25641 10.1504 8.22876 10.2054 8.22213 10.2647C8.17778 10.6619 8.447 11.4353 9.06727 12.5096C9.51832 13.2909 9.92657 13.8387 10.2741 14.1469C10.5162 14.3616 10.6494 14.408 10.7062 14.3911L12.7165 13.7765C13.8421 13.4323 15.0619 13.8427 15.7506 14.7972L17.0313 16.5722C17.8374 17.6894 17.6925 19.2307 16.6922 20.178L15.8058 21.0174C14.8494 21.9232 13.4879 22.2607 12.2191 21.9066C9.46503 21.1378 6.99572 18.8137 4.78384 14.9826C2.56889 11.1462 1.7917 7.8418 2.50815 5.07001C2.81781 3.872 3.69677 2.90866 4.85024 2.48679L5.05658 2.41802L6.22358 2.06626C7.54608 1.66762 8.95908 2.31185 9.52544 3.57168ZM6.65648 3.50243L5.48948 3.85419L5.33092 3.90849C4.65597 4.16805 4.14309 4.73866 3.96042 5.44539C3.35777 7.77691 4.04663 10.7058 6.08288 14.2326C8.11641 17.7548 10.3054 19.8151 12.6224 20.4618C13.3836 20.6743 14.2006 20.4718 14.7744 19.9283L15.6608 19.0889C16.1154 18.6583 16.1813 17.9577 15.8149 17.4499L14.5342 15.6749C14.2211 15.241 13.6667 15.0545 13.155 15.2109L11.1397 15.8271C9.97 16.1757 8.90832 15.2343 7.76823 13.2596C6.99993 11.9289 6.64183 10.9002 6.7314 10.0982C6.7778 9.6828 6.97137 9.2977 7.27709 9.01261L8.77139 7.61916C9.16278 7.25418 9.27842 6.68054 9.05899 6.19244L8.15732 4.18672C7.89989 3.61407 7.25762 3.32123 6.65648 3.50243ZM14.7481 2.00124L21.264 2.00143C21.2897 2.00062 21.3156 2.00244 21.3413 2.00558L21.4028 2.01587L21.4979 2.04224L21.5865 2.07983L21.6539 2.11945C21.6984 2.14662 21.7408 2.18047 21.7798 2.21953C21.8183 2.25802 21.8518 2.29964 21.8802 2.34359L21.9222 2.41772L21.964 2.5211L21.9881 2.61848L21.999 2.7194L21.9996 9.25519C21.9996 9.6694 21.6639 10.0052 21.2496 10.0052C20.8699 10.0052 20.5562 9.72303 20.5065 9.35696L20.4996 9.25519L20.4996 4.5608L14.2797 10.7845C14.0135 11.0508 13.5968 11.0752 13.3031 10.8574L13.219 10.7848C12.9527 10.5186 12.9284 10.1019 13.1461 9.80825L13.2187 9.72412L19.4386 3.5008L14.7481 3.5013C14.3684 3.5013 14.0546 3.21914 14.005 2.85307L13.9981 2.7513C13.9981 2.33708 14.3339 2.00124 14.7481 2.00124Z" fill="black"/>
</svg>
