<svg width="24" height="24" viewBox="0 0 24 24" fill="none" xmlns="http://www.w3.org/2000/svg">
<path d="M9.52544 3.57168L10.4271 5.5774C10.9098 6.65123 10.6554 7.91323 9.79439 8.71618L8.30009 10.1096C8.25641 10.1504 8.22876 10.2054 8.22213 10.2647C8.17778 10.6619 8.447 11.4353 9.06727 12.5096C9.51832 13.2908 9.92657 13.8387 10.2741 14.1469C10.5162 14.3615 10.6494 14.408 10.7062 14.3911L12.7165 13.7765C13.8421 13.4323 15.0619 13.8427 15.7506 14.7972L17.0313 16.5722C17.8374 17.6894 17.6925 19.2307 16.6922 20.178L15.8058 21.0174C14.8494 21.9232 13.4879 22.2607 12.2191 21.9066C9.46503 21.1378 6.99572 18.8137 4.78384 14.9826C2.56889 11.1462 1.7917 7.84179 2.50815 5.07C2.83602 3.80152 3.80215 2.79613 5.05658 2.41801L6.22358 2.06625C7.54608 1.66761 8.95908 2.31185 9.52544 3.57168ZM6.65648 3.50242L5.48948 3.85419C4.73682 4.08106 4.15715 4.68429 3.96042 5.44538C3.35777 7.7769 4.04663 10.7058 6.08288 14.2326C8.11641 17.7548 10.3054 19.8151 12.6224 20.4618C13.3836 20.6743 14.2006 20.4718 14.7744 19.9283L15.6608 19.0889C16.1154 18.6583 16.1813 17.9577 15.8149 17.4499L14.5342 15.6749C14.2211 15.241 13.6667 15.0545 13.155 15.2109L11.1397 15.8271C9.97 16.1757 8.90832 15.2343 7.76823 13.2596C6.99993 11.9289 6.64183 10.9002 6.7314 10.0982C6.7778 9.6828 6.97137 9.29769 7.27709 9.0126L8.77139 7.61915C9.16278 7.25417 9.27842 6.68053 9.05899 6.19243L8.15732 4.18671C7.89989 3.61406 7.25762 3.32122 6.65648 3.50242ZM14.75 1.99999H17.246C19.6356 1.99999 21 3.13553 21 5.24999C21 7.29434 19.7245 8.42259 17.4815 8.49312L17.246 8.49663L15.5 8.4966V11.2561C15.5 11.6703 15.1642 12.0061 14.75 12.0061C14.3703 12.0061 14.0565 11.724 14.0069 11.3579L14 11.2561V2.74999C14 2.3703 14.2822 2.0565 14.6482 2.00684L14.75 1.99999H17.246H14.75ZM17.246 3.49999H15.5V6.99667L17.2469 6.99663C18.8624 6.99844 19.5 6.46848 19.5 5.24999C19.5 4.08191 18.9139 3.54545 17.4429 3.50277L17.246 3.49999Z" fill="black"/>
</svg>
