<svg width="24" height="24" viewBox="0 0 24 24" fill="none" xmlns="http://www.w3.org/2000/svg">
<path d="M17.5 12C20.5376 12 23 14.4624 23 17.5C23 20.5376 20.5376 23 17.5 23C14.4624 23 12 20.5376 12 17.5C12 14.4624 14.4624 12 17.5 12ZM17.5 13.9992L17.4101 14.0073C17.206 14.0443 17.0451 14.2053 17.0081 14.4094L17 14.4992L16.9996 16.9992L14.4977 17L14.4078 17.0081C14.2037 17.0451 14.0427 17.206 14.0057 17.4101L13.9977 17.5L14.0057 17.5899C14.0427 17.794 14.2037 17.9549 14.4078 17.9919L14.4977 18L17.0007 17.9992L17.0011 20.5035L17.0092 20.5934C17.0462 20.7975 17.2071 20.9584 17.4112 20.9954L17.5011 21.0035L17.591 20.9954C17.7951 20.9584 17.956 20.7975 17.9931 20.5934L18.0011 20.5035L18.0007 17.9992L20.5046 18L20.5944 17.9919C20.7985 17.9549 20.9595 17.794 20.9965 17.5899L21.0046 17.5L20.9965 17.4101C20.9595 17.206 20.7985 17.0451 20.5944 17.0081L20.5046 17L17.9996 16.9992L18 14.4992L17.9919 14.4094C17.9549 14.2053 17.794 14.0443 17.5899 14.0073L17.5 13.9992ZM13.9247 2.50305C14.7225 2.50305 15.4607 2.92553 15.8647 3.61342L16.6793 5H18.75C20.5449 5 22 6.45508 22 8.25L22.0008 12.8104C21.5566 12.384 21.052 12.0201 20.5011 11.7328L20.5 8.25C20.5 7.28351 19.7165 6.5 18.75 6.5H16.25C15.9841 6.5 15.738 6.35918 15.6033 6.12988L14.5714 4.37318C14.4367 4.14388 14.1906 4.00305 13.9247 4.00305H10.1224C9.89892 4.00305 9.6892 4.10252 9.54793 4.27084L9.48325 4.3606L8.38913 6.14245C8.25271 6.36462 8.01071 6.5 7.75 6.5H5.25C4.2835 6.5 3.5 7.28351 3.5 8.25V17.75C3.5 18.7165 4.2835 19.5 5.25 19.5L11.3133 19.4994C11.4857 20.0332 11.7252 20.5368 12.0219 21.0002L5.25 21C3.45507 21 2 19.5449 2 17.75V8.25C2 6.45508 3.45507 5 5.25 5H7.33042L8.205 3.57571C8.61425 2.90921 9.34026 2.50305 10.1224 2.50305H13.9247ZM12 8C14.0018 8 15.6983 9.30705 16.2826 11.1143C15.7821 11.2087 15.3022 11.3608 14.8497 11.5631C14.4571 10.3649 13.3296 9.5 12 9.5C10.3431 9.5 9 10.8431 9 12.5C9 13.9294 9.99965 15.1253 11.338 15.4267C11.1806 15.8934 11.0748 16.3855 11.0278 16.8946C9.00995 16.4504 7.5 14.6515 7.5 12.5C7.5 10.0147 9.51472 8 12 8Z" fill="black"/>
</svg>
