<svg width="24" height="24" viewBox="0 0 24 24" fill="none" xmlns="http://www.w3.org/2000/svg">
<path d="M3.75 18.0037C4.1297 18.0037 4.44349 18.2859 4.49315 18.6519L4.5 18.7537V20.2537C4.5 20.6679 4.16421 21.0037 3.75 21.0037C3.3703 21.0037 3.05651 20.7216 3.00685 20.3555L3 20.2537V18.7537C3 18.3395 3.33579 18.0037 3.75 18.0037ZM11.75 12.0037C12.1297 12.0037 12.4435 12.2859 12.4932 12.6519L12.5 12.7537V20.2537C12.5 20.6679 12.1642 21.0037 11.75 21.0037C11.3703 21.0037 11.0565 20.7216 11.0068 20.3555L11 20.2537V12.7537C11 12.3395 11.3358 12.0037 11.75 12.0037ZM15.75 9.00371C16.1297 9.00371 16.4435 9.28586 16.4932 9.65194L16.5 9.75371V20.2537C16.5 20.6679 16.1642 21.0037 15.75 21.0037C15.3703 21.0037 15.0565 20.7216 15.0068 20.3555L15 20.2537V9.75371C15 9.33949 15.3358 9.00371 15.75 9.00371ZM19.75 19.5037C20.1642 19.5037 20.5 19.8395 20.5 20.2537C20.5 20.6679 20.1642 21.0037 19.75 21.0037C19.3358 21.0037 19 20.6679 19 20.2537C19 19.8395 19.3358 19.5037 19.75 19.5037ZM7.75 15C8.1297 15 8.44349 15.2821 8.49315 15.6482L8.5 15.75V20.2487C8.5 20.6629 8.16421 20.9987 7.75 20.9987C7.3703 20.9987 7.05651 20.7165 7.00685 20.3505L7 20.2487V15.75C7 15.3358 7.33579 15 7.75 15ZM19.7341 6.00406C20.1094 6.00051 20.4223 6.27962 20.4749 6.64519L20.4826 6.74689L20.5 17.6323C20.5039 18.0465 20.1753 18.3855 19.7659 18.3897C19.3906 18.3932 19.0777 18.1141 19.0251 17.7486L19.0174 17.6469L19 6.76144C18.9961 6.34725 19.3247 6.00822 19.7341 6.00406Z" fill="black"/>
</svg>
