<svg width="24" height="24" viewBox="0 0 24 24" fill="none" xmlns="http://www.w3.org/2000/svg">
<path d="M6.27645 5.22498L20.7718 19.721C21.0647 20.0139 21.0647 20.4887 20.7718 20.7816C20.4789 21.0745 20.004 21.0745 19.7112 20.7816L16.499 17.569L16.5 18.25C16.5 18.6642 16.1642 19 15.75 19C15.3703 19 15.0565 18.7178 15.0068 18.3517L15 18.25L14.999 16.069L12.499 13.569L12.5 18.25C12.5 18.6642 12.1642 19 11.75 19C11.3703 19 11.0565 18.7178 11.0068 18.3517L11 18.25L10.999 12.069L5.21577 6.28562C4.92288 5.99272 4.92289 5.51785 5.21579 5.22496C5.50869 4.93207 5.98357 4.93208 6.27645 5.22498ZM3.75 16C4.1297 16 4.44349 16.2821 4.49315 16.6482L4.5 16.75V18.25C4.5 18.6642 4.16421 19 3.75 19C3.3703 19 3.05651 18.7178 3.00685 18.3517L3 18.25V16.75C3 16.3358 3.33579 16 3.75 16ZM7.75 13C8.1297 13 8.44349 13.2821 8.49315 13.6482L8.5 13.75V18.2487C8.5 18.6629 8.16421 18.9987 7.75 18.9987C7.3703 18.9987 7.05651 18.7165 7.00685 18.3505L7 18.2487V13.75C7 13.3358 7.33579 13 7.75 13ZM19.7427 3.99997C20.1224 3.99633 20.4389 4.2752 20.4921 4.64048L20.5 4.7421L20.499 17.443L19 15.943L19 4.75664C18.996 4.34278 19.3285 4.00402 19.7427 3.99997ZM15.75 6.99997C16.1297 6.99997 16.4435 7.28213 16.4932 7.6482L16.5 7.74997V13.443L15 11.942V7.74997C15 7.33576 15.3358 6.99997 15.75 6.99997Z" fill="black"/>
</svg>
