<svg width="24" height="24" viewBox="0 0 24 24" fill="none" xmlns="http://www.w3.org/2000/svg">
<path d="M18.0006 10C20.2101 10 22.0013 11.7912 22.0013 14.0007C22.0013 15.0157 21.6232 15.9425 21.0003 16.6479L21.0002 21.2487C21.0002 21.8195 20.3957 22.1681 19.9101 21.9176L19.8206 21.8635L18.0003 20.5912L16.1806 21.8635C15.7127 22.1904 15.0807 21.8946 15.008 21.353L15.0011 21.2487L15.0001 16.6468C14.3777 15.9416 14 15.0152 14 14.0007C14 11.7912 15.7911 10 18.0006 10ZM19.4994 17.7111C19.0365 17.8982 18.5306 18.0013 18.0006 18.0013C17.4699 18.0013 16.9633 17.898 16.4999 17.7103L16.5003 19.8092L17.5711 19.0621C17.7968 18.9044 18.0878 18.8847 18.3298 19.003L18.4302 19.0621L19.4993 19.8092L19.4994 17.7111ZM19.25 3.00421C20.7125 3.00421 21.9084 4.14592 21.995 5.58669L22 5.75421L22.0014 11.0001C21.5971 10.4619 21.0867 10.0079 20.5013 9.66918L20.5 5.75421C20.5 5.107 20.0081 4.57468 19.3778 4.51066L19.25 4.50421H4.75C4.10279 4.50421 3.57047 4.99609 3.50645 5.62641L3.5 5.75421V15.2542C3.5 15.9014 3.99187 16.4337 4.62219 16.4978L4.75 16.5042L13.6716 16.5054L13.7955 16.7079L13.9291 16.9046L14 16.998L13.999 18.0042H4.75C3.28747 18.0042 2.0916 16.8625 2.00502 15.4217L2 15.2542V5.75421C2 4.29168 3.1417 3.09581 4.58248 3.00923L4.75 3.00421H19.25ZM18.0006 11.5C16.6196 11.5 15.5 12.6196 15.5 14.0007C15.5 15.3817 16.6196 16.5013 18.0006 16.5013C19.3817 16.5013 20.5013 15.3817 20.5013 14.0007C20.5013 12.6196 19.3817 11.5 18.0006 11.5ZM11.25 12.5C11.6642 12.5 12 12.8358 12 13.25C12 13.6297 11.7178 13.9435 11.3518 13.9932L11.25 14H6.75C6.33579 14 6 13.6642 6 13.25C6 12.8703 6.28215 12.5565 6.64823 12.5069L6.75 12.5H11.25ZM17.25 7.00001C17.6642 7.00001 18 7.33579 18 7.75001C18 8.1297 17.7178 8.4435 17.3518 8.49316L17.25 8.50001H6.75C6.33579 8.50001 6 8.16422 6 7.75001C6 7.37031 6.28215 7.05652 6.64823 7.00685L6.75 7.00001H17.25Z" fill="black"/>
</svg>
