<svg width="24" height="24" viewBox="0 0 24 24" fill="none" xmlns="http://www.w3.org/2000/svg">
<path d="M17.5 12C20.5376 12 23 14.4624 23 17.5C23 20.5376 20.5376 23 17.5 23C14.4624 23 12 20.5376 12 17.5C12 14.4624 14.4624 12 17.5 12ZM4.50022 9.37208L4.50001 17.75C4.50001 18.6682 5.20712 19.4212 6.10648 19.4942L6.25001 19.5L11.3136 19.5004C11.4861 20.0342 11.7258 20.5378 12.0226 21.0012L6.25001 21C4.51698 21 3.10076 19.6435 3.00515 17.9344L3.00001 17.75L2.99972 9.37208C3.23439 9.45505 3.48693 9.5002 3.75001 9.5002C4.01306 9.5002 4.26557 9.45506 4.50022 9.37208ZM18.5 20.0015H16.5L16.5067 20.1181C16.5645 20.6155 16.9872 21.0015 17.5 21.0015C18.0523 21.0015 18.5 20.5538 18.5 20.0015ZM17.5034 14L17.336 14.0071C16.3992 14.0924 15.6667 14.7714 15.5271 15.6417L15.5088 15.7972L15.5031 16.0009V17.2936L14.6469 18.1475C14.3523 18.4413 14.5269 18.9306 14.9139 18.9945L15 19.0015H20C20.4158 19.0015 20.6378 18.5324 20.4095 18.2137L20.3536 18.148L19.5049 17.2993V15.9469L19.4994 15.8007C19.4228 14.7878 18.5558 14 17.5034 14ZM12.8065 13.0032C12.3807 13.4475 12.0174 13.9521 11.7307 14.5029L8.74777 14.5031C8.33356 14.5031 7.99777 14.1673 7.99777 13.7531C7.99777 13.3734 8.27992 13.0596 8.646 13.0099L8.74777 13.0031L12.8065 13.0032ZM17.75 3C19.483 3 20.8993 4.35645 20.9949 6.06558L21 6.25L21.0007 12.0223C20.5374 11.7256 20.034 11.486 19.5004 11.3136L19.5 6.25C19.5 5.33183 18.7929 4.57881 17.8935 4.5058L17.75 4.5H6.25001C5.64983 4.5 5.12022 4.80213 4.80497 5.2626C4.49105 5.095 4.13163 5 3.75001 5C3.56878 5 3.39256 5.02142 3.22374 5.06188C3.67702 3.90899 4.76997 3.07762 6.06559 3.00514L6.25001 3H17.75ZM15.2523 9.49623C15.6665 9.49623 16.0022 9.83201 16.0022 10.2462C16.0022 10.6259 15.7201 10.9397 15.354 10.9894L15.2523 10.9962H8.74777C8.33356 10.9962 7.99777 10.6604 7.99777 10.2462C7.99777 9.86653 8.27992 9.55274 8.646 9.50307L8.74777 9.49623H15.2523ZM3.75001 6C4.44042 6 5.00011 6.55969 5.00011 7.2501C5.00011 7.94051 4.44042 8.5002 3.75001 8.5002C3.0596 8.5002 2.49991 7.94051 2.49991 7.2501C2.49991 6.55969 3.0596 6 3.75001 6Z" fill="black"/>
</svg>
