<svg width="24" height="24" viewBox="0 0 24 24" fill="none" xmlns="http://www.w3.org/2000/svg">
<path d="M17.75 3C19.483 3 20.8993 4.35645 20.9949 6.06558L21 6.25V17.75C21 19.483 19.6436 20.8992 17.9344 20.9949L17.75 21H6.25001C4.51698 21 3.10076 19.6435 3.00515 17.9344L3.00001 17.75L2.99972 9.37208C3.23439 9.45505 3.48693 9.5002 3.75001 9.5002C4.01306 9.5002 4.26557 9.45506 4.50022 9.37211L4.50001 17.75C4.50001 18.6682 5.20712 19.4212 6.10648 19.4942L6.25001 19.5H17.75C18.6682 19.5 19.4212 18.7929 19.4942 17.8935L19.5 17.75V6.25C19.5 5.33183 18.7929 4.57881 17.8935 4.5058L17.75 4.5H6.25001C5.64983 4.5 5.12022 4.80213 4.80497 5.2626C4.49105 5.095 4.13163 5 3.75001 5C3.56878 5 3.39256 5.02142 3.22374 5.06188C3.67702 3.90899 4.76997 3.07762 6.06559 3.00514L6.25001 3H17.75ZM13.246 13.0031C13.6602 13.0031 13.996 13.3388 13.996 13.7531C13.996 14.1327 13.7139 14.4465 13.3478 14.4962L13.246 14.5031H8.74777C8.33356 14.5031 7.99777 14.1673 7.99777 13.7531C7.99777 13.3734 8.27992 13.0596 8.646 13.0099L8.74777 13.0031H13.246ZM15.2523 9.49623C15.6665 9.49623 16.0022 9.83201 16.0022 10.2462C16.0022 10.6259 15.7201 10.9397 15.354 10.9894L15.2523 10.9962H8.74777C8.33356 10.9962 7.99777 10.6604 7.99777 10.2462C7.99777 9.86653 8.27992 9.55274 8.646 9.50307L8.74777 9.49623H15.2523ZM3.75001 6C4.44042 6 5.00011 6.55969 5.00011 7.2501C5.00011 7.94051 4.44042 8.5002 3.75001 8.5002C3.0596 8.5002 2.49991 7.94051 2.49991 7.2501C2.49991 6.55969 3.0596 6 3.75001 6Z" fill="black"/>
</svg>
