<svg width="24" height="24" viewBox="0 0 24 24" fill="none" xmlns="http://www.w3.org/2000/svg">
<path d="M9.01838 6.00105L7.52668 7.50348L4.25 7.50437C3.83579 7.50437 3.5 7.84016 3.5 8.25437V19.75C3.5 20.1642 3.83579 20.5 4.25 20.5H15.75C16.1642 20.5 16.5 20.1642 16.5 19.75L16.4976 16.4717L18 14.98V19.75C18 20.9926 16.9926 22 15.75 22H4.25C3.00736 22 2 20.9926 2 19.75V8.25437C2 7.01173 3.00736 6.00437 4.25 6.00437L9.01838 6.00105ZM5.2199 12.2194L7.219 10.2221C7.48524 9.95605 7.90164 9.93189 8.19516 10.1496L8.27926 10.2221L13.7802 15.7195C14.0466 15.9857 14.0709 16.4025 13.853 16.6962L13.7803 16.7803L11.7803 18.7803C11.5141 19.0466 11.0974 19.0708 10.8038 18.8529L10.7197 18.7803L5.21967 13.2803C4.95332 13.014 4.92919 12.5972 5.14722 12.3035L5.2199 12.2194L7.219 10.2221L5.2199 12.2194ZM7.74904 11.8129L6.81089 12.7502L11.25 17.1893L12.1892 16.2502L7.74904 11.8129ZM21.2797 2.71832C21.4615 2.89994 21.6151 3.10773 21.7355 3.33479C22.3753 4.54218 21.9593 6.02807 20.8122 6.73471L20.6651 6.81891L19.497 7.43711L20.013 7.95231C21.2353 9.17462 21.2804 11.1282 20.1484 12.404L20.0126 12.5481L18.7803 13.7803C18.5141 14.0466 18.0974 14.0708 17.8038 13.8529L17.7197 13.7803L17.25 13.3109L15.7803 14.7803C15.5141 15.0466 15.0974 15.0708 14.8038 14.8529L14.7197 14.7803L9.21967 9.28032C8.95332 9.01397 8.92919 8.59716 9.14722 8.30354L9.2199 8.21943L10.689 6.74991L10.2197 6.28032C9.95335 6.014 9.92919 5.59723 10.1472 5.30362L10.2198 5.21951L11.4511 3.98889C12.674 2.76903 14.6259 2.7239 15.9032 3.85391L16.0475 3.98951L16.561 4.50311L17.1789 3.33626C17.269 3.16612 17.3777 3.00677 17.5029 2.86113L17.6336 2.72015C18.64 1.71282 20.2724 1.71199 21.2797 2.71832ZM11.749 7.81288L10.8109 8.75022L15.25 13.1893L16.1892 12.2502L11.749 7.81288ZM12.6359 4.93705L12.511 5.05036L11.8108 5.75014L18.25 12.1893L18.9521 11.4872C19.6299 10.8101 19.6357 9.71517 18.9696 9.03047L14.9876 5.05093C14.3435 4.40834 13.3238 4.37051 12.6359 4.93705ZM18.6948 3.78028C18.6443 3.83091 18.5989 3.88638 18.5594 3.94584L18.5047 4.03793L17.672 5.6113L18.3885 6.3278L19.9627 5.49353C20.4884 5.21492 20.6887 4.5629 20.4101 4.03719C20.3598 3.94228 20.2956 3.85543 20.2196 3.77951C19.7983 3.35868 19.1157 3.35902 18.6948 3.78028Z" fill="black"/>
</svg>
