<svg width="24" height="24" viewBox="0 0 24 24" fill="none" xmlns="http://www.w3.org/2000/svg">
<path d="M17.25 2.00052C18.7688 2.00052 20 3.23173 20 4.75052V19.2488C20 20.7675 18.7688 21.9988 17.25 21.9988H6.74991C5.23113 21.9988 3.99991 20.7675 3.99991 19.2488V4.75052C3.99991 3.49158 4.84587 2.43023 6.00035 2.10391L5.99953 3.75071C5.69614 3.97877 5.49991 4.34173 5.49991 4.75052V19.2488C5.49991 19.9391 6.05955 20.4988 6.74991 20.4988H17.25C17.9404 20.4988 18.5 19.9391 18.5 19.2488V4.75052C18.5 4.06016 17.9404 3.50052 17.25 3.50052L14.9999 3.5V2L17.25 2.00052ZM14 2V10.1389C14 10.886 13.2006 11.1665 12.7108 10.9033L12.6278 10.8512L10.5018 9.56575L8.4237 10.8172C7.92401 11.1779 7.09333 10.9564 7.00727 10.2594L7.00001 10.1389V2H14ZM12.5 3.5H8.50001V9.02327L10.0733 8.07421C10.3376 7.93602 10.6574 7.93341 10.8905 8.05036L12.5 9.02396V3.5Z" fill="black"/>
</svg>
