<svg width="24" height="24" viewBox="0 0 24 24" fill="none" xmlns="http://www.w3.org/2000/svg">
<path d="M4.28106 4.22502L18.7764 18.721C19.0693 19.0139 19.0693 19.4888 18.7764 19.7817C18.4835 20.0746 18.0087 20.0745 17.7158 19.7816L13.9305 15.9957L6.69263 15.9959C4.65355 15.9959 3.00055 14.3472 3.00055 12.3134C3.00055 10.3211 4.58677 8.69828 6.5683 8.63287L3.22037 5.28565C2.92749 4.99276 2.9275 4.51788 3.2204 4.22499C3.5133 3.93211 3.98817 3.93212 4.28106 4.22502ZM12 4.0007C15.1685 4.0007 16.966 6.09799 17.2274 8.63083L17.3074 8.63083C19.3464 8.63083 20.9994 10.2795 20.9994 12.3134C20.9994 14.0797 19.7526 15.5557 18.0888 15.9132L16.6735 14.4977L17.2514 14.4983C18.5124 14.4983 19.5346 13.497 19.5346 12.2619C19.5346 11.0267 18.5124 10.0254 17.2514 10.0254L16.5609 10.0254C16.1957 10.0255 15.8767 9.74497 15.8767 9.38751C15.8767 7.10259 14.0713 5.49829 12 5.49829C10.839 5.49829 9.76162 6.01137 9.03882 6.85961L7.93124 5.75196C8.81517 4.68602 10.1815 4.0007 12 4.0007ZM12.4325 14.4977L7.83792 9.90371C7.72405 9.98052 7.58529 10.0255 7.43912 10.0254L6.74857 10.0254C5.48758 10.0254 4.46534 11.0267 4.46534 12.2619C4.46534 13.497 5.48758 14.4983 6.74857 14.4983L12.4325 14.4977Z" fill="black"/>
</svg>
