<svg width="24" height="24" viewBox="0 0 24 24" fill="none" xmlns="http://www.w3.org/2000/svg">
<path d="M8.06562 18.9432L14.5656 4.44321C14.7351 4.06524 15.1788 3.89618 15.5568 4.06562C15.9033 4.22094 16.0742 4.60677 15.9698 4.96113L15.9344 5.05679L9.43438 19.5568C9.26495 19.9348 8.82118 20.1038 8.44321 19.9344C8.09673 19.7791 7.92581 19.3932 8.03024 19.0389L8.06562 18.9432L14.5656 4.44321L8.06562 18.9432ZM2.21967 11.4697L6.46967 7.21967C6.76256 6.92678 7.23744 6.92678 7.53033 7.21967C7.7966 7.48594 7.8208 7.9026 7.60295 8.19621L7.53033 8.28033L3.81066 12L7.53033 15.7197C7.82322 16.0126 7.82322 16.4874 7.53033 16.7803C7.26406 17.0466 6.8474 17.0708 6.55379 16.853L6.46967 16.7803L2.21967 12.5303C1.9534 12.2641 1.9292 11.8474 2.14705 11.5538L2.21967 11.4697L6.46967 7.21967L2.21967 11.4697ZM16.4697 7.21967C16.7359 6.95341 17.1526 6.9292 17.4462 7.14705L17.5303 7.21967L21.7803 11.4697C22.0466 11.7359 22.0708 12.1526 21.8529 12.4462L21.7803 12.5303L17.5303 16.7803C17.2374 17.0732 16.7626 17.0732 16.4697 16.7803C16.2034 16.5141 16.1792 16.0974 16.3971 15.8038L16.4697 15.7197L20.1893 12L16.4697 8.28033C16.1768 7.98744 16.1768 7.51257 16.4697 7.21967Z" fill="black"/>
</svg>
