<svg width="24" height="24" viewBox="0 0 24 24" fill="none" xmlns="http://www.w3.org/2000/svg">
<path d="M3.83904 5.85748C6.78004 1.94188 12.8687 0.802492 17.2029 3.49736C21.4827 6.15838 23.0568 11.2745 21.3039 16.0747C19.6487 20.6073 15.2875 22.4032 12.1442 20.1231C10.9667 19.269 10.5103 18.1984 10.2897 16.4593L10.1843 15.4714L10.1389 15.0739C10.0162 14.1399 9.8278 13.7214 9.43453 13.5022C8.89894 13.2037 8.54231 13.1967 7.83905 13.4693L7.48794 13.6149L7.3092 13.6928C6.29543 14.1331 5.62104 14.2878 4.76804 14.109L4.56779 14.0619L4.40426 14.0153C1.61529 13.151 1.2022 9.36812 3.83904 5.85748ZM4.82326 12.5739L4.94616 12.6104L5.08011 12.6412C5.51918 12.7282 5.89444 12.6557 6.51713 12.3994L7.1193 12.1421C8.32145 11.6492 9.10454 11.601 10.1648 12.192C11.0824 12.7034 11.4401 13.4896 11.6225 14.8516L11.6757 15.3108L11.7299 15.8425L11.777 16.2649C11.9491 17.6262 12.2619 18.3554 13.025 18.9089C15.3003 20.5594 18.5594 19.2173 19.8949 15.5602C21.4111 11.408 20.069 7.04566 16.4109 4.77121C12.7367 2.48675 7.51248 3.46438 5.0384 6.75833C2.96362 9.52066 3.21809 12.0379 4.82326 12.5739ZM16.0477 10.5796C15.8691 9.91273 16.2648 9.22731 16.9316 9.04863C17.5985 8.86995 18.2839 9.26568 18.4626 9.93251C18.6412 10.5993 18.2455 11.2848 17.5787 11.4634C16.9118 11.6421 16.2264 11.2464 16.0477 10.5796ZM16.5423 14.0682C16.3637 13.4014 16.7594 12.716 17.4262 12.5373C18.093 12.3586 18.7785 12.7543 18.9571 13.4212C19.1358 14.088 18.7401 14.7734 18.0733 14.9521C17.4064 15.1308 16.721 14.7351 16.5423 14.0682ZM14.0692 7.57688C13.8906 6.91004 14.2863 6.22462 14.9531 6.04595C15.62 5.86727 16.3054 6.263 16.484 6.92983C16.6627 7.59666 16.267 8.28208 15.6002 8.46076C14.9333 8.63944 14.2479 8.24371 14.0692 7.57688ZM14.0408 16.5753C13.8621 15.9084 14.2578 15.223 14.9246 15.0443C15.5915 14.8657 16.2769 15.2614 16.4556 15.9282C16.6342 16.595 16.2385 17.2805 15.5717 17.4591C14.9049 17.6378 14.2194 17.2421 14.0408 16.5753ZM10.5438 6.60528C10.3652 5.93845 10.7609 5.25303 11.4277 5.07435C12.0945 4.89568 12.78 5.2914 12.9586 5.95824C13.1373 6.62507 12.7416 7.31049 12.0748 7.48917C11.4079 7.66784 10.7225 7.27212 10.5438 6.60528Z" fill="black"/>
</svg>
