<svg width="24" height="24" viewBox="0 0 24 24" fill="none" xmlns="http://www.w3.org/2000/svg">
<path d="M6.75 4H14C14.4142 4 14.75 4.33579 14.75 4.75C14.75 5.1297 14.4678 5.44349 14.1018 5.49316L14 5.5H6.75C6.10279 5.5 5.57047 5.99188 5.50645 6.6222L5.5 6.75V17.25C5.5 17.8972 5.99187 18.4295 6.62219 18.4935L6.75 18.5H17.25C17.8972 18.5 18.4295 18.0081 18.4935 17.3778L18.5 17.25V10C18.5 9.58579 18.8358 9.25 19.25 9.25C19.6297 9.25 19.9435 9.53216 19.9932 9.89823L20 10V17.25C20 18.7125 18.8583 19.9084 17.4175 19.995L17.25 20H6.75C5.28747 20 4.0916 18.8583 4.00502 17.4175L4 17.25V6.75C4 5.28747 5.1417 4.0916 6.58248 4.00502L6.75 4H14H6.75ZM20.8765 3.12348C21.1694 3.41637 21.1694 3.89125 20.8765 4.18414L12.2145 12.8462L10.6235 13.3765L11.1538 11.7855L19.8159 3.12348C20.1088 2.83059 20.5836 2.83059 20.8765 3.12348Z" fill="black"/>
</svg>
