<svg width="24" height="24" viewBox="0 0 24 24" fill="none" xmlns="http://www.w3.org/2000/svg">
<path d="M10.8214 2.00324L10.9218 2.01994L19.4218 4.01994C19.7267 4.09168 19.9511 4.34373 19.993 4.64714L20 4.75V19.25C20 19.5632 19.8061 19.8394 19.5203 19.9497L19.4218 19.9801L10.9218 21.9801C10.4846 22.0829 10.0645 21.7823 10.0067 21.3516L10 21.25V2.75C10 2.33546 10.3313 2.01381 10.7225 2.00012L10.8214 2.00324ZM11.5 3.69696V20.3031L18.5 18.656V5.34401L11.5 3.69696ZM9 4V5.5H5.5V18.5H9V20H4.75C4.3703 20 4.05651 19.7178 4.00685 19.3518L4 19.25V4.75C4 4.37031 4.28215 4.05651 4.64823 4.00685L4.75 4H9ZM14 11C14.5523 11 15 11.4477 15 12C15 12.5523 14.5523 13 14 13C13.4477 13 13 12.5523 13 12C13 11.4477 13.4477 11 14 11Z" fill="black"/>
</svg>
