<svg width="24" height="24" viewBox="0 0 24 24" fill="none" xmlns="http://www.w3.org/2000/svg">
<path d="M8.25001 4C8.62971 4 8.9435 4.28215 8.99317 4.64823L9.00001 4.75V7.52317L10.8743 10.3383C10.9358 10.4307 10.9758 10.5351 10.9919 10.6439L11 10.754V15.25C11 15.6297 10.7179 15.9435 10.3518 15.9932L10.25 16H8.99632L8.99726 19.2536C8.99726 19.6678 8.66147 20.0036 8.24726 20.0036C7.86756 20.0036 7.55377 19.7214 7.5041 19.3553L7.49726 19.2536L7.49632 16L5.50132 15.999L5.50201 19.2566C5.50201 19.6708 5.16623 20.0066 4.75201 20.0066C4.37232 20.0066 4.05852 19.7244 4.00886 19.3584L4.00201 19.2566L4.00132 15.999L2.75232 16C2.37262 16 2.05883 15.7178 2.00917 15.3518L2.00232 15.25V10.754C2.00232 10.643 2.02692 10.534 2.0738 10.4344L2.12803 10.3383L4.00232 7.52317V4.75C4.00232 4.33579 4.33811 4 4.75232 4C5.13202 4 5.44581 4.28215 5.49547 4.64823L5.50232 4.75V7.75C5.50232 7.86093 5.47772 7.97001 5.43083 8.06956L5.37661 8.16564L3.50232 10.9808V14.5H9.50001V10.9808L7.62572 8.16564C7.56424 8.0733 7.52427 7.96887 7.50813 7.86003L7.50001 7.75V4.75C7.50001 4.33579 7.8358 4 8.25001 4ZM15.2546 4.00139H19.75C20.1297 4.00139 20.4435 4.28355 20.4932 4.64962L20.5 4.75139L20.4993 8H21.25C21.6297 8 21.9435 8.28215 21.9932 8.64823L22 8.75V13.246C22 13.357 21.9754 13.466 21.9285 13.5656L21.8743 13.6617L20 16.4768V19.25C20 19.6642 19.6642 20 19.25 20C18.8703 20 18.5565 19.7178 18.5069 19.3518L18.5 19.25V16.25C18.5 16.1391 18.5246 16.03 18.5715 15.9304L18.6257 15.8344L20.5 13.0192V9.5H14.5023V13.0192L16.3766 15.8344C16.4381 15.9267 16.4781 16.0311 16.4942 16.14L16.5023 16.25V19.25C16.5023 19.6642 16.1665 20 15.7523 20C15.3726 20 15.0588 19.7178 15.0092 19.3518L15.0023 19.25V16.4768L13.128 13.6617C13.0665 13.5693 13.0266 13.4649 13.0104 13.3561L13.0023 13.246V8.75C13.0023 8.3703 13.2845 8.05651 13.6505 8.00685L13.7523 8H14.5043L14.5046 4.75139C14.5046 4.3717 14.7867 4.0579 15.1528 4.00824L15.2546 4.00139H19.75H15.2546ZM19 5.50139H16.0046L16.0043 8H18.9993L19 5.50139Z" fill="black"/>
</svg>
