<svg width="24" height="24" viewBox="0 0 24 24" fill="none" xmlns="http://www.w3.org/2000/svg">
<path d="M18.2482 2C19.4909 2 20.4982 3.00736 20.4982 4.25V19.7546C20.4982 20.9972 19.4909 22.0046 18.2482 22.0046H6.25C5.00736 22.0046 4 20.9972 4 19.7546V4.25C4 3.00736 5.00736 2 6.25 2H18.2482ZM6.5 3.5H6.25C5.83579 3.5 5.5 3.83579 5.5 4.25V19.7546C5.5 20.1688 5.83579 20.5046 6.25 20.5046L6.5 20.504V3.5ZM18.2482 3.5H8V20.504L18.2482 20.5046C18.6625 20.5046 18.9982 20.1688 18.9982 19.7546V4.25C18.9982 3.83579 18.6625 3.5 18.2482 3.5ZM15.75 12.5C16.1642 12.5 16.5 12.8358 16.5 13.25V13.7427C16.5 15.2399 15.3648 15.9993 13.498 15.9993C11.6312 15.9993 10.496 15.2394 10.496 13.7418V13.25C10.496 12.8358 10.8318 12.5 11.246 12.5H15.75ZM13.498 7.99972C14.4649 7.99972 15.2486 8.78349 15.2486 9.75033C15.2486 10.7172 14.4649 11.501 13.498 11.501C12.5312 11.501 11.7474 10.7172 11.7474 9.75033C11.7474 8.78349 12.5312 7.99972 13.498 7.99972Z" fill="black"/>
</svg>
