<svg width="24" height="24" viewBox="0 0 24 24" fill="none" xmlns="http://www.w3.org/2000/svg">
<path d="M2.74695 15C3.12664 15 3.44044 15.2822 3.4901 15.6482L3.49695 15.75V19.2523L3.5034 19.3801C3.56315 19.9684 4.03084 20.4361 4.61914 20.4959L4.74695 20.5023H8.24695L8.34872 20.5092C8.71479 20.5588 8.99695 20.8726 8.99695 21.2523C8.99695 21.632 8.71479 21.9458 8.34872 21.9955L8.24695 22.0023H4.74695L4.57943 21.9973C3.19628 21.9142 2.08876 20.8088 2.00237 19.4265L1.99695 19.2523V15.75L2.00379 15.6482C2.05346 15.2822 2.36725 15 2.74695 15ZM21.2469 15C21.6266 15 21.9404 15.2822 21.9901 15.6482L21.9969 15.75V19.2523C21.9969 20.7149 20.8552 21.9107 19.4145 21.9973L19.2469 22.0023H15.7469C15.3327 22.0023 14.9969 21.6665 14.9969 21.2523C14.9969 20.8726 15.2791 20.5588 15.6452 20.5092L15.7469 20.5023H19.2469C19.8942 20.5023 20.4265 20.0105 20.4905 19.3801L20.4969 19.2523V15.75C20.4969 15.3358 20.8327 15 21.2469 15ZM15.25 6C16.7125 6 17.9084 7.1417 17.995 8.58248L18 8.75V15.25C18 16.7125 16.8583 17.9084 15.4175 17.995L15.25 18H8.75001C7.28747 18 6.0916 16.8583 6.00502 15.4175L6.00001 15.25V8.75C6.00001 7.28747 7.14171 6.0916 8.58248 6.00502L8.75001 6H15.25ZM16.5 10.995H7.49995V15.25C7.49995 15.8972 7.99188 16.4295 8.6222 16.4935L8.75001 16.5H15.25C15.8972 16.5 16.4295 16.0081 16.4936 15.3778L16.5 15.25V10.995ZM15.25 7.5H8.75001C8.1028 7.5 7.57047 7.99187 7.50646 8.62219L7.49995 8.75V9.495H16.5V8.75C16.5 8.10279 16.0081 7.57047 15.3778 7.50645L15.25 7.5ZM8.24695 2C8.66116 2 8.99695 2.33579 8.99695 2.75C8.99695 3.1297 8.71479 3.44349 8.34872 3.49315L8.24695 3.5H4.74695C4.09974 3.5 3.56741 3.99187 3.5034 4.62219L3.49695 4.75V8.25234C3.49695 8.66655 3.16116 9.00234 2.74695 9.00234C2.36725 9.00234 2.05346 8.72018 2.00379 8.35411L1.99695 8.25234V4.75C1.99695 3.28747 3.13865 2.0916 4.57943 2.00502L4.74695 2H8.24695ZM19.2469 2L19.4145 2.00502C20.7976 2.08813 21.9051 3.19357 21.9915 4.57583L21.9969 4.75V8.25234L21.9901 8.35411C21.9404 8.72018 21.6266 9.00234 21.2469 9.00234C20.8673 9.00234 20.5535 8.72018 20.5038 8.35411L20.4969 8.25234V4.75L20.4905 4.62219C20.4307 4.0339 19.9631 3.5662 19.3748 3.50645L19.2469 3.5H15.7469L15.6452 3.49315C15.2791 3.44349 14.9969 3.1297 14.9969 2.75C14.9969 2.3703 15.2791 2.05651 15.6452 2.00685L15.7469 2H19.2469Z" fill="black"/>
</svg>
