<svg width="24" height="24" viewBox="0 0 24 24" fill="none" xmlns="http://www.w3.org/2000/svg">
<path d="M13.7533 2C14.9106 2 15.8635 2.87497 15.9866 3.99946L17.75 4C18.9409 4 19.9156 4.92516 19.9948 6.09595L20 6.25V12.25C20 12.6642 19.6642 13 19.25 13C18.8703 13 18.5565 12.7178 18.5068 12.3518L18.5 12.25V6.25C18.5 5.8703 18.2178 5.55651 17.8518 5.50685L17.75 5.5L15.6183 5.49984C15.2148 6.0991 14.5301 6.4933 13.7533 6.4933H10.2467C9.46989 6.4933 8.78519 6.0991 8.38171 5.49984L6.25 5.5C5.8703 5.5 5.55651 5.78215 5.50685 6.14823L5.5 6.25V19.7546C5.5 20.1343 5.78215 20.4481 6.14823 20.4977L6.35177 20.5114C6.71785 20.5611 7 20.8749 7 21.2546C7 21.6688 6.66421 22.0046 6.25 22.0046C5.05914 22.0046 4.08436 21.0794 4.00519 19.9086L4 19.7546V6.25C4 5.05914 4.92516 4.08436 6.09595 4.00519L6.25 4L8.01344 3.99946C8.13651 2.87497 9.0894 2 10.2467 2H13.7533ZM17.25 14.5H18.25C20.3211 14.5 22 16.1789 22 18.25C22 20.2543 20.4276 21.8913 18.4523 21.9948L18.2534 22L17.2534 22.0046C16.8392 22.0065 16.5019 21.6722 16.5 21.258C16.4983 20.8783 16.779 20.5633 17.1448 20.5119L17.2466 20.5046L18.25 20.5C19.4926 20.5 20.5 19.4926 20.5 18.25C20.5 17.0591 19.5748 16.0844 18.404 16.0052L18.25 16H17.25C16.8358 16 16.5 15.6642 16.5 15.25C16.5 14.8703 16.7822 14.5565 17.1482 14.5068L17.25 14.5H18.25H17.25ZM12.25 14.5H13.25C13.6642 14.5 14 14.8358 14 15.25C14 15.6297 13.7178 15.9435 13.3518 15.9932L13.25 16H12.25C11.0074 16 10 17.0074 10 18.25C10 19.4409 10.9252 20.4156 12.096 20.4948L12.25 20.5H13.25C13.6642 20.5 14 20.8358 14 21.25C14 21.6297 13.7178 21.9435 13.3518 21.9932L13.25 22H12.25C10.1789 22 8.5 20.3211 8.5 18.25C8.5 16.2457 10.0724 14.6087 12.0508 14.5052L12.25 14.5H13.25H12.25ZM12.25 17.5H18.25C18.6642 17.5 19 17.8358 19 18.25C19 18.6297 18.7178 18.9435 18.3518 18.9932L18.25 19H12.25C11.8358 19 11.5 18.6642 11.5 18.25C11.5 17.8703 11.7822 17.5565 12.1482 17.5068L12.25 17.5H18.25H12.25ZM13.7533 3.5H10.2467C9.83429 3.5 9.5 3.83429 9.5 4.24665C9.5 4.65902 9.83429 4.9933 10.2467 4.9933H13.7533C14.1657 4.9933 14.5 4.65902 14.5 4.24665C14.5 3.83429 14.1657 3.5 13.7533 3.5Z" fill="black"/>
</svg>
