<svg width="24" height="24" viewBox="0 0 24 24" fill="none" xmlns="http://www.w3.org/2000/svg">
<path d="M2.21864 2.21572C2.51159 1.92289 2.98646 1.92298 3.2793 2.21592L21.7804 20.724L21.853 20.8082C22.0708 21.1018 22.0465 21.5185 21.7802 21.7847C21.4873 22.0775 21.0124 22.0774 20.7196 21.7845L19.5353 20.5996C18.4275 21.4765 17.0271 22 15.5045 22C14.0213 22 12.6201 21.4994 11.4958 20.6174L11.4961 21.25C11.4961 21.6297 11.214 21.9435 10.8479 21.9931L10.7461 22C10.3664 22 10.0526 21.7178 10.003 21.3518L9.99612 21.25V18.7514C9.99612 18.3717 10.2783 18.0579 10.6443 18.0082L10.7461 18.0014H13.2507C13.6649 18.0014 14.0007 18.3372 14.0007 18.7514C14.0007 19.1311 13.7186 19.4449 13.3525 19.4945L13.2507 19.5014L12.5076 19.5032C13.3573 20.1404 14.4008 20.5 15.5045 20.5C16.6125 20.5 17.6363 20.1396 18.4651 19.5297L16.6562 17.7195C16.3116 17.8987 15.9199 18 15.5045 18C14.6871 18 13.9612 17.6076 13.5051 17.001H6.49944C6.04329 17.6076 5.31746 18 4.49999 18C3.11928 18 1.99999 16.8807 1.99999 15.5C1.99999 14.391 2.72204 13.4507 3.72165 13.1235L4.53953 7.81277C3.63551 7.43628 2.99999 6.54431 2.99999 5.50392C2.99999 5.08525 3.1029 4.69062 3.28481 4.34395L2.21844 3.27638L2.14584 3.19225C1.92804 2.8986 1.95232 2.48194 2.21864 2.21572ZM16.6714 9.10442C19.7044 9.65416 22.0045 12.3085 22.0045 15.5C22.0045 16.5047 21.7766 17.4562 21.3696 18.3055L20.2225 17.1595C20.4052 16.6402 20.5045 16.0817 20.5045 15.5C20.5045 13.2295 18.9911 11.3124 16.9181 10.7026L16.6714 9.10442ZM4.49999 14.5L4.38337 14.5067C3.88603 14.5645 3.49999 14.9872 3.49999 15.5C3.49999 16.0128 3.88603 16.4355 4.38337 16.4933L4.49999 16.5C5.01283 16.5 5.4355 16.1139 5.49326 15.6166L5.49999 15.5L5.49326 15.3834C5.45493 15.0533 5.25587 14.7723 4.97641 14.6206L4.868 14.5699L4.74499 14.5299L4.65571 14.512C4.60497 14.5041 4.55296 14.5 4.49999 14.5ZM14.5079 15.5712L14.5045 15.5C14.5045 16.0128 14.8906 16.4355 15.3879 16.4933L15.4319 16.4952L14.5079 15.5712ZM6.03663 7.94618L5.24161 13.1118C6.20362 13.4102 6.91693 14.2739 6.99322 15.3146L6.99999 15.5H13.0045C13.0045 15.0846 13.1058 14.6929 13.2851 14.3481L6.65961 7.71925C6.46557 7.82106 6.25652 7.89809 6.03663 7.94618ZM14.4861 3.00392C15.8668 3.00392 16.9861 4.12321 16.9861 5.50392C16.9861 6.53887 16.3572 7.42693 15.4608 7.80681L16.2789 13.1222C17.0797 13.3828 17.7029 14.0367 17.9208 14.8558L14.498 11.4349L13.9625 7.949C12.887 7.7198 12.0674 6.79887 11.9918 5.6741L11.9861 5.4999L8.56199 5.49892L6.1558 3.09082C6.69841 3.23794 7.16774 3.56318 7.49715 3.9999H12.489C12.9453 3.39496 13.67 3.00392 14.4861 3.00392ZM14.4861 4.50392L14.3695 4.51065C13.8722 4.56841 13.4861 4.99108 13.4861 5.50392C13.4861 5.77236 13.5919 6.0161 13.7641 6.19573L13.7879 6.21977L13.908 6.31992L13.994 6.37392L14.0849 6.42018L14.193 6.46026L14.2848 6.48365L14.3634 6.49646L14.4861 6.50392L14.6054 6.49688L14.7755 6.46143L14.9003 6.41437L14.9873 6.36949L15.081 6.30692L15.1901 6.21413L15.2664 6.12937C15.4039 5.9581 15.4861 5.74061 15.4861 5.50392C15.4861 5.12814 15.2789 4.80077 14.9724 4.6299L14.972 4.63594L14.8674 4.582L14.721 4.53192L14.6376 4.51547C14.5882 4.50781 14.5376 4.50392 14.4861 4.50392ZM4.50387 5.56315L4.49999 5.50392C4.49999 5.74061 4.58222 5.9581 4.71968 6.12937L4.78629 6.20437C4.84367 6.26283 4.90817 6.31427 4.9784 6.35728L5.08686 6.41486L5.18779 6.45422L5.2689 6.47708L5.36951 6.49548L5.43987 6.49915L4.50387 5.56315Z" fill="black"/>
</svg>
