<svg width="24" height="24" viewBox="0 0 24 24" fill="none" xmlns="http://www.w3.org/2000/svg">
<path fill-rule="evenodd" clip-rule="evenodd" d="M6.25189 2.00244C6.66611 2.00244 7.00189 2.33823 7.00189 2.75244V3.06631C8.99046 3.42131 10.5 5.15937 10.5 7.24999V8.25131C10.5 8.66553 10.1642 9.00131 9.74998 9.00131C9.33576 9.00131 8.99998 8.66553 8.99998 8.25131V7.24999C8.99998 5.99191 8.15517 4.93115 7.00189 4.60406V11.5302L7.83175 11.9348C9.46428 12.7308 10.5 14.388 10.5 16.2043L10.5 16.7286C10.5 18.8181 8.99165 20.557 7.00189 20.9123V21.2477C7.00189 21.6619 6.66611 21.9977 6.25189 21.9977C5.83768 21.9977 5.50189 21.6619 5.50189 21.2477V20.913C3.51263 20.5598 2 18.8217 2 16.7286V15.7478C2 15.3336 2.33579 14.9978 2.75 14.9978C3.16421 14.9978 3.5 15.3336 3.5 15.7478V16.7286C3.5 17.9887 4.34727 19.05 5.50189 19.3757V12.4676L4.66824 12.0611C3.0357 11.2651 2 9.60785 2 7.79159V7.24999C2 5.15803 3.51145 3.41909 5.50189 3.06563V2.75244C5.50189 2.33823 5.83768 2.00244 6.25189 2.00244ZM3.5 7.24999C3.5 5.99053 4.34667 4.92881 5.50189 4.60298V10.7988L5.32564 10.7128C4.20864 10.1682 3.5 9.03429 3.5 7.79159V7.24999ZM7.00189 19.3745V13.199L7.17435 13.2831C8.29134 13.8277 8.99998 14.9616 8.99999 16.2043L8.99999 16.7286C8.99999 17.9861 8.15577 19.0473 7.00189 19.3745Z" fill="black"/>
<path d="M14.5 12C14.5 11.8315 14.5037 11.6645 14.5111 11.4991L16.2482 11.5C16.6624 11.5002 16.9984 11.1646 16.9986 10.7504C16.9989 10.3362 16.6633 10.0002 16.249 10L14.6823 9.99915C14.929 8.67659 15.4126 7.50895 16.0494 6.59521C16.9938 5.24025 18.2256 4.5 19.5 4.5C19.9668 4.5 20.4731 4.63624 20.8373 4.87627C21.1832 5.10417 21.6484 5.00854 21.8763 4.66266C22.1042 4.31678 22.0085 3.85164 21.6627 3.62373C21.0191 3.1997 20.2163 3 19.5 3C17.5988 3 15.9556 4.10657 14.8188 5.73752C14.0041 6.90653 13.424 8.37405 13.1599 9.99831L11.7506 9.99754C11.3364 9.99731 11.0004 10.3329 11.0002 10.7471C11 11.1613 11.3356 11.4973 11.7498 11.4975L13.0099 11.4982C13.0033 11.6644 13 11.8317 13 12C13 12.1677 13.0033 12.3344 13.0098 12.5L11.7502 12.5C11.336 12.5 11.0002 12.8358 11.0002 13.25C11.0002 13.6642 11.336 14 11.7502 14L13.1597 14C13.4236 15.625 14.0038 17.0931 14.8188 18.2625C15.9556 19.8934 17.5988 21 19.5 21C20.1954 21 21.0175 20.832 21.6822 20.3696C22.0222 20.133 22.1061 19.6656 21.8696 19.3256C21.633 18.9856 21.1656 18.9017 20.8256 19.1382C20.4825 19.3769 19.9877 19.5 19.5 19.5C18.2256 19.5 16.9938 18.7597 16.0494 17.4048C15.4125 16.4909 14.9288 15.3229 14.6821 14.0001L16.2486 14.0001C16.6629 14.0001 16.9986 13.6643 16.9986 13.2501C16.9986 12.8358 16.6629 12.5001 16.2486 12.5001L14.5111 12.5001C14.5037 12.3349 14.5 12.1682 14.5 12Z" fill="black"/>
</svg>
