<svg width="24" height="24" viewBox="0 0 24 24" fill="none" xmlns="http://www.w3.org/2000/svg">
<path d="M18.25 2.99669C19.7688 2.99669 21 4.22791 21 5.74669V18.2467C21 19.7655 19.7688 20.9967 18.25 20.9967H5.75C4.23122 20.9967 3 19.7655 3 18.2467V5.74669C3 4.22791 4.23122 2.99669 5.75 2.99669H18.25ZM18.25 4.49669H5.75C5.05964 4.49669 4.5 5.05633 4.5 5.74669V18.2467C4.5 18.937 5.05964 19.4967 5.75 19.4967H18.25C18.9404 19.4967 19.5 18.937 19.5 18.2467V5.74669C19.5 5.05633 18.9404 4.49669 18.25 4.49669ZM7.75 9C8.1297 9 8.44349 9.28094 8.49315 9.64544L8.5 9.74677V16.2532C8.5 16.6657 8.16421 17 7.75 17C7.3703 17 7.05651 16.7191 7.00685 16.3546L7 16.2532V9.74677C7 9.33434 7.33579 9 7.75 9ZM16.25 7C16.6297 7 16.9435 7.2744 16.9932 7.63043L17 7.7294V16.2706C17 16.6734 16.6642 17 16.25 17C15.8703 17 15.5565 16.7256 15.5068 16.3696L15.5 16.2706V7.7294C15.5 7.32656 15.8358 7 16.25 7ZM11.9751 11.9967C12.3458 11.9931 12.6549 12.2634 12.707 12.6174L12.7146 12.7159L12.75 16.2632C12.754 16.6643 12.4293 16.9927 12.0249 16.9968C11.6542 17.0003 11.3451 16.7301 11.293 16.3761L11.2854 16.2776L11.25 12.7302C11.246 12.3291 11.5707 12.0007 11.9751 11.9967Z" fill="black"/>
</svg>
