<svg width="24" height="24" viewBox="0 0 24 24" fill="none" xmlns="http://www.w3.org/2000/svg">
<path d="M21 18.2509C21 17.0088 19.9931 16.0018 18.7509 16.0018H5.24908C4.00695 16.0018 3 17.0088 3 18.2509C3 19.493 4.00695 20.5 5.24908 20.5H18.7509C19.9931 20.5 21 19.493 21 18.2509ZM17 11.7509C17 10.5088 15.9931 9.50183 14.7509 9.50183L5.24908 9.50183C4.00695 9.50183 3 10.5088 3 11.7509C3 12.993 4.00695 14 5.24908 14H14.7509C15.9931 14 17 12.993 17 11.7509ZM13 5.25091C13 4.00878 11.9931 3.00183 10.7509 3.00183L5.24908 3.00183C4.00695 3.00183 3 4.00878 3 5.25091C3 6.49305 4.00695 7.5 5.24908 7.5L10.7509 7.5C11.9931 7.5 13 6.49305 13 5.25091ZM19.5 18.2509C19.5 18.6646 19.1646 19 18.7509 19H5.24908C4.83538 19 4.5 18.6646 4.5 18.2509C4.5 17.8372 4.83538 17.5018 5.24908 17.5018H18.7509C19.1646 17.5018 19.5 17.8372 19.5 18.2509ZM15.5 11.7509C15.5 12.1646 15.1646 12.5 14.7509 12.5H5.24908C4.83538 12.5 4.5 12.1646 4.5 11.7509C4.5 11.3372 4.83538 11.0018 5.24908 11.0018H14.7509C15.1646 11.0018 15.5 11.3372 15.5 11.7509ZM11.5 5.25091C11.5 5.66462 11.1646 6 10.7509 6L5.24908 6C4.83538 6 4.5 5.66462 4.5 5.25091C4.5 4.83721 4.83538 4.50183 5.24908 4.50183L10.7509 4.50183C11.1646 4.50183 11.5 4.83721 11.5 5.25091Z" fill="black"/>
</svg>
