<svg width="24" height="24" viewBox="0 0 24 24" fill="none" xmlns="http://www.w3.org/2000/svg">
<path fill-rule="evenodd" clip-rule="evenodd" d="M8.5 5.22998C8.5 3.98734 9.50736 2.97998 10.75 2.97998H13.25C14.4926 2.97998 15.5 3.98734 15.5 5.22998V6.99998H18.75C19.9926 6.99998 21 8.00734 21 9.24998V20.25C21 20.6642 20.6642 21 20.25 21H3.75C3.33579 21 3 20.6642 3 20.25V12.25C3 11.0073 4.00736 9.99998 5.25 9.99998H8.5V5.22998ZM10 19.5H14V5.22998C14 4.81577 13.6642 4.47998 13.25 4.47998H10.75C10.3358 4.47998 10 4.81577 10 5.22998V19.5ZM8.5 11.5H5.25C4.83579 11.5 4.5 11.8358 4.5 12.25V19.5H8.5V11.5ZM15.5 19.5V8.49998H18.75C19.1642 8.49998 19.5 8.83576 19.5 9.24998V19.5H15.5Z" fill="black"/>
</svg>
