<svg width="24" height="24" viewBox="0 0 24 24" fill="none" xmlns="http://www.w3.org/2000/svg">
<path fill-rule="evenodd" clip-rule="evenodd" d="M15.4937 4.24888C15.2006 4.1166 15 3.83179 15 3.5103C15 2.9886 15.5073 2.61773 15.9857 2.82585C18.304 3.83443 20.1656 5.69603 21.1742 8.01436C21.3823 8.49275 21.0114 9.00001 20.4897 9.00001C20.1682 9.00001 19.8834 8.79939 19.7512 8.50637C18.8996 6.62015 17.3799 5.10038 15.4937 4.24888ZM9.00002 3.5103C9.00002 2.9886 8.49275 2.61773 8.01436 2.82585C5.69603 3.83443 3.83443 5.69603 2.82585 8.01436C2.61773 8.49275 2.9886 9.00001 3.5103 9.00001C3.83179 9.00001 4.1166 8.79939 4.24888 8.50637C5.10038 6.62015 6.62015 5.10038 8.50637 4.24888C8.79939 4.1166 9.00002 3.83179 9.00002 3.5103ZM15.4937 19.7512C15.2006 19.8834 15 20.1682 15 20.4897C15 21.0114 15.5073 21.3823 15.9857 21.1742C18.304 20.1656 20.1656 18.304 21.1742 15.9857C21.3823 15.5073 21.0114 15 20.4897 15C20.1682 15 19.8834 15.2006 19.7512 15.4937C18.8996 17.3799 17.3799 18.8996 15.4937 19.7512ZM3.5103 15C3.83179 15 4.1166 15.2006 4.24888 15.4937C5.10038 17.3799 6.62015 18.8996 8.50637 19.7512C8.79939 19.8834 9.00002 20.1682 9.00002 20.4897C9.00002 21.0114 8.49275 21.3823 8.01436 21.1742C5.69603 20.1656 3.83443 18.304 2.82585 15.9857C2.61773 15.5073 2.9886 15 3.5103 15ZM12 6.50001C11.8066 6.50001 11.6157 6.50996 11.4279 6.52934C11.0159 6.57185 10.6474 6.2723 10.6049 5.86027C10.5624 5.44825 10.862 5.07977 11.274 5.03726C11.5129 5.01261 11.7551 5.00001 12 5.00001C15.3315 5.00001 18.1178 7.32664 18.826 10.443C18.9178 10.8469 18.6648 11.2487 18.2609 11.3405C17.857 11.4323 17.4551 11.1793 17.3633 10.7754C16.8069 8.32702 14.6159 6.50001 12 6.50001ZM9.12101 6.40065C9.35326 6.74363 9.26349 7.20994 8.92051 7.44219C7.45838 8.43227 6.49999 10.1043 6.49999 12C6.49999 13.1423 6.84738 14.2011 7.44217 15.0795C7.67442 15.4225 7.58466 15.8888 7.24168 16.121C6.8987 16.3533 6.43239 16.2635 6.20014 15.9205C5.44254 14.8017 4.99999 13.4514 4.99999 12C4.99999 9.58576 6.22284 7.45738 8.07947 6.20016C8.42245 5.96791 8.88876 6.05767 9.12101 6.40065ZM18.2305 12.905C18.6305 13.0127 18.8674 13.4242 18.7597 13.8242C17.9571 16.8051 15.2358 19 12 19C10.8285 19 9.7221 18.7116 8.75015 18.2013C8.38341 18.0088 8.2422 17.5554 8.43474 17.1886C8.62729 16.8219 9.08068 16.6807 9.44742 16.8732C10.2095 17.2733 11.0771 17.5 12 17.5C14.5405 17.5 16.6805 15.7768 17.3113 13.4342C17.419 13.0342 17.8306 12.7973 18.2305 12.905ZM9.49999 12C9.49999 10.6193 10.6193 9.50001 12 9.50001C13.3807 9.50001 14.5 10.6193 14.5 12C14.5 13.3807 13.3807 14.5 12 14.5C10.6193 14.5 9.49999 13.3807 9.49999 12ZM12 8.00001C9.79085 8.00001 7.99999 9.79087 7.99999 12C7.99999 14.2091 9.79085 16 12 16C14.2091 16 16 14.2091 16 12C16 9.79087 14.2091 8.00001 12 8.00001Z" fill="black"/>
</svg>
