<svg width="24" height="24" viewBox="0 0 24 24" fill="none" xmlns="http://www.w3.org/2000/svg">
<path d="M21.7912 2.21967C22.0574 2.48594 22.0816 2.9026 21.8638 3.19621L21.7912 3.28033L20.0708 5H20.5C20.9142 5 21.25 5.33579 21.25 5.75C21.25 6.1297 20.9678 6.44349 20.6018 6.49315L20.5 6.5H19.704L18.4239 19.5192C18.2912 20.8683 17.1984 21.91 15.8626 21.9945L15.6871 22H8.31293C6.95734 22 5.81365 21.0145 5.59883 19.6934L5.57383 19.496L3.29116 21.7803C3.0249 22.0466 2.60823 22.0708 2.31462 21.8529L2.2305 21.7803C1.96424 21.5141 1.94003 21.0974 2.15789 20.8038L2.2305 20.7197L20.7305 2.21967C21.0234 1.92678 21.4983 1.92678 21.7912 2.21967ZM14.4998 10.57L14.5 17C14.5 17.4142 14.1642 17.75 13.75 17.75C13.3703 17.75 13.0565 17.4678 13.0068 17.1018L13 17L12.9998 12.07L10.9998 14.07L11 17C11 17.4142 10.6642 17.75 10.25 17.75C9.8703 17.75 9.55651 17.4678 9.50684 17.1018L9.5 17L9.49983 15.57L6.94583 18.124L7.06893 19.3724C7.12767 19.9696 7.60033 20.4343 8.18584 20.4936L8.31293 20.5H15.6871C16.2872 20.5 16.7959 20.0751 16.9123 19.4982L16.9311 19.3724L18.1558 6.914L14.4998 10.57ZM12 1.75C13.733 1.75 15.1492 3.10645 15.2449 4.81558L15.25 5H15.939L14.439 6.5H5.802L6.575 14.364L5.204 15.735L4.295 6.5H3.5C3.1203 6.5 2.80651 6.21785 2.75684 5.85177L2.75 5.75C2.75 5.3703 3.03215 5.05651 3.39823 5.00685L3.5 5H8.75C8.75 3.20507 10.2051 1.75 12 1.75ZM10.25 9.25C10.6297 9.25 10.9435 9.53215 10.9932 9.89823L10.996 9.943L9.5 11.439V10C9.5 9.58579 9.83578 9.25 10.25 9.25ZM12 3.25C11.0818 3.25 10.3288 3.95711 10.2558 4.85647L10.25 5H13.75C13.75 4.0335 12.9665 3.25 12 3.25Z" fill="black"/>
</svg>
