<svg width="24" height="24" viewBox="0 0 24 24" fill="none" xmlns="http://www.w3.org/2000/svg">
<path d="M12 3C12.3797 3 12.6935 3.28215 12.7431 3.64823L12.75 3.75V20.25C12.75 20.6642 12.4142 21 12 21C11.6203 21 11.3065 20.7178 11.2568 20.3518L11.25 20.25V3.75C11.25 3.33579 11.5858 3 12 3ZM8.25493 6C8.63463 6 8.94842 6.28215 8.99809 6.64823L9.00493 6.75V17.25C9.00493 17.6642 8.66915 18 8.25493 18C7.87524 18 7.56144 17.7178 7.51178 17.3518L7.50493 17.25V6.75C7.50493 6.33579 7.84072 6 8.25493 6ZM15.745 6C16.1247 6 16.4385 6.28215 16.4882 6.64823L16.495 6.75V17.25C16.495 17.6642 16.1593 18 15.745 18C15.3653 18 15.0515 17.7178 15.0019 17.3518L14.995 17.25V6.75C14.995 6.33579 15.3308 6 15.745 6ZM4.7511 9C5.13079 9 5.44459 9.28215 5.49425 9.64823L5.5011 9.75V14.25C5.5011 14.6642 5.16531 15 4.7511 15C4.3714 15 4.05761 14.7178 4.00795 14.3518L4.0011 14.25V9.75C4.0011 9.33579 4.33689 9 4.7511 9ZM19.2522 9C19.6319 9 19.9457 9.28215 19.9953 9.64823L20.0022 9.75V14.2487C20.0022 14.6629 19.6664 14.9987 19.2522 14.9987C18.8725 14.9987 18.5587 14.7165 18.509 14.3504L18.5022 14.2487V9.75C18.5022 9.33579 18.838 9 19.2522 9Z" fill="black"/>
</svg>
