<svg width="24" height="24" viewBox="0 0 24 24" fill="none" xmlns="http://www.w3.org/2000/svg">
<path d="M12 17.75C12.6903 17.75 13.25 18.3096 13.25 19C13.25 19.6904 12.6903 20.25 12 20.25C11.3096 20.25 10.75 19.6904 10.75 19C10.75 18.3096 11.3096 17.75 12 17.75ZM12 12.75C12.6903 12.75 13.25 13.3096 13.25 14C13.25 14.6904 12.6903 15.25 12 15.25C11.3096 15.25 10.75 14.6904 10.75 14C10.75 13.3096 11.3096 12.75 12 12.75ZM16.996 12.75C17.6863 12.75 18.246 13.3096 18.246 14C18.246 14.6904 17.6863 15.25 16.996 15.25C16.3056 15.25 15.746 14.6904 15.746 14C15.746 13.3096 16.3056 12.75 16.996 12.75ZM7.00403 12.75C7.69438 12.75 8.25403 13.3096 8.25403 14C8.25403 14.6904 7.69438 15.25 7.00403 15.25C6.31367 15.25 5.75403 14.6904 5.75403 14C5.75403 13.3096 6.31367 12.75 7.00403 12.75ZM12 7.75C12.6903 7.75 13.25 8.30964 13.25 9C13.25 9.69036 12.6903 10.25 12 10.25C11.3096 10.25 10.75 9.69036 10.75 9C10.75 8.30964 11.3096 7.75 12 7.75ZM16.996 7.75C17.6863 7.75 18.246 8.30964 18.246 9C18.246 9.69036 17.6863 10.25 16.996 10.25C16.3056 10.25 15.746 9.69036 15.746 9C15.746 8.30964 16.3056 7.75 16.996 7.75ZM7.00403 7.75C7.69438 7.75 8.25403 8.30964 8.25403 9C8.25403 9.69036 7.69438 10.25 7.00403 10.25C6.31367 10.25 5.75403 9.69036 5.75403 9C5.75403 8.30964 6.31367 7.75 7.00403 7.75ZM12 2.75C12.6903 2.75 13.25 3.30964 13.25 4C13.25 4.69036 12.6903 5.25 12 5.25C11.3096 5.25 10.75 4.69036 10.75 4C10.75 3.30964 11.3096 2.75 12 2.75ZM16.996 2.75C17.6863 2.75 18.246 3.30964 18.246 4C18.246 4.69036 17.6863 5.25 16.996 5.25C16.3056 5.25 15.746 4.69036 15.746 4C15.746 3.30964 16.3056 2.75 16.996 2.75ZM7.00403 2.75C7.69438 2.75 8.25403 3.30964 8.25403 4C8.25403 4.69036 7.69438 5.25 7.00403 5.25C6.31367 5.25 5.75403 4.69036 5.75403 4C5.75403 3.30964 6.31367 2.75 7.00403 2.75Z" fill="black"/>
</svg>
