<svg width="24" height="24" viewBox="0 0 24 24" fill="none" xmlns="http://www.w3.org/2000/svg">
<path d="M21.7803 2.21967C22.0466 2.48594 22.0708 2.9026 21.8529 3.19621L21.7803 3.28033L17.2783 7.78201C17.8327 7.90998 18.246 8.40673 18.246 9C18.246 9.69036 17.6863 10.25 16.996 10.25C16.4027 10.25 15.906 9.83669 15.778 9.2823L12.2793 12.7813C12.8352 12.9082 13.25 13.4056 13.25 14C13.25 14.6904 12.6904 15.25 12 15.25C11.4056 15.25 10.9082 14.8352 10.7813 14.2793L3.28033 21.7803C2.98744 22.0732 2.51256 22.0732 2.21967 21.7803C1.9534 21.5141 1.9292 21.0974 2.14705 20.8038L2.21967 20.7197L20.7197 2.21967C21.0126 1.92678 21.4874 1.92678 21.7803 2.21967ZM12 17.75C12.6904 17.75 13.25 18.3096 13.25 19C13.25 19.6904 12.6904 20.25 12 20.25C11.3096 20.25 10.75 19.6904 10.75 19C10.75 18.3096 11.3096 17.75 12 17.75ZM16.996 12.75C17.6863 12.75 18.246 13.3096 18.246 14C18.246 14.6904 17.6863 15.25 16.996 15.25C16.3056 15.25 15.746 14.6904 15.746 14C15.746 13.3096 16.3056 12.75 16.996 12.75ZM7.00403 12.75C7.30117 12.75 7.57409 12.8537 7.7886 13.0268L6.03086 14.7846C5.85771 14.5701 5.75403 14.2971 5.75403 14C5.75403 13.3096 6.31368 12.75 7.00403 12.75ZM7.00403 7.75C7.69439 7.75 8.25403 8.30964 8.25403 9C8.25403 9.69036 7.69439 10.25 7.00403 10.25C6.31368 10.25 5.75403 9.69036 5.75403 9C5.75403 8.30964 6.31368 7.75 7.00403 7.75ZM12 7.75C12.298 7.75 12.5717 7.8543 12.7865 8.02839L11.0284 9.78649C10.8543 9.57169 10.75 9.29803 10.75 9C10.75 8.30964 11.3096 7.75 12 7.75ZM12 2.75C12.6904 2.75 13.25 3.30964 13.25 4C13.25 4.69036 12.6904 5.25 12 5.25C11.3096 5.25 10.75 4.69036 10.75 4C10.75 3.30964 11.3096 2.75 12 2.75ZM7.00403 2.75C7.69439 2.75 8.25403 3.30964 8.25403 4C8.25403 4.69036 7.69439 5.25 7.00403 5.25C6.31368 5.25 5.75403 4.69036 5.75403 4C5.75403 3.30964 6.31368 2.75 7.00403 2.75ZM16.996 2.75C17.2949 2.75 17.5693 2.85492 17.7844 3.02995L16.0259 4.78841C15.8509 4.57333 15.746 4.29892 15.746 4C15.746 3.30964 16.3056 2.75 16.996 2.75Z" fill="black"/>
</svg>
