<svg width="24" height="24" viewBox="0 0 24 24" fill="none" xmlns="http://www.w3.org/2000/svg">
<path d="M14.2981 2.98437L21.0156 9.70189C22.2848 10.9711 22.2848 13.0289 21.0156 14.2981L14.2981 21.0156C13.0289 22.2848 10.9711 22.2848 9.70189 21.0156L2.98437 14.2981C1.71517 13.0289 1.71517 10.9711 2.98437 9.70189L9.70189 2.98437C10.9711 1.71517 13.0289 1.71517 14.2981 2.98437ZM10.7625 4.04503L4.04503 10.7625C3.36162 11.446 3.36162 12.554 4.04503 13.2374L10.7625 19.9549C11.446 20.6384 12.554 20.6384 13.2374 19.9549L19.9549 13.2374C20.6384 12.554 20.6384 11.446 19.9549 10.7625L13.2374 4.04503C12.554 3.36162 11.446 3.36162 10.7625 4.04503ZM12.4577 7.30443L12.5303 7.22032C12.7966 6.95405 13.2132 6.92984 13.5069 7.1477L13.591 7.22032L15.591 9.22032C15.8572 9.48658 15.8814 9.90324 15.6636 10.1969L15.591 10.281L13.591 12.281C13.2981 12.5739 12.8232 12.5739 12.5303 12.281C12.264 12.0147 12.2398 11.598 12.4577 11.3044L12.5303 11.2203L13.2495 10.4995L11.75 10.5C11.1028 10.5 10.5705 10.9919 10.5064 11.6222L10.5 11.75V15C10.5 15.4142 10.1642 15.75 9.74999 15.75C9.37029 15.75 9.05649 15.4678 9.00683 15.1018L8.99999 15V11.75C8.99999 10.2875 10.1417 9.09158 11.5825 9.005L11.75 8.99999L13.2485 8.99947L12.5303 8.28098C12.264 8.01471 12.2398 7.59805 12.4577 7.30443L12.5303 7.22032L12.4577 7.30443Z" fill="black"/>
</svg>
