<svg width="24" height="24" viewBox="0 0 24 24" fill="none" xmlns="http://www.w3.org/2000/svg">
<path d="M20.25 11.9931C21.2165 11.9931 22 12.7766 22 13.7431V16.2431C22 17.2096 21.2165 17.9931 20.25 17.9931H17.75C16.7835 17.9931 16 17.2096 16 16.2431V13.7431C16 12.7766 16.7835 11.9931 17.75 11.9931H20.25ZM6.25 11.9931C7.2165 11.9931 8 12.7766 8 13.7431V16.2431C8 17.2096 7.2165 17.9931 6.25 17.9931H3.75C2.7835 17.9931 2 17.2096 2 16.2431V13.7431C2 12.7766 2.7835 11.9931 3.75 11.9931H6.25ZM13.25 11.9931C14.2165 11.9931 15 12.7766 15 13.7431V16.2431C15 17.2096 14.2165 17.9931 13.25 17.9931H10.75C9.7835 17.9931 9 17.2096 9 16.2431V13.7431C9 12.7766 9.7835 11.9931 10.75 11.9931H13.25ZM20.25 13.4931H17.75C17.6119 13.4931 17.5 13.605 17.5 13.7431V16.2431C17.5 16.3811 17.6119 16.4931 17.75 16.4931H20.25C20.3881 16.4931 20.5 16.3811 20.5 16.2431V13.7431C20.5 13.605 20.3881 13.4931 20.25 13.4931ZM6.25 13.4931H3.75C3.61193 13.4931 3.5 13.605 3.5 13.7431V16.2431C3.5 16.3811 3.61193 16.4931 3.75 16.4931H6.25C6.38807 16.4931 6.5 16.3811 6.5 16.2431V13.7431C6.5 13.605 6.38807 13.4931 6.25 13.4931ZM13.25 13.4931H10.75C10.6119 13.4931 10.5 13.605 10.5 13.7431V16.2431C10.5 16.3811 10.6119 16.4931 10.75 16.4931H13.25C13.3881 16.4931 13.5 16.3811 13.5 16.2431V13.7431C13.5 13.605 13.3881 13.4931 13.25 13.4931ZM13.25 4.99306C14.2165 4.99306 15 5.77656 15 6.74306V9.24306C15 10.2096 14.2165 10.9931 13.25 10.9931H10.75C9.7835 10.9931 9 10.2096 9 9.24306V6.74306C9 5.77656 9.7835 4.99306 10.75 4.99306H13.25ZM20.25 4.99306C21.2165 4.99306 22 5.77656 22 6.74306V9.24306C22 10.2096 21.2165 10.9931 20.25 10.9931H17.75C16.7835 10.9931 16 10.2096 16 9.24306V6.74306C16 5.77656 16.7835 4.99306 17.75 4.99306H20.25ZM6.25 4.99306C7.2165 4.99306 8 5.77656 8 6.74306V9.24306C8 10.2096 7.2165 10.9931 6.25 10.9931H3.75C2.7835 10.9931 2 10.2096 2 9.24306V6.74306C2 5.82488 2.70711 5.07186 3.60647 4.99886L3.75 4.99306H6.25ZM13.25 6.49306H10.75C10.6119 6.49306 10.5 6.60499 10.5 6.74306V9.24306C10.5 9.38113 10.6119 9.49306 10.75 9.49306H13.25C13.3881 9.49306 13.5 9.38113 13.5 9.24306V6.74306C13.5 6.60499 13.3881 6.49306 13.25 6.49306ZM20.25 6.49306H17.75C17.6119 6.49306 17.5 6.60499 17.5 6.74306V9.24306C17.5 9.38113 17.6119 9.49306 17.75 9.49306H20.25C20.3881 9.49306 20.5 9.38113 20.5 9.24306V6.74306C20.5 6.60499 20.3881 6.49306 20.25 6.49306ZM6.25 6.49306H3.75L3.69268 6.49966C3.58223 6.52557 3.5 6.62471 3.5 6.74306V9.24306C3.5 9.38113 3.61193 9.49306 3.75 9.49306H6.25C6.38807 9.49306 6.5 9.38113 6.5 9.24306V6.74306C6.5 6.60499 6.38807 6.49306 6.25 6.49306Z" fill="black"/>
</svg>
