<svg width="24" height="24" viewBox="0 0 24 24" fill="none" xmlns="http://www.w3.org/2000/svg">
<path d="M20.8773 2.82529L21.0303 2.96967L21.1747 3.12264C22.426 4.52786 22.3779 6.68277 21.0303 8.03033L9.06198 19.9987C8.7851 20.2755 8.44076 20.4754 8.063 20.5784L2.94731 21.9736C2.38744 22.1263 1.87371 21.6125 2.0264 21.0527L3.42159 15.937C3.52462 15.5592 3.72444 15.2149 4.00132 14.938L15.9696 2.96967C17.3172 1.62211 19.4721 1.57399 20.8773 2.82529ZM15.0001 6.06057L5.06198 15.9987C4.96969 16.0909 4.90308 16.2057 4.86874 16.3316L3.81889 20.1811L7.66833 19.1312C7.79425 19.0969 7.90903 19.0303 8.00132 18.938L17.9391 8.99957L15.0001 6.06057ZM6.52497 10.9996L5.02497 12.4996L2.74997 12.5C2.33576 12.5 1.99997 12.1642 1.99997 11.75C1.99997 11.3358 2.33576 11 2.74997 11L6.52497 10.9996ZM10.525 6.99957L9.02497 8.49957L2.74997 8.5C2.33576 8.5 1.99997 8.16421 1.99997 7.75C1.99997 7.33578 2.33576 7 2.74997 7L10.525 6.99957ZM17.0303 4.03033L16.0601 4.99957L18.9991 7.93957L19.9696 6.96967C20.7813 6.15799 20.7813 4.842 19.9696 4.03033C19.158 3.21865 17.842 3.21865 17.0303 4.03033ZM14.525 2.99957L13.025 4.49957L2.74997 4.5C2.33576 4.5 1.99997 4.16421 1.99997 3.75C1.99997 3.33578 2.33576 3 2.74997 3L14.525 2.99957Z" fill="black"/>
</svg>
