<svg width="24" height="24" viewBox="0 0 24 24" fill="none" xmlns="http://www.w3.org/2000/svg">
<path d="M12 16.5C12.3797 16.5 12.6935 16.7821 12.7431 17.1482L12.75 17.25V19.438L13.4696 18.7197C13.7359 18.4534 14.1526 18.4292 14.4462 18.647L14.5303 18.7197C14.7966 18.9859 14.8208 19.4026 14.6029 19.6962L14.5303 19.7803L12.5303 21.7803L12.4922 21.8159L12.42 21.8715L12.3251 21.9261L12.2386 21.9612L12.1363 21.9876L12.0514 21.9982H11.9484L11.8286 21.9803L11.7607 21.961L11.7018 21.9384L11.6309 21.9031L11.5796 21.8712L11.5484 21.8488C11.5205 21.8278 11.4942 21.8049 11.4696 21.7803L9.46964 19.7803C9.17675 19.4874 9.17675 19.0125 9.46964 18.7197C9.73591 18.4534 10.1526 18.4292 10.4462 18.647L10.5303 18.7197L11.25 19.439V17.25C11.25 16.8703 11.5321 16.5565 11.8982 16.5068L12 16.5ZM12 8.99999C13.6568 8.99999 15 10.3431 15 12C15 13.6568 13.6568 15 12 15C10.3431 15 8.99997 13.6568 8.99997 12C8.99997 10.3431 10.3431 8.99999 12 8.99999ZM18.7196 9.46966C18.9859 9.20339 19.4026 9.17918 19.6962 9.39704L19.7803 9.46966L21.7803 11.4697L21.8159 11.5078L21.8715 11.5799L21.926 11.6748L21.9612 11.7613L21.9876 11.8637L21.9982 11.9486V12.0514L21.9802 12.1714L21.961 12.2393L21.9384 12.2981L21.9031 12.369L21.8712 12.4203L21.8437 12.4583L21.7803 12.5303L19.7803 14.5303C19.4874 14.8232 19.0125 14.8232 18.7196 14.5303C18.4534 14.264 18.4292 13.8474 18.647 13.5538L18.7196 13.4697L19.438 12.75H17.25C16.8703 12.75 16.5565 12.4678 16.5068 12.1018L16.5 12C16.5 11.6203 16.7821 11.3065 17.1482 11.2568L17.25 11.25H19.439L18.7196 10.5303C18.4534 10.264 18.4292 9.84739 18.647 9.55377L18.7196 9.46966ZM4.21964 9.46966C4.51254 9.17676 4.98741 9.17676 5.2803 9.46966C5.54657 9.73592 5.57078 10.1526 5.35292 10.4462L5.2803 10.5303L4.55997 11.25H6.74997C7.12967 11.25 7.44346 11.5321 7.49313 11.8982L7.49997 12C7.49997 12.3797 7.21782 12.6935 6.85174 12.7431L6.74997 12.75H4.56097L5.2803 13.4697C5.54657 13.7359 5.57078 14.1526 5.35292 14.4462L5.2803 14.5303C5.01404 14.7966 4.59737 14.8208 4.30376 14.6029L4.21964 14.5303L2.21964 12.5303L2.12847 12.42L2.0739 12.3252L2.03879 12.2387L2.01239 12.1363L2.00134 12.0454L2.00144 11.9529L2.01971 11.8286L2.03895 11.7607L2.06157 11.7018L2.09683 11.6309L2.12874 11.5797L2.15114 11.5484C2.17214 11.5206 2.19504 11.4943 2.21964 11.4697L4.21964 9.46966ZM12 10.5C11.1715 10.5 10.5 11.1716 10.5 12C10.5 12.8284 11.1715 13.5 12 13.5C12.8284 13.5 13.5 12.8284 13.5 12C13.5 11.1716 12.8284 10.5 12 10.5ZM11.8637 2.0124L11.9306 2.00315L12.0174 2.00018L12.0774 2.00397L12.1713 2.01972L12.2393 2.03897L12.2981 2.06159L12.369 2.09685L12.4203 2.12875L12.4583 2.15626L12.5303 2.21966L14.5303 4.21966C14.8232 4.51255 14.8232 4.98742 14.5303 5.28032C14.264 5.54658 13.8474 5.57079 13.5538 5.35293L13.4696 5.28032L12.75 4.56099V6.74999C12.75 7.12968 12.4678 7.44348 12.1017 7.49314L12 7.49999C11.6203 7.49999 11.3065 7.21783 11.2568 6.85176L11.25 6.74999V4.55999L10.5303 5.28032C10.264 5.54658 9.84737 5.57079 9.55376 5.35293L9.46964 5.28032C9.20338 5.01405 9.17917 4.59739 9.39703 4.30377L9.46964 4.21966L11.4696 2.21966L11.5799 2.12848L11.6748 2.07392L11.7613 2.0388L11.8637 2.0124Z" fill="black"/>
</svg>
