<svg width="24" height="24" viewBox="0 0 24 24" fill="none" xmlns="http://www.w3.org/2000/svg">
<path d="M15.7197 2.21967C16.0126 1.92678 16.4875 1.92678 16.7804 2.21967C17.0732 2.51256 17.0732 2.98744 16.7804 3.28033L15.5594 4.5H17.75C18.067 4.5 18.3497 4.69925 18.4563 4.99775L19.7063 8.49775C19.8808 8.98618 19.5187 9.5 19 9.5H17.9554L16.368 19.5493C16.1586 21.0145 14.9089 22 13.3981 22H10.6019C9.09108 22 7.84137 21.0145 7.63371 19.5602L6.04439 9.5H5.00002C4.48138 9.5 4.11928 8.98618 4.29372 8.49775L5.54372 4.99775C5.65032 4.69925 5.93306 4.5 6.25002 4.5H13.4384L15.7197 2.21967ZM16.4364 9.5H7.56239L9.11699 19.3371C9.21628 20.0322 9.8095 20.5 10.6019 20.5H13.3981C14.1905 20.5 14.7837 20.0322 14.8847 19.3262L16.4364 9.5ZM17.2215 6H6.77856L6.06428 8H17.9358L17.2215 6Z" fill="black"/>
</svg>
