<svg width="24" height="24" viewBox="0 0 24 24" fill="none" xmlns="http://www.w3.org/2000/svg">
<path d="M12 2.00462C17.5228 2.00462 22 6.48178 22 12.0046C22 17.5275 17.5228 22.0046 12 22.0046C6.47715 22.0046 2 17.5275 2 12.0046C2 6.48178 6.47715 2.00462 12 2.00462ZM12 3.50462C7.30558 3.50462 3.5 7.3102 3.5 12.0046C3.5 16.699 7.30558 20.5046 12 20.5046C16.6944 20.5046 20.5 16.699 20.5 12.0046C20.5 7.3102 16.6944 3.50462 12 3.50462ZM12 13C13.2426 13 14.25 14.0074 14.25 15.25C14.25 16.4926 13.2426 17.5 12 17.5C10.7574 17.5 9.75 16.4926 9.75 15.25C9.75 14.0074 10.7574 13 12 13ZM9.00045 8.75116C9.69041 8.75116 10.2497 9.31048 10.2497 10.0004C10.2497 10.6904 9.69041 11.2497 9.00045 11.2497C8.31048 11.2497 7.75116 10.6904 7.75116 10.0004C7.75116 9.31048 8.31048 8.75116 9.00045 8.75116ZM15.0004 8.75116C15.6904 8.75116 16.2497 9.31048 16.2497 10.0004C16.2497 10.6904 15.6904 11.2497 15.0004 11.2497C14.3105 11.2497 13.7512 10.6904 13.7512 10.0004C13.7512 9.31048 14.3105 8.75116 15.0004 8.75116Z" fill="black"/>
</svg>
