<svg width="24" height="24" viewBox="0 0 24 24" fill="none" xmlns="http://www.w3.org/2000/svg">
<path d="M12 1.99896C17.5237 1.99896 22.0016 6.47681 22.0016 12.0005C22.0016 17.5242 17.5237 22.0021 12 22.0021C6.47632 22.0021 1.99847 17.5242 1.99847 12.0005C1.99847 6.47681 6.47632 1.99896 12 1.99896ZM12 3.49896C7.30475 3.49896 3.49847 7.30524 3.49847 12.0005C3.49847 16.6958 7.30475 20.5021 12 20.5021C16.6953 20.5021 20.5016 16.6958 20.5016 12.0005C20.5016 7.30524 16.6953 3.49896 12 3.49896ZM12 13.498C13.6313 13.498 15.1604 14.1529 16.2811 15.2934C16.5714 15.5889 16.5672 16.0637 16.2718 16.3541C15.9763 16.6444 15.5014 16.6402 15.2111 16.3447C14.3697 15.4884 13.2247 14.998 12 14.998C10.7726 14.998 9.62537 15.4905 8.7835 16.3503C8.49369 16.6462 8.01885 16.6512 7.7229 16.3614C7.42695 16.0716 7.42197 15.5967 7.71178 15.3008C8.83299 14.1558 10.3652 13.498 12 13.498ZM9.00047 8.75115C9.69044 8.75115 10.2498 9.31048 10.2498 10.0004C10.2498 10.6904 9.69044 11.2497 9.00047 11.2497C8.31051 11.2497 7.75118 10.6904 7.75118 10.0004C7.75118 9.31048 8.31051 8.75115 9.00047 8.75115ZM15.0005 8.75115C15.6904 8.75115 16.2498 9.31048 16.2498 10.0004C16.2498 10.6904 15.6904 11.2497 15.0005 11.2497C14.3105 11.2497 13.7512 10.6904 13.7512 10.0004C13.7512 9.31048 14.3105 8.75115 15.0005 8.75115Z" fill="black"/>
</svg>
