<svg width="24" height="24" viewBox="0 0 24 24" fill="none" xmlns="http://www.w3.org/2000/svg">
<path d="M12 2.00462C17.5228 2.00462 22 6.48178 22 12.0046C22 17.5275 17.5228 22.0046 12 22.0046C6.47715 22.0046 2 17.5275 2 12.0046C2 6.48178 6.47715 2.00462 12 2.00462ZM12 3.50462C7.30558 3.50462 3.5 7.3102 3.5 12.0046C3.5 16.699 7.30558 20.5046 12 20.5046C16.6944 20.5046 20.5 16.699 20.5 12.0046C20.5 7.3102 16.6944 3.50462 12 3.50462ZM12 13.498C13.6312 13.498 15.1604 14.1529 16.281 15.2934C16.5714 15.5889 16.5672 16.0637 16.2717 16.3541C15.9763 16.6444 15.5014 16.6402 15.2111 16.3447C14.3696 15.4884 13.2247 14.998 12 14.998C10.7726 14.998 9.62535 15.4905 8.78348 16.3503C8.49367 16.6462 8.01882 16.6512 7.72287 16.3614C7.42693 16.0716 7.42195 15.5967 7.71175 15.3008C8.83296 14.1558 10.3652 13.498 12 13.498ZM7.16435 6.78148C7.39958 6.48744 7.81102 6.41736 8.1269 6.60146L8.21852 6.66435L10.7185 8.66435C11.042 8.9231 11.0944 9.39507 10.8357 9.71852C10.6876 9.90363 10.4696 9.99997 10.2497 10C10.2497 10.6904 9.69041 11.2497 9.00045 11.2497C8.31048 11.2497 7.75116 10.6904 7.75116 10.0004C7.75116 9.47427 8.07645 9.02408 8.5369 8.83998L7.28148 7.83565C6.95803 7.57689 6.90559 7.10492 7.16435 6.78148ZM13.2825 8.66445L15.7813 6.66445C16.1047 6.40562 16.5767 6.45796 16.8355 6.78135C17.0708 7.07533 17.049 7.49213 16.8001 7.75994L16.7187 7.83554L15.4632 8.83967C15.9241 9.02356 16.2497 9.47398 16.2497 10.0004C16.2497 10.6904 15.6904 11.2497 15.0004 11.2497C14.3536 11.2497 13.8216 10.7581 13.7576 10.1282L13.7512 9.99841C13.5317 10 13.3137 9.90373 13.1656 9.71865C12.9303 9.42466 12.9522 9.00787 13.2011 8.74006L13.2825 8.66445L15.7813 6.66445L13.2825 8.66445Z" fill="black"/>
</svg>
