<svg width="24" height="24" viewBox="0 0 24 24" fill="none" xmlns="http://www.w3.org/2000/svg">
<path d="M17.5 12C20.5376 12 23 14.4624 23 17.5C23 20.5376 20.5376 23 17.5 23C14.4625 23 12 20.5376 12 17.5C12 14.4624 14.4625 12 17.5 12ZM12 1.99897C17.5237 1.99897 22.0016 6.47681 22.0016 12.0005C22.0016 12.2637 21.9914 12.5246 21.9714 12.7827C21.5336 12.3671 21.0377 12.0121 20.4973 11.7308C20.3552 7.16057 16.6052 3.49897 12 3.49897C7.30475 3.49897 3.49847 7.30524 3.49847 12.0005C3.49847 16.606 7.16062 20.3562 11.7318 20.4979C12.0125 21.0382 12.3674 21.5338 12.7825 21.9716C12.5248 21.9919 12.2636 22.0021 12 22.0021C6.47632 22.0021 1.99847 17.5242 1.99847 12.0005C1.99847 6.47681 6.47632 1.99897 12 1.99897ZM17.5 13.9992L17.4101 14.0073C17.2061 14.0443 17.0451 14.2053 17.0081 14.4094L17 14.4992L16.9997 16.9992L14.4977 17L14.4078 17.0081C14.2037 17.0451 14.0428 17.206 14.0057 17.4101L13.9977 17.5L14.0057 17.5899C14.0428 17.794 14.2037 17.9549 14.4078 17.9919L14.4977 18L17.0007 17.9992L17.0011 20.5035L17.0092 20.5934C17.0462 20.7975 17.2072 20.9584 17.4113 20.9954L17.5011 21.0035L17.591 20.9954C17.7951 20.9584 17.956 20.7975 17.9931 20.5934L18.0011 20.5035L18.0007 17.9992L20.5046 18L20.5945 17.9919C20.7986 17.9549 20.9595 17.794 20.9965 17.5899L21.0046 17.5L20.9965 17.4101C20.9595 17.206 20.7986 17.0451 20.5945 17.0081L20.5046 17L17.9997 16.9992L18 14.4992L17.992 14.4094C17.9549 14.2053 17.794 14.0443 17.5899 14.0073L17.5 13.9992ZM8.46176 14.7838C9.12312 15.6232 10.0525 16.1974 11.0918 16.4103C11.0312 16.7638 11 17.1283 11 17.5C11 17.6409 11.0045 17.7807 11.0133 17.9194C9.53815 17.6767 8.21131 16.8897 7.28354 15.7122C7.02719 15.3868 7.08313 14.9152 7.40849 14.6589C7.73385 14.4025 8.20542 14.4585 8.46176 14.7838ZM9.00047 8.75116C9.69044 8.75116 10.2498 9.31048 10.2498 10.0004C10.2498 10.6904 9.69044 11.2497 9.00047 11.2497C8.31051 11.2497 7.75118 10.6904 7.75118 10.0004C7.75118 9.31048 8.31051 8.75116 9.00047 8.75116ZM15.0005 8.75116C15.6904 8.75116 16.2498 9.31048 16.2498 10.0004C16.2498 10.6904 15.6904 11.2497 15.0005 11.2497C14.3105 11.2497 13.7512 10.6904 13.7512 10.0004C13.7512 9.31048 14.3105 8.75116 15.0005 8.75116Z" fill="black"/>
</svg>
