<svg width="24" height="24" viewBox="0 0 24 24" fill="none" xmlns="http://www.w3.org/2000/svg">
<path d="M15.8699 2.66881L20.8384 7.63733C21.7171 8.51601 21.7171 9.94063 20.8384 10.8193L12.1566 19.4998L18.2545 19.5C18.6342 19.5 18.948 19.7821 18.9977 20.1482L19.0045 20.25C19.0045 20.6297 18.7224 20.9435 18.3563 20.9931L18.2545 21L9.84449 21.0012C9.22828 21.0349 8.60088 20.8163 8.13016 20.3456L3.16163 15.3771C2.28295 14.4984 2.28295 13.0738 3.16163 12.1951L12.6879 2.66881C13.5666 1.79013 14.9912 1.79013 15.8699 2.66881ZM5.70862 11.7678L4.22229 13.2557C3.9294 13.5486 3.9294 14.0235 4.22229 14.3164L9.19082 19.2849C9.33727 19.4314 9.52921 19.5046 9.72115 19.5046L9.75003 19.5L9.78853 19.5016C9.95743 19.4864 10.1222 19.4142 10.2515 19.2849L11.7376 17.7978L5.70862 11.7678ZM13.7486 3.72947L6.76962 10.7068L12.7986 16.7368L19.7778 9.75865C20.0707 9.46576 20.0707 8.99089 19.7778 8.69799L14.8092 3.72947C14.5163 3.43657 14.0415 3.43657 13.7486 3.72947Z" fill="black"/>
</svg>
