<svg width="24" height="24" viewBox="0 0 24 24" fill="none" xmlns="http://www.w3.org/2000/svg">
<path d="M13 2.00424C14.5977 2.00424 15.9037 3.25316 15.994 4.82327L15.999 4.99901L18.25 5.00001C19.1172 5.00001 19.837 5.63073 19.9758 6.45858L19.9942 6.60663L20 6.75019L19.9991 10.5012L18.0015 10.5013C17.2579 10.5013 16.6353 11.0445 16.5215 11.7404L16.5062 11.8725L16.5015 12.0013C16.5015 12.7449 17.0446 13.3675 17.7405 13.4813L17.8727 13.4965L18.0014 13.5013L19.9991 13.5012L20 17.2526C20 18.1708 19.2929 18.9238 18.3934 18.9968L18.2499 19.0026L15.999 19.002L15.9949 19.1747C15.9106 20.6305 14.7881 21.8078 13.3567 21.9774L13.1763 21.9933L13 21.9984C11.4023 21.9984 10.0963 20.7495 10.0051 19.1779L10 19.002L7.75 19.0026C6.88283 19.0026 6.16298 18.3719 6.02417 17.5443L6.0058 17.3963L6 17.2528L5.999 15.001L5.836 14.9962C4.38017 14.9119 3.20285 13.7894 3.03326 12.3581L3.01736 12.1776L3.01227 12.0013C3.01227 10.4036 4.26119 9.09765 5.83593 9.00641L5.999 9.00101L6 6.75001C6 5.88284 6.63072 5.16299 7.45831 5.02418L7.60631 5.00581L7.74981 5.00001L9.999 4.99901L10.0051 4.82797C10.0894 3.37215 11.2119 2.19483 12.6432 2.02523L12.8237 2.00933L13 2.00424ZM13 3.50424C12.2203 3.50424 11.5795 4.09913 11.5069 4.86039L11.5 5.00498L11.4985 6.49905L7.75 6.50001C7.63165 6.50001 7.53251 6.58224 7.5066 6.6928L7.5 6.75019L7.49909 10.5012L6.01227 10.5013C5.18384 10.5013 4.51227 11.1729 4.51227 12.0013C4.51227 12.781 5.10716 13.4218 5.86775 13.4944L6.01219 13.5013L7.49909 13.5012L7.5 17.2526C7.5 17.371 7.58223 17.4701 7.69261 17.496L7.7499 17.5026L11.4985 17.5021L11.5 18.9984C11.5 19.8268 12.1716 20.4984 13 20.4984C13.7797 20.4984 14.4204 19.9035 14.4931 19.1435L14.5 18.9991L14.4985 17.5021L18.25 17.5026C18.3683 17.5026 18.4675 17.4204 18.4934 17.3101L18.5 17.2528L18.499 15L17.9762 15.0009L17.7968 14.9944C16.2855 14.8922 15.0927 13.6769 15.0068 12.1532L15.0019 11.9761L15.0084 11.7967C15.1105 10.2854 16.3258 9.0926 17.827 9.00631L18.0014 9.00131L18.499 9.00101L18.5 6.75001C18.5 6.65533 18.4474 6.57294 18.3697 6.53051L18.3072 6.50661L18.2498 6.50001L14.4985 6.49905L14.5 5.00424C14.5 4.17581 13.8284 3.50424 13 3.50424Z" fill="black"/>
</svg>
