<svg width="24" height="24" viewBox="0 0 24 24" fill="none" xmlns="http://www.w3.org/2000/svg">
<path d="M12.7105 4.15797L21.7105 11.158C22.0965 11.4583 22.0965 12.0418 21.7104 12.342L12.7089 19.342C12.2162 19.7252 11.4985 19.374 11.4985 18.7499V13.6726L4.20888 19.342C3.7162 19.7252 2.99847 19.374 2.99847 18.7499L3 4.7499C3.00007 4.12583 3.71784 3.77483 4.21046 4.15797L11.4985 9.8266L11.5 4.7499C11.5001 4.12583 12.2178 3.77483 12.7105 4.15797ZM12.9998 6.28333L12.9986 17.2165L20.0283 11.7499L12.9998 6.28333ZM4.49983 6.28333L4.49864 17.2165L11.4985 11.7726V11.7266L4.49983 6.28333Z" fill="black"/>
</svg>
