<svg width="24" height="24" viewBox="0 0 24 24" fill="none" xmlns="http://www.w3.org/2000/svg">
<path d="M14.8579 12.1578C15.4178 12.7312 15.7346 13.4258 15.9641 14.3864L16.0635 14.8425L16.2425 15.7889C16.3316 16.2337 16.4005 16.4807 16.4968 16.6966C16.7975 17.3704 17.3269 18.0609 18.0923 18.7626C18.3976 19.0425 18.4182 19.5169 18.1383 19.8222C17.8584 20.1276 17.384 20.1482 17.0786 19.8683C16.1713 19.0365 15.5183 18.1848 15.127 17.3079C14.9781 16.9743 14.8875 16.6574 14.7805 16.128L14.5702 15.0274L14.5575 14.9672C14.3768 14.1182 14.1535 13.5835 13.7847 13.2057C13.072 12.4758 11.428 12.6687 10.988 13.3644C10.4262 14.2527 10.2829 15.7603 10.729 17.28C11.0737 18.4541 11.531 19.6096 12.1014 20.7467C12.2871 21.1169 12.1375 21.5676 11.7673 21.7533C11.397 21.9391 10.9463 21.7895 10.7606 21.4192C10.1504 20.2026 9.65994 18.9636 9.28974 17.7025C8.72825 15.7898 8.91382 13.8378 9.72028 12.5626C10.6733 11.0557 13.4622 10.7284 14.8579 12.1578ZM12.4923 14.4731C12.9062 14.4594 13.253 14.7838 13.2668 15.1978C13.3182 16.745 13.8215 18.2407 14.7108 19.5019L14.9073 19.7685L15.2075 20.1585C15.4602 20.4868 15.3989 20.9577 15.0706 21.2103C14.7722 21.44 14.3559 21.4102 14.0929 21.1563L14.0188 21.0734L13.7186 20.6834C12.5155 19.1203 11.8331 17.2191 11.7676 15.2477C11.7538 14.8337 12.0783 14.4869 12.4923 14.4731ZM8.78294 9.39052C10.8948 7.82691 13.6572 7.91177 15.5155 9.10619C16.4454 9.70393 17.1496 10.4009 17.6178 11.1996C17.8273 11.5569 17.7075 12.0164 17.3501 12.2259C16.9928 12.4354 16.5333 12.3155 16.3238 11.9582C15.9821 11.3754 15.4458 10.8446 14.7044 10.368C13.3419 9.49222 11.253 9.42805 9.67552 10.5961C8.03695 11.8093 7.34709 13.8873 7.55253 16.0779C7.66758 17.3048 8.03731 18.5452 8.66573 19.8018C8.85099 20.1722 8.70086 20.6228 8.33039 20.808C7.95991 20.9933 7.5094 20.8431 7.32413 20.4727C6.61505 19.0548 6.19203 17.6356 6.05908 16.218C5.80876 13.5488 6.6698 10.9551 8.78294 9.39052ZM17.9627 13.6916C18.3764 13.6703 18.729 13.9884 18.7502 14.402C18.7813 15.0051 18.9303 15.4982 19.1917 15.8949C19.4112 16.228 19.6062 16.4204 19.7551 16.4946L19.8161 16.5193C20.2125 16.6391 20.4368 17.0577 20.3169 17.4542C20.197 17.8507 19.7784 18.0749 19.3819 17.9551C18.8354 17.7898 18.3653 17.367 17.9391 16.7202C17.5235 16.0895 17.2964 15.338 17.2522 14.4791C17.2309 14.0654 17.549 13.7128 17.9627 13.6916ZM10.5106 6.10211C10.6806 6.47983 10.5122 6.92385 10.1345 7.09386C8.29429 7.9221 6.94027 9.10239 6.05079 10.6425C4.93755 12.5701 4.63726 14.8235 4.8865 16.7226C4.9404 17.1333 4.65116 17.5099 4.24047 17.5638C3.82978 17.6177 3.45315 17.3285 3.39925 16.9178C3.11045 14.7171 3.45391 12.1398 4.75185 9.89236C5.80367 8.07113 7.39986 6.67974 9.51881 5.72602C9.89653 5.55601 10.3405 5.7244 10.5106 6.10211ZM12.8542 5.31502C14.6842 5.35252 16.5057 6.19338 18.3129 7.80138C20.1359 9.4233 21.2344 11.628 21.6073 14.3816C21.6629 14.792 21.3752 15.1699 20.9647 15.2254C20.5542 15.281 20.1764 14.9933 20.1208 14.5829C19.7943 12.1713 18.8597 10.2956 17.3159 8.92203C15.7564 7.53453 14.2609 6.84416 12.8235 6.8147C12.4094 6.80622 12.0805 6.46362 12.089 6.04949C12.0975 5.63537 12.4401 5.30653 12.8542 5.31502ZM5.98275 5.32942C6.25824 5.63874 6.23081 6.11282 5.92149 6.38831C5.65336 6.62711 5.37201 6.91215 5.07823 7.24332C4.80189 7.55483 4.5188 7.95921 4.23191 8.45591C4.02474 8.81459 3.56603 8.93741 3.20734 8.73024C2.84866 8.52307 2.72584 8.06435 2.93301 7.70567C3.26748 7.1266 3.60753 6.64085 3.95612 6.2479C4.28727 5.87461 4.60958 5.54807 4.92386 5.26816C5.23318 4.99267 5.70726 5.0201 5.98275 5.32942ZM12.5683 2.36349C14.761 2.4662 16.5975 3.0657 18.098 4.22441C18.4259 4.47758 18.4864 4.94857 18.2333 5.27642C17.9801 5.60426 17.5091 5.6648 17.1812 5.41164C15.9359 4.45001 14.3958 3.95074 12.4981 3.86185C10.5949 3.7727 9.0365 4.14593 7.78349 4.84088C7.39953 5.05384 6.96867 4.94727 6.75189 4.59432C6.53511 4.24136 6.63254 3.77795 6.99846 3.56271C8.53418 2.65937 10.3811 2.26104 12.5683 2.36349Z" fill="black"/>
</svg>
