<svg width="24" height="24" viewBox="0 0 24 24" fill="none" xmlns="http://www.w3.org/2000/svg">
<path d="M7.85355 9.64645C8.04882 9.84171 8.04882 10.1583 7.85355 10.3536L6.70711 11.5H10.4918C10.768 11.5 10.9918 11.7239 10.9918 12C10.9918 12.2761 10.768 12.5 10.4918 12.5H6.70711L7.85355 13.6464C8.04882 13.8417 8.04882 14.1583 7.85355 14.3536C7.65829 14.5488 7.34171 14.5488 7.14645 14.3536L5.14645 12.3536C4.95118 12.1583 4.95118 11.8417 5.14645 11.6464L7.14645 9.64645C7.34171 9.45118 7.65829 9.45118 7.85355 9.64645Z" fill="black"/>
<path d="M17.2929 12.5L16.1464 13.6464C15.9512 13.8417 15.9512 14.1583 16.1464 14.3536C16.3417 14.5488 16.6583 14.5488 16.8536 14.3536L18.8536 12.3536C19.0488 12.1583 19.0488 11.8417 18.8536 11.6464L16.8536 9.64645C16.6583 9.45118 16.3417 9.45118 16.1464 9.64645C15.9512 9.84171 15.9512 10.1583 16.1464 10.3536L17.2929 11.5L13.5082 11.5C13.232 11.5 13.0082 11.7239 13.0082 12C13.0082 12.2761 13.232 12.5 13.5082 12.5H17.2929Z" fill="black"/>
<path fill-rule="evenodd" clip-rule="evenodd" d="M2 6.75C2 5.23122 3.23122 4 4.75 4H19.25C20.7688 4 22 5.23122 22 6.75V17.25C22 18.7688 20.7688 20 19.25 20H4.75C3.23122 20 2 18.7688 2 17.25V6.75ZM4.75 5.5C4.05964 5.5 3.5 6.05964 3.5 6.75V17.25C3.5 17.9404 4.05964 18.5 4.75 18.5H19.25C19.9404 18.5 20.5 17.9404 20.5 17.25V6.75C20.5 6.05964 19.9404 5.5 19.25 5.5H4.75Z" fill="black"/>
</svg>
