<svg width="24" height="24" viewBox="0 0 24 24" fill="none" xmlns="http://www.w3.org/2000/svg">
<path d="M2.5 2.5L20.5 20.5C20.7929 20.7929 20.7929 21.2678 20.5 21.5607C20.2071 21.8536 19.7322 21.8536 19.4393 21.5607L14.3767 16.4983L4.5 16.4996V21.2494C4.5 21.6291 4.21784 21.9429 3.85177 21.9925L3.75 21.9994C3.3703 21.9994 3.0565 21.7172 3.00684 21.3512L3 21.2494L2.99967 5.12133L1.43934 3.56066C1.14644 3.26777 1.14644 2.7929 1.43934 2.5C1.73223 2.20711 2.2071 2.20711 2.5 2.5ZM5.117 2.997L20.2541 2.99756C20.8722 2.99756 21.2249 3.70321 20.8541 4.19762L16.6898 9.74878L20.8541 15.2999C21.2249 15.7944 20.8722 16.5 20.2541 16.5L18.62 16.499L17.12 14.999L18.7539 15L15.1522 10.1988C14.9522 9.93215 14.9522 9.56541 15.1522 9.29872L18.7539 4.49756L6.617 4.497L5.117 2.997ZM4.49967 6.62133L4.5 15L12.8767 14.9983L4.49967 6.62133Z" fill="black"/>
</svg>
