<svg width="24" height="24" viewBox="0 0 24 24" fill="none" xmlns="http://www.w3.org/2000/svg">
<path d="M8.29403 14L6.52701 21.0681C6.34054 21.814 7.26342 22.324 7.79575 21.7693L19.7912 9.2693C20.2487 8.79255 19.9108 8 19.25 8H14.7906L16.4615 2.98717C16.6234 2.50152 16.2619 2 15.75 2H8.75003C8.41517 2 8.12088 2.22198 8.02889 2.54396L5.02889 13.044C4.892 13.5231 5.25174 14 5.75003 14H8.29403ZM13.0385 8.51283C12.8766 8.99848 13.2381 9.5 13.75 9.5H17.4908L8.66625 18.6958L9.98222 13.4319C10.1006 12.9585 9.74254 12.5 9.25461 12.5H6.74433L9.31576 3.5H14.7095L13.0385 8.51283Z" fill="black"/>
</svg>
