<svg width="24" height="24" viewBox="0 0 24 24" fill="none" xmlns="http://www.w3.org/2000/svg">
<path d="M21.2491 4.998C21.6634 4.998 21.9991 5.33379 21.9991 5.748V18.248C21.9991 18.6622 21.6634 18.998 21.2491 18.998H15.7482C14.2294 18.998 12.9982 17.7668 12.9982 16.248L12.998 15.996L3.74597 15.996C2.77947 15.996 1.99597 15.2125 1.99597 14.246V9.74999C1.99597 8.7835 2.77947 7.99999 3.74597 7.99999L12.998 7.999L12.9982 7.748C12.9982 6.22922 14.2294 4.998 15.7482 4.998H21.2491ZM20.4991 6.498H15.7482C15.0578 6.498 14.4982 7.05765 14.4982 7.748V16.248C14.4982 16.9384 15.0578 17.498 15.7482 17.498H20.4991V6.498ZM12.9982 9.49999H3.74597C3.6079 9.49999 3.49597 9.61192 3.49597 9.74999V14.246C3.49597 14.3841 3.6079 14.496 3.74597 14.496H12.9982V9.49999ZM5.74942 11.25L8.24647 11.248C8.66069 11.2477 8.99674 11.5832 8.99707 11.9974C8.99737 12.3771 8.71547 12.6911 8.34943 12.7411L8.24767 12.748L5.75061 12.75C5.3364 12.7503 5.00034 12.4148 5.00001 12.0006C4.99971 11.6209 5.28161 11.3069 5.64765 11.2569L5.74942 11.25L8.24647 11.248L5.74942 11.25Z" fill="black"/>
</svg>
