<svg width="24" height="24" viewBox="0 0 24 24" fill="none" xmlns="http://www.w3.org/2000/svg">
<path d="M20.2732 9.75071C20.3845 9.75071 20.4953 9.76132 20.604 9.78226L20.7655 9.82138L20.9229 9.87577C21.7731 10.2157 22.2097 11.1476 21.9483 12.0078L21.8982 12.1504L19.3236 18.5899C19.0033 19.3912 18.2557 19.9337 17.4051 19.9982L17.2305 20.005H5.14177C5.10697 20.005 5.07221 20.0041 5.03751 20.0025L4.24933 20.0005C3.05906 19.9994 2.08501 19.0746 2.00527 17.904L2 17.75V6.2578C2 5.0684 2.92298 4.09426 4.09225 4.01325L4.2461 4.00781L8.20404 4.00095C8.66587 4.00016 9.11508 4.14144 9.49177 4.40317L9.64859 4.52265L12.021 6.50001L16.75 6.50071C17.8867 6.50071 18.8266 7.34368 18.9785 8.4386L18.9948 8.59666L19 8.75071V9.75001L20.2732 9.75071ZM7.23486 11.2507C6.95454 11.2507 6.70085 11.4066 6.57222 11.6494L6.53004 11.7443L4.43695 17.4986C4.29536 17.8878 4.49613 18.3182 4.8854 18.4598C4.94018 18.4797 4.997 18.4931 5.0547 18.4999L17.2342 18.5046C17.3023 18.5046 17.369 18.4954 17.4327 18.4779L17.5229 18.4456C17.668 18.3842 17.7918 18.2777 17.8742 18.14L17.9279 18.031L20.4763 11.5927C20.5271 11.4643 20.4642 11.3191 20.3358 11.2683L20.2906 11.2551L20.2438 11.2507H7.23486ZM8.20664 5.50095L4.2487 5.50781C3.86947 5.50846 3.55638 5.79049 3.50683 6.15615L3.5 6.2578L3.499 15.6869L5.1204 11.2316C5.42358 10.3981 6.18521 9.82585 7.05876 9.75758L7.23486 9.75071L17.499 9.74995L17.5 8.75071C17.5 8.37102 17.2178 8.05722 16.8518 8.00756L16.75 8.00071H11.4784L8.68815 5.67485C8.58004 5.58473 8.44934 5.52731 8.3113 5.50811L8.20664 5.50095Z" fill="black"/>
</svg>
