<svg width="24" height="24" viewBox="0 0 24 24" fill="none" xmlns="http://www.w3.org/2000/svg">
<path d="M12.591 4.27633L12.6533 4.36793L12.704 4.4726L18.0719 17.9726C18.225 18.3575 18.037 18.7936 17.6521 18.9466C17.2993 19.0869 16.9035 18.9407 16.7221 18.6189L16.6781 18.5268L15.077 14.499H8.92702L7.32169 18.5275C7.18108 18.8802 6.80278 19.0672 6.44434 18.9777L6.34727 18.9464C5.99457 18.8058 5.80758 18.4275 5.89701 18.069L5.92834 17.972L11.3104 4.47198C11.532 3.91611 12.2524 3.85103 12.591 4.27633ZM12.006 6.77602L9.52502 12.999H14.48L12.006 6.77602ZM17.6835 3.07044C17.8845 2.97644 18.1175 2.97644 18.3186 3.07044L18.4161 3.12528L20.6671 4.62108L20.7549 4.68919C21.0265 4.93397 21.0851 5.3472 20.8767 5.66083C20.6683 5.97445 20.2646 6.08051 19.9338 5.92496L19.8369 5.8704L18.001 4.65074L16.1651 5.8704L16.0683 5.92496C15.7374 6.08051 15.3338 5.97445 15.1254 5.66083C14.9169 5.3472 14.9755 4.93397 15.2471 4.68919L15.3349 4.62108L17.5859 3.12528L17.6835 3.07044Z" fill="black"/>
</svg>
