<svg width="24" height="24" viewBox="0 0 24 24" fill="none" xmlns="http://www.w3.org/2000/svg">
<path d="M8.44623 16.1471L8.53035 16.2197L10.7803 18.4697C11.0466 18.736 11.0708 19.1526 10.853 19.4462L10.7803 19.5304L8.53035 21.7804C8.23745 22.0732 7.76258 22.0732 7.46969 21.7804C7.20342 21.5141 7.17922 21.0974 7.39707 20.8038L7.46969 20.7197L8.43882 19.7491L3.75002 19.75C3.3358 19.75 3.00002 19.4142 3.00002 19C3.00002 18.6203 3.28217 18.3065 3.64825 18.2569L3.75002 18.25L8.43882 18.2491L7.46969 17.2804C7.20342 17.0141 7.17922 16.5974 7.39707 16.3038L7.46969 16.2197C7.73595 15.9534 8.15262 15.9292 8.44623 16.1471ZM15.5538 16.1471C15.8148 15.9534 16.173 15.951 16.4364 16.1399L16.5303 16.2197L16.603 16.3038C16.7966 16.5648 16.799 16.923 16.6101 17.1864L16.5303 17.2804L15.5608 18.2491L20.25 18.25C20.6642 18.25 21 18.5858 21 19C21 19.3797 20.7179 19.6935 20.3518 19.7432L20.25 19.75L15.5608 19.7491L16.5303 20.7197L16.603 20.8038C16.8208 21.0974 16.7966 21.5141 16.5303 21.7804C16.2641 22.0466 15.8474 22.0708 15.5538 21.853L15.4697 21.7804L13.2197 19.5304L13.1471 19.4462C12.9534 19.1852 12.951 18.827 13.1399 18.5636L13.2197 18.4697L15.4697 16.2197L15.5538 16.1471ZM8.83577 2.27888L8.89807 2.37126L8.94845 2.47682L13.4485 13.9768C13.5994 14.3626 13.4091 14.7976 13.0233 14.9486C12.6697 15.0869 12.2747 14.9385 12.095 14.6157L12.0516 14.5234L10.816 11.367H5.68302L4.44845 14.5234C4.31009 14.877 3.93299 15.0664 3.57399 14.9793L3.47672 14.9486C3.12313 14.8102 2.93373 14.4331 3.02088 14.0741L3.05159 13.9768L7.55159 2.47682C7.77104 1.916 8.49711 1.85002 8.83577 2.27888ZM19.595 2.38475C19.7747 2.06194 20.1697 1.91353 20.5233 2.05189C20.8769 2.19025 21.0663 2.56735 20.9792 2.92635L20.9485 3.02362L16.4485 14.5236L16.3981 14.6292C16.115 15.124 15.385 15.124 15.102 14.6292L15.0516 14.5236L10.5516 3.02362L10.5209 2.92635C10.4424 2.60325 10.588 2.26549 10.8757 2.1003L10.9767 2.05189L11.074 2.02118C11.3971 1.94275 11.7348 2.08832 11.9 2.37598L11.9485 2.47702L15.75 12.1924L19.5516 2.47702L19.595 2.38475ZM8.25002 4.80802L6.27002 9.86702H10.229L8.25002 4.80802Z" fill="black"/>
</svg>
