<svg width="24" height="24" viewBox="0 0 24 24" fill="none" xmlns="http://www.w3.org/2000/svg">
<path d="M19.4462 16.1471L19.5303 16.2197L21.7803 18.4697C22.0466 18.736 22.0708 19.1526 21.853 19.4462L21.7803 19.5304L19.5303 21.7804C19.2375 22.0732 18.7626 22.0732 18.4697 21.7804C18.2034 21.5141 18.1792 21.0974 18.3971 20.8038L18.4697 20.7197L19.4388 19.7491H4.56082L5.53035 20.7197L5.60297 20.8038C5.82082 21.0974 5.79661 21.5141 5.53035 21.7804C5.26408 22.0466 4.84742 22.0708 4.55381 21.853L4.46969 21.7804L2.21969 19.5304L2.14707 19.4462C1.95342 19.1852 1.95103 18.827 2.1399 18.5636L2.21969 18.4697L4.46969 16.2197L4.55381 16.1471C4.81479 15.9534 5.17301 15.951 5.4364 16.1399L5.53035 16.2197L5.60297 16.3038C5.79661 16.5648 5.79901 16.923 5.61014 17.1864L5.53035 17.2804L4.56082 18.2491H19.4388L18.4697 17.2804C18.2034 17.0141 18.1792 16.5974 18.3971 16.3038L18.4697 16.2197C18.736 15.9534 19.1526 15.9292 19.4462 16.1471ZM7.83577 2.27888L7.89807 2.37126L7.94845 2.47682L12.4485 13.9768C12.5994 14.3626 12.4091 14.7976 12.0233 14.9486C11.6697 15.0869 11.2747 14.9385 11.095 14.6157L11.0516 14.5234L9.81602 11.367H4.68302L3.44845 14.5234C3.31009 14.877 2.93299 15.0664 2.57399 14.9793L2.47672 14.9486C2.12313 14.8102 1.93373 14.4331 2.02088 14.0741L2.05159 13.9768L6.55159 2.47682C6.77104 1.916 7.49711 1.85002 7.83577 2.27888ZM20.595 2.38475C20.7747 2.06194 21.1697 1.91353 21.5233 2.05189C21.8769 2.19025 22.0663 2.56735 21.9792 2.92635L21.9485 3.02362L17.4485 14.5236L17.3981 14.6292C17.115 15.124 16.385 15.124 16.102 14.6292L16.0516 14.5236L11.5516 3.02362L11.5209 2.92635C11.4424 2.60325 11.588 2.26549 11.8757 2.1003L11.9767 2.05189L12.074 2.02118C12.3971 1.94275 12.7348 2.08832 12.9 2.37598L12.9485 2.47702L16.75 12.1924L20.5516 2.47702L20.595 2.38475ZM7.25002 4.80802L5.27002 9.86702H9.22902L7.25002 4.80802Z" fill="black"/>
</svg>
