<svg width="24" height="24" viewBox="0 0 24 24" fill="none" xmlns="http://www.w3.org/2000/svg">
<path d="M12.5847 7.28641L12.6471 7.37837L12.6976 7.48346L16.4476 16.9802C16.5997 17.3655 16.4107 17.8011 16.0255 17.9533C15.6723 18.0927 15.2768 17.9455 15.0962 17.6233L15.0524 17.5311L14.055 15.005H9.94502L8.9476 17.5311C8.80815 17.8843 8.43046 18.0725 8.07173 17.9843L7.97456 17.9533C7.6214 17.8138 7.43316 17.4361 7.52142 17.0774L7.55243 16.9802L11.3024 7.48346C11.5229 6.92517 12.246 6.85949 12.5847 7.28641ZM12 9.80001L10.537 13.505H13.463L12 9.80001ZM20.8767 3.33676C21.0851 3.65039 21.0265 4.06362 20.7549 4.3084L20.6671 4.37651L18.4161 5.87231C18.1961 6.01854 17.918 6.03682 17.6835 5.92715L17.5859 5.87231L15.3349 4.37651C14.9899 4.14727 14.8961 3.68175 15.1254 3.33676C15.3338 3.02313 15.7374 2.91708 16.0683 3.07262L16.1651 3.12719L18.001 4.34601L19.8369 3.12719C20.1819 2.89794 20.6474 2.99177 20.8767 3.33676Z" fill="black"/>
</svg>
