<svg width="24" height="24" viewBox="0 0 24 24" fill="none" xmlns="http://www.w3.org/2000/svg">
<path d="M11.75 15C12.9927 15 14 16.0074 14 17.25C14 18.4409 13.0749 19.4156 11.9041 19.4948L11.75 19.5H11V21.25C11 21.6297 10.7179 21.9435 10.3518 21.9931L10.25 22C9.87032 22 9.55653 21.7178 9.50687 21.3518L9.50002 21.25V15.75C9.50002 15.3703 9.78217 15.0565 10.1482 15.0068L10.25 15H11.75ZM18 15C19.1046 15 20 15.8954 20 17C20 17.4142 19.6642 17.75 19.25 17.75C18.8703 17.75 18.5565 17.4678 18.5069 17.1018L18.5 17C18.5 16.7545 18.3231 16.5504 18.0899 16.5081L18 16.5H17.375C17.0298 16.5 16.75 16.7798 16.75 17.125C16.75 17.4388 16.9813 17.6986 17.2827 17.7432L17.375 17.75H17.875C19.0486 17.75 20 18.7014 20 19.875C20 20.9976 19.1296 21.9168 18.0268 21.9947L17.875 22H17.25C16.1455 22 15.25 21.1046 15.25 20C15.25 19.5858 15.5858 19.25 16 19.25C16.3797 19.25 16.6935 19.5322 16.7432 19.8982L16.75 20C16.75 20.2455 16.9269 20.4496 17.1601 20.4919L17.25 20.5H17.875C18.2202 20.5 18.5 20.2202 18.5 19.875C18.5 19.5612 18.2688 19.3014 17.9674 19.2568L17.875 19.25H17.375C16.2014 19.25 15.25 18.2986 15.25 17.125C15.25 16.0024 16.1205 15.0831 17.2233 15.0053L17.375 15H18ZM7.75002 15C8.16423 15 8.50002 15.3358 8.50002 15.75C8.50002 16.1297 8.21787 16.4435 7.85179 16.4931L7.75002 16.5L5.50002 16.4991V18.0021L7.25002 18.0028C7.66423 18.0028 8.00002 18.3386 8.00002 18.7528C8.00002 19.1325 7.71787 19.4463 7.35179 19.496L7.25002 19.5028L5.50002 19.5021V21.2312C5.50002 21.6109 5.21787 21.9247 4.85179 21.9744L4.75002 21.9812C4.37032 21.9812 4.05653 21.6991 4.00687 21.333L4.00002 21.2312V15.75C4.00002 15.3703 4.28217 15.0565 4.64825 15.0068L4.75002 15H7.75002ZM11.75 16.5H11V18H11.75C12.1642 18 12.5 17.6642 12.5 17.25C12.5 16.8703 12.2179 16.5565 11.8518 16.5068L11.75 16.5ZM12.0005 3.00079C13.5982 3.00023 14.9046 4.24868 14.9964 5.82344L15.0016 5.99971V6.17186C15.0016 6.58607 14.6658 6.92186 14.2516 6.92186C13.8719 6.92186 13.5581 6.6397 13.5084 6.27363L13.5016 6.17186V6.0005L13.4946 5.85578C13.4217 5.09517 12.7807 4.50052 12.0011 4.50079C11.2207 4.50107 10.5796 5.09652 10.5069 5.85779L10.5 6.00236L10.4999 7.40051C10.9412 7.14529 11.4536 6.99922 12 6.99922C13.6573 6.99922 15.0008 8.34272 15.0008 10C15.0008 11.6573 13.6573 13.0008 12 13.0008C10.4019 13.0008 9.09561 11.7515 9.00434 10.1763L8.99925 10L9.00002 6.00236C9.00002 4.34506 10.3432 3.00138 12.0005 3.00079ZM5.00002 3.00082C6.59811 3.00082 7.90443 4.25006 7.9957 5.82527L8.00079 6.00159L8.00002 9.99922C8.00002 11.6565 6.65653 13 4.99925 13C3.40115 13 2.09484 11.7508 2.00357 10.1755L1.99847 9.99922V9.82973C1.99847 9.41552 2.33426 9.07973 2.74847 9.07973C3.12817 9.07973 3.44197 9.36189 3.49163 9.72796L3.49847 9.82973V9.99922C3.49847 10.8281 4.17039 11.5 4.99925 11.5C5.77934 11.5 6.42043 10.9048 6.49315 10.1438L6.50002 9.99922L6.50012 8.60108C6.05881 8.8563 5.54647 9.00236 5.00002 9.00236C3.34274 9.00236 1.99925 7.65887 1.99925 6.00159C1.99925 4.34431 3.34274 3.00082 5.00002 3.00082ZM19.0057 3.00159C20.6003 3.00159 21.9039 4.24815 21.9949 5.81999L22 5.99593V10.0057C22 11.6003 20.7535 12.9038 19.1816 12.9949L19.0057 13L18.8184 12.9949C17.3048 12.9072 16.0928 11.6952 16.0051 10.1816L16 10.0057V5.99593C16 4.40126 17.2466 3.09775 18.8184 3.00667L19.0057 3.00159ZM12 8.49922C11.2199 8.49922 10.5788 9.09442 10.5061 9.85546L10.5 10C10.5042 10.8338 11.1742 11.5008 12 11.5008C12.8289 11.5008 13.5008 10.8289 13.5008 10C13.5008 9.17114 12.8289 8.49922 12 8.49922ZM19.0057 4.50159H18.9944C18.2176 4.50159 17.5793 5.09423 17.5069 5.85202L17.5 5.99593V10.0057C17.5 10.7824 18.0927 11.4207 18.8504 11.4932L18.9944 11.5L19.1496 11.4932C19.86 11.4253 20.4253 10.86 20.4932 10.1496L20.5 10.0057V5.99593C20.5 5.17063 19.831 4.50159 19.0057 4.50159ZM5.00002 4.50082C4.17117 4.50082 3.49925 5.17274 3.49925 6.00159C3.49925 6.83045 4.17117 7.50236 5.00002 7.50236C5.78012 7.50236 6.4212 6.90717 6.49392 6.14613L6.50002 6.00159C6.49585 5.16781 5.82583 4.50082 5.00002 4.50082Z" fill="black"/>
</svg>
