<svg width="24" height="24" viewBox="0 0 24 24" fill="none" xmlns="http://www.w3.org/2000/svg">
<path d="M16.25 15.5H20.25C20.6642 15.5 21 15.8358 21 16.25C21 16.6297 20.7178 16.9435 20.3518 16.9932L20.25 17H17V20.25C17 20.6642 16.6642 21 16.25 21C15.8703 21 15.5565 20.7178 15.5068 20.3518L15.5 20.25V16.25C15.5 15.8703 15.7822 15.5565 16.1482 15.5068L16.25 15.5H20.25H16.25ZM3.75 15.5H7.75C8.1297 15.5 8.44349 15.7822 8.49315 16.1482L8.5 16.25V20.25C8.5 20.6642 8.16421 21 7.75 21C7.3703 21 7.05651 20.7178 7.00685 20.3518L7 20.25V17H3.75C3.33579 17 3 16.6642 3 16.25C3 15.8703 3.28215 15.5565 3.64823 15.5068L3.75 15.5H7.75H3.75ZM7.75 3C8.1297 3 8.44349 3.28215 8.49315 3.64823L8.5 3.75V7.75C8.5 8.1297 8.21785 8.44349 7.85177 8.49315L7.75 8.5H3.75C3.33579 8.5 3 8.16421 3 7.75C3 7.3703 3.28215 7.05651 3.64823 7.00685L3.75 7H7V3.75C7 3.33579 7.33579 3 7.75 3ZM16.25 3C16.6297 3 16.9435 3.28215 16.9932 3.64823L17 3.75V7H20.25C20.6642 7 21 7.33579 21 7.75C21 8.1297 20.7178 8.44349 20.3518 8.49315L20.25 8.5H16.25C15.8703 8.5 15.5565 8.21785 15.5068 7.85177L15.5 7.75V3.75C15.5 3.33579 15.8358 3 16.25 3Z" fill="black"/>
</svg>
