<svg width="24" height="24" viewBox="0 0 24 24" fill="none" xmlns="http://www.w3.org/2000/svg">
<path d="M14.9979 5C18.8639 5 21.9979 8.13401 21.9979 12C21.9979 15.7855 18.9931 18.8691 15.2386 18.9959L14.9979 19H9.00214C5.13614 19 2.00214 15.866 2.00214 12C2.00214 8.21455 5.00692 5.1309 8.76149 5.00406L9.00214 5H14.9979ZM14.9979 6.5H9.00214C5.96457 6.5 3.50214 8.96243 3.50214 12C3.50214 14.9635 5.84592 17.3795 8.78093 17.4956L9.00214 17.5H14.9979C18.0355 17.5 20.4979 15.0376 20.4979 12C20.4979 9.03652 18.1541 6.62046 15.2191 6.50437L14.9979 6.5ZM8.00002 9C8.41423 9 8.75002 9.33579 8.75002 9.75L8.74914 11.248L10.25 11.2487C10.6642 11.2487 11 11.5845 11 11.9987C11 12.413 10.6642 12.7487 10.25 12.7487L8.74914 12.748L8.75002 14.25C8.75002 14.6642 8.41423 15 8.00002 15C7.58581 15 7.25002 14.6642 7.25002 14.25L7.24914 12.748L5.75002 12.7487C5.33581 12.7487 5.00002 12.413 5.00002 11.9987C5.00002 11.5845 5.33581 11.2487 5.75002 11.2487L7.24914 11.248L7.25002 9.75C7.25002 9.33579 7.58581 9 8.00002 9ZM14.75 12.5C15.4404 12.5 16 13.0596 16 13.75C16 14.4404 15.4404 15 14.75 15C14.0597 15 13.5 14.4404 13.5 13.75C13.5 13.0596 14.0597 12.5 14.75 12.5ZM16.75 9C17.4404 9 18 9.55964 18 10.25C18 10.9404 17.4404 11.5 16.75 11.5C16.0597 11.5 15.5 10.9404 15.5 10.25C15.5 9.55964 16.0597 9 16.75 9Z" fill="black"/>
</svg>
