<svg width="24" height="24" viewBox="0 0 24 24" fill="none" xmlns="http://www.w3.org/2000/svg">
<path fill-rule="evenodd" clip-rule="evenodd" d="M12 1.99896C17.5237 1.99896 22.0016 6.47681 22.0016 12.0005C22.0016 12.1756 21.9971 12.3497 21.9882 12.5225C21.879 12.5628 21.7717 12.617 21.6679 12.6862L20.7079 13.3262C20.6342 13.188 20.548 13.0575 20.4507 12.9362C20.4843 12.629 20.5016 12.3168 20.5016 12.0005C20.5016 11.3111 20.4195 10.6409 20.2646 9.99903L16.9066 9.99988C16.9691 10.6471 17.0016 11.3162 17.0016 12H15.5016C15.5016 11.3096 15.465 10.64 15.397 9.99993H8.6031C8.53508 10.6402 8.49847 11.3099 8.49847 12.0005C8.49847 13.06 8.58462 14.0703 8.73821 15.0006H11V16.5003H9.06112C9.52155 18.2049 10.222 19.4975 11 20.11V20.5C11 21.058 11.1828 21.5734 11.4919 21.9894C6.20429 21.7248 1.99847 17.3538 1.99847 12.0005C1.99847 6.47681 6.47632 1.99896 12 1.99896ZM7.50833 16.5008L4.78585 16.5007C5.74419 18.0337 7.17763 19.2393 8.88002 19.9113C8.35774 19.0915 7.92675 18.0652 7.60975 16.8958L7.50833 16.5008ZM7.09345 9.99986H3.73584L3.73108 10.0171C3.579 10.6534 3.49847 11.3176 3.49847 12.0005C3.49847 13.0567 3.69106 14.0678 4.04304 15.0008L7.2162 15.0005C7.0739 14.0514 6.99847 13.0431 6.99847 12.0005C6.99847 11.3165 7.03094 10.6473 7.09345 9.99986ZM8.88107 4.08967L8.85817 4.09838C6.81085 4.91309 5.15484 6.5004 4.25017 8.50027L7.29829 8.50063C7.61165 6.74784 8.15849 5.22192 8.88107 4.08967ZM12 3.49896L11.8844 3.50426C10.6189 3.62002 9.39645 5.62198 8.82874 8.50021H15.1713C14.6052 5.63005 13.388 3.63125 12.1263 3.50528L12 3.49896ZM15.12 4.08972L15.2269 4.26382C15.8961 5.37629 16.4042 6.83617 16.7018 8.50063L19.7499 8.50027C18.8852 6.58886 17.3342 5.05432 15.4112 4.211L15.12 4.08972Z" fill="black"/>
<path d="M12 14.5C12 13.6716 12.6716 13 13.5 13H18.5C19.3284 13 20 13.6716 20 14.5V15L22.2227 13.5182C22.5549 13.2967 23 13.5349 23 13.9343V21.0657C23 21.4651 22.5549 21.7033 22.2227 21.4818L20 20V20.5C20 21.3284 19.3284 22 18.5 22H13.5C12.6716 22 12 21.3284 12 20.5V14.5Z" fill="black"/>
</svg>
