<svg width="24" height="24" viewBox="0 0 24 24" fill="none" xmlns="http://www.w3.org/2000/svg">
<path fill-rule="evenodd" clip-rule="evenodd" d="M22.0016 12C22.0013 6.47653 17.5236 1.99896 12 1.99896C6.47632 1.99896 1.99847 6.47681 1.99847 12.0005C1.99847 17.1867 5.94583 21.451 11 21.9527V20.11C10.222 19.4975 9.52155 18.2049 9.06112 16.5003H11V15.0006H8.73821C8.58462 14.0703 8.49847 13.06 8.49847 12.0005C8.49847 11.3099 8.53508 10.6402 8.6031 9.99993H15.397C15.465 10.64 15.5016 11.3096 15.5016 12H17.0016C17.0016 11.3162 16.9691 10.6471 16.9066 9.99988L20.2646 9.99903C20.4195 10.6407 20.5015 11.3108 20.5016 12H22L22.0016 12ZM4.78585 16.5007L7.50833 16.5008L7.60975 16.8958C7.92675 18.0652 8.35774 19.0915 8.88002 19.9113C7.17763 19.2393 5.74419 18.0337 4.78585 16.5007ZM3.73584 9.99986H7.09345C7.03094 10.6473 6.99847 11.3165 6.99847 12.0005C6.99847 13.0431 7.0739 14.0514 7.2162 15.0005L4.04304 15.0008C3.69106 14.0678 3.49847 13.0567 3.49847 12.0005C3.49847 11.3176 3.579 10.6534 3.73108 10.0171L3.73584 9.99986ZM8.85817 4.09838L8.88107 4.08967C8.15849 5.22192 7.61165 6.74784 7.29829 8.50063L4.25017 8.50027C5.15484 6.5004 6.81085 4.91309 8.85817 4.09838ZM11.8844 3.50426L12 3.49896L12.1263 3.50528C13.388 3.63125 14.6052 5.63005 15.1713 8.50021H8.82874C9.39645 5.62198 10.6189 3.62002 11.8844 3.50426ZM15.2269 4.26382L15.12 4.08972L15.4112 4.211C17.3342 5.05433 18.8852 6.58886 19.7499 8.50027L16.7018 8.50063C16.4042 6.83617 15.8961 5.37629 15.2269 4.26382Z" fill="black"/>
<path d="M12 19C12 19.5523 12.4477 20 13 20H16V22H15.5C15.2239 22 15 22.2239 15 22.5C15 22.7761 15.2239 23 15.5 23H19.5C19.7761 23 20 22.7761 20 22.5C20 22.2239 19.7761 22 19.5 22H19V20H22C22.5523 20 23 19.5523 23 19V14C23 13.4477 22.5523 13 22 13H13C12.4477 13 12 13.4477 12 14V19Z" fill="black"/>
</svg>
