<svg width="24" height="24" viewBox="0 0 24 24" fill="none" xmlns="http://www.w3.org/2000/svg">
<path d="M12 1.99896C17.5237 1.99896 22.0016 6.47681 22.0016 12.0005C22.0016 17.5242 17.5237 22.0021 12 22.0021C6.47632 22.0021 1.99847 17.5242 1.99847 12.0005C1.99847 6.47681 6.47632 1.99896 12 1.99896ZM14.9389 16.5003H9.06112C9.71316 18.9144 10.8465 20.5021 12 20.5021C13.1535 20.5021 14.2869 18.9144 14.9389 16.5003ZM7.50833 16.5008L4.78585 16.5007C5.74419 18.0337 7.17763 19.2393 8.88002 19.9113C8.35774 19.0915 7.92675 18.0652 7.60975 16.8958L7.50833 16.5008ZM19.2142 16.5007L16.4917 16.5008C16.1679 17.8346 15.7003 19.0004 15.119 19.9114C16.716 19.2813 18.0756 18.1824 19.029 16.7842L19.2142 16.5007ZM7.09345 9.99986H3.73584L3.73108 10.0171C3.579 10.6534 3.49847 11.3176 3.49847 12.0005C3.49847 13.0567 3.69106 14.0678 4.04304 15.0008L7.2162 15.0005C7.0739 14.0514 6.99847 13.0431 6.99847 12.0005C6.99847 11.3165 7.03094 10.6473 7.09345 9.99986ZM15.397 9.99993H8.6031C8.53508 10.6402 8.49847 11.3099 8.49847 12.0005C8.49847 13.06 8.58462 14.0703 8.73821 15.0006H15.2618C15.4154 14.0703 15.5016 13.06 15.5016 12.0005C15.5016 11.3099 15.465 10.6402 15.397 9.99993ZM20.2646 9.99903L16.9066 9.99988C16.9691 10.6473 17.0016 11.3165 17.0016 12.0005C17.0016 13.0431 16.9261 14.0514 16.7838 15.0005L19.957 15.0008C20.309 14.0678 20.5016 13.0567 20.5016 12.0005C20.5016 11.3111 20.4195 10.6409 20.2646 9.99903ZM8.88107 4.08967L8.85817 4.09838C6.81085 4.91309 5.15484 6.5004 4.25017 8.50027L7.29829 8.50063C7.61165 6.74784 8.15849 5.22192 8.88107 4.08967ZM12 3.49896L11.8844 3.50426C10.6189 3.62002 9.39645 5.62198 8.82874 8.50021H15.1713C14.6052 5.63005 13.388 3.63125 12.1263 3.50528L12 3.49896ZM15.12 4.08972L15.2269 4.26382C15.8961 5.37629 16.4042 6.83617 16.7018 8.50063L19.7499 8.50027C18.8852 6.58886 17.3342 5.05432 15.4112 4.211L15.12 4.08972Z" fill="black"/>
</svg>
