<svg width="24" height="24" viewBox="0 0 24 24" fill="none" xmlns="http://www.w3.org/2000/svg">
<path fill-rule="evenodd" clip-rule="evenodd" d="M12 1.99896C17.5237 1.99896 22.0016 6.47681 22.0016 12.0005C22.0016 12.3919 21.9791 12.7781 21.9353 13.1577C21.5198 12.7321 21.0357 12.3737 20.501 12.1002C20.5014 12.067 20.5016 12.0338 20.5016 12.0005C20.5016 11.3111 20.4195 10.6409 20.2646 9.99903L16.9066 9.99988C16.9566 10.5176 16.9874 11.0492 16.9977 11.5911C16.4685 11.6886 15.9658 11.8618 15.5013 12.099L15.5016 12.0005C15.5016 11.3099 15.465 10.6402 15.397 9.99993H8.6031C8.53508 10.6402 8.49847 11.3099 8.49847 12.0005C8.49847 13.06 8.58462 14.0703 8.73821 15.0006H12.8747C12.6906 15.4723 12.5696 15.9757 12.5224 16.5003H9.06112C9.71316 18.9144 10.8465 20.5021 12 20.5021C12.4549 20.5021 12.9067 20.2551 13.327 19.808C13.688 20.4239 14.1594 21.0295 14.7258 21.6261C13.8593 21.871 12.945 22.0021 12 22.0021C6.47632 22.0021 1.99847 17.5242 1.99847 12.0005C1.99847 6.47681 6.47632 1.99896 12 1.99896ZM7.50833 16.5008L4.78585 16.5007C5.74419 18.0337 7.17763 19.2393 8.88002 19.9113C8.35774 19.0915 7.92675 18.0652 7.60975 16.8958L7.50833 16.5008ZM7.09345 9.99986H3.73584L3.73108 10.0171C3.579 10.6534 3.49847 11.3176 3.49847 12.0005C3.49847 13.0567 3.69106 14.0678 4.04304 15.0008L7.2162 15.0005C7.0739 14.0514 6.99847 13.0431 6.99847 12.0005C6.99847 11.3165 7.03094 10.6473 7.09345 9.99986ZM8.88107 4.08967L8.85817 4.09838C6.81085 4.91309 5.15484 6.5004 4.25017 8.50027L7.29829 8.50063C7.61165 6.74784 8.15849 5.22192 8.88107 4.08967ZM12 3.49896L11.8844 3.50426C10.6189 3.62002 9.39645 5.62198 8.82874 8.50021H15.1713C14.6052 5.63005 13.388 3.63125 12.1263 3.50528L12 3.49896ZM15.12 4.08972L15.2269 4.26382C15.8961 5.37629 16.4042 6.83617 16.7018 8.50063L19.7499 8.50027C18.8852 6.58886 17.3342 5.05432 15.4112 4.211L15.12 4.08972Z" fill="black"/>
<path fill-rule="evenodd" clip-rule="evenodd" d="M22.5 17C22.5 14.5147 20.4853 12.5 18 12.5C15.5147 12.5 13.5 14.5147 13.5 17C13.5 18.8626 14.9198 20.8149 17.7 22.9C17.8778 23.0333 18.1222 23.0333 18.3 22.9C21.0802 20.8149 22.5 18.8626 22.5 17ZM16.5 17C16.5 16.1716 17.1716 15.5 18 15.5C18.8284 15.5 19.5 16.1716 19.5 17C19.5 17.8284 18.8284 18.5 18 18.5C17.1716 18.5 16.5 17.8284 16.5 17Z" fill="black"/>
</svg>
