<svg width="24" height="24" viewBox="0 0 24 24" fill="none" xmlns="http://www.w3.org/2000/svg">
<path d="M18.75 3.50055C20.5449 3.50055 22 4.95562 22 6.75055V17.2531C22 19.0481 20.5449 20.5031 18.75 20.5031H5.25C3.45507 20.5031 2 19.0481 2 17.2531V6.75055C2 4.95562 3.45507 3.50055 5.25 3.50055H18.75ZM18.75 5.00055H5.25C4.2835 5.00055 3.5 5.78405 3.5 6.75055V17.2531C3.5 18.2196 4.2835 19.0031 5.25 19.0031H18.75C19.7165 19.0031 20.5 18.2196 20.5 17.2531V6.75055C20.5 5.78405 19.7165 5.00055 18.75 5.00055ZM8.37846 8.99316C8.69226 8.99316 8.95204 9.22442 8.99669 9.5258L9.00346 9.61816V14.37C9.00346 14.7152 8.72364 14.995 8.37846 14.995C8.06466 14.995 7.80488 14.7638 7.76024 14.4624L7.75346 14.37L7.75285 12.6362H6.27185V14.3873C6.27185 14.7324 5.99203 15.0123 5.64685 15.0123C5.33306 15.0123 5.07327 14.781 5.02863 14.4796L5.02185 14.3873V9.63539C5.02185 9.29022 5.30168 9.01039 5.64685 9.01039C5.96065 9.01039 6.22044 9.24165 6.26508 9.54304L6.27185 9.63539V11.3862H7.75285L7.75346 9.61816C7.75346 9.27298 8.03328 8.99316 8.37846 8.99316ZM17.2012 9.01568C18.1977 9.01568 19.0055 9.82352 19.0055 10.8201C19.0055 11.4379 18.695 11.9832 18.2215 12.3084L18.9602 14.1417C19.0893 14.4619 18.9343 14.826 18.6142 14.9551C18.326 15.0712 18.0023 14.9573 17.8463 14.7L17.8009 14.609L17.0006 12.6237L16.2585 12.624L16.2592 14.3754C16.2592 15.1306 15.2321 15.2016 15.0399 14.5872L15.0168 14.4845L15.0092 14.3761L15.0036 9.64141C15.0033 9.32735 15.2346 9.06718 15.5362 9.02247L15.6286 9.01568H17.2012ZM11.3754 9.00602C12.7694 9.00602 13.9096 10.0926 13.9952 11.465L14.0004 11.631V12.3727C14.0004 13.7666 12.9138 14.9068 11.5414 14.9925L11.3754 14.9977H10.6246C10.3108 14.9977 10.051 14.7664 10.0064 14.465L9.99959 14.3727V9.63102C9.99959 9.31722 10.2309 9.05743 10.5322 9.01279L10.6246 9.00602H11.3754ZM11.3754 10.256H11.249V13.747L11.3754 13.7477C12.0901 13.7477 12.6775 13.2023 12.7441 12.5051L12.7504 12.3727V11.631C12.7504 10.9163 12.2051 10.3289 11.5078 10.2623L11.3754 10.256ZM16.2545 10.265L16.2555 11.374L17.2012 11.3744C17.5073 11.3744 17.7555 11.1262 17.7555 10.8201C17.7555 10.5445 17.5545 10.3159 17.2911 10.2729L17.2012 10.2657L16.2545 10.265Z" fill="black"/>
</svg>
