<svg width="24" height="24" viewBox="0 0 24 24" fill="none" xmlns="http://www.w3.org/2000/svg">
<path d="M20.2586 2.00439C20.6383 2.00474 20.9518 2.28717 21.0011 2.65329L21.0079 2.75507L21.0038 7.25278C21.0009 8.4091 20.1271 9.36074 19.0029 9.48673L19.0025 11.7465C19.0025 12.9374 18.0773 13.9121 16.9065 13.9913L16.7525 13.9965L16.501 13.9964L16.5018 16.7881C16.5018 17.6031 16.0617 18.3494 15.3601 18.7463L15.2058 18.8259L8.57108 21.9321C8.10485 22.1504 7.57412 21.8451 7.5096 21.3536L7.50307 21.2529L7.503 13.9964L7.25 13.9965C6.05914 13.9965 5.08436 13.0713 5.00519 11.9005L5 11.7465L5.00044 9.4872C3.92882 9.36895 3.08392 8.49813 3.00589 7.41489L3 7.25088V2.7544C3 2.34018 3.33579 2.00439 3.75 2.00439C4.1297 2.00439 4.44349 2.28655 4.49315 2.65262L4.5 2.7544V7.25088C4.5 7.63058 4.78215 7.94437 5.14823 7.99403L5.25 8.00088L18.7513 8.00088C19.1316 8.00026 19.4461 7.71761 19.4967 7.35186L19.5038 7.25021L19.5079 2.75372C19.5083 2.33951 19.8444 2.00402 20.2586 2.00439ZM15.001 13.9964H9.003L9.00307 20.0736L14.5698 17.4674C14.8004 17.3594 14.9582 17.1432 14.994 16.8958L15.0018 16.7881L15.001 13.9964ZM17.502 9.50039H6.5V11.7465C6.5 12.1262 6.78215 12.44 7.14823 12.4896L7.25 12.4965H16.7525C17.1322 12.4965 17.446 12.2143 17.4956 11.8483L17.5025 11.7465L17.502 9.50039Z" fill="black"/>
</svg>
