<svg width="24" height="24" viewBox="0 0 24 24" fill="none" xmlns="http://www.w3.org/2000/svg">
<path d="M18.9932 6.00782C19.8988 6.58285 20.5 7.59621 20.5 8.75V15.25C20.5 18.1495 18.1495 20.5 15.25 20.5H8.75C7.59621 20.5 6.58285 19.8988 6.00612 18.9925L6.12828 18.9982L6.25 19H15.25C17.3211 19 19 17.3211 19 15.25V6.25C19 6.16872 18.9977 6.08798 18.9932 6.00782ZM14.75 3C16.5449 3 18 4.45507 18 6.25V14.75C18 16.5449 16.5449 18 14.75 18H6.25C4.45507 18 3 16.5449 3 14.75V6.25C3 4.45507 4.45507 3 6.25 3H14.75ZM10.0691 12.1373L9.97697 12.2137L5.67047 16.4018C5.85185 16.4654 6.04688 16.5 6.25 16.5H14.75C14.9531 16.5 15.1481 16.4654 15.3295 16.4018L11.0226 12.2137C10.7606 11.959 10.359 11.9335 10.0691 12.1373ZM14.75 4.5H6.25C5.2835 4.5 4.5 5.2835 4.5 6.25V14.75C4.5 14.9588 4.53656 15.159 4.60363 15.3447L8.93134 11.1382C9.76095 10.3316 11.0572 10.2913 11.9335 11.0172L12.0682 11.1382L16.396 15.3457C16.4633 15.1597 16.5 14.9592 16.5 14.75V6.25C16.5 5.2835 15.7165 4.5 14.75 4.5ZM13.0004 6.75116C13.6904 6.75116 14.2497 7.31048 14.2497 8.00045C14.2497 8.69041 13.6904 9.24974 13.0004 9.24974C12.3105 9.24974 11.7512 8.69041 11.7512 8.00045C11.7512 7.31048 12.3105 6.75116 13.0004 6.75116Z" fill="black"/>
</svg>
