<svg width="24" height="24" viewBox="0 0 24 24" fill="none" xmlns="http://www.w3.org/2000/svg">
<path d="M10.974 13.5L13.7703 11.1735C14.2318 10.7895 14.9184 11.0781 14.9933 11.6468L15 11.75V20.25C15 20.8502 14.3391 21.1935 13.8541 20.8875L13.7705 20.8267L10.9741 18.5014H9.25C8.8703 18.5014 8.55651 18.2192 8.50685 17.8532L8.5 17.7514V14.25C8.5 13.8703 8.78215 13.5565 9.14823 13.5068L9.25 13.5H10.974L13.7703 11.1735L10.974 13.5ZM19.2197 11.4697C19.5126 11.1768 19.9874 11.1768 20.2803 11.4697C21.428 12.6173 22 14.1428 22 16C22 17.8572 21.428 19.3827 20.2803 20.5303C19.9874 20.8232 19.5126 20.8232 19.2197 20.5303C18.9268 20.2374 18.9268 19.7626 19.2197 19.4697C20.072 18.6173 20.5 17.4761 20.5 16C20.5 14.5239 20.072 13.3827 19.2197 12.5303C18.9268 12.2374 18.9268 11.7626 19.2197 11.4697ZM9.75 3C10.538 3 11.2486 3.33143 11.75 3.8625C12.2096 3.37569 12.845 3.05662 13.5547 3.00683L13.75 3H19.75C20.6682 3 21.4212 3.70711 21.4942 4.60647L21.5 4.75V8.75294C21.5 9.16715 21.1642 9.50294 20.75 9.50294C20.3703 9.50294 20.0565 9.22079 20.0068 8.85471L20 8.75294V4.75C20 4.63165 19.9178 4.53251 19.8073 4.5066L19.75 4.5H13.75C13.1028 4.5 12.5705 4.99187 12.5065 5.62219L12.5 5.75V9.7474C12.5 10.1616 12.1642 10.4974 11.75 10.4974C11.3703 10.4974 11.0565 10.2152 11.0068 9.84917L11 9.7474V5.75C11 5.10279 10.5081 4.57047 9.87781 4.50645L9.75 4.5H3.75C3.63165 4.5 3.53251 4.58223 3.5066 4.69268L3.5 4.75V17.75C3.5 17.8683 3.58223 17.9675 3.69268 17.9934L3.75 18H6.24866C6.66287 18 6.99866 18.3358 6.99866 18.75C6.99866 19.1297 6.71651 19.4435 6.35043 19.4932L6.24866 19.5H3.75C2.83183 19.5 2.07881 18.7929 2.0058 17.8935L2 17.75V4.75C2 3.83183 2.70711 3.07881 3.60647 3.0058L3.75 3H9.75ZM16.7848 12.956C17.0852 12.6709 17.5599 12.6833 17.8451 12.9837C18.6132 13.7931 19 14.8121 19 16C19 17.1958 18.59 18.2207 17.7803 19.0304C17.4874 19.3232 17.0125 19.3232 16.7196 19.0303C16.4268 18.7374 16.4268 18.2625 16.7197 17.9696C17.2433 17.4461 17.5 16.8044 17.5 16C17.5 15.1877 17.2542 14.5401 16.7571 14.0163C16.4719 13.7159 16.4843 13.2411 16.7848 12.956ZM13.5 13.3496L11.7249 14.8265C11.6171 14.9162 11.4869 14.9734 11.3495 14.9927L11.2452 15H10V17.0014H11.2452C11.3853 17.0014 11.522 17.0406 11.64 17.1137L11.7247 17.1747L13.5 18.6509V13.3496Z" fill="black"/>
</svg>
