<svg width="24" height="24" viewBox="0 0 24 24" fill="none" xmlns="http://www.w3.org/2000/svg">
<path fill-rule="evenodd" clip-rule="evenodd" d="M11.9994 18.5015C11.4465 18.5015 10.9983 18.9497 10.9983 19.5026C10.9983 20.0555 11.4465 20.5037 11.9994 20.5037C12.5523 20.5037 13.0005 20.0555 13.0005 19.5026C13.0005 18.9497 12.5523 18.5015 11.9994 18.5015ZM9.49827 19.5026C9.49827 18.1213 10.6181 17.0015 11.9994 17.0015C13.3807 17.0015 14.5005 18.1213 14.5005 19.5026C14.5005 20.8839 13.3807 22.0037 11.9994 22.0037C10.6181 22.0037 9.49827 20.8839 9.49827 19.5026Z" fill="black"/>
<path fill-rule="evenodd" clip-rule="evenodd" d="M11.9984 3.50244C10.6865 3.50244 9.62305 4.56593 9.62305 5.87781C9.62305 8.43944 10.5506 11.9861 11.0983 13.8473C11.2119 14.2332 11.5724 14.5039 12 14.5039C12.4269 14.5039 12.7863 14.2344 12.9 13.8501C13.4475 11.9993 14.3738 8.46909 14.3738 5.87781C14.3738 4.56593 13.3103 3.50244 11.9984 3.50244ZM8.12305 5.87781C8.12305 3.7375 9.85811 2.00244 11.9984 2.00244C14.1387 2.00244 15.8738 3.7375 15.8738 5.87781C15.8738 8.71128 14.8838 12.4318 14.3383 14.2756C14.0288 15.322 13.0651 16.0039 12 16.0039C10.9326 16.0039 9.96785 15.3191 9.65934 14.2708C9.11445 12.4193 8.12305 8.68157 8.12305 5.87781Z" fill="black"/>
</svg>
