<svg width="24" height="24" viewBox="0 0 24 24" fill="none" xmlns="http://www.w3.org/2000/svg">
<path d="M17.5 12C19.9853 12 22 14.0147 22 16.5C22 18.9853 19.9853 21 17.5 21C15.3591 21 13.5674 19.505 13.1119 17.502H10.888C10.4326 19.505 8.64088 21 6.49999 21C4.0147 21 1.99999 18.9853 1.99999 16.5C1.99999 14.0147 4.0147 12 6.49999 12C8.81637 12 10.724 13.7502 10.9726 16.0003H13.0274C13.276 13.7502 15.1836 12 17.5 12ZM6.49999 13.5C4.84313 13.5 3.49999 14.8431 3.49999 16.5C3.49999 18.1569 4.84313 19.5 6.49999 19.5C8.15684 19.5 9.49999 18.1569 9.49999 16.5C9.49999 14.8431 8.15684 13.5 6.49999 13.5ZM17.5 13.5C15.8431 13.5 14.5 14.8431 14.5 16.5C14.5 18.1569 15.8431 19.5 17.5 19.5C19.1568 19.5 20.5 18.1569 20.5 16.5C20.5 14.8431 19.1568 13.5 17.5 13.5ZM12 9.25C15.3893 9.25 18.5301 9.58954 21.4218 10.2699C21.825 10.3648 22.0749 10.7686 21.98 11.1718C21.8852 11.575 21.4814 11.8249 21.0782 11.7301C18.3032 11.0771 15.2773 10.75 12 10.75C8.72266 10.75 5.69675 11.0771 2.92177 11.7301C2.51856 11.8249 2.11479 11.575 2.01992 11.1718C1.92505 10.7686 2.175 10.3648 2.57821 10.2699C5.46989 9.58954 8.61065 9.25 12 9.25ZM15.7002 3.25C16.7231 3.25 17.6556 3.81694 18.1298 4.71159L18.2132 4.88312L19.6853 8.1954C19.8536 8.57391 19.6831 9.01713 19.3046 9.18536C18.9576 9.33957 18.5563 9.20918 18.3622 8.89482L18.3146 8.8046L16.8425 5.49233C16.6601 5.08195 16.2736 4.80422 15.8337 4.75711L15.7002 4.75H8.29973C7.85065 4.75 7.43987 4.99043 7.21816 5.37329L7.15747 5.49233L5.68534 8.8046C5.51712 9.18312 5.07389 9.35359 4.69538 9.18536C4.34841 9.03115 4.17626 8.64587 4.27955 8.29118L4.31463 8.1954L5.78675 4.88312C6.20217 3.94843 7.09898 3.32652 8.1091 3.25659L8.29973 3.25H15.7002Z" fill="black"/>
</svg>
