<svg width="24" height="24" viewBox="0 0 24 24" fill="none" xmlns="http://www.w3.org/2000/svg">
<path d="M21.7803 2.21967C22.0466 2.48594 22.0708 2.9026 21.8529 3.19621L21.7803 3.28033L20.7992 4.26156C21.5108 4.63946 21.9954 5.38814 21.9954 6.25V17.7546C21.9954 18.9972 20.988 20.0046 19.7454 20.0046L5.056 20.004L3.28033 21.7803C3.01406 22.0466 2.5974 22.0708 2.30379 21.8529L2.21967 21.7803C1.9534 21.5141 1.9292 21.0974 2.14705 20.8038L2.21967 20.7197L3.19615 19.743L3.194 19.742L10.4006 12.539L10.398 12.538L11.5183 11.4214L20.7197 2.21967C21.0126 1.92678 21.4874 1.92678 21.7803 2.21967ZM16.814 4L15.314 5.5H4.25C3.83579 5.5 3.5 5.83579 3.5 6.25V17.315L2.17911 18.6358C2.0638 18.3652 2 18.0673 2 17.7546V6.25C2 5.00736 3.00736 4 4.25 4H16.814ZM19.7454 5.5H19.56L14.9994 10.0628C14.9674 11.632 13.7305 12.9053 12.1763 12.9954L12.062 12.998L11.06 14H15.2447C16.1629 14 16.9159 14.7071 16.9889 15.6065L16.9947 15.75L16.994 18.504L19.7454 18.5046C20.1596 18.5046 20.4954 18.1688 20.4954 17.7546V6.25C20.4954 5.83579 20.1596 5.5 19.7454 5.5ZM15.2447 15.5H9.56L8.499 16.561V18.504H15.494L15.4947 15.75C15.4947 15.6317 15.4125 15.5325 15.302 15.5066L15.2447 15.5ZM12 7.00046C12.5236 7.00046 13.0158 7.13458 13.4442 7.37035L12.2881 8.52811C12.1949 8.50997 12.0986 8.50046 12 8.50046C11.1716 8.50046 10.5 9.17203 10.5 10.0005C10.5 10.0987 10.5094 10.1947 10.5275 10.2876L9.36986 11.4447C9.16076 11.0647 9.03161 10.6345 9.00509 10.1767L9 10.0005C9 8.34361 10.3431 7.00046 12 7.00046Z" fill="black"/>
</svg>
