<svg width="24" height="24" viewBox="0 0 24 24" fill="none" xmlns="http://www.w3.org/2000/svg">
<path d="M20.2489 1.99854C20.6286 1.99854 20.9424 2.28069 20.9921 2.64676L20.9989 2.74854V6.24854C20.9989 7.16671 20.2918 7.91973 19.3924 7.99273L19.2489 7.99854H18.986L15.0127 16.9609C14.8031 17.4336 14.4001 17.7808 13.9209 17.9262C14.0593 18.757 14.0381 19.5386 13.8521 20.2655C13.79 20.5081 13.7086 20.7421 13.6079 20.9671C13.4263 21.3728 13.0971 21.6942 12.6871 21.866C11.7958 22.2396 10.7703 21.8199 10.3967 20.9286C10.308 20.7171 10.2344 20.4954 10.1758 20.2636C9.98161 19.4966 9.95875 18.7084 10.1055 17.9059C9.70332 17.7709 9.35986 17.4905 9.14656 17.1132L9.07526 16.9727L5.01504 7.99854H4.75104C3.83286 7.99854 3.07985 7.29142 3.00684 6.39206L3.00104 6.24854V2.74854C3.00104 2.33432 3.33682 1.99854 3.75104 1.99854C4.13073 1.99854 4.44453 2.28069 4.49419 2.64676L4.50104 2.74854V6.24854C4.50104 6.36688 4.58327 6.46602 4.69372 6.49193L4.75104 6.49854H19.2489C19.3673 6.49854 19.4664 6.4163 19.4923 6.30586L19.4989 6.24854V2.74854C19.4989 2.33432 19.8347 1.99854 20.2489 1.99854ZM12.408 18.0005H11.617L11.5792 18.1856C11.4726 18.7756 11.4901 19.3433 11.6299 19.8955C11.6705 20.0559 11.7206 20.2069 11.7801 20.3487C11.8334 20.476 11.9799 20.536 12.1073 20.4826C12.1658 20.4581 12.2129 20.4122 12.2388 20.3542C12.3045 20.2074 12.3579 20.0541 12.3989 19.8936C12.53 19.3814 12.5464 18.8137 12.4434 18.1863L12.408 18.0005ZM17.345 7.99854H6.66204L10.442 16.3545C10.4743 16.4261 10.5378 16.4772 10.6122 16.4948L10.6697 16.5015H13.4129C13.492 16.5015 13.5652 16.4642 13.6118 16.403L13.6415 16.3528L17.345 7.99854Z" fill="black"/>
</svg>
