<svg width="24" height="24" viewBox="0 0 24 24" fill="none" xmlns="http://www.w3.org/2000/svg">
<path d="M19.2495 18.8936C18.981 19.1621 18.5664 19.1912 18.2812 18.9763L18.2069 18.9116L17.3042 18.009L16.0622 19.2508C15.7693 19.5437 15.2944 19.5437 15.0015 19.2508C14.733 18.9824 14.7106 18.561 14.9344 18.267L15.0015 18.1902L16.2435 16.9483L15.1815 15.8863L13.2356 17.8321C12.9427 18.125 12.4678 18.125 12.1749 17.8321C11.9064 17.5637 11.884 17.1423 12.1078 16.8483L12.1749 16.7715L14.1208 14.8256L10.2114 10.9172C8.64217 12.138 6.37272 12.0273 4.93055 10.5851C3.36845 9.02298 3.36845 6.49032 4.93055 4.92823C6.49264 3.36613 9.0253 3.36613 10.5874 4.92823C11.9054 6.24622 12.1114 8.25515 11.2053 9.78908L19.2675 17.851C19.5504 18.1339 19.5423 18.6007 19.2495 18.8936ZM9.52674 9.52442C10.503 8.54811 10.503 6.9652 9.52674 5.98889C8.55043 5.01258 6.96752 5.01258 5.9912 5.98889C5.01489 6.9652 5.01489 8.54811 5.9912 9.52442C6.96752 10.5007 8.55043 10.5007 9.52674 9.52442Z" fill="black"/>
</svg>
