<svg width="24" height="24" viewBox="0 0 24 24" fill="none" xmlns="http://www.w3.org/2000/svg">
<path d="M10.8797 2.46767C10.7984 2.53543 10.7234 2.61042 10.6556 2.69173L2.79067 12.1297C2.17193 12.8722 2.27225 13.9757 3.01473 14.5944L3.15433 14.6994C3.44276 14.8946 3.78415 15 4.13505 15H6.99901L7.00001 20.25C7.00001 21.2165 7.78351 22 8.75001 22H15.25L15.3935 21.9942C16.2929 21.9212 17 21.1682 17 20.25L16.999 15H19.865C20.8315 15 21.615 14.2165 21.615 13.25C21.615 12.8406 21.4714 12.4442 21.2094 12.1297L13.3444 2.69173C12.76 1.9905 11.7433 1.86206 11.0066 2.37119L10.8797 2.46767ZM12.1921 3.65201L20.057 13.09C20.0945 13.1349 20.115 13.1915 20.115 13.25C20.115 13.3881 20.003 13.5 19.865 13.5H16.25C15.8358 13.5 15.5 13.8358 15.5 14.25V20.25C15.5 20.3881 15.3881 20.5 15.25 20.5H8.75001C8.61194 20.5 8.50001 20.3881 8.50001 20.25V14.25C8.50001 13.8358 8.16423 13.5 7.75001 13.5H4.13505C4.07657 13.5 4.01994 13.4795 3.97501 13.4421C3.86894 13.3537 3.85461 13.196 3.943 13.09L11.808 3.65201C11.8176 3.64039 11.8284 3.62968 11.84 3.62C11.946 3.53161 12.1037 3.54594 12.1921 3.65201Z" fill="black"/>
</svg>
