<svg width="24" height="24" viewBox="0 0 24 24" fill="none" xmlns="http://www.w3.org/2000/svg">
<path d="M16.25 20.5C16.6642 20.5 17 20.8358 17 21.25C17 21.6297 16.7179 21.9435 16.3518 21.9932L16.25 22H7.75001C7.3358 22 7.00001 21.6642 7.00001 21.25C7.00001 20.8703 7.28217 20.5565 7.64824 20.5069L7.75001 20.5H16.25ZM11.0066 2.37119C11.7 1.89201 12.6414 1.97759 13.2369 2.57394L13.3444 2.69173L21.2094 12.1297C21.4714 12.4442 21.615 12.8406 21.615 13.25C21.615 14.1682 20.9079 14.9212 20.0085 14.9942L19.865 15H16.999L17 17.25C17 18.1172 16.3693 18.837 15.5416 18.9758L15.3935 18.9942L15.25 19H8.75001C7.83184 19 7.07882 18.2929 7.00581 17.3935L7.00001 17.25L6.99901 15H4.13505C3.84263 15 3.55682 14.9268 3.30276 14.7894L3.15433 14.6994L3.01473 14.5944C2.3135 14.01 2.18506 12.9933 2.69419 12.2566L2.79067 12.1297L10.6556 2.69173L10.7626 2.57462L10.8797 2.46767L11.0066 2.37119ZM12.1921 3.65201C12.1184 3.56362 11.9967 3.53893 11.8967 3.58431L11.84 3.62L11.808 3.65201L3.943 13.09C3.85461 13.196 3.86894 13.3537 3.97501 13.4421C4.00496 13.467 4.04011 13.4845 4.07755 13.4933L4.13505 13.5H7.75001C8.12971 13.5 8.4435 13.7822 8.49317 14.1482L8.50001 14.25V17.25C8.50001 17.3684 8.58225 17.4675 8.69269 17.4934L8.75001 17.5H15.25C15.3684 17.5 15.4675 17.4178 15.4934 17.3073L15.5 17.25V14.25C15.5 13.8703 15.7822 13.5565 16.1482 13.5069L16.25 13.5H19.865C20.003 13.5 20.115 13.3881 20.115 13.25C20.115 13.211 20.1059 13.1728 20.0887 13.1384L20.057 13.09L12.1921 3.65201Z" fill="black"/>
</svg>
