<svg width="24" height="24" viewBox="0 0 24 24" fill="none" xmlns="http://www.w3.org/2000/svg">
<path d="M19.7477 2.5C20.9903 2.5 21.9977 3.50736 21.9977 4.75V14.2546C21.9977 15.4972 20.9903 16.5046 19.7477 16.5046H4.25232C3.00968 16.5046 2.00232 15.4972 2.00232 14.2546V4.75C2.00232 3.50736 3.00968 2.5 4.25232 2.5H19.7477ZM19.7477 4H4.25232C3.83811 4 3.50232 4.33579 3.50232 4.75V14.2546C3.50232 14.6688 3.83811 15.0046 4.25232 15.0046H19.7477C20.1619 15.0046 20.4977 14.6688 20.4977 14.2546V4.75C20.4977 4.33579 20.1619 4 19.7477 4ZM6.75232 12H17.2523C17.6665 12 18.0023 12.3358 18.0023 12.75C18.0023 13.1297 17.7202 13.4435 17.3541 13.4932L17.2523 13.5H6.75232C6.33811 13.5 6.00232 13.1642 6.00232 12.75C6.00232 12.3703 6.28447 12.0565 6.65055 12.0068L6.75232 12ZM16.5023 8.5C17.0546 8.5 17.5023 8.94772 17.5023 9.5C17.5023 10.0523 17.0546 10.5 16.5023 10.5C15.95 10.5 15.5023 10.0523 15.5023 9.5C15.5023 8.94772 15.95 8.5 16.5023 8.5ZM10.5072 8.5C11.0595 8.5 11.5072 8.94772 11.5072 9.5C11.5072 10.0523 11.0595 10.5 10.5072 10.5C9.95491 10.5 9.50719 10.0523 9.50719 9.5C9.50719 8.94772 9.95491 8.5 10.5072 8.5ZM7.50719 8.5C8.05948 8.5 8.50719 8.94772 8.50719 9.5C8.50719 10.0523 8.05948 10.5 7.50719 10.5C6.95491 10.5 6.50719 10.0523 6.50719 9.5C6.50719 8.94772 6.95491 8.5 7.50719 8.5ZM13.5072 8.5C14.0595 8.5 14.5072 8.94772 14.5072 9.5C14.5072 10.0523 14.0595 10.5 13.5072 10.5C12.9549 10.5 12.5072 10.0523 12.5072 9.5C12.5072 8.94772 12.9549 8.5 13.5072 8.5ZM6.00232 5.5C6.5546 5.5 7.00232 5.94772 7.00232 6.5C7.00232 7.05228 6.5546 7.5 6.00232 7.5C5.45003 7.5 5.00232 7.05228 5.00232 6.5C5.00232 5.94772 5.45003 5.5 6.00232 5.5ZM8.99744 5.5C9.54973 5.5 9.99744 5.94772 9.99744 6.5C9.99744 7.05228 9.54973 7.5 8.99744 7.5C8.44516 7.5 7.99744 7.05228 7.99744 6.5C7.99744 5.94772 8.44516 5.5 8.99744 5.5ZM11.9974 5.5C12.5497 5.5 12.9974 5.94772 12.9974 6.5C12.9974 7.05228 12.5497 7.5 11.9974 7.5C11.4452 7.5 10.9974 7.05228 10.9974 6.5C10.9974 5.94772 11.4452 5.5 11.9974 5.5ZM14.9974 5.5C15.5497 5.5 15.9974 5.94772 15.9974 6.5C15.9974 7.05228 15.5497 7.5 14.9974 7.5C14.4452 7.5 13.9974 7.05228 13.9974 6.5C13.9974 5.94772 14.4452 5.5 14.9974 5.5ZM17.9974 5.5C18.5497 5.5 18.9974 5.94772 18.9974 6.5C18.9974 7.05228 18.5497 7.5 17.9974 7.5C17.4452 7.5 16.9974 7.05228 16.9974 6.5C16.9974 5.94772 17.4452 5.5 17.9974 5.5ZM11.95 21.9982C11.8107 21.9885 11.6736 21.9401 11.5561 21.8529L11.472 21.7803L9.35067 19.659C9.05778 19.3661 9.05778 18.8912 9.35067 18.5984C9.61694 18.3321 10.0336 18.3079 10.3272 18.5257L10.4113 18.5984L11.2526 19.4392L11.2523 16.25C11.2523 15.8703 11.5345 15.5565 11.9005 15.5068L12.0023 15.5C12.4165 15.5 12.7523 15.8358 12.7523 16.25L12.7526 19.4392L13.5933 18.5984C13.8596 18.3321 14.2762 18.3079 14.5699 18.5257L14.654 18.5984C14.9202 18.8646 14.9444 19.2813 14.7266 19.5749L14.654 19.659L12.5326 21.7803C12.4261 21.8868 12.2956 21.9546 12.1584 21.9837L12.0546 21.9982H11.95Z" fill="black"/>
</svg>
