<svg width="24" height="24" viewBox="0 0 24 24" fill="none" xmlns="http://www.w3.org/2000/svg">
<path d="M2.75061 16.4998H21.2494C21.6636 16.4998 21.9994 16.8356 21.9994 17.2498C21.9994 17.6295 21.7172 17.9433 21.3511 17.993L21.2494 17.9998H2.75061C2.3364 17.9998 2.00061 17.664 2.00061 17.2498C2.00061 16.8701 2.28276 16.5563 2.64884 16.5067L2.75061 16.4998H21.2494H2.75061ZM18.25 5.00034C19.2165 5.00034 20 5.78384 20 6.75034V14.2506C20 15.2171 19.2165 16.0006 18.25 16.0006H5.74998C4.78349 16.0006 3.99998 15.2171 3.99998 14.2506V6.75034C3.99998 5.78384 4.78349 5.00034 5.74998 5.00034H18.25ZM18.25 6.50034H5.74998C5.61191 6.50034 5.49998 6.61226 5.49998 6.75034V14.2506C5.49998 14.3887 5.61191 14.5006 5.74998 14.5006H18.25C18.3881 14.5006 18.5 14.3887 18.5 14.2506V6.75034C18.5 6.61226 18.3881 6.50034 18.25 6.50034Z" fill="black"/>
</svg>
