<svg width="24" height="24" viewBox="0 0 24 24" fill="none" xmlns="http://www.w3.org/2000/svg">
<path d="M17.5 12C20.5375 12 23 14.4624 23 17.5C23 20.5376 20.5375 23 17.5 23C14.4624 23 12 20.5376 12 17.5C12 14.4624 14.4624 12 17.5 12ZM10.2945 20.3247C10.7579 20.419 11.2264 20.4738 11.7261 20.4909C11.9986 21.0135 12.3398 21.4959 12.7382 21.9245C12.4461 21.9724 12.1603 21.9962 11.8789 21.9951C11.2145 21.9838 10.6015 21.9179 9.99541 21.7946C9.58951 21.712 9.32742 21.316 9.41001 20.9101C9.4926 20.5042 9.8886 20.2421 10.2945 20.3247ZM17.5 13.9992L17.4101 14.0073C17.206 14.0443 17.0451 14.2053 17.008 14.4094L17 14.4992L16.9996 16.9992L14.4976 17L14.4078 17.0081C14.2037 17.0451 14.0427 17.206 14.0057 17.4101L13.9976 17.5L14.0057 17.5899C14.0427 17.794 14.2037 17.9549 14.4078 17.9919L14.4976 18L17.0006 17.9992L17.0011 20.5035L17.0091 20.5934C17.0462 20.7975 17.2071 20.9584 17.4112 20.9954L17.5011 21.0035L17.591 20.9954C17.7951 20.9584 17.956 20.7975 17.993 20.5934L18.0011 20.5035L18.0006 17.9992L20.5045 18L20.5944 17.9919C20.7985 17.9549 20.9594 17.794 20.9965 17.5899L21.0045 17.5L20.9965 17.4101C20.9594 17.206 20.7985 17.0451 20.5944 17.0081L20.5045 17L17.9996 16.9992L18 14.4992L17.9919 14.4094C17.9549 14.2053 17.7939 14.0443 17.5899 14.0073L17.5 13.9992ZM5.8922 17.9097C6.53636 18.5741 7.28427 19.1303 8.10607 19.5542C8.47419 19.7441 8.61867 20.1965 8.42877 20.5646C8.23887 20.9327 7.78651 21.0772 7.41839 20.8873C6.45165 20.3886 5.57237 19.7347 4.81532 18.9539C4.52697 18.6566 4.5343 18.1817 4.83167 17.8934C5.12904 17.6051 5.60386 17.6124 5.8922 17.9097ZM3.6082 13.4075C3.76278 14.3235 4.06586 15.202 4.50324 16.0138C4.69971 16.3785 4.56337 16.8334 4.19871 17.0298C3.83406 17.2263 3.37918 17.09 3.18271 16.7253C2.66796 15.7699 2.31109 14.7354 2.12912 13.6571C2.06019 13.2487 2.33542 12.8617 2.74386 12.7928C3.15229 12.7239 3.53928 12.9991 3.6082 13.4075ZM18.6788 8.89588L18.8173 8.92402C20.2894 9.21221 21.2866 9.90444 21.7327 10.9566C21.8944 11.338 21.7163 11.7782 21.335 11.9399C21.2095 11.9931 21.0776 12.0095 20.9513 11.994C20.7893 11.8893 20.6219 11.7942 20.4501 11.7065L20.3977 11.6332L20.3517 11.5421C20.1352 11.0315 19.6267 10.6528 18.7402 10.4417L18.3702 10.3638C17.9648 10.2786 17.7053 9.88086 17.7905 9.47551C17.8758 9.07016 18.2735 8.81065 18.6788 8.89588ZM3.562 7.41404C3.95532 7.54394 4.16887 7.96808 4.03897 8.3614C3.76186 9.20049 3.58788 10.1286 3.52035 11.1253C3.49234 11.5386 3.13462 11.8509 2.72136 11.8229C2.30809 11.7949 1.99578 11.4372 2.02378 11.0239C2.09957 9.90544 2.29672 8.85364 2.61464 7.89101C2.74453 7.49769 3.16868 7.28414 3.562 7.41404ZM15.1877 5.99714C15.4542 6.97181 15.8198 7.5792 16.5465 8.07331C16.889 8.30622 16.9779 8.7727 16.7449 9.11523C16.512 9.45776 16.0455 9.54662 15.703 9.31371C14.6404 8.59115 14.0935 7.6825 13.7408 6.39281C13.6316 5.99326 13.8669 5.5808 14.2664 5.47154C14.666 5.36227 15.0784 5.59759 15.1877 5.99714ZM7.2754 3.45338C7.48545 3.81039 7.36631 4.27008 7.00931 4.48012C6.23174 4.93761 5.57661 5.55069 5.04833 6.3074C4.81122 6.64703 4.34368 6.73014 4.00405 6.49303C3.66441 6.25592 3.5813 5.78838 3.81841 5.44875C4.46847 4.5176 5.28271 3.75561 6.24866 3.18729C6.60567 2.97724 7.06536 3.09638 7.2754 3.45338ZM11 2.00168C12.6432 2.00168 13.6992 2.45718 14.3241 3.40116C14.5528 3.74655 14.4581 4.2119 14.1127 4.44055C13.7987 4.64841 13.3856 4.58909 13.1413 4.3171L13.0733 4.22917C12.7567 3.75084 12.1791 3.50167 11 3.50168C10.3517 3.50168 9.74296 3.55938 9.17451 3.67269C8.76829 3.75365 8.37334 3.48998 8.29237 3.08375C8.21141 2.67753 8.47508 2.28259 8.88131 2.20162C9.54828 2.06868 10.2551 2.00168 11 2.00168Z" fill="black"/>
</svg>
