<svg width="24" height="24" viewBox="0 0 24 24" fill="none" xmlns="http://www.w3.org/2000/svg">
<path d="M20.0256 12.1919C19.8772 12.4294 19.6806 12.633 19.4486 12.7896L13.3987 16.8733C12.5535 17.4438 11.4465 17.4438 10.6013 16.8733L4.55142 12.7896C3.79043 12.276 3.49533 11.3304 3.77229 10.5L10.6132 15.0596C11.4005 15.5844 12.4112 15.6172 13.2264 15.158L13.3867 15.0596L20.2271 10.4995C20.4088 11.0457 20.3545 11.6657 20.0256 12.1919ZM20.2271 13.7495C20.4088 14.2957 20.3545 14.9157 20.0256 15.4419C19.8772 15.6794 19.6806 15.883 19.4486 16.0396L13.3987 20.1233C12.5535 20.6938 11.4465 20.6938 10.6013 20.1233L4.55142 16.0396C3.79043 15.526 3.49533 14.5804 3.77229 13.75L10.6132 18.3096C11.4005 18.8344 12.4112 18.8672 13.2264 18.408L13.3867 18.3096L20.2271 13.7495ZM13.3867 3.42451L19.7519 7.66796C20.2115 7.97432 20.3356 8.59518 20.0293 9.05471C19.956 9.16457 19.8618 9.25883 19.7519 9.33206L13.3867 13.5755C12.547 14.1353 11.453 14.1353 10.6132 13.5755L4.24807 9.33206C3.78854 9.02571 3.66437 8.40484 3.97072 7.94531C4.04396 7.83546 4.13822 7.7412 4.24807 7.66796L10.6132 3.42451C11.453 2.86468 12.547 2.86468 13.3867 3.42451ZM11.5608 4.60624L11.4453 4.67259L5.705 8.50001L11.4453 12.3274C11.7439 12.5265 12.1228 12.5486 12.4392 12.3938L12.5547 12.3274L18.294 8.50001L12.5547 4.67259C12.2561 4.47354 11.8772 4.45142 11.5608 4.60624Z" fill="black"/>
</svg>
