<svg width="24" height="24" viewBox="0 0 24 24" fill="none" xmlns="http://www.w3.org/2000/svg">
<path d="M12 2.0014C16.0041 2.0014 19.25 5.24734 19.25 9.2514C19.25 11.3475 18.3493 13.2711 16.5869 14.9933C16.51 15.0685 16.4504 15.1591 16.4118 15.2586L16.3804 15.3609L15.2493 20.2565C15.0266 21.2204 14.2035 21.9188 13.2302 21.9934L13.057 22H10.9433C9.95374 22 9.08791 21.355 8.79629 20.4233L8.75088 20.2559L7.62132 15.3612C7.58904 15.2213 7.51728 15.0936 7.41456 14.9933C5.73515 13.353 4.83778 11.5302 4.75613 9.54966L4.75 9.2514L4.75388 9.01209C4.88014 5.1188 8.07601 2.0014 12 2.0014ZM14.115 18.4994H9.884L10.2125 19.9186C10.2831 20.2249 10.5357 20.4508 10.8401 20.4929L10.9433 20.5H13.057C13.3713 20.5 13.6481 20.3048 13.7577 20.0178L13.7878 19.9188L14.115 18.4994ZM12 3.5014C8.89821 3.5014 6.37006 5.95742 6.25415 9.03085L6.25 9.2514L6.25672 9.52841C6.33286 11.0918 7.05722 12.5475 8.46262 13.9201C8.72675 14.1781 8.92265 14.4964 9.03422 14.8464L9.08291 15.0239L9.538 16.9994H14.461L14.9189 15.0232C15.0019 14.6639 15.1718 14.3314 15.4124 14.0543L15.5386 13.9205C16.9432 12.5479 17.6672 11.092 17.7433 9.52845L17.75 9.2514L17.7458 9.03085C17.6299 5.95742 15.1018 3.5014 12 3.5014Z" fill="black"/>
</svg>
