<svg width="24" height="24" viewBox="0 0 24 24" fill="none" xmlns="http://www.w3.org/2000/svg">
<path d="M5.98959 4.92896C6.28249 5.22185 6.28249 5.69673 5.98959 5.98962C2.67014 9.30908 2.67014 14.691 5.98959 18.0104C6.28249 18.3033 6.28249 18.7782 5.98959 19.0711C5.6967 19.364 5.22183 19.364 4.92893 19.0711C1.02369 15.1659 1.02369 8.8342 4.92893 4.92896C5.22183 4.63607 5.6967 4.63607 5.98959 4.92896ZM19.0711 4.92896C22.9763 8.8342 22.9763 15.1659 19.0711 19.0711C18.7782 19.364 18.3033 19.364 18.0104 19.0711C17.7175 18.7782 17.7175 18.3033 18.0104 18.0104C21.3299 14.691 21.3299 9.30908 18.0104 5.98962C17.7175 5.69673 17.7175 5.22185 18.0104 4.92896C18.3033 4.63607 18.7782 4.63607 19.0711 4.92896ZM8.81802 7.75739C9.11091 8.05028 9.11091 8.52515 8.81802 8.81805C7.06066 10.5754 7.06066 13.4246 8.81802 15.182C9.11091 15.4749 9.11091 15.9498 8.81802 16.2427C8.52513 16.5356 8.05025 16.5356 7.75736 16.2427C5.41421 13.8995 5.41421 10.1005 7.75736 7.75739C8.05025 7.46449 8.52513 7.46449 8.81802 7.75739ZM16.2426 7.75739C18.5858 10.1005 18.5858 13.8995 16.2426 16.2427C15.9497 16.5356 15.4749 16.5356 15.182 16.2427C14.8891 15.9498 14.8891 15.4749 15.182 15.182C16.9393 13.4246 16.9393 10.5754 15.182 8.81805C14.8891 8.52515 14.8891 8.05028 15.182 7.75739C15.4749 7.46449 15.9497 7.46449 16.2426 7.75739ZM12 10.5C12.8284 10.5 13.5 11.1716 13.5 12C13.5 12.8285 12.8284 13.5 12 13.5C11.1716 13.5 10.5 12.8285 10.5 12C10.5 11.1716 11.1716 10.5 12 10.5Z" fill="black"/>
</svg>
