<svg width="24" height="24" viewBox="0 0 24 24" fill="none" xmlns="http://www.w3.org/2000/svg">
<path d="M5.84303 4.55891C9.24344 1.1585 14.7566 1.1585 18.157 4.55891C21.4894 7.89132 21.5561 13.2528 18.357 16.6664L18.157 16.8729C17.242 17.7879 15.7116 19.2827 13.5642 21.359C12.6919 22.2023 11.3081 22.2022 10.436 21.3587L6.58633 17.6101C6.3021 17.3299 6.05435 17.0842 5.84303 16.8729C2.44262 13.4725 2.44262 7.95932 5.84303 4.55891ZM17.0963 5.61957C14.2817 2.80495 9.71832 2.80495 6.90369 5.61957C4.08907 8.4342 4.08907 12.9976 6.90369 15.8122L8.59988 17.4842C9.38271 18.2493 10.3424 19.1815 11.4788 20.2805C11.7695 20.5617 12.2308 20.5617 12.5215 20.2806L15.4959 17.3911C16.1544 16.747 16.688 16.2206 17.0963 15.8122C19.911 12.9976 19.911 8.4342 17.0963 5.61957ZM14.9462 7.61295L15.0303 7.68557C15.2966 7.95184 15.3208 8.3685 15.103 8.66211L15.0303 8.74623L13.061 10.7159L15.0303 12.6856C15.2966 12.9518 15.3208 13.3685 15.103 13.6621L15.0303 13.7462C14.7641 14.0125 14.3474 14.0367 14.0538 13.8188L13.9697 13.7462L12 11.7769L10.0303 13.7462C9.76408 14.0125 9.34742 14.0367 9.05381 13.8188L8.96969 13.7462C8.70342 13.48 8.67922 13.0633 8.89707 12.7697L8.96969 12.6856L10.939 10.7159L8.96969 8.74623C8.70342 8.47996 8.67922 8.0633 8.89707 7.76969L8.96969 7.68557C9.23596 7.4193 9.65262 7.3951 9.94623 7.61295L10.0303 7.68557L12 9.6549L13.9697 7.68557C14.236 7.4193 14.6526 7.3951 14.9462 7.61295Z" fill="black"/>
</svg>
