<svg width="24" height="24" viewBox="0 0 24 24" fill="none" xmlns="http://www.w3.org/2000/svg">
<path d="M9.34051 6.37256L9.38923 6.4769L14.9493 20.9769C15.0972 21.3627 14.9104 21.7977 14.5321 21.9485C14.1853 22.0868 13.7979 21.9383 13.6218 21.6154L13.5792 21.5231L12.1461 17.786L5.05938 17.7862L4.96533 17.7801L3.41856 21.5401C3.26145 21.922 2.83038 22.1018 2.45575 21.9416C2.11233 21.7948 1.93554 21.4132 2.02947 21.0564L2.06188 20.9599L8.02581 6.45995C8.26637 5.8751 9.04868 5.85025 9.34051 6.37256ZM18.7457 2.00323C19.1254 2.00323 19.4392 2.28539 19.4889 2.65146L19.4957 2.75323L19.4955 7.49924L21.2458 7.5C21.6255 7.5 21.9392 7.78216 21.9889 8.14823L21.9958 8.25C21.9958 8.6297 21.7136 8.94349 21.3475 8.99316L21.2458 9L19.4955 8.99924L19.4957 16.25C19.4957 16.6297 19.2136 16.9435 18.8475 16.9932L18.7457 17C18.366 17 18.0522 16.7178 18.0026 16.3518L17.9957 16.25V2.75323C17.9957 2.33902 18.3315 2.00323 18.7457 2.00323ZM8.81117 8.74738L5.64901 16.286H11.759L8.81117 8.74738ZM10.7478 2.00323H16.2456C16.6253 2.00323 16.9391 2.28539 16.9887 2.65146L16.9956 2.75323V5.75693C16.9956 8.10152 15.0949 10.0022 12.7503 10.0022C12.3361 10.0022 12.0003 9.66639 12.0003 9.25218C12.0003 8.83797 12.3361 8.50218 12.7503 8.50218C14.2103 8.50218 15.4042 7.36245 15.4906 5.92416L15.4956 5.75693V3.50323H10.7478C10.3336 3.50323 9.99781 3.16745 9.99781 2.75323C9.99781 2.37354 10.28 2.05974 10.646 2.01008L10.7478 2.00323H16.2456H10.7478Z" fill="black"/>
</svg>
