<svg width="24" height="24" viewBox="0 0 24 24" fill="none" xmlns="http://www.w3.org/2000/svg">
<path d="M10.6864 7.56538L10.8225 7.69092L21.3019 18.1785C22.1879 19.0652 22.1874 20.5022 21.3008 21.3883C20.4142 22.2743 18.9772 22.2738 18.0911 21.3871L7.61213 10.9003C6.73457 10.0213 6.73492 8.59738 7.61315 7.71848L7.76963 7.5715C8.60693 6.85388 9.84665 6.85191 10.6864 7.56538ZM11.534 10.526L10.446 11.614L19.1521 20.3268C19.4526 20.6275 19.9398 20.6277 20.2404 20.3273C20.5411 20.0268 20.5413 19.5394 20.2408 19.2388L11.534 10.526ZM7.14823 15.0068L7.25 15C7.6297 15 7.94349 15.2822 7.99315 15.6482L8 15.75V16.5H8.75C9.1297 16.5 9.44349 16.7822 9.49315 17.1482L9.5 17.25C9.5 17.6297 9.21785 17.9435 8.85177 17.9932L8.75 18H8V18.75C8 19.1297 7.71785 19.4435 7.35177 19.4932L7.25 19.5C6.8703 19.5 6.55651 19.2178 6.50685 18.8518L6.5 18.75V18H5.75C5.3703 18 5.05651 17.7178 5.00685 17.3518L5 17.25C5 16.8703 5.28215 16.5565 5.64823 16.5068L5.75 16.5H6.5V15.75C6.5 15.3703 6.78215 15.0565 7.14823 15.0068L7.25 15L7.14823 15.0068ZM8.70133 8.75163L8.67396 8.77899C8.38103 9.07214 8.38092 9.54731 8.67344 9.84034L9.385 10.553L10.474 9.464L9.74438 8.73467C9.45043 8.45867 8.98848 8.46427 8.70133 8.75163ZM17.1482 5.00685L17.25 5C17.6297 5 17.9435 5.28215 17.9932 5.64823L18 5.75V6.5H18.75C19.1297 6.5 19.4435 6.78215 19.4932 7.14823L19.5 7.25C19.5 7.6297 19.2178 7.94349 18.8518 7.99315L18.75 8H18V8.75C18 9.1297 17.7178 9.44349 17.3518 9.49315L17.25 9.5C16.8703 9.5 16.5565 9.21785 16.5068 8.85177L16.5 8.75V8H15.75C15.3703 8 15.0565 7.71785 15.0068 7.35177L15 7.25C15 6.8703 15.2822 6.55651 15.6482 6.50685L15.75 6.5H16.5V5.75C16.5 5.3703 16.7822 5.05651 17.1482 5.00685L17.25 5L17.1482 5.00685ZM5.14823 3.00685L5.25 3C5.6297 3 5.94349 3.28215 5.99315 3.64823L6 3.75V4.5H6.75C7.1297 4.5 7.44349 4.78215 7.49315 5.14823L7.5 5.25C7.5 5.6297 7.21785 5.94349 6.85177 5.99315L6.75 6H6V6.75C6 7.1297 5.71785 7.44349 5.35177 7.49315L5.25 7.5C4.8703 7.5 4.55651 7.21785 4.50685 6.85177L4.5 6.75V6H3.75C3.3703 6 3.05651 5.71785 3.00685 5.35177L3 5.25C3 4.8703 3.28215 4.55651 3.64823 4.50685L3.75 4.5H4.5V3.75C4.5 3.3703 4.78215 3.05651 5.14823 3.00685L5.25 3L5.14823 3.00685Z" fill="black"/>
</svg>
