<svg width="24" height="24" viewBox="0 0 24 24" fill="none" xmlns="http://www.w3.org/2000/svg">
<path d="M3.46967 20.4697L20.9697 2.96967C21.2626 2.67678 21.7374 2.67678 22.0303 2.96967C22.2966 3.23594 22.3208 3.6526 22.1029 3.94621L22.0303 4.03033L21.0785 4.98268C21.6087 5.52713 21.9496 6.25688 21.9949 7.06558L22 7.25V16.75C22 18.483 20.6435 19.8992 18.9344 19.9949L18.75 20H6.06L4.53033 21.5303C4.26406 21.7966 3.8474 21.8208 3.55379 21.6029L3.46967 21.5303C3.2034 21.2641 3.1792 20.8474 3.39705 20.5538L3.46967 20.4697L20.9697 2.96967L3.46967 20.4697ZM17.939 4L16.439 5.5H5.25C4.33183 5.5 3.57881 6.20711 3.5058 7.10647L3.5 7.25V7.679L10.55 11.389L9.439 12.5L3.5 9.374V16.75C3.5 17.2182 3.68385 17.6434 3.98329 17.9575L2.92218 19.018C2.39157 18.4735 2.0504 17.7435 2.00514 16.9344L2 16.75V7.25C2 5.51697 3.35645 4.10075 5.06558 4.00514L5.25 4H17.939ZM20.5 9.373L12.45 13.61L7.56 18.5H18.75C19.6682 18.5 20.4212 17.7929 20.4942 16.8935L20.5 16.75V9.373ZM20.0177 6.04356L16.028 10.032L20.5 7.678V7.25C20.5 6.78233 20.3165 6.3575 20.0177 6.04356Z" fill="black"/>
</svg>
