<svg width="24" height="24" viewBox="0 0 24 24" fill="none" xmlns="http://www.w3.org/2000/svg">
<path d="M9.20319 3.99882L9.25024 3.99756L9.29599 3.99877C9.31843 4.00006 9.34091 4.00239 9.36337 4.0058L9.37945 4.0096C9.46486 4.02332 9.54974 4.05383 9.63063 4.10175L9.6825 4.13529L14.7528 7.70056L19.8199 4.13864C20.2876 3.80985 20.9213 4.10537 20.9943 4.64772L21.0012 4.7522V15.3847C21.0012 15.5941 20.9138 15.7921 20.7631 15.9329L20.6825 15.9983L15.1825 19.8647C14.9156 20.0523 14.5947 20.0366 14.3547 19.8878L9.24984 16.2966L4.18016 19.8613C3.71245 20.1901 3.07871 19.8946 3.00577 19.3523L2.99884 19.2478V8.61523C2.99884 8.40591 3.08619 8.20783 3.23696 8.06706L3.31752 8.00167L8.81752 4.13529C8.88152 4.0903 8.94863 4.057 9.01699 4.03442L9.13946 4.00642L9.20319 3.99882ZM19.5012 6.19621L15.5012 9.00812V17.8071L19.5012 14.9952V6.19621ZM8.49884 6.19287L4.49884 9.00478V17.8038L8.49884 14.9918V6.19287ZM10.0012 6.19287V14.9918L14.0012 17.8038V9.00478L10.0012 6.19287Z" fill="black"/>
</svg>
