<svg width="24" height="24" viewBox="0 0 24 24" fill="none" xmlns="http://www.w3.org/2000/svg">
<path d="M21.7803 2.21967C22.0466 2.48594 22.0708 2.9026 21.8529 3.19621L21.7803 3.28033L18.509 6.551L21.3881 9.67141C21.4384 9.72588 21.479 9.78579 21.5101 9.84906C21.816 10.2334 21.9988 10.7201 21.9988 11.2496V14.7461C21.9988 16.541 20.5438 17.9961 18.7488 17.9961H16.25C14.4551 17.9961 13 16.541 13 14.7461V12.504H12.556L10.998 14.062L10.9988 14.7461C10.9988 16.541 9.54376 17.9961 7.74883 17.9961L7.064 17.996L3.28033 21.7803C3.01406 22.0466 2.5974 22.0708 2.30379 21.8529L2.21967 21.7803C1.9534 21.5141 1.9292 21.0974 2.14705 20.8038L2.21967 20.7197L4.9574 17.9831L4.953 17.983L20.7197 2.21967C21.0126 1.92678 21.4874 1.92678 21.7803 2.21967ZM9.25488 5C9.66909 5 10.0049 5.33579 10.0049 5.75C10.0049 6.1297 9.72272 6.44349 9.35665 6.49315L9.25488 6.5H7.90885C7.7339 6.5 7.56563 6.5611 7.4322 6.67094L7.35655 6.74259L5.283 8.999L8.74883 8.99956C9.5796 8.99956 10.3052 9.44981 10.6949 10.1196L9.498 11.316L9.49883 11.2496C9.49883 10.8353 9.16305 10.4996 8.74883 10.4996H4.25C3.83579 10.4996 3.5 10.8353 3.5 11.2496V14.7461C3.5 15.4411 3.90516 16.0415 4.49217 16.3239L3.3976 17.4169C2.55295 16.8299 2 15.8526 2 14.7461V11.2496C2 10.6879 2.20576 10.1744 2.54602 9.78017L2.58382 9.72499L2.6277 9.67259L6.25196 5.72776C6.63545 5.31035 7.16059 5.05479 7.72092 5.00785L7.90885 5H9.25488ZM19.7488 10.4996H15.25C14.8358 10.4996 14.5 10.8353 14.5 11.2496V14.7461C14.5 15.7126 15.2835 16.4961 16.25 16.4961H18.7488C19.7153 16.4961 20.4988 15.7126 20.4988 14.7461V11.2496C20.4988 10.8353 20.163 10.4996 19.7488 10.4996ZM17.447 7.613L16.061 8.999H18.727L17.447 7.613ZM15.814 5L14.4016 6.41347C14.1637 6.28771 14.0016 6.03778 14.0016 5.75C14.0016 5.3703 14.2838 5.05651 14.6499 5.00685L14.7516 5H15.814Z" fill="black"/>
</svg>
