<svg width="24" height="24" viewBox="0 0 24 24" fill="none" xmlns="http://www.w3.org/2000/svg">
<path d="M17.3994 19.5538C17.784 19.4 18.2205 19.5871 18.3742 19.9717C18.528 20.3563 18.3409 20.7928 17.9563 20.9466C16.2531 21.6275 14.1783 22 12 22C9.82673 22 7.75645 21.6292 6.05533 20.9512C5.67056 20.7978 5.48297 20.3615 5.63634 19.9768C5.78971 19.592 6.22596 19.4044 6.61073 19.5578C8.12891 20.1629 10.0111 20.5 12 20.5C13.9935 20.5 15.8796 20.1614 17.3994 19.5538ZM12.7458 5.99594C14.471 5.99594 15.8823 7.34018 15.9893 9.0384L18.9101 7.57652C19.4087 7.327 19.9955 7.6893 19.9958 8.24678L20 15.7465C20.0003 16.3042 19.4135 16.6672 18.9146 16.4178L15.9892 14.9545C15.8816 16.6522 14.4706 17.9958 12.7458 17.9958H7.24597C5.45105 17.9958 3.99597 16.5407 3.99597 14.7458V9.24594C3.99597 7.45102 5.45105 5.99594 7.24597 5.99594H12.7458ZM12.7458 7.49594H7.24597C6.27947 7.49594 5.49597 8.27945 5.49597 9.24594V14.7458C5.49597 15.7123 6.27947 16.4958 7.24597 16.4958H12.7458C13.7123 16.4958 14.4958 15.7123 14.4958 14.7458V9.24594C14.4958 8.27945 13.7123 7.49594 12.7458 7.49594ZM18.4965 9.46093L15.9964 10.7122L15.9995 13.2831L18.4993 14.5331L18.4965 9.46093ZM12 2C14.1736 2 16.2441 2.37086 17.9453 3.04907C18.3301 3.20247 18.5177 3.63873 18.3643 4.02349C18.2109 4.40826 17.7746 4.59582 17.3898 4.44243C15.8716 3.83715 13.9892 3.5 12 3.5C10.0031 3.5 8.11387 3.83981 6.59284 4.44937C6.20835 4.60346 5.77175 4.41668 5.61766 4.0322C5.46358 3.64771 5.65035 3.21111 6.03484 3.05702C7.73965 2.37381 9.81787 2 12 2Z" fill="black"/>
</svg>
