<svg width="24" height="24" viewBox="0 0 24 24" fill="none" xmlns="http://www.w3.org/2000/svg">
<path d="M21.7803 2.21967C22.0466 2.48594 22.0708 2.9026 21.8529 3.19621L21.7803 3.28033L20.7917 4.2687C21.3122 4.54063 21.7263 5.01475 21.9068 5.6221C21.9686 5.83012 22 6.046 22 6.26302V17.7384C22 18.9811 20.9926 19.9884 19.75 19.9884C19.5329 19.9884 19.317 19.957 19.1089 19.8952L13.595 18.2555C12.9378 19.6006 11.5584 20.4992 10 20.4992C8.52602 20.4992 7.23824 19.7019 6.54439 18.5151L3.28033 21.7803C2.98744 22.0732 2.51256 22.0732 2.21967 21.7803C1.9534 21.5141 1.9292 21.0974 2.14705 20.8038L2.21967 20.7197L20.7197 2.21967C21.0126 1.92678 21.4874 1.92678 21.7803 2.21967ZM8.36 16.7L7.66519 17.3947C8.02533 18.3331 8.93488 18.9992 10 18.9992C10.8852 18.9992 11.6783 18.535 12.1238 17.8197L8.36 16.7ZM19.6359 5.52166L19.508 5.552L9.567 15.493L19.5363 18.4573C19.6057 18.478 19.6776 18.4884 19.75 18.4884C20.1642 18.4884 20.5 18.1526 20.5 17.7384V6.26302C20.5 6.19068 20.4895 6.11872 20.4689 6.04938C20.3608 5.68541 20.0009 5.46499 19.6359 5.52166ZM15.693 5.121L13.466 7.348L4.03636 10.1502C3.71818 10.2447 3.5 10.5372 3.5 10.8691V13.131C3.5 13.4629 3.71815 13.7554 4.0363 13.8499L6.294 14.52L5.087 15.727L3.60891 15.2877C2.65446 15.004 2 14.1267 2 13.131V10.8691C2 9.8733 2.65455 8.99595 3.60908 8.7123L15.693 5.121Z" fill="black"/>
</svg>
