<svg width="24" height="24" viewBox="0 0 24 24" fill="none" xmlns="http://www.w3.org/2000/svg">
<path d="M4.46967 18.4697L18.4697 4.46967C18.7626 4.17678 19.2374 4.17678 19.5303 4.46967C19.7966 4.73594 19.8208 5.1526 19.6029 5.44621L19.5303 5.53033L16 9.06V12C16 14.2091 14.2091 16 12 16C11.1668 16 10.3931 15.7452 9.75251 15.3094L8.60588 16.4548C9.42844 17.0709 10.4377 17.4512 11.5336 17.4956L11.75 17.5H12.25C15.077 17.5 17.3821 15.2656 17.4956 12.4664L17.5 12.25V11.75C17.5 11.3358 17.8358 11 18.25 11C18.6297 11 18.9435 11.2822 18.9932 11.6482L19 11.75V12.25C19 15.8094 16.245 18.7254 12.751 18.9817L12.75 21.25C12.75 21.6642 12.4142 22 12 22C11.6203 22 11.3065 21.7178 11.2568 21.3518L11.25 21.25L11.25 18.9818C9.85106 18.8793 8.57052 18.3505 7.53779 17.5248L5.53033 19.5303C5.23744 19.8232 4.76256 19.8232 4.46967 19.5303C4.2034 19.2641 4.1792 18.8474 4.39705 18.5538L4.46967 18.4697L18.4697 4.46967L4.46967 18.4697ZM5.75 11C6.1297 11 6.44349 11.2822 6.49315 11.6482L6.5 11.75V12.25C6.5 12.9023 6.61895 13.5268 6.83635 14.103L5.69757 15.2418C5.28389 14.4065 5.03802 13.4733 5.00406 12.4863L5 12.25V11.75C5 11.3358 5.33579 11 5.75 11ZM14.5 10.56L10.8439 14.2172C11.1896 14.3978 11.5829 14.5 12 14.5C13.3807 14.5 14.5 13.3807 14.5 12V10.56ZM12 2C13.8826 2 15.4615 3.30058 15.8871 5.05226L14.5 6.438V6C14.5 4.61929 13.3807 3.5 12 3.5C10.6193 3.5 9.5 4.61929 9.5 6V11.439L8.09025 12.8489C8.03113 12.5753 8 12.2913 8 12V6C8 3.79086 9.79086 2 12 2Z" fill="black"/>
</svg>
