<svg width="24" height="24" viewBox="0 0 24 24" fill="none" xmlns="http://www.w3.org/2000/svg">
<path d="M21.25 4.00201C21.6297 4.00201 21.9435 4.28417 21.9932 4.65024L22 4.75201V19.252C22 19.6317 21.7178 19.9455 21.3518 19.9952L21.25 20.002H2.75C2.3703 20.002 2.05651 19.7199 2.00685 19.3538L2 19.252V4.75201C2 4.37232 2.28215 4.05852 2.64823 4.00886L2.75 4.00201H21.25ZM6 12.501H3.5V18.502H20.5V12.501H18V16.25C18 16.6642 17.6642 17 17.25 17C16.8703 17 16.5565 16.7178 16.5068 16.3518L16.5 16.25V12.501H14.5V16.25C14.5 16.6642 14.1642 17 13.75 17C13.3703 17 13.0565 16.7178 13.0068 16.3518L13 16.25V12.501H11V16.25C11 16.6642 10.6642 17 10.25 17C9.8703 17 9.55651 16.7178 9.50685 16.3518L9.5 16.25V12.501H7.5V16.25C7.5 16.6642 7.16421 17 6.75 17C6.3703 17 6.05651 16.7178 6.00685 16.3518L6 16.25V12.501ZM20.5 5.502H3.5V11.001H20.5V5.502ZM9.25 7.50193C9.66421 7.50193 10 7.83771 10 8.25193C10 8.66614 9.66421 9.00193 9.25 9.00193C8.83579 9.00193 8.5 8.66614 8.5 8.25193C8.5 7.83771 8.83579 7.50193 9.25 7.50193ZM17.25 7.50092C17.6642 7.50092 18 7.8367 18 8.25092C18 8.63061 17.7178 8.94441 17.3518 8.99407L17.25 9.00092H14.75C14.3358 9.00092 14 8.66513 14 8.25092C14 7.87122 14.2822 7.55743 14.6482 7.50776L14.75 7.50092H17.25ZM6.25 7.5C6.66421 7.5 7 7.83578 7 8.25C7 8.66421 6.66421 9 6.25 9C5.83579 9 5.5 8.66421 5.5 8.25C5.5 7.83578 5.83579 7.5 6.25 7.5Z" fill="black"/>
</svg>
