<svg width="24" height="24" viewBox="0 0 24 24" fill="none" xmlns="http://www.w3.org/2000/svg">
<path d="M19.7286 3.9171L19.7796 4.07675L20.3309 5.99928C20.4356 6.36426 20.2508 6.74367 19.9126 6.89232L19.8167 6.92695L9.08979 10.002L20.2489 10.003C20.6285 10.003 20.9423 10.2851 20.992 10.6512L20.9989 10.753V19.251C20.9989 20.7135 19.8571 21.9094 18.4164 21.996L18.2489 22.001H5.74999C4.28746 22.001 3.09159 20.8593 3.00501 19.4185L2.99999 19.251L2.99979 10.859L2.47803 9.03791C2.0749 7.63203 2.84275 6.16779 4.20385 5.68744L4.3635 5.63644L16.3782 2.19129C17.784 1.78816 19.2483 2.55601 19.7286 3.9171ZM19.498 11.502H4.49999V19.251C4.49999 19.8551 4.92847 20.359 5.49808 20.4756L5.62219 20.4945L5.74999 20.501H18.2489C18.8961 20.501 19.4284 20.0091 19.4924 19.3788L19.4989 19.251L19.498 11.502ZM6.27267 6.64944L4.77695 7.07833C4.15481 7.25672 3.77865 7.87629 3.89085 8.49983L3.91988 8.62447L4.26421 9.82531L4.5593 9.74045L6.27267 6.64944ZM11.029 5.28558L8.31151 6.06481L6.59813 9.15582L9.31562 8.3766L11.029 5.28558ZM15.7863 3.92146L13.0688 4.70068L11.3554 7.79169L14.0719 7.01274L15.7863 3.92146ZM17.6335 3.6879L16.1127 6.42756L18.6812 5.6913L18.3377 4.49021C18.2306 4.11649 17.9642 3.83155 17.6335 3.6879Z" fill="black"/>
</svg>
