<svg width="24" height="24" viewBox="0 0 24 24" fill="none" xmlns="http://www.w3.org/2000/svg">
<path d="M8.78393 15.2232C9.04996 15.4897 9.07379 15.9064 8.85567 16.1998L8.78298 16.2839L5.27984 19.7808C5.04223 20.018 4.68025 20.0656 4.3927 19.9095L4.29988 19.8499L2.29988 18.3494C1.96855 18.1008 1.90147 17.6307 2.15006 17.2994C2.37604 16.9982 2.78511 16.9153 3.10655 17.0895L3.20008 17.1496L4.67998 18.26L7.72327 15.2223C8.01642 14.9296 8.49129 14.9301 8.78393 15.2232ZM21.2376 16.9995C21.6518 16.9995 21.9876 17.3353 21.9876 17.7495C21.9876 18.1292 21.7054 18.443 21.3393 18.4926L21.2376 18.4995H10.7376C10.3233 18.4995 9.98756 18.1637 9.98756 17.7495C9.98756 17.3698 10.2697 17.056 10.6358 17.0063L10.7376 16.9995H21.2376ZM21.25 11C21.6642 11 22 11.3358 22 11.75C22 12.1297 21.7178 12.4435 21.3518 12.4931L21.25 12.5H10.75C10.3358 12.5 9.99998 12.1642 9.99998 11.75C9.99998 11.3703 10.2821 11.0565 10.6482 11.0068L10.75 11H21.25ZM8.78468 3.22398C9.05033 3.49086 9.07357 3.90758 8.85504 4.20069L8.78222 4.28464L5.26908 7.78155C5.03102 8.01851 4.66875 8.06549 4.38138 7.90878L4.28864 7.84898L2.29864 6.3495C1.96783 6.10023 1.90172 5.62998 2.15099 5.29916C2.3776 4.99842 2.78684 4.91645 3.10792 5.09132L3.20133 5.15152L4.67098 6.25899L7.72402 3.22153C8.01759 2.92931 8.49247 2.93041 8.78468 3.22398ZM21.2376 5.00051C21.6518 5.00051 21.9876 5.33629 21.9876 5.75051C21.9876 6.1302 21.7054 6.444 21.3393 6.49366L21.2376 6.50051H10.7657C10.3515 6.50051 10.0157 6.16472 10.0157 5.75051C10.0157 5.37081 10.2979 5.05702 10.664 5.00735L10.7657 5.00051H21.2376Z" fill="black"/>
</svg>
