<svg width="24" height="24" viewBox="0 0 24 24" fill="none" xmlns="http://www.w3.org/2000/svg">
<path d="M11.5 2.75001C11.5 2.22636 12.023 1.8639 12.5133 2.04776L18.8914 4.43945C20.1599 4.91512 21.0003 6.12777 21.0003 7.48253V10.7514C21.0003 11.275 20.4773 11.6375 19.9869 11.4536L13 8.83333V17.5C13 17.5546 12.9942 17.6078 12.9831 17.6591C12.9941 17.771 13 17.8848 13 18C13 20.2597 10.7242 22 8 22C5.27579 22 3 20.2597 3 18C3 15.7403 5.27579 14 8 14C9.35212 14 10.5938 14.4287 11.5015 15.1369L11.5 2.75001ZM8 15.5C6.02978 15.5 4.5 16.6698 4.5 18C4.5 19.3302 6.02978 20.5 8 20.5C9.97022 20.5 11.5 19.3302 11.5 18C11.5 16.6698 9.97022 15.5 8 15.5ZM13 3.83224V7.2316L19.5003 9.66912V7.48253C19.5003 6.75304 19.0478 6.10008 18.3647 5.84395L13 3.83224Z" fill="black"/>
</svg>
