<svg width="24" height="24" viewBox="0 0 24 24" fill="none" xmlns="http://www.w3.org/2000/svg">
<path d="M2.75257 18H21.2526C21.6668 18 22.0026 18.3358 22.0026 18.75C22.0026 19.1297 21.7204 19.4435 21.3543 19.4931L21.2526 19.5H2.75257C2.33835 19.5 2.00257 19.1642 2.00257 18.75C2.00257 18.3703 2.28472 18.0565 2.6508 18.0068L2.75257 18H21.2526H2.75257ZM2.75257 11.503H21.2526C21.6668 11.503 22.0026 11.8388 22.0026 12.253C22.0026 12.6327 21.7204 12.9465 21.3543 12.9962L21.2526 13.003H2.75257C2.33835 13.003 2.00257 12.6672 2.00257 12.253C2.00257 11.8733 2.28472 11.5595 2.6508 11.5098L2.75257 11.503H21.2526H2.75257ZM2.75171 5.00323H21.2517C21.6659 5.00323 22.0017 5.33902 22.0017 5.75323C22.0017 6.13293 21.7196 6.44673 21.3535 6.49639L21.2517 6.50323H2.75171C2.3375 6.50323 2.00171 6.16745 2.00171 5.75323C2.00171 5.37354 2.28386 5.05974 2.64994 5.01008L2.75171 5.00323H21.2517H2.75171Z" fill="black"/>
</svg>
