<svg width="24" height="24" viewBox="0 0 24 24" fill="none" xmlns="http://www.w3.org/2000/svg">
<path d="M10.0493 15.4209L16.306 6.94496C16.5131 6.66436 16.8963 6.58094 17.2013 6.75003C17.4759 6.90222 17.6105 7.21642 17.5413 7.51423L17.5106 7.61265L13.6405 17.4116C13.2205 18.4751 12.018 18.9967 10.9545 18.5767C10.8711 18.5437 10.7898 18.5054 10.7113 18.4619C9.71108 17.9074 9.34968 16.647 9.90413 15.6468L9.97303 15.5315L10.0493 15.4209L16.306 6.94496L10.0493 15.4209ZM13.85 12.7977L11.2561 16.3117L11.2161 16.374C11.0632 16.6497 11.1629 16.9971 11.4386 17.1499L11.5055 17.1816C11.7692 17.2857 12.0638 17.1797 12.2045 16.9439L12.2454 16.8606L13.85 12.7977ZM12.1004 10.8718L10.8739 12.5319C10.5697 12.6314 10.2749 12.7768 9.99925 12.9698C9.13944 13.5719 8.62724 14.5268 8.58337 15.5562C8.56573 15.97 8.21595 16.2912 7.80211 16.2735C7.38827 16.2559 7.06709 15.9061 7.08473 15.4923C7.14827 14.0013 7.89249 12.6138 9.13889 11.7411C10.0395 11.1105 11.0806 10.8302 12.1004 10.8718ZM16.2675 13.6233C16.5467 14.2093 16.7031 14.8426 16.7301 15.4895C16.7474 15.9033 16.426 16.2528 16.0121 16.2701C15.7393 16.2815 15.4945 16.1457 15.3543 15.9333L16.2675 13.6233ZM14.0336 8.25382L13.0651 9.56462C11.4714 9.26375 9.76255 9.58074 8.32907 10.5845C7.14097 11.4164 6.30096 12.6095 5.9104 13.9747C5.79646 14.3729 5.38127 14.6034 4.98303 14.4894C4.58479 14.3755 4.35432 13.9603 4.46826 13.5621C4.9526 11.8692 5.99626 10.3868 7.46871 9.35575C9.45578 7.96439 11.8695 7.63683 14.0336 8.25382ZM17.5432 10.3918C17.7949 10.6584 18.0299 10.9469 18.2464 11.2561C18.7405 11.9617 19.1086 12.7333 19.3433 13.5449C19.4583 13.9428 19.2291 14.3587 18.8312 14.4738C18.4333 14.5888 18.0174 14.3596 17.9023 13.9616C17.7133 13.3081 17.4168 12.6864 17.0177 12.1165L16.9164 11.9788L17.5432 10.3918ZM15.9809 5.85274L15.8929 5.90679C15.7705 5.98875 15.6572 6.08717 15.5565 6.20127L15.4602 6.32059L14.9192 7.05352C12.2377 6.12143 9.16203 6.4465 6.65889 8.19921C5.15624 9.25138 4.03081 10.6987 3.38083 12.371C3.23077 12.757 2.79615 12.9484 2.41007 12.7983C2.024 12.6483 1.83267 12.2136 1.98273 11.8276C2.7394 9.88079 4.05088 8.1942 5.79853 6.97048C8.89043 4.80551 12.7329 4.51198 15.9809 5.85274ZM18.6097 7.41455C19.3646 8.02591 20.0472 8.75121 20.6317 9.58598C21.1229 10.2874 21.5238 11.0365 21.8306 11.8205C21.9816 12.2062 21.7912 12.6413 21.4055 12.7922C21.0197 12.9432 20.5847 12.7528 20.4337 12.3671C20.1703 11.6938 19.8257 11.05 19.403 10.4463C19.0173 9.89553 18.5819 9.40019 18.1072 8.96215L18.4883 7.99879C18.5638 7.80758 18.6033 7.61019 18.6097 7.41455Z" fill="black"/>
</svg>
