<svg width="24" height="24" viewBox="0 0 24 24" fill="none" xmlns="http://www.w3.org/2000/svg">
<path d="M15.6482 2.00656L15.75 1.99971C16.1297 1.99971 16.4435 2.28186 16.4932 2.64794L16.5 2.74971V21.25C16.5 21.6642 16.1642 22 15.75 22C15.3703 22 15.0565 21.7179 15.0068 21.3518L15 21.25V19.9957L9.25 19.9961C8.00736 19.9961 7 18.9887 7 17.7461V6.24957C7 5.00693 8.00736 3.99957 9.25 3.99957L15 3.99871V2.74971C15 2.37001 15.2822 2.05622 15.6482 2.00656L15.75 1.99971L15.6482 2.00656ZM15 5.49957H9.25C8.83579 5.49957 8.5 5.83535 8.5 6.24957V17.7461C8.5 18.1603 8.83579 18.4961 9.25 18.4961H15V5.49957Z" fill="black"/>
</svg>
