<svg width="24" height="24" viewBox="0 0 24 24" fill="none" xmlns="http://www.w3.org/2000/svg">
<path d="M7.25007 4.49998H10.7495C11.1637 4.49998 11.4995 4.83577 11.4995 5.24999C11.4995 5.62968 11.2173 5.94348 10.8512 5.99314L10.7495 5.99998H7.24971C6.07076 5.99942 5.10346 6.90638 5.00783 8.06094L5.00025 8.21985L5.00309 16.7505C5.0034 17.9413 5.92882 18.9159 7.09963 18.9947L7.25368 18.9999L15.7517 18.9882C16.9415 18.9866 17.9145 18.0618 17.9935 16.8921L17.9987 16.7382V13.2319C17.9987 12.8177 18.3344 12.4819 18.7487 12.4819C19.1284 12.4819 19.4421 12.7641 19.4918 13.1302L19.4987 13.2319V16.7382C19.4987 18.7405 17.9292 20.3767 15.9528 20.4828L15.7538 20.4882L7.25824 20.4999L7.05492 20.4947C5.14236 20.3952 3.60892 18.8625 3.50834 16.95L3.50309 16.7509L3.50085 8.25252L3.50526 8.05002C3.60536 6.1373 5.13864 4.6043 7.05093 4.50509L7.25007 4.49998H10.7495H7.25007ZM13.7481 3.00128L20.3018 3.00179L20.4013 3.01556L20.5021 3.04375L20.559 3.06785C20.6122 3.09103 20.6633 3.12145 20.711 3.15866L20.7804 3.22138L20.8641 3.31996L20.9183 3.41007L20.957 3.50038L20.9762 3.56458L20.9898 3.62844L20.9991 3.72264L20.9996 10.2552C20.9996 10.6694 20.6638 11.0052 20.2496 11.0052C19.8699 11.0052 19.5561 10.723 19.5065 10.3569L19.4996 10.2552L19.4989 5.56128L12.2796 12.7845C12.0134 13.0508 11.5968 13.0751 11.3031 12.8573L11.219 12.7847C10.9526 12.5185 10.9283 12.1019 11.1461 11.8082L11.2187 11.7241L18.4369 4.50128H13.7481C13.3684 4.50128 13.0546 4.21913 13.0049 3.85305L12.9981 3.75128C12.9981 3.37159 13.2802 3.05779 13.6463 3.00813L13.7481 3.00128Z" fill="black"/>
</svg>
