<svg width="24" height="24" viewBox="0 0 24 24" fill="none" xmlns="http://www.w3.org/2000/svg">
<path d="M6.74721 2.99997L17.2535 3.00166C19.2574 3.00256 20.8939 4.57471 20.9979 6.553L21.0032 6.75214V11.2447C21.0032 11.6589 20.6674 11.9947 20.2532 11.9947C19.8735 11.9947 19.5597 11.7125 19.51 11.3465L19.5032 11.2447V6.75236C19.5029 5.56147 18.5777 4.58658 17.4071 4.50692L17.2531 4.50166L6.74652 4.49997C5.56884 4.49907 4.60218 5.40397 4.5047 6.55684L4.49686 6.71553L4.49946 17.2517C4.50005 18.4426 5.42534 19.4173 6.59596 19.4968L6.74999 19.5021H11.2463C11.6605 19.5021 11.9963 19.8379 11.9963 20.2521C11.9963 20.6318 11.7142 20.9456 11.3481 20.9952L11.2463 21.0021H6.74975C4.74592 21.0014 3.10919 19.4296 3.00475 17.4513L2.99946 17.2522L2.99762 6.7526L3.00184 6.54918C3.10225 4.63643 4.63584 3.10369 6.54809 3.00502L6.74721 2.99997ZM9.75049 8.99955H16.2544C16.6686 8.99955 17.0044 9.33533 17.0044 9.74955C17.0044 10.1292 16.7222 10.443 16.3562 10.4927L16.2544 10.4995L11.5596 10.499L18.7837 17.7195C19.05 17.9857 19.0743 18.4024 18.8566 18.6961L18.784 18.7802C18.5178 19.0465 18.1011 19.0708 17.8074 18.853L17.7233 18.7804L10.4996 11.56L10.5005 16.2511C10.5005 16.6308 10.2183 16.9446 9.85226 16.9942L9.75049 17.0011C9.3708 17.0011 9.057 16.7189 9.00734 16.3528L9.00046 16.2511L9.00064 9.73435C8.99987 9.70888 9.00166 9.68352 9.00474 9.65829L9.02629 9.54988L9.06099 9.45357L9.06622 9.44205C9.10141 9.36096 9.15261 9.2855 9.21875 9.21933L9.26278 9.17862L9.34426 9.11807L9.40363 9.08377L9.49895 9.0424L9.56575 9.02247L9.62765 9.0094L9.72085 9.00008L16.2544 8.99955H9.75049Z" fill="black"/>
</svg>
