<svg width="24" height="24" viewBox="0 0 24 24" fill="none" xmlns="http://www.w3.org/2000/svg">
<path d="M13.2482 1.99866C14.4909 1.99866 15.4982 3.00602 15.4982 4.24866V7.25001C15.4982 8.49265 14.4909 9.50001 13.2482 9.50001L12.4973 9.49966V11.4997L15.7516 11.5C16.9425 11.5 17.9172 12.4252 17.9964 13.596L18.0016 13.75L18.0013 14.4997L18.7523 14.5C19.9949 14.5 21.0023 15.5074 21.0023 16.75V19.7514C21.0023 20.994 19.9949 22.0014 18.7523 22.0014H15.7509C14.5083 22.0014 13.5009 20.994 13.5009 19.7514V16.75C13.5009 15.5074 14.5083 14.5 15.7509 14.5L16.5013 14.4997L16.5016 13.75C16.5016 13.3703 16.2194 13.0565 15.8534 13.0069L15.7516 13H7.74793C7.36823 13 7.05444 13.2822 7.00478 13.6482L6.99793 13.75L6.99725 14.4997L7.74861 14.5C8.99125 14.5 9.99861 15.5074 9.99861 16.75V19.7514C9.99861 20.994 8.99125 22.0014 7.74861 22.0014H4.74725C3.50461 22.0014 2.49725 20.994 2.49725 19.7514V16.75C2.49725 15.5074 3.50461 14.5 4.74725 14.5L5.49725 14.4997L5.49793 13.75C5.49793 12.5591 6.42309 11.5844 7.59388 11.5052L7.74793 11.5L10.9973 11.4997V9.49966L10.2469 9.50001C9.00423 9.50001 7.99687 8.49265 7.99687 7.25001V4.24866C7.99687 3.00602 9.00423 1.99866 10.2469 1.99866H13.2482ZM7.74861 16H4.74725C4.33304 16 3.99725 16.3358 3.99725 16.75V19.7514C3.99725 20.1656 4.33304 20.5014 4.74725 20.5014H7.74861C8.16282 20.5014 8.49861 20.1656 8.49861 19.7514V16.75C8.49861 16.3358 8.16282 16 7.74861 16ZM18.7523 16H15.7509C15.3367 16 15.0009 16.3358 15.0009 16.75V19.7514C15.0009 20.1656 15.3367 20.5014 15.7509 20.5014H18.7523C19.1665 20.5014 19.5023 20.1656 19.5023 19.7514V16.75C19.5023 16.3358 19.1665 16 18.7523 16ZM13.2482 3.49866H10.2469C9.83266 3.49866 9.49687 3.83444 9.49687 4.24866V7.25001C9.49687 7.66422 9.83266 8.00001 10.2469 8.00001H13.2482C13.6624 8.00001 13.9982 7.66422 13.9982 7.25001V4.24866C13.9982 3.83444 13.6624 3.49866 13.2482 3.49866Z" fill="black"/>
</svg>
