<svg width="24" height="24" viewBox="0 0 24 24" fill="none" xmlns="http://www.w3.org/2000/svg">
<path d="M3.4412 9.95576C1.51757 11.8794 1.51757 14.9982 3.4412 16.9218C5.13595 18.6166 7.75841 18.8182 9.67392 17.5268L13.9303 21.7831C14.2323 22.0851 14.7219 22.0851 15.0238 21.7831C15.2984 21.5086 15.3233 21.0791 15.0987 20.7764L15.0238 20.6896L10.8065 16.4713C12.3201 14.5385 12.1871 11.7356 10.4073 9.95576C8.48364 8.03213 5.36482 8.03213 3.4412 9.95576ZM12.0257 1.99847C7.27028 1.99847 3.29001 5.31733 2.2748 9.76514C2.41588 9.58593 2.5691 9.41364 2.73409 9.24865C3.26243 8.72031 3.86571 8.3126 4.50972 8.02551C5.45275 6.24302 7.01301 4.83632 8.90571 4.08924L8.79887 4.26333C8.26133 5.15691 7.82774 6.27463 7.52371 7.54249C8.02258 7.5938 8.51496 7.707 8.98932 7.88298C9.62114 5.25542 10.8123 3.49847 12.0257 3.49847L12.1414 3.50377C13.4068 3.61953 14.6293 5.6215 15.197 8.49973L10.1994 8.49899C10.5226 8.71378 10.8294 8.96367 11.1144 9.24865C11.3499 9.48414 11.5616 9.73493 11.7495 9.99794L15.4226 9.99944C15.4907 10.6397 15.5273 11.3094 15.5273 12C15.5273 13.0595 15.4411 14.0699 15.2875 15.0001L12.6422 15.0002C12.5644 15.2859 12.4648 15.5671 12.3432 15.8413L12.2142 16.113L12.0916 16.3424L12.2503 16.4995L14.9646 16.4998C14.7625 17.2483 14.514 17.9173 14.2331 18.4842L15.3385 19.5919C15.8304 18.734 16.2304 17.6834 16.5174 16.5007L19.24 16.4999C18.3501 17.9237 17.0505 19.065 15.5062 19.7588L15.731 19.9826L15.8557 20.1229C16.076 20.4181 16.2005 20.7471 16.2337 21.0757C19.6546 19.4875 22.0273 16.0208 22.0273 12C22.0273 6.47632 17.5494 1.99847 12.0257 1.99847ZM9.31377 11.0493C10.6335 12.369 10.6335 14.5086 9.31377 15.8283C7.99406 17.148 5.8544 17.148 4.5347 15.8283C3.215 14.5086 3.215 12.369 4.5347 11.0493C5.8544 9.72956 7.99406 9.72956 9.31377 11.0493ZM16.9324 10.0001L20.2899 9.99938L20.2977 10.0295C20.4478 10.6619 20.5273 11.3217 20.5273 12C20.5273 13.0561 20.3347 14.0672 19.9828 15.0001L16.8094 15.001C16.9518 14.0516 17.0273 13.043 17.0273 12C17.0273 11.3163 16.9948 10.6473 16.9324 10.0001ZM15.1447 4.08918L15.1676 4.0979C17.2149 4.91262 18.871 6.49997 19.7756 8.49987L16.7273 8.49931C16.4139 6.74687 15.8671 5.22125 15.1447 4.08918Z" fill="black"/>
</svg>
