<svg width="24" height="24" viewBox="0 0 24 24" fill="none" xmlns="http://www.w3.org/2000/svg">
<path d="M8.25 2C9.2165 2 10 2.7835 10 3.75V20.25C10 21.2165 9.2165 22 8.25 22H4.75C3.7835 22 3 21.2165 3 20.25V3.75C3 2.7835 3.7835 2 4.75 2H8.25ZM19.25 2C20.2165 2 21 2.7835 21 3.75V20.25C21 21.2165 20.2165 22 19.25 22H15.75C14.7835 22 14 21.2165 14 20.25V3.75C14 2.7835 14.7835 2 15.75 2H19.25ZM8.25 3.5H4.75C4.61193 3.5 4.5 3.61193 4.5 3.75V20.25C4.5 20.3881 4.61193 20.5 4.75 20.5H8.25C8.38807 20.5 8.5 20.3881 8.5 20.25V3.75C8.5 3.61193 8.38807 3.5 8.25 3.5ZM19.25 3.5H15.75C15.6119 3.5 15.5 3.61193 15.5 3.75V20.25C15.5 20.3881 15.6119 20.5 15.75 20.5H19.25C19.3881 20.5 19.5 20.3881 19.5 20.25V3.75C19.5 3.61193 19.3881 3.5 19.25 3.5Z" fill="black"/>
</svg>
