<svg width="24" height="24" viewBox="0 0 24 24" fill="none" xmlns="http://www.w3.org/2000/svg">
<path d="M19.2389 5.02069C20.7014 5.02069 21.8973 6.1624 21.9839 7.60317L21.9889 7.77069V16.2758C21.9889 17.7383 20.8472 18.9342 19.4064 19.0208L19.2389 19.0258H4.76105C3.29852 19.0258 2.10264 17.8841 2.01607 16.4433L2.01105 16.2758V7.77069C2.01105 6.30816 3.15275 5.11229 4.59352 5.02571L4.76105 5.02069H19.2389ZM20.488 10.9947H3.51005L3.51105 16.2758C3.51105 16.923 4.00292 17.4553 4.63324 17.5193L4.76105 17.5258H19.2389C19.8861 17.5258 20.4184 17.0339 20.4824 16.4036L20.4889 16.2758L20.488 10.9947ZM18.2529 14.5C18.6671 14.5 19.0029 14.8358 19.0029 15.25C19.0029 15.6297 18.7207 15.9435 18.3547 15.9931L18.2529 16H15.7529C15.3387 16 15.0029 15.6642 15.0029 15.25C15.0029 14.8703 15.2851 14.5565 15.6511 14.5068L15.7529 14.5H18.2529ZM19.2389 6.52069H4.76105C4.11384 6.52069 3.58151 7.01257 3.5175 7.64289L3.51105 7.77069L3.51005 9.49469H20.488L20.4889 7.77069C20.4889 7.12348 19.997 6.59116 19.3667 6.52714L19.2389 6.52069Z" fill="black"/>
</svg>
