<svg width="24" height="24" viewBox="0 0 24 24" fill="none" xmlns="http://www.w3.org/2000/svg">
<path d="M21.0303 2.96967C22.4278 4.36713 22.4278 6.63286 21.0303 8.03033L18.3859 10.6742C17.892 10.429 17.3625 10.2449 16.8072 10.1315L17.9391 8.99957L15.0001 6.06057L5.06198 15.9987C4.96969 16.0909 4.90308 16.2057 4.86874 16.3316L3.81889 20.1811L7.66833 19.1312C7.79425 19.0969 7.90903 19.0303 8.00132 18.938L9.13147 17.8072C9.2449 18.3628 9.42919 18.8925 9.6745 19.3866L9.06198 19.9987C8.7851 20.2755 8.44076 20.4754 8.063 20.5784L2.94731 21.9736C2.38744 22.1263 1.87371 21.6125 2.0264 21.0527L3.42159 15.937C3.52462 15.5592 3.72444 15.2149 4.00132 14.938L15.9696 2.96967C17.3671 1.5722 19.6328 1.5722 21.0303 2.96967ZM15.5 11C15.793 11 16.0806 11.0245 16.3608 11.0717L16.5341 11.7878C16.7931 12.8616 17.8735 13.5221 18.9473 13.2631L19.045 13.2369L19.6461 13.058C20.0087 13.525 20.2991 14.0546 20.4998 14.6285L20.0526 15.0588C19.2985 15.7844 19.2369 16.9589 19.8837 17.7573L20.0251 17.9142L20.4998 18.3715C20.2992 18.945 20.0091 19.4742 19.6469 19.941L19.045 19.7631C17.9857 19.4501 16.8733 20.0551 16.5603 21.1144L16.5341 21.2122L16.3608 21.9282C16.0806 21.9755 15.793 22 15.5 22C15.2066 22 14.9187 21.9754 14.6383 21.9281L14.4659 21.2122C14.2069 20.1384 13.1265 19.4779 12.0527 19.7369L11.9549 19.7631L11.353 19.941C10.9908 19.4742 10.7007 18.945 10.5001 18.3715L10.9474 17.9412C11.7433 17.1753 11.7677 15.9092 11.0019 15.1133L10.9474 15.0588L10.5001 14.6285C10.7007 14.055 10.9908 13.5258 11.353 13.059L11.9549 13.2369C13.0142 13.5499 14.1267 12.9449 14.4396 11.8856L14.4659 11.7878L14.6383 11.0719C14.9187 11.0246 15.2066 11 15.5 11ZM15.5 15C14.6993 15 14.0503 15.6716 14.0503 16.5C14.0503 17.3284 14.6993 18 15.5 18C16.3006 18 16.9496 17.3284 16.9496 16.5C16.9496 15.6716 16.3006 15 15.5 15ZM17.0303 4.03033L16.0601 4.99957L18.9991 7.93957L19.9696 6.96967C20.7813 6.15799 20.7813 4.842 19.9696 4.03033C19.158 3.21865 17.842 3.21865 17.0303 4.03033Z" fill="black"/>
</svg>
