<svg width="24" height="24" viewBox="0 0 24 24" fill="none" xmlns="http://www.w3.org/2000/svg">
<path d="M17.4976 11.9955C20.5352 11.9955 22.9976 14.4579 22.9976 17.4955C22.9976 20.5331 20.5352 22.9955 17.4976 22.9955C14.4601 22.9955 11.9976 20.5331 11.9976 17.4955C11.9976 14.4579 14.4601 11.9955 17.4976 11.9955ZM17.4976 13.9947L17.4077 14.0028C17.2037 14.0398 17.0427 14.2007 17.0057 14.4048L16.9976 14.4947L16.9973 16.9947L14.4953 16.9955L14.4054 17.0035C14.2013 17.0406 14.0404 17.2015 14.0033 17.4056L13.9953 17.4955L14.0033 17.5854C14.0404 17.7895 14.2013 17.9504 14.4054 17.9874L14.4953 17.9955L16.9983 17.9947L16.9987 20.499L17.0068 20.5888C17.0438 20.7929 17.2048 20.9539 17.4089 20.9909L17.4987 20.999L17.5886 20.9909C17.7927 20.9539 17.9536 20.7929 17.9907 20.5888L17.9987 20.499L17.9983 17.9947L20.5022 17.9955L20.5921 17.9874C20.7962 17.9504 20.9571 17.7895 20.9941 17.5854L21.0022 17.4955L20.9941 17.4056C20.9571 17.2015 20.7962 17.0406 20.5921 17.0035L20.5022 16.9955L17.9973 16.9947L17.9976 14.4947L17.9896 14.4048C17.9525 14.2007 17.7916 14.0398 17.5875 14.0028L17.4976 13.9947ZM12.0196 13.9953C11.7228 14.4587 11.4833 14.9623 11.3109 15.4961L9.24762 15.4955C9.10955 15.4955 8.99762 15.6074 8.99762 15.7455V16.7455C8.99762 17.7226 9.60958 18.2903 11.0667 18.4544C11.1471 18.9903 11.2918 19.505 11.4935 19.99C8.93968 19.8528 7.49762 18.7686 7.49762 16.7455V15.7455C7.49762 14.779 8.28112 13.9955 9.24762 13.9955L12.0196 13.9953ZM8.12362 8.99557C8.04137 9.31516 7.99762 9.65021 7.99762 9.99548C7.99762 10.1646 8.00811 10.3312 8.02849 10.4948L3.74762 10.4955C3.60955 10.4955 3.49762 10.6074 3.49762 10.7455V11.7455C3.49762 12.9217 4.38429 13.5045 6.56441 13.5045C7.02631 13.5045 7.42738 13.4789 7.77196 13.4271C7.20679 13.7852 6.78308 14.3444 6.59884 15.0037L6.56441 15.0045C3.65548 15.0045 1.99762 13.9147 1.99762 11.7455V10.7455C1.99762 9.82731 2.70473 9.07429 3.60409 9.00128L3.74762 8.99548L8.12362 8.99557ZM11.9976 6.99548C13.6545 6.99548 14.9976 8.33863 14.9976 9.99548C14.9976 11.6523 13.6545 12.9955 11.9976 12.9955C10.3408 12.9955 8.99762 11.6523 8.99762 9.99548C8.99762 8.33863 10.3408 6.99548 11.9976 6.99548ZM20.2476 8.99548C21.2141 8.99548 21.9976 9.77899 21.9976 10.7455L21.9966 11.7076C22.0162 12.0764 21.9863 12.4145 21.9091 12.7219C21.4864 12.331 21.0127 11.9963 20.4987 11.7283L20.4976 10.7455C20.4976 10.6074 20.3857 10.4955 20.2476 10.4955L15.9668 10.4947C15.9871 10.3312 15.9976 10.1645 15.9976 9.99548C15.9976 9.65021 15.9539 9.31516 15.8716 8.99557L20.2476 8.99548ZM11.9976 8.49548C11.1692 8.49548 10.4976 9.16706 10.4976 9.99548C10.4976 10.8239 11.1692 11.4955 11.9976 11.4955C12.826 11.4955 13.4976 10.8239 13.4976 9.99548C13.4976 9.16706 12.826 8.49548 11.9976 8.49548ZM6.49762 1.99548C8.15447 1.99548 9.49762 3.33863 9.49762 4.99548C9.49762 6.65234 8.15447 7.99548 6.49762 7.99548C4.84077 7.99548 3.49762 6.65234 3.49762 4.99548C3.49762 3.33863 4.84077 1.99548 6.49762 1.99548ZM17.4976 1.99548C19.1545 1.99548 20.4976 3.33863 20.4976 4.99548C20.4976 6.65234 19.1545 7.99548 17.4976 7.99548C15.8408 7.99548 14.4976 6.65234 14.4976 4.99548C14.4976 3.33863 15.8408 1.99548 17.4976 1.99548ZM6.49762 3.49548C5.66919 3.49548 4.99762 4.16706 4.99762 4.99548C4.99762 5.82391 5.66919 6.49548 6.49762 6.49548C7.32605 6.49548 7.99762 5.82391 7.99762 4.99548C7.99762 4.16706 7.32605 3.49548 6.49762 3.49548ZM17.4976 3.49548C16.6692 3.49548 15.9976 4.16706 15.9976 4.99548C15.9976 5.82391 16.6692 6.49548 17.4976 6.49548C18.326 6.49548 18.9976 5.82391 18.9976 4.99548C18.9976 4.16706 18.326 3.49548 17.4976 3.49548Z" fill="black"/>
</svg>
