<svg width="24" height="24" viewBox="0 0 24 24" fill="none" xmlns="http://www.w3.org/2000/svg">
<path d="M11.9091 13.9986L19.7531 13.9999C20.9957 13.9999 22.0031 15.0073 22.0031 16.2499V17.155C22.0031 18.2487 21.5256 19.2879 20.6958 20.0003C19.1303 21.3442 16.89 22.0011 14 22.0011L13.821 21.9999C14.0547 21.5293 14.0634 20.9755 13.8473 20.4987L14 20.5011C16.56 20.5011 18.4578 19.9447 19.7187 18.8622C20.2166 18.4347 20.5031 17.8112 20.5031 17.155V16.2499C20.5031 15.8357 20.1673 15.4999 19.7531 15.4999L11.9775 15.5C11.9924 15.3347 12 15.1679 12 15C12 14.658 11.9688 14.3233 11.9091 13.9986ZM6.5 10.5C8.98528 10.5 11 12.5147 11 15C11 16.0938 10.6097 17.0965 9.96089 17.8763L12.7827 20.6906C13.076 20.9832 13.0766 21.458 12.784 21.7513C12.5181 22.0179 12.1014 22.0426 11.8076 21.8251L11.7234 21.7525L8.82025 18.8565C8.14274 19.265 7.34881 19.5 6.5 19.5C4.01472 19.5 2 17.4853 2 15C2 12.5147 4.01472 10.5 6.5 10.5ZM6.5 12C4.84315 12 3.5 13.3431 3.5 15C3.5 16.6569 4.84315 18 6.5 18C8.15685 18 9.5 16.6569 9.5 15C9.5 13.3431 8.15685 12 6.5 12ZM14 2.00462C16.7614 2.00462 19 4.2432 19 7.00462C19 9.76605 16.7614 12.0046 14 12.0046C11.2386 12.0046 9 9.76605 9 7.00462C9 4.2432 11.2386 2.00462 14 2.00462ZM14 3.50462C12.067 3.50462 10.5 5.07163 10.5 7.00462C10.5 8.93762 12.067 10.5046 14 10.5046C15.933 10.5046 17.5 8.93762 17.5 7.00462C17.5 5.07163 15.933 3.50462 14 3.50462Z" fill="black"/>
</svg>
