<svg width="24" height="24" viewBox="0 0 24 24" fill="none" xmlns="http://www.w3.org/2000/svg">
<path d="M17.5 12C20.5376 12 23 14.4624 23 17.5C23 20.5376 20.5376 23 17.5 23C14.4624 23 12 20.5376 12 17.5C12 14.4624 14.4624 12 17.5 12ZM12.0223 13.9993C11.7256 14.4626 11.486 14.966 11.3136 15.4996L4.25354 15.4999C3.83933 15.4999 3.50354 15.8357 3.50354 16.2499V17.1573C3.50354 17.8129 3.78953 18.4359 4.28671 18.8634C5.54479 19.945 7.4408 20.5011 10 20.5011C10.5988 20.5011 11.1614 20.4706 11.6881 20.4101C11.9371 20.9103 12.2509 21.374 12.6171 21.7905C11.8149 21.9313 10.942 22.0011 10 22.0011C7.1105 22.0011 4.87168 21.3445 3.30882 20.0008C2.48019 19.2884 2.00354 18.25 2.00354 17.1573V16.2499C2.00354 15.0073 3.0109 13.9999 4.25354 13.9999L12.0223 13.9993ZM16.7192 14.5886L16.65 14.6465L14.1344 17.1628L14.0937 17.2134L14.059 17.2708L14.0268 17.3488L14.0153 17.392L14.004 17.4784L14.0079 17.5659L14.0268 17.651L14.0587 17.7287L14.0834 17.7711L14.1343 17.8371L16.65 20.3536C16.8452 20.5488 17.1618 20.5488 17.3571 20.3536C17.5306 20.18 17.5499 19.9106 17.4149 19.7157L17.3571 19.6465L15.711 18H20.5C20.7455 18 20.9496 17.8231 20.9919 17.5899L21 17.5C21 17.2546 20.8231 17.0504 20.5899 17.0081L20.5 17H15.711L17.3571 15.3536C17.5306 15.18 17.5499 14.9106 17.4149 14.7157L17.3571 14.6465C17.1835 14.4729 16.9141 14.4536 16.7192 14.5886ZM10 2.00464C12.7614 2.00464 15 4.24321 15 7.00464C15 9.76606 12.7614 12.0046 10 12.0046C7.23857 12.0046 5 9.76606 5 7.00464C5 4.24321 7.23857 2.00464 10 2.00464ZM10 3.50464C8.067 3.50464 6.5 5.07164 6.5 7.00464C6.5 8.93764 8.067 10.5046 10 10.5046C11.933 10.5046 13.5 8.93764 13.5 7.00464C13.5 5.07164 11.933 3.50464 10 3.50464Z" fill="black"/>
</svg>
