<svg width="24" height="24" viewBox="0 0 24 24" fill="none" xmlns="http://www.w3.org/2000/svg">
<path d="M14.7542 14.9999C15.9962 14.9999 17.003 16.0068 17.003 17.2488V17.8242C17.003 18.7185 16.6835 19.5833 16.1019 20.2627C14.5326 22.0962 12.1454 23.0011 9 23.0011C5.85414 23.0011 3.46812 22.0959 1.90182 20.2617C1.32206 19.5828 1.00354 18.7193 1.00354 17.8265V17.2488C1.00354 16.0068 2.0104 14.9999 3.25242 14.9999H14.7542ZM14.7542 16.4999H3.25242C2.83882 16.4999 2.50354 16.8352 2.50354 17.2488V17.8265C2.50354 18.3622 2.69465 18.8802 3.04251 19.2876C4.29582 20.7553 6.26169 21.5011 9 21.5011C11.7383 21.5011 13.7059 20.7553 14.9624 19.2873C15.3113 18.8797 15.503 18.3608 15.503 17.8242V17.2488C15.503 16.8352 15.1678 16.4999 14.7542 16.4999ZM19.054 1.40358C19.4136 1.19807 19.8717 1.323 20.0773 1.68264C21.1679 3.59111 21.75 5.75406 21.75 8.00002C21.75 10.2535 21.1639 12.4235 20.0663 14.3365C19.8602 14.6958 19.4018 14.8199 19.0426 14.6138C18.6833 14.4076 18.5591 13.9493 18.7653 13.59C19.7334 11.9027 20.25 9.98986 20.25 8.00002C20.25 6.01685 19.7368 4.11017 18.7749 2.42687C18.5694 2.06724 18.6943 1.6091 19.054 1.40358ZM9 3.00464C11.7614 3.00464 14 5.24322 14 8.00464C14 10.7661 11.7614 13.0046 9 13.0046C6.23857 13.0046 4 10.7661 4 8.00464C4 5.24322 6.23857 3.00464 9 3.00464ZM15.5885 3.39944C15.9486 3.1947 16.4065 3.32062 16.6112 3.6807C17.3538 4.98664 17.75 6.46538 17.75 8.00002C17.75 9.53816 17.352 11.0201 16.6061 12.3282C16.401 12.688 15.943 12.8134 15.5831 12.6082C15.2233 12.4031 15.0979 11.9451 15.3031 11.5852C15.9207 10.502 16.25 9.27588 16.25 8.00002C16.25 6.72706 15.9222 5.50356 15.3072 4.42214C15.1025 4.06206 15.2284 3.60419 15.5885 3.39944ZM9 4.50464C7.067 4.50464 5.5 6.07164 5.5 8.00464C5.5 9.93764 7.067 11.5046 9 11.5046C10.933 11.5046 12.5 9.93764 12.5 8.00464C12.5 6.07164 10.933 4.50464 9 4.50464Z" fill="black"/>
</svg>
