<svg width="24" height="24" viewBox="0 0 24 24" fill="none" xmlns="http://www.w3.org/2000/svg">
<path d="M17.5 12C20.5376 12 23 14.4624 23 17.5C23 20.5376 20.5376 23 17.5 23C14.4624 23 12 20.5376 12 17.5C12 14.4624 14.4624 12 17.5 12ZM12.0223 13.9993C11.7256 14.4626 11.486 14.966 11.3136 15.4996L4.25354 15.4999C3.83933 15.4999 3.50354 15.8357 3.50354 16.2499V17.1573C3.50354 17.8129 3.78953 18.4359 4.28671 18.8634C5.54479 19.945 7.4408 20.5011 10 20.5011C10.5988 20.5011 11.1614 20.4706 11.6881 20.4101C11.9371 20.9103 12.2509 21.374 12.6171 21.7905C11.8149 21.9313 10.942 22.0011 10 22.0011C7.1105 22.0011 4.87168 21.3445 3.30882 20.0008C2.48019 19.2884 2.00354 18.25 2.00354 17.1573V16.2499C2.00354 15.0073 3.0109 13.9999 4.25354 13.9999L12.0223 13.9993ZM15.093 14.9663L15.0238 15.0242L14.9659 15.0934C14.8478 15.2639 14.8478 15.4915 14.9659 15.662L15.0238 15.7313L16.7934 17.5007L15.0264 19.2675L14.9685 19.3368C14.8504 19.5073 14.8504 19.7349 14.9685 19.9054L15.0264 19.9746L15.0956 20.0325C15.2661 20.1506 15.4937 20.1506 15.6642 20.0325L15.7335 19.9746L17.5004 18.2077L19.2694 19.9769L19.3386 20.0347C19.5091 20.1528 19.7367 20.1528 19.9073 20.0347L19.9765 19.9769L20.0344 19.9076C20.1525 19.7371 20.1525 19.5095 20.0344 19.339L19.9765 19.2697L18.2074 17.5007L19.9793 15.7313L20.0371 15.6621C20.1552 15.4915 20.1552 15.264 20.0371 15.0934L19.9793 15.0242L19.91 14.9663C19.7395 14.8482 19.5119 14.8482 19.3414 14.9663L19.2722 15.0242L17.5004 16.7937L15.7309 15.0242L15.6617 14.9663C15.5155 14.8651 15.3274 14.8506 15.1693 14.9229L15.093 14.9663ZM10 2.00464C12.7614 2.00464 15 4.24321 15 7.00464C15 9.76606 12.7614 12.0046 10 12.0046C7.23857 12.0046 5 9.76606 5 7.00464C5 4.24321 7.23857 2.00464 10 2.00464ZM10 3.50464C8.067 3.50464 6.5 5.07164 6.5 7.00464C6.5 8.93764 8.067 10.5046 10 10.5046C11.933 10.5046 13.5 8.93764 13.5 7.00464C13.5 5.07164 11.933 3.50464 10 3.50464Z" fill="black"/>
</svg>
