<svg width="24" height="24" viewBox="0 0 24 24" fill="none" xmlns="http://www.w3.org/2000/svg">
<path d="M17.5 12C20.5376 12 23 14.4624 23 17.5C23 20.5376 20.5376 23 17.5 23C14.4624 23 12 20.5376 12 17.5C12 14.4624 14.4624 12 17.5 12ZM12.0223 13.9993C11.7256 14.4626 11.486 14.966 11.3136 15.4996L4.25242 15.4999C3.83882 15.4999 3.50354 15.8352 3.50354 16.2488V16.8265C3.50354 17.3622 3.69465 17.8802 4.04251 18.2876C5.29582 19.7553 7.26169 20.5011 10 20.5011C10.5964 20.5011 11.1563 20.4657 11.6802 20.3952C11.9254 20.8901 12.233 21.3486 12.5917 21.7615C11.7962 21.9217 10.9314 22.0011 10 22.0011C6.85414 22.0011 4.46812 21.0959 2.90182 19.2617C2.32206 18.5828 2.00354 17.7193 2.00354 16.8265V16.2488C2.00354 15.0068 3.0104 13.9999 4.25242 13.9999L12.0223 13.9993ZM17.5 13.5L17.4101 13.5081C17.206 13.5451 17.0451 13.706 17.0081 13.9101L17 14L16.999 17H14L13.9101 17.0081C13.706 17.0451 13.5451 17.206 13.5081 17.4101L13.5 17.5L13.5081 17.5899C13.5451 17.794 13.706 17.9549 13.9101 17.992L14 18H16.999L17 21L17.0081 21.0899C17.0451 21.294 17.206 21.4549 17.4101 21.492L17.5 21.5L17.5899 21.492C17.794 21.4549 17.9549 21.294 17.9919 21.0899L18 21L17.999 18H21L21.0899 17.992C21.294 17.9549 21.4549 17.794 21.4919 17.5899L21.5 17.5L21.4919 17.4101C21.4549 17.206 21.294 17.0451 21.0899 17.0081L21 17H17.999L18 14L17.9919 13.9101C17.9549 13.706 17.794 13.5451 17.5899 13.5081L17.5 13.5ZM10 2.00464C12.7614 2.00464 15 4.24321 15 7.00464C15 9.76606 12.7614 12.0046 10 12.0046C7.23857 12.0046 5 9.76606 5 7.00464C5 4.24321 7.23857 2.00464 10 2.00464ZM10 3.50464C8.067 3.50464 6.5 5.07164 6.5 7.00464C6.5 8.93764 8.067 10.5046 10 10.5046C11.933 10.5046 13.5 8.93764 13.5 7.00464C13.5 5.07164 11.933 3.50464 10 3.50464Z" fill="black"/>
</svg>
