<svg width="24" height="24" viewBox="0 0 24 24" fill="none" xmlns="http://www.w3.org/2000/svg">
<path d="M17.5 12C20.5376 12 23 14.4624 23 17.5C23 20.5376 20.5376 23 17.5 23C14.4624 23 12 20.5376 12 17.5C12 14.4624 14.4624 12 17.5 12ZM17.5 19.751C17.1551 19.751 16.8755 20.0306 16.8755 20.3755C16.8755 20.7204 17.1551 21 17.5 21C17.8449 21 18.1245 20.7204 18.1245 20.3755C18.1245 20.0306 17.8449 19.751 17.5 19.751ZM17.5 13.8741C16.4521 13.8741 15.6357 14.6915 15.6467 15.8284C15.6493 16.1045 15.8753 16.3262 16.1514 16.3236C16.4276 16.3209 16.6493 16.0949 16.6466 15.8188C16.6411 15.2398 17.0063 14.8741 17.5 14.8741C17.9724 14.8741 18.3534 15.266 18.3534 15.8236C18.3534 16.0158 18.2981 16.1659 18.1295 16.3851L18.0355 16.501L17.9365 16.6142L17.6711 16.9043L17.5346 17.0615C17.1513 17.5182 17 17.854 17 18.3716C17 18.6477 17.2239 18.8716 17.5 18.8716C17.7762 18.8716 18 18.6477 18 18.3716C18 18.1684 18.0585 18.0126 18.2389 17.7813L18.3238 17.6772L18.4247 17.5618L18.6905 17.2713L18.8251 17.1162C19.2034 16.6654 19.3534 16.333 19.3534 15.8236C19.3534 14.7199 18.5311 13.8741 17.5 13.8741ZM12.0223 13.9993C11.7256 14.4626 11.486 14.966 11.3136 15.4996L4.25242 15.4999C3.83882 15.4999 3.50354 15.8352 3.50354 16.2488V16.8265C3.50354 17.3622 3.69465 17.8802 4.04251 18.2876C5.29582 19.7553 7.26169 20.5011 10 20.5011C10.5964 20.5011 11.1563 20.4657 11.6802 20.3952C11.9254 20.8901 12.233 21.3486 12.5917 21.7615C11.7962 21.9217 10.9314 22.0011 10 22.0011C6.85414 22.0011 4.46812 21.0959 2.90182 19.2617C2.32206 18.5828 2.00354 17.7193 2.00354 16.8265V16.2488C2.00354 15.0068 3.0104 13.9999 4.25242 13.9999L12.0223 13.9993ZM10 2.00464C12.7614 2.00464 15 4.24321 15 7.00464C15 9.76606 12.7614 12.0046 10 12.0046C7.23857 12.0046 5 9.76606 5 7.00464C5 4.24321 7.23857 2.00464 10 2.00464ZM10 3.50464C8.067 3.50464 6.5 5.07164 6.5 7.00464C6.5 8.93764 8.067 10.5046 10 10.5046C11.933 10.5046 13.5 8.93764 13.5 7.00464C13.5 5.07164 11.933 3.50464 10 3.50464Z" fill="black"/>
</svg>
