<svg width="24" height="24" viewBox="0 0 24 24" fill="none" xmlns="http://www.w3.org/2000/svg">
<path d="M17.5 12C20.5376 12 23 14.4624 23 17.5C23 20.5376 20.5376 23 17.5 23C14.4624 23 12 20.5376 12 17.5C12 14.4624 14.4624 12 17.5 12ZM12.0223 13.9993C11.7256 14.4626 11.486 14.966 11.3136 15.4996L4.25354 15.4999C3.83933 15.4999 3.50354 15.8357 3.50354 16.2499V17.1573C3.50354 17.8129 3.78953 18.4359 4.28671 18.8634C5.54479 19.945 7.4408 20.5011 10 20.5011C10.5988 20.5011 11.1614 20.4706 11.6881 20.4101C11.9371 20.9103 12.2509 21.374 12.6171 21.7905C11.8149 21.9313 10.942 22.0011 10 22.0011C7.1105 22.0011 4.87168 21.3445 3.30882 20.0008C2.48019 19.2884 2.00354 18.25 2.00354 17.1573V16.2499C2.00354 15.0073 3.0109 13.9999 4.25354 13.9999L12.0223 13.9993ZM20.8092 15.2523L15.2523 20.8092C15.8929 21.2452 16.6667 21.5 17.5 21.5C19.7091 21.5 21.5 19.7092 21.5 17.5C21.5 16.6667 21.2452 15.8929 20.8092 15.2523ZM17.5 13.5C15.2909 13.5 13.5 15.2909 13.5 17.5C13.5 18.3333 13.7548 19.1071 14.1908 19.7477L19.7477 14.1908C19.1071 13.7548 18.3333 13.5 17.5 13.5ZM10 2.00464C12.7614 2.00464 15 4.24321 15 7.00464C15 9.76606 12.7614 12.0046 10 12.0046C7.23857 12.0046 5 9.76606 5 7.00464C5 4.24321 7.23857 2.00464 10 2.00464ZM10 3.50464C8.067 3.50464 6.5 5.07164 6.5 7.00464C6.5 8.93764 8.067 10.5046 10 10.5046C11.933 10.5046 13.5 8.93764 13.5 7.00464C13.5 5.07164 11.933 3.50464 10 3.50464Z" fill="black"/>
</svg>
