<svg width="24" height="24" viewBox="0 0 24 24" fill="none" xmlns="http://www.w3.org/2000/svg">
<path d="M8.25444 8.003C9.22093 8.003 10.0044 8.7865 10.0044 9.753V19.2531C10.0044 20.2196 9.22093 21.0031 8.25444 21.0031H3.75C2.7835 21.0031 2 20.2196 2 19.2531V9.753C2 8.7865 2.7835 8.003 3.75 8.003H8.25444ZM8.25444 9.503H3.75C3.61193 9.503 3.5 9.61493 3.5 9.753V19.2531C3.5 19.3912 3.61193 19.5031 3.75 19.5031H8.25444C8.39251 19.5031 8.50444 19.3912 8.50444 19.2531V9.753C8.50444 9.61493 8.39251 9.503 8.25444 9.503ZM6.25222 17C6.66643 17 7.00222 17.3358 7.00222 17.75C7.00222 18.1297 6.72006 18.4435 6.35399 18.4932L6.25222 18.5H5.75222C5.338 18.5 5.00222 18.1642 5.00222 17.75C5.00222 17.3703 5.28437 17.0565 5.65045 17.0068L5.75222 17H6.25222ZM21.2494 16.4998C21.6636 16.4998 21.9994 16.8356 21.9994 17.2498C21.9994 17.6295 21.7172 17.9433 21.3511 17.993L21.2494 17.9998L11 17.9993V16.4993L21.2494 16.4998ZM18.25 5.00034C19.2165 5.00034 20 5.78385 20 6.75034V14.2506C20 15.2171 19.2165 16.0006 18.25 16.0006L11 16.0003V14.5003L18.25 14.5006C18.3881 14.5006 18.5 14.3887 18.5 14.2506V6.75034C18.5 6.61227 18.3881 6.50034 18.25 6.50034H5.75C5.61193 6.50034 5.5 6.61227 5.5 6.75034L5.499 6.99934H4V6.75034C4 5.78385 4.7835 5.00034 5.75 5.00034H18.25Z" fill="black"/>
</svg>
