<svg width="24" height="24" viewBox="0 0 24 24" fill="none" xmlns="http://www.w3.org/2000/svg">
<path d="M8.25505 6.99986C9.22155 6.99986 10.005 7.78336 10.005 8.74986V18.25C10.005 19.2165 9.22155 20 8.25505 20H3.75061C2.78411 20 2.00061 19.2165 2.00061 18.25V8.74986C2.00061 7.78336 2.78411 6.99986 3.75061 6.99986H8.25505ZM8.25505 8.49986H3.75061C3.61254 8.49986 3.50061 8.61179 3.50061 8.74986V18.25C3.50061 18.3881 3.61254 18.5 3.75061 18.5H8.25505C8.39312 18.5 8.50505 18.3881 8.50505 18.25V8.74986C8.50505 8.61179 8.39312 8.49986 8.25505 8.49986ZM6.25283 16C6.66704 16 7.00283 16.3358 7.00283 16.75C7.00283 17.1297 6.72067 17.4435 6.3546 17.4932L6.25283 17.5H5.75283C5.33861 17.5 5.00283 17.1642 5.00283 16.75C5.00283 16.3703 5.28498 16.0565 5.65106 16.0068L5.75283 16H6.25283ZM19.75 4C20.9408 4 21.9156 4.92516 21.9948 6.09595L22 6.25V14.75C22 15.9409 21.0748 16.9156 19.904 16.9948L19.75 17H10.9997V15.5H19.75C20.1297 15.5 20.4435 15.2178 20.4931 14.8518L20.5 14.75V6.25C20.5 5.8703 20.2178 5.55651 19.8518 5.50685L19.75 5.5H8.24998C7.92357 5.5 7.64585 5.70853 7.54279 5.99964L6.01367 6.00044C6.13192 4.92882 7.00273 4.08392 8.08597 4.00589L8.24998 4H19.75ZM15.25 13C15.6642 13 16 13.3358 16 13.75C16 14.1642 15.6642 14.5 15.25 14.5H12.75C12.3358 14.5 12 14.1642 12 13.75C12 13.3358 12.3358 13 12.75 13H15.25Z" fill="black"/>
</svg>
