<svg width="24" height="24" viewBox="0 0 24 24" fill="none" xmlns="http://www.w3.org/2000/svg">
<path d="M8.25505 8.99986C9.22155 8.99986 10.005 9.78336 10.005 10.7499V20.25C10.005 21.2165 9.22155 22 8.25505 22H3.75061C2.78411 22 2.00061 21.2165 2.00061 20.25V10.7499C2.00061 9.78336 2.78411 8.99986 3.75061 8.99986H8.25505ZM8.25505 10.4999H3.75061C3.61254 10.4999 3.50061 10.6118 3.50061 10.7499V20.25C3.50061 20.3881 3.61254 20.5 3.75061 20.5H8.25505C8.39312 20.5 8.50505 20.3881 8.50505 20.25V10.7499C8.50505 10.6118 8.39312 10.4999 8.25505 10.4999ZM6.24998 18C6.6642 18 6.99998 18.3358 6.99998 18.75C6.99998 19.1297 6.71783 19.4435 6.35176 19.4932L6.24998 19.5H5.74998C5.33577 19.5 4.99998 19.1642 4.99998 18.75C4.99998 18.3703 5.28214 18.0565 5.64821 18.0068L5.74998 18H6.24998ZM19.75 2C20.9408 2 21.9156 2.92516 21.9948 4.09595L22 4.25V13.25C22 14.4409 21.0748 15.4156 19.904 15.4948L19.75 15.5H16.004V17.5H17.25C17.6642 17.5 18 17.8358 18 18.25C18 18.6297 17.7178 18.9435 17.3518 18.9932L17.25 19H11V17.5H14.504V15.5H11V14H19.75C20.1297 14 20.4435 13.7178 20.4931 13.3518L20.5 13.25V4.25C20.5 3.83579 20.1642 3.5 19.75 3.5H6.24998C5.87029 3.5 5.55649 3.78215 5.50683 4.14823L5.49998 4.25V8H3.99998V4.25C3.99998 3.05914 4.92515 2.08436 6.09594 2.00519L6.24998 2H19.75Z" fill="black"/>
</svg>
