<svg width="24" height="24" viewBox="0 0 24 24" fill="none" xmlns="http://www.w3.org/2000/svg">
<path d="M7.05658 2.41801L8.22358 2.06625C9.54608 1.66761 10.9591 2.31185 11.5254 3.57168L12.4271 5.5774C12.9098 6.65123 12.6554 7.91323 11.7944 8.71618L10.3001 10.1096C10.2564 10.1504 10.2288 10.2054 10.2221 10.2647C10.1778 10.6619 10.447 11.4353 11.0673 12.5096C11.5183 13.2908 11.9266 13.8387 12.2741 14.1469C12.5162 14.3615 12.6494 14.408 12.7062 14.3911L14.7165 13.7765C15.8421 13.4323 17.0619 13.8427 17.7506 14.7972L19.0313 16.5722C19.8374 17.6894 19.6925 19.2307 18.6922 20.178L17.8058 21.0174C16.8494 21.9232 15.4879 22.2607 14.2191 21.9066C11.465 21.1378 8.99572 18.8137 6.78384 14.9826C4.56889 11.1462 3.7917 7.84179 4.50815 5.07C4.83602 3.80152 5.80215 2.79613 7.05658 2.41801ZM7.48948 3.85419C6.73682 4.08106 6.15715 4.68429 5.96043 5.44538C5.35778 7.7769 6.04663 10.7058 8.08288 14.2326C10.1164 17.7548 12.3054 19.8151 14.6224 20.4618C15.3836 20.6743 16.2006 20.4718 16.7744 19.9283L17.6608 19.0889C18.1154 18.6583 18.1813 17.9577 17.8149 17.4499L16.5342 15.6749C16.2211 15.241 15.6667 15.0545 15.155 15.2109L13.1397 15.8271C11.97 16.1757 10.9083 15.2343 9.76823 13.2596C8.99993 11.9289 8.64183 10.9002 8.7314 10.0982C8.7778 9.6828 8.97137 9.29769 9.27709 9.0126L10.7714 7.61915C11.1628 7.25417 11.2784 6.68053 11.059 6.19243L10.1573 4.18671C9.89989 3.61406 9.25762 3.32122 8.65648 3.50242L7.48948 3.85419Z" fill="black"/>
</svg>
