<svg width="24" height="24" viewBox="0 0 24 24" fill="none" xmlns="http://www.w3.org/2000/svg">
<path d="M15.75 2C16.9926 2 18 3.00736 18 4.25V19.75C18 20.9926 16.9926 22 15.75 22H8.24998C7.00734 22 5.99998 20.9926 5.99998 19.75V4.25C5.99998 3.00736 7.00734 2 8.24998 2H15.75ZM15.75 3.5H8.24998C7.83577 3.5 7.49998 3.83579 7.49998 4.25V19.75C7.49998 20.1642 7.83577 20.5 8.24998 20.5H15.75C16.1642 20.5 16.5 20.1642 16.5 19.75V4.25C16.5 3.83579 16.1642 3.5 15.75 3.5ZM13.2489 17.5C13.6631 17.4994 13.9994 17.8347 14 18.2489C14.0006 18.6631 13.6653 18.9994 13.2511 19L10.7511 19.0038C10.3369 19.0044 10.0006 18.6691 9.99998 18.2549C9.99936 17.8407 10.3346 17.5044 10.7489 17.5038L13.2489 17.5ZM20.6522 8.12951L20.6963 8.22146L21.2789 9.67786C21.6116 10.5095 21.5171 11.4469 21.0349 12.1925L20.9256 12.3492L20.7744 12.5508C20.5417 12.861 20.4678 13.2591 20.568 13.6282L20.6138 13.7651L21.1963 15.2215C21.3502 15.606 21.1631 16.0425 20.7785 16.1964C20.426 16.3374 20.0298 16.1919 19.8478 15.8705L19.8036 15.7785L19.2211 14.3221C18.8884 13.4905 18.9829 12.5531 19.4651 11.8075L19.5744 11.6508L19.7256 11.4492C19.9583 11.139 20.0322 10.7409 19.932 10.3718L19.8862 10.2349L19.3036 8.77854C19.1498 8.39396 19.3369 7.95748 19.7214 7.80364C20.0387 7.67673 20.3913 7.78184 20.5914 8.03846L20.6522 8.12951ZM4.15219 8.12951L4.19634 8.22146L4.77891 9.67786C5.11158 10.5095 5.01711 11.4469 4.53486 12.1925L4.42559 12.3492L4.27438 12.5508C4.04171 12.861 3.96777 13.2591 4.068 13.6282L4.11378 13.7651L4.69634 15.2215C4.85018 15.606 4.66312 16.0425 4.27853 16.1964C3.92599 16.3374 3.52985 16.1919 3.34778 15.8705L3.30363 15.7785L2.72106 14.3221C2.38839 13.4905 2.48286 12.5531 2.96511 11.8075L3.07438 11.6508L3.22559 11.4492C3.45826 11.139 3.5322 10.7409 3.43197 10.3718L3.38619 10.2349L2.80363 8.77854C2.64979 8.39396 2.83685 7.95748 3.22144 7.80364C3.53873 7.67673 3.89133 7.78184 4.0914 8.03846L4.15219 8.12951Z" fill="black"/>
</svg>
