<svg width="24" height="24" viewBox="0 0 24 24" fill="none" xmlns="http://www.w3.org/2000/svg">
<path d="M21.8529 2.30379L21.7803 2.21967C21.5141 1.9534 21.0974 1.9292 20.8038 2.14705L20.7197 2.21967L14.14 8.799L14.1382 8.79826L2.21966 20.7197C1.95339 20.9859 1.92919 21.4026 2.14704 21.6962L2.21966 21.7803C2.48592 22.0466 2.90259 22.0708 3.1962 21.8529L3.28032 21.7803L8.90499 16.156L10.0498 19.0281C10.2362 19.4949 10.8114 19.6418 11.197 19.3498L11.2765 19.2805L14.514 16.044L19.4654 21.0034L20.5303 21L20.5283 19.945L15.575 14.984L18.7802 11.7805C19.1357 11.4251 19.0439 10.8384 18.6234 10.5993L18.5283 10.5536L15.656 9.405L21.7803 3.28033C22.0466 3.01406 22.0708 2.5974 21.8529 2.30379L21.7803 2.21967L21.8529 2.30379ZM14.502 10.559L16.9149 11.5241L11.0209 17.4151L10.058 15.003L14.502 10.559ZM7.39133 2.64218L7.26617 2.76586L2.50113 7.85141C2.38114 7.97948 2.27655 8.12114 2.18948 8.27351C1.59976 9.30551 1.91708 10.6079 2.89 11.2587L3.02671 11.3434L7.12822 13.6873L8.22822 12.5873L3.77092 10.041C3.44125 9.85262 3.30879 9.45196 3.44729 9.10948L3.49184 9.01772L3.53967 8.94433L3.59573 8.87702L8.36076 3.79147C8.64397 3.4892 9.1186 3.47376 9.42086 3.75697C9.46084 3.79443 9.49653 3.8361 9.52734 3.8812L9.56982 3.95133L12.1072 8.70826L13.2162 7.59926L10.8934 3.24544C10.8063 3.0823 10.6997 2.93071 10.5759 2.794L10.4465 2.66238C9.62831 1.89579 8.38922 1.85857 7.53075 2.52465L7.39133 2.64218Z" fill="black"/>
</svg>
