<svg width="24" height="24" viewBox="0 0 24 24" fill="none" xmlns="http://www.w3.org/2000/svg">
<path d="M10.4465 2.66238C9.58285 1.8532 8.25024 1.85669 7.39133 2.64218L7.26617 2.76586L2.50113 7.85141C2.38114 7.97948 2.27655 8.12114 2.18948 8.27351C1.59976 9.30551 1.91708 10.6079 2.89 11.2587L3.02671 11.3434L7.92321 14.1414C8.04097 14.2087 8.13771 14.3063 8.20389 14.4233L8.24764 14.5144L10.0498 19.0281C10.2362 19.4949 10.8114 19.6418 11.197 19.3498L11.2765 19.2805L14.5143 16.0443L19.4654 21.0034L20.5303 21L20.5283 19.945L15.5753 14.9833L18.7802 11.7805C19.1357 11.4251 19.0439 10.8384 18.6234 10.5993L18.5283 10.5536L14.0331 8.75696C13.9016 8.70442 13.7884 8.61604 13.7057 8.50285L13.6496 8.41347L10.8934 3.24544C10.7773 3.02792 10.6264 2.83094 10.4465 2.66238ZM3.59573 8.87702L8.36076 3.79147C8.64397 3.4892 9.1186 3.47376 9.42086 3.75697C9.46084 3.79443 9.49653 3.8361 9.52734 3.8812L9.56982 3.95133L12.3261 9.11935C12.5482 9.53575 12.8948 9.87042 13.3153 10.078L13.4764 10.1498L16.9149 11.5241L11.0209 17.4151L9.6407 13.9582C9.47568 13.5449 9.19238 13.1912 8.82829 12.9402L8.66741 12.839L3.77092 10.041C3.41128 9.8355 3.28633 9.37736 3.49184 9.01772L3.53967 8.94433L3.59573 8.87702L8.36076 3.79147L3.59573 8.87702Z" fill="black"/>
</svg>
