<svg width="24" height="24" viewBox="0 0 24 24" fill="none" xmlns="http://www.w3.org/2000/svg">
<path d="M6.33995 2.27502C5.25284 1.67305 3.88359 2.06634 3.28162 3.15344C3.09691 3.48703 3 3.86208 3 4.24339V19.7591C3 21.0018 4.00736 22.0091 5.25 22.0091C5.6314 22.0091 6.00654 21.9122 6.34018 21.7274L20.3484 13.9684C21.4355 13.3663 21.8286 11.997 21.2265 10.91C21.0219 10.5407 20.7176 10.2363 20.3482 10.0318L6.33995 2.27502ZM19.9143 11.6368C20.115 11.9991 19.984 12.4556 19.6217 12.6563L5.61339 20.4152C5.50218 20.4768 5.37713 20.5091 5.25 20.5091C4.83579 20.5091 4.5 20.1734 4.5 19.7591V4.24339C4.5 4.11629 4.5323 3.99127 4.59387 3.88008C4.79453 3.51771 5.25095 3.38661 5.61332 3.58727L19.6216 11.3441C19.7447 11.4122 19.8462 11.5137 19.9143 11.6368Z" fill="black"/>
</svg>
