<svg width="24" height="24" viewBox="0 0 24 24" fill="none" xmlns="http://www.w3.org/2000/svg">
<path d="M11.7519 1.99956C13.2717 1.99956 14.5037 3.23161 14.5037 4.75143V19.25C14.5037 20.7698 13.2717 22.0018 11.7519 22.0018C10.2321 22.0018 9 20.7698 9 19.25V4.75143C9 3.23161 10.2321 1.99956 11.7519 1.99956ZM18.7519 6.99956C20.2717 6.99956 21.5037 8.23161 21.5037 9.75143V19.25C21.5037 20.7698 20.2717 22.0018 18.7519 22.0018C17.2321 22.0018 16 20.7698 16 19.25V9.75143C16 8.23161 17.2321 6.99956 18.7519 6.99956ZM4.75187 11.9996C6.27169 11.9996 7.50374 13.2316 7.50374 14.7514V19.25C7.50374 20.7698 6.27169 22.0018 4.75187 22.0018C3.23205 22.0018 2 20.7698 2 19.25V14.7514C2 13.2316 3.23205 11.9996 4.75187 11.9996ZM11.7519 3.49956C11.0605 3.49956 10.5 4.06004 10.5 4.75143V19.25C10.5 19.9414 11.0605 20.5018 11.7519 20.5018C12.4433 20.5018 13.0037 19.9414 13.0037 19.25V4.75143C13.0037 4.06004 12.4433 3.49956 11.7519 3.49956ZM18.7519 8.49956C18.0605 8.49956 17.5 9.06004 17.5 9.75143V19.25C17.5 19.9414 18.0605 20.5018 18.7519 20.5018C19.4433 20.5018 20.0037 19.9414 20.0037 19.25V9.75143C20.0037 9.06004 19.4433 8.49956 18.7519 8.49956ZM4.75187 13.4996C4.06048 13.4996 3.5 14.06 3.5 14.7514V19.25C3.5 19.9414 4.06048 20.5018 4.75187 20.5018C5.44326 20.5018 6.00374 19.9414 6.00374 19.25V14.7514C6.00374 14.06 5.44326 13.4996 4.75187 13.4996Z" fill="black"/>
</svg>
