<svg width="24" height="24" viewBox="0 0 24 24" fill="none" xmlns="http://www.w3.org/2000/svg">
<path d="M20.2444 12.9971C20.9532 12.9971 21.2665 13.8895 20.7132 14.3325L15.9953 18.1103V19.7546C15.9953 20.9972 14.988 22.0046 13.7453 22.0046H10.2499C9.00731 22.0046 7.99995 20.9972 7.99995 19.7546V18.1103L3.28036 14.3326C2.72696 13.8896 3.04018 12.9971 3.74904 12.9971H20.2444ZM18.1078 14.4971H5.88622L9.21863 17.1645C9.39645 17.3068 9.49995 17.5222 9.49995 17.75V19.7546C9.49995 20.1688 9.83574 20.5046 10.2499 20.5046H13.7453C14.1595 20.5046 14.4953 20.1688 14.4953 19.7546V17.75C14.4953 17.5223 14.5988 17.3069 14.7765 17.1646L18.1078 14.4971ZM8.74995 9H15.2447C16.1628 9 16.9158 9.70711 16.9889 10.6065L16.9947 10.75V12H15.4947V10.75C15.4947 10.6316 15.4124 10.5325 15.302 10.5066L15.2447 10.5H8.74995C8.6316 10.5 8.53246 10.5822 8.50655 10.6927L8.49995 10.75V12H6.99995V10.75C6.99995 9.83182 7.70706 9.0788 8.60642 9.0058L8.74995 9H15.2447H8.74995ZM11.9999 2.00046C13.6568 2.00046 14.9999 3.3436 14.9999 5.00046C14.9999 6.65731 13.6568 8.00046 11.9999 8.00046C10.3431 8.00046 8.99995 6.65731 8.99995 5.00046C8.99995 3.3436 10.3431 2.00046 11.9999 2.00046ZM11.9999 3.50046C11.1715 3.50046 10.4999 4.17203 10.4999 5.00046C10.4999 5.82888 11.1715 6.50046 11.9999 6.50046C12.8284 6.50046 13.4999 5.82888 13.4999 5.00046C13.4999 4.17203 12.8284 3.50046 11.9999 3.50046Z" fill="black"/>
</svg>
