<svg width="24" height="24" viewBox="0 0 24 24" fill="none" xmlns="http://www.w3.org/2000/svg">
<path d="M5.25354 13.9999L16.2418 14.0011C16.3458 14.1727 16.473 14.3321 16.6225 14.474L17.3412 15.1561C17.3002 15.3151 17.247 15.4742 17.1813 15.6339C17.0588 15.5492 16.9117 15.4999 16.753 15.4999H5.25354C4.83933 15.4999 4.50354 15.8357 4.50354 16.2499V17.1573C4.50354 17.8129 4.78953 18.4359 5.28671 18.8634C6.54479 19.945 8.4408 20.5011 11 20.5011C11.2917 20.5011 11.5747 20.4939 11.8492 20.4795C11.9308 20.9259 12.1439 21.3505 12.4807 21.6886L12.7082 21.9167C12.1667 21.973 11.5972 22.0011 11 22.0011C8.1105 22.0011 5.87168 21.3445 4.30882 20.0008C3.48019 19.2884 3.00354 18.25 3.00354 17.1573V16.2499C3.00354 15.0073 4.0109 13.9999 5.25354 13.9999ZM17.0105 12.245L17.5138 11.0582C17.7499 10.5015 18.3153 10.1987 18.8698 10.3143L18.9883 10.3455L19.6186 10.5469C20.2435 10.7466 20.7221 11.2819 20.8767 11.9542C21.244 13.5518 20.8033 15.497 19.5546 17.7896C18.3078 20.0789 16.9412 21.4553 15.4549 21.919C14.8778 22.099 14.2578 21.9682 13.7915 21.5767L13.6683 21.4635L13.1896 20.9829C12.7748 20.5665 12.6893 19.9076 12.9675 19.3921L13.0381 19.2759L13.7596 18.216C14.0434 17.7989 14.5291 17.6016 14.997 17.7012L15.124 17.7359L16.4559 18.18C16.9874 17.7778 17.4306 17.2715 17.7855 16.6612C18.0896 16.138 18.2886 15.6078 18.3823 15.0705L18.4204 14.8013L17.3114 13.7487C16.9461 13.4019 16.8134 12.862 16.9627 12.376L17.0105 12.245L17.5138 11.0582L17.0105 12.245ZM11 2.00464C13.7614 2.00464 16 4.24321 16 7.00464C16 9.76606 13.7614 12.0046 11 12.0046C8.23857 12.0046 6 9.76606 6 7.00464C6 4.24321 8.23857 2.00464 11 2.00464ZM11 3.50464C9.067 3.50464 7.5 5.07164 7.5 7.00464C7.5 8.93764 9.067 10.5046 11 10.5046C12.933 10.5046 14.5 8.93764 14.5 7.00464C14.5 5.07164 12.933 3.50464 11 3.50464Z" fill="black"/>
</svg>
