<svg width="24" height="24" viewBox="0 0 24 24" fill="none" xmlns="http://www.w3.org/2000/svg">
<path d="M3.04874 18.9791L8.54873 4.48391C8.77917 3.87658 9.60135 3.8409 9.90134 4.37681L9.9512 4.48399L15.4512 18.9845C15.5981 19.3718 15.4032 19.8048 15.0159 19.9517C14.6609 20.0864 14.2674 19.9338 14.0912 19.6092L14.0487 19.5164L12.3348 14.9995H6.16276L4.45118 19.5112C4.31648 19.8662 3.94135 20.0595 3.58147 19.9761L3.48389 19.9463C3.12889 19.8116 2.9356 19.4365 3.01904 19.0766L3.04874 18.9791L8.54873 4.48391L3.04874 18.9791ZM9.24982 6.86444L6.73176 13.4995H11.7668L9.24982 6.86444ZM14.8435 2.39207C15.0421 2.02857 15.4977 1.8949 15.8612 2.09349C17.947 3.23304 19.5127 4.69616 20.543 6.48058C21.5732 8.265 22.0574 10.3526 22.0014 12.7286C21.9917 13.1427 21.6481 13.4705 21.234 13.4608C20.8199 13.451 20.4921 13.1074 20.5018 12.6933C20.5516 10.582 20.1304 8.76593 19.2439 7.23058C18.3575 5.69524 16.9954 4.42242 15.142 3.40984C14.7785 3.21124 14.6449 2.75557 14.8435 2.39207ZM14.6062 5.99356C14.8045 5.6299 15.26 5.49584 15.6237 5.69414C16.5907 6.22141 17.3657 6.98877 17.9399 7.98345C18.5142 8.97812 18.7913 10.033 18.7644 11.134C18.7543 11.5481 18.4104 11.8756 17.9963 11.8655C17.5822 11.8554 17.2547 11.5115 17.2648 11.0975C17.2849 10.2759 17.0791 9.49251 16.6409 8.73345C16.2026 7.97438 15.6271 7.40452 14.9056 7.01108C14.5419 6.81278 14.4079 6.35723 14.6062 5.99356Z" fill="black"/>
</svg>
