<svg width="24" height="24" viewBox="0 0 24 24" fill="none" xmlns="http://www.w3.org/2000/svg">
<path fill-rule="evenodd" clip-rule="evenodd" d="M8.93944 10.0001L2.21979 3.28027C1.9269 2.98737 1.9269 2.5125 2.2198 2.21961C2.51269 1.92672 2.98757 1.92672 3.28046 2.21962L21.7802 20.7198C22.0731 21.0127 22.0731 21.4875 21.7802 21.7804C21.4873 22.0733 21.0125 22.0733 20.7196 21.7804L14 15.0608L9.0621 19.9987C8.78522 20.2756 8.44089 20.4754 8.06312 20.5784L2.94743 21.9736C2.38756 22.1263 1.87383 21.6126 2.02652 21.0527L3.42171 15.937C3.52474 15.5593 3.72456 15.2149 4.00144 14.9381L8.93944 10.0001ZM12.9392 13.9999L8.00144 18.9381C7.90915 19.0303 7.79437 19.097 7.66845 19.1313L3.81901 20.1811L4.86886 16.3317C4.9032 16.2058 4.96981 16.091 5.0621 15.9987L10.0001 11.0607L12.9392 13.9999Z" fill="black"/>
<path fill-rule="evenodd" clip-rule="evenodd" d="M17.9393 8.99963L15.0598 11.8793L16.1207 12.9401L21.0304 8.03039C22.4279 6.63293 22.4279 4.36719 21.0304 2.96973C19.633 1.57227 17.3672 1.57227 15.9698 2.96973L11.0601 7.87943L12.1207 8.94013L15.0003 6.06063L17.9393 8.99963ZM17.0304 4.03039L16.0603 4.99963L18.9993 7.93963L19.9698 6.96973C20.7814 6.15805 20.7814 4.84206 19.9698 4.03039C19.1581 3.21871 17.8421 3.21871 17.0304 4.03039Z" fill="black"/>
</svg>
