<svg width="24" height="24" viewBox="0 0 24 24" fill="none" xmlns="http://www.w3.org/2000/svg">
<path d="M12 2C16.4183 2 20 5.58172 20 10C20 12.5481 18.8087 14.8179 16.9527 16.283L17.0016 16.2441L17.0007 22.2453C17.0007 22.7946 16.4298 23.1575 15.9324 22.9245L12.0005 21.0819L8.07069 22.9244C7.57334 23.1576 7.00231 22.7946 7.00231 22.2453L7.00069 16.2459C5.17251 14.782 4 12.5279 4 10C4 5.58172 7.58172 2 12 2ZM15.5012 17.1952L15.5415 17.1754C14.4739 17.7033 13.2716 18 12 18C10.8746 18 9.80346 17.7676 8.83197 17.3482L8.5018 17.1966L8.50231 21.0653L11.6821 19.5745C11.8837 19.48 12.117 19.4799 12.3187 19.5745L15.5007 21.0656L15.5012 17.1952ZM12 3.5C8.41015 3.5 5.5 6.41015 5.5 10C5.5 13.5899 8.41015 16.5 12 16.5C15.5899 16.5 18.5 13.5899 18.5 10C18.5 6.41015 15.5899 3.5 12 3.5ZM12.2288 6.64234L13.1413 8.495L15.1853 8.79036C15.3946 8.8206 15.4783 9.07783 15.3268 9.22543L13.8484 10.6659L14.1974 12.7013C14.2332 12.9097 14.0143 13.0686 13.8272 12.97L12 12.0076L10.1728 12.97C9.98561 13.0686 9.76668 12.9096 9.80261 12.7011L10.1533 10.6659L8.67333 9.22553C8.52172 9.07798 8.60534 8.82061 8.81473 8.79036L10.8587 8.495L11.7712 6.64234C11.8647 6.45255 12.1353 6.45255 12.2288 6.64234Z" fill="black"/>
</svg>
