<svg width="24" height="24" viewBox="0 0 24 24" fill="none" xmlns="http://www.w3.org/2000/svg">
<path d="M20.25 1.9994C21.2165 1.9994 22 2.78291 22 3.7494V6.79212C22 7.81627 21.4309 8.75558 20.5231 9.2297L14.2413 12.51C15.8773 13.3318 17 15.0252 17 16.9808C17 19.7422 14.7614 21.9808 12 21.9808C9.23858 21.9808 7 19.7422 7 16.9808C7 15.0252 8.12271 13.3318 9.75875 12.51L3.47693 9.2297C2.56913 8.75558 2 7.81627 2 6.79212V3.7494C2 2.78291 2.7835 1.9994 3.75 1.9994H20.25ZM12 13.4808C10.067 13.4808 8.5 15.0478 8.5 16.9808C8.5 18.9138 10.067 20.4808 12 20.4808C13.933 20.4808 15.5 18.9138 15.5 16.9808C15.5 15.0478 13.933 13.4808 12 13.4808ZM15.5 3.4984H8.5V10.1604L11.8843 11.9283C11.9568 11.9662 12.0432 11.9662 12.1157 11.9283L15.5 10.1594V3.4984ZM7 3.4984L3.75 3.4994C3.61193 3.4994 3.5 3.61133 3.5 3.7494V6.79212C3.5 7.25764 3.75869 7.6846 4.17133 7.90011L7 9.37641V3.4984ZM20.25 3.4994L17 3.4984V9.37641L19.8287 7.90011C20.2413 7.6846 20.5 7.25764 20.5 6.79212V3.7494C20.5 3.61133 20.3881 3.4994 20.25 3.4994Z" fill="black"/>
</svg>
