<svg width="24" height="24" viewBox="0 0 24 24" fill="none" xmlns="http://www.w3.org/2000/svg">
<path d="M21.0015 4.75008L21 18.7501C20.9999 19.3742 20.2822 19.7252 19.7895 19.342L12.5 13.6726V18.7501C12.4999 19.3742 11.7822 19.7252 11.2895 19.342L2.28954 12.342C1.90347 12.0417 1.90349 11.4582 2.28959 11.1579L11.2911 4.15795C11.7838 3.77482 12.5015 4.12596 12.5015 4.75008L12.5 9.82661L19.7911 4.15795C20.2838 3.77482 21.0015 4.12596 21.0015 4.75008ZM11.0014 6.28345L3.97168 11.7501L11.0002 17.2167L11.0014 6.28345ZM19.5014 6.28345L12.5 11.7266V11.7726L19.5002 17.2167L19.5014 6.28345Z" fill="black"/>
</svg>
