<svg width="24" height="24" viewBox="0 0 24 24" fill="none" xmlns="http://www.w3.org/2000/svg">
<path d="M15.65 2C15.9717 2 16.2676 2.02771 16.5002 2.25L21.6298 6.75C21.8766 6.98584 22 7.30866 22 7.65V19.25C22 20.4926 20.9926 21.5 19.75 21.5H4.25C3.00736 21.5 2 20.4926 2 19.25V4.25C2 3.00736 3.00736 2 4.25 2H15.65ZM6 3.499L4.25 3.5C3.83579 3.5 3.5 3.83579 3.5 4.25V19.25C3.5 19.6642 3.83579 20 4.25 20H5V14.25C5 13.3318 5.70711 12.5788 6.60647 12.5058L6.75 12.5H17.2845C18.2027 12.5 18.9246 13.2433 18.9944 14.1463L19 14.2901V20H19.75C20.1642 20 20.5 19.6642 20.5 19.25V7.76609L15.5363 3.5L15.5 3.499V6.75249C15.5 7.71899 14.7165 8.50249 13.75 8.50249H7.75C6.7835 8.50249 6 7.71899 6 6.75249V3.499ZM17.2845 14H6.75C6.63165 14 6.53251 14.0822 6.5066 14.1927L6.5 14.25V20H17.5V14.25C17.5 14.1349 17.4463 14.038 17.3484 14.0089L17.2845 14ZM14 3.499H7.5V6.75249C7.5 6.89056 7.61193 7.00249 7.75 7.00249H13.75C13.8881 7.00249 14 6.89056 14 6.75249V3.499Z" fill="black"/>
</svg>
