<svg width="24" height="24" viewBox="0 0 24 24" fill="none" xmlns="http://www.w3.org/2000/svg">
<path d="M21.3615 10.1381C22.2129 10.99 22.2127 12.3698 21.3617 13.2209L13.4518 21.1312C13.2157 21.3673 12.8954 21.5 12.5614 21.5H10.8562C10.3833 21.5 10 21.1167 10 20.6439V18.9388C10 18.6049 10.1327 18.2847 10.3688 18.0486L18.28 10.1381C19.1309 9.28729 20.5106 9.28729 21.3615 10.1381ZM22 14.8559V19.25C22 20.4926 20.9926 21.5 19.75 21.5H14.9976L16.5 20H19.75C20.1642 20 20.5 19.6642 20.5 19.25V16.2737L22 14.8559ZM15.6299 2C15.9055 2 16.172 2.09114 16.389 2.25716L21.6404 6.75C21.887 6.98584 22 7.30866 22 7.65L21.9902 8.88076C21.7272 8.67387 21.4773 8.53028 21.2406 8.45C21.0039 8.36972 20.7572 8.33638 20.5007 8.35L20.491 7.75L16 3.892V6.75227C16 7.71877 15.2165 8.50227 14.25 8.50227H8.25C7.2835 8.50227 6.5 7.71877 6.5 6.75227V3.499L4.2489 3.5C3.83489 3.5 3.49927 3.83579 3.49927 4.25V19.25C3.49927 19.6642 3.83489 20 4.2489 20L5 19.999V14.2634C5 13.3453 5.70711 12.5922 6.60647 12.5192L6.75 12.5134H14.0087L12.4581 14.0134H6.75C6.63165 14.0134 6.53251 14.0957 6.5066 14.2061L6.5 14.2634V19.999L8.49224 20V21.5H4.2489C3.00687 21.5 2 20.4926 2 19.25V4.25C2 3.00736 3.00687 2 4.2489 2H15.6299ZM19.3484 11.2064L11.5109 19.0431V19.9892H12.4571L20.2932 12.1527C20.5544 11.8914 20.5545 11.4679 20.2933 11.2066C20.0323 10.9456 19.6093 10.9456 19.3484 11.2064ZM14.5 3.499H8V6.75227C8 6.89034 8.11193 7.00227 8.25 7.00227H14.25C14.3881 7.00227 14.5 6.89034 14.5 6.75227V3.499Z" fill="black"/>
</svg>
