<svg width="24" height="24" viewBox="0 0 24 24" fill="none" xmlns="http://www.w3.org/2000/svg">
<path d="M17.7832 2.00659C19.0259 2.00659 20 3.00736 20 4.25V8.24488C19.6807 7.65721 19.1807 7.12497 18.5 6.64818V4.25659C18.5 3.84238 18.1974 3.50659 17.7832 3.50659H6.25709C5.84288 3.50659 5.50709 3.84238 5.50709 4.25659L5.5 19.7569C5.5 20.1711 5.84288 20.5019 6.25709 20.5L7.61344 20.4998C8.36611 20.5021 9.13308 20.5066 9.99302 20.5052L11.3825 20.4988C11.544 20.499 11.6386 20.5008 11.7929 20.5011L13.3125 20.4982C13.8543 20.7626 14.385 20.8882 14.5005 20.9309C14.4804 21.4144 14.5382 21.7708 14.6739 22H11.0866L9.49629 22.0068C8.33742 22.0074 7.32978 22 6.25709 22C5.01445 22 4 20.9995 4 19.7569L4.00709 4.25659C4.00709 3.01395 5.01445 2.00659 6.25709 2.00659H17.7832ZM21.25 13C21.6297 13 21.9435 13.2822 21.9932 13.6482L22 13.75V14.5C22 17.4213 19.8215 19.7491 17.0004 20.1033L17 21.25C17 21.6642 16.6642 22 16.25 22C15.8703 22 15.5565 21.7178 15.5068 21.3518L15.5 21.25L15.5006 20.1034C12.7553 19.7593 10.6183 17.546 10.5047 14.7356L10.5 14.5V13.75C10.5 13.3358 10.8358 13 11.25 13C11.6297 13 11.9435 13.2822 11.9932 13.6482L12 13.75V14.5C12 16.8472 13.9028 18.65 16.25 18.65C18.5261 18.65 20.3843 16.9548 20.4948 14.7118L20.5 14.5V13.75C20.5 13.3358 20.8358 13 21.25 13ZM16.25 7C18.0449 7 19.5 8.45507 19.5 10.25V14.25C19.5 16.0449 18.0449 17.5 16.25 17.5C14.4551 17.5 13 16.0449 13 14.25V10.25C13 8.45507 14.4551 7 16.25 7ZM16.25 8.5C15.2835 8.5 14.5 9.2835 14.5 10.25V14.25C14.5 15.2165 15.2835 16 16.25 16C17.2165 16 18 15.2165 18 14.25V10.25C18 9.2835 17.2165 8.5 16.25 8.5ZM9.66531 13C9.62857 13.0361 9.59013 13.1195 9.55 13.25C9.5179 13.3544 9.50081 13.5033 9.49874 13.6966L9.49871 14.5H8.25C7.83579 14.5 7.5 14.1642 7.5 13.75C7.5 13.3703 7.78215 13.0565 8.14823 13.0068L8.25 13H9.66531ZM8.25 10H12.0035L11.9959 11.5H8.25C7.83579 11.5 7.5 11.1642 7.5 10.75C7.5 10.3703 7.78215 10.0565 8.14823 10.0068L8.25 10ZM13.5 7C13.1909 7.26402 12.9743 7.48068 12.85 7.65C12.7612 7.77094 12.6508 7.95005 12.5188 8.18733L12.35 8.5H8.25C7.83579 8.5 7.5 8.16421 7.5 7.75C7.5 7.3703 7.78215 7.05651 8.14823 7.00684L8.25 7H13.5Z" fill="black"/>
</svg>
