<svg width="24" height="24" viewBox="0 0 24 24" fill="none" xmlns="http://www.w3.org/2000/svg">
<path d="M5.69533 12L2.30104 3.27181C2.0648 2.66433 2.65715 2.0834 3.24311 2.28989L3.33546 2.32915L21.3355 11.3292C21.8537 11.5883 21.8861 12.2978 21.4326 12.6132L21.3355 12.6708L3.33546 21.6708C2.75248 21.9623 2.11917 21.4263 2.27051 20.8237L2.30104 20.7281L5.69533 12L2.30104 3.27181L5.69533 12ZM4.40381 4.54038L7.0128 11.2494L13.6404 11.25C14.0201 11.25 14.3339 11.5321 14.3835 11.8982L14.3904 12C14.3904 12.3797 14.1082 12.6935 13.7421 12.7431L13.6404 12.75L7.0128 12.7494L4.40381 19.4596L19.323 12L4.40381 4.54038Z" fill="black"/>
</svg>
