<svg width="24" height="24" viewBox="0 0 24 24" fill="none" xmlns="http://www.w3.org/2000/svg">
<path d="M17 2.49823C18.934 2.49823 20.5018 4.06603 20.5018 6C20.5018 7.93397 18.934 9.50177 17 9.50177C15.97 9.50177 15.0439 9.0571 14.4032 8.34927L9.84455 10.9537C9.94786 11.2841 10.0035 11.6355 10.0035 12C10.0035 12.3644 9.94786 12.7159 9.84455 13.0463L14.4023 15.6517C15.043 14.9433 15.9695 14.4982 17 14.4982C18.934 14.4982 20.5018 16.066 20.5018 18C20.5018 19.934 18.934 21.5018 17 21.5018C15.066 21.5018 13.4982 19.934 13.4982 18C13.4982 17.6355 13.5539 17.2841 13.6572 16.9537L9.09951 14.3483C8.45873 15.0567 7.53223 15.5018 6.50177 15.5018C4.5678 15.5018 3 13.934 3 12C3 10.066 4.5678 8.49823 6.50177 8.49823C7.53173 8.49823 8.45784 8.94289 9.09859 9.65072L13.6572 7.0463C13.5539 6.7159 13.4982 6.36445 13.4982 6C13.4982 4.06603 15.066 2.49823 17 2.49823ZM17 15.9982C15.8945 15.9982 14.9982 16.8945 14.9982 18C14.9982 19.1055 15.8945 20.0018 17 20.0018C18.1055 20.0018 19.0018 19.1055 19.0018 18C19.0018 16.8945 18.1055 15.9982 17 15.9982ZM6.50177 9.99823C5.39622 9.99823 4.5 10.8945 4.5 12C4.5 13.1055 5.39622 14.0018 6.50177 14.0018C7.60732 14.0018 8.50354 13.1055 8.50354 12C8.50354 10.8945 7.60732 9.99823 6.50177 9.99823ZM17 3.99823C15.8945 3.99823 14.9982 4.89445 14.9982 6C14.9982 7.10555 15.8945 8.00177 17 8.00177C18.1055 8.00177 19.0018 7.10555 19.0018 6C19.0018 4.89445 18.1055 3.99823 17 3.99823Z" fill="black"/>
</svg>
