<svg width="24" height="24" viewBox="0 0 24 24" fill="none" xmlns="http://www.w3.org/2000/svg">
<path d="M15.25 21H6.75C6.33579 21 6 20.6642 6 20.25C6 19.8703 6.28215 19.5565 6.64823 19.5068L6.75 19.5L8 19.4993V18.0043L4.25 18.0046C3.05914 18.0046 2.08436 17.0794 2.00519 15.9086L2 15.7546V8.24999C2 7.05912 2.92516 6.08434 4.09595 6.00518L4.25 5.99999H10.7479C11.1622 5.99999 11.4979 6.33577 11.4979 6.74999C11.4979 7.12968 11.2158 7.44348 10.8497 7.49314L10.7479 7.49999H4.25C3.8703 7.49999 3.55651 7.78214 3.50685 8.14822L3.5 8.24999V15.7546C3.5 16.1343 3.78215 16.4481 4.14823 16.4977L4.25 16.5046L8 16.5043V16.5H13.9954L13.995 16.5043L17.7454 16.5046C18.1251 16.5046 18.4389 16.2224 18.4885 15.8563L18.4954 15.7546V15.2511C18.4954 14.8369 18.8312 14.5011 19.2454 14.5011C19.6251 14.5011 19.9389 14.7833 19.9885 15.1493L19.9954 15.2511V15.7546C19.9954 16.9454 19.0702 17.9202 17.8994 17.9994L17.7454 18.0046L13.995 18.0043V19.4993L15.25 19.5C15.6297 19.5 15.9435 19.7821 15.9932 20.1482L16 20.25C16 20.6297 15.7178 20.9435 15.3518 20.9931L15.25 21H6.75H15.25ZM12.495 18.0043H9.5V19.5H12.4954L12.495 18.0043ZM13.7481 4.00128L21.3019 4.0018L21.4015 4.01559L21.5023 4.04379L21.559 4.06785C21.639 4.1027 21.7141 4.15376 21.7799 4.21964L21.8207 4.26368L21.8812 4.34517L21.9184 4.41019L21.957 4.5005L21.9762 4.56458L21.9898 4.62858L21.9991 4.72278L21.9996 12.2552C21.9996 12.6694 21.6638 13.0052 21.2496 13.0052C20.8699 13.0052 20.5561 12.723 20.5065 12.3569L20.4996 12.2552L20.499 6.56028L12.7803 14.2805C12.5141 14.5468 12.0974 14.571 11.8038 14.3532L11.7197 14.2806C11.4534 14.0143 11.4292 13.5977 11.647 13.304L11.7197 13.2199L19.437 5.50128H13.7481C13.3684 5.50128 13.0546 5.21913 13.005 4.85305L12.9981 4.75128C12.9981 4.37159 13.2803 4.05779 13.6463 4.00813L13.7481 4.00128Z" fill="black"/>
</svg>
