<svg width="24" height="24" viewBox="0 0 24 24" fill="none" xmlns="http://www.w3.org/2000/svg">
<path d="M19.7543 11C20.134 11 20.4478 11.2822 20.4974 11.6482L20.5043 11.75V18.7509C20.5043 20.4839 19.1478 21.9001 17.4387 21.9957L17.2543 22.0009H6.25427C4.52124 22.0009 3.10503 20.6444 3.00942 18.9353L3.00427 18.7509V11.75C3.00427 11.3358 3.34006 11 3.75427 11C4.13397 11 4.44776 11.2822 4.49743 11.6482L4.50427 11.75V18.7509C4.50427 19.669 5.21138 20.4221 6.11075 20.4951L6.25427 20.5009H17.2543C18.1724 20.5009 18.9255 19.7938 18.9985 18.8944L19.0043 18.7509V11.75C19.0043 11.3358 19.3401 11 19.7543 11ZM6.21967 7.2163L11.2159 2.21969C11.482 1.95356 11.8984 1.9292 12.192 2.14672L12.2762 2.21923L17.281 7.21585C17.5741 7.5085 17.5745 7.98337 17.2819 8.27651C17.0158 8.54299 16.5992 8.56754 16.3054 8.34993L16.2212 8.27738L12.4983 4.561L12.4992 16.2549C12.4992 16.6346 12.217 16.9484 11.8509 16.9981L11.7492 17.0049C11.3695 17.0049 11.0557 16.7228 11.006 16.3567L10.9992 16.2549L10.9983 4.558L7.28037 8.27692C7.01411 8.5432 6.59745 8.56742 6.30383 8.34958L6.21971 8.27696C5.95343 8.01071 5.92921 7.59404 6.14705 7.30042L6.21967 7.2163L11.2159 2.21969L6.21967 7.2163Z" fill="black"/>
</svg>
