<svg width="24" height="24" viewBox="0 0 24 24" fill="none" xmlns="http://www.w3.org/2000/svg">
<path d="M14.75 16.5C16.0585 16.5 16.5682 17.0825 16.9553 18.3743L17.0231 18.6115C17.2056 19.2688 17.3147 19.4657 17.5358 19.5568C17.7949 19.6636 17.9676 19.6484 18.2392 19.5088L18.3861 19.4265C18.439 19.3947 18.4966 19.3581 18.5617 19.3151L19.225 18.8637C19.8408 18.4586 20.3942 18.1908 21.0681 18.0224C21.4699 17.9219 21.8771 18.1662 21.9776 18.5681C22.078 18.9699 21.8337 19.3771 21.4319 19.4776C21.0248 19.5794 20.6737 19.7334 20.2866 19.967L19.988 20.1578L19.5089 20.4858C19.2792 20.6421 19.1057 20.7499 18.925 20.8428C18.2821 21.1733 17.6552 21.2284 16.9642 20.9436C16.2194 20.6367 15.919 20.1637 15.6379 19.222L15.4821 18.6802C15.3007 18.0908 15.1771 18 14.75 18C14.4406 18 14.1204 18.1548 13.6816 18.523L13.4969 18.6839L12.576 19.5592C11.1678 20.8828 9.96738 21.5255 8.24862 21.5255C6.56233 21.5255 5.10393 21.2715 3.87967 20.7567L6.82726 19.9524C7.27453 20.0011 7.74823 20.0255 8.24862 20.0255C9.43136 20.0255 10.2804 19.6106 11.3348 18.6629L11.5931 18.4242L12.1249 17.9131C12.3615 17.6863 12.5388 17.5238 12.7174 17.3739C13.401 16.8003 14.0223 16.5 14.75 16.5ZM19.0303 2.96967C20.4278 4.36713 20.4278 6.63286 19.0303 8.03033L18.7421 8.31904C19.8936 9.72038 19.852 11.2055 18.7811 12.2796L16.7798 14.2808C16.4867 14.5734 16.0118 14.573 15.7192 14.2799C15.4265 13.9867 15.427 13.5118 15.7201 13.2192L17.7189 11.2204C18.2039 10.734 18.26 10.1301 17.6791 9.38208L9.06198 17.9987C8.7851 18.2755 8.44076 18.4754 8.063 18.5784L2.94731 19.9736C2.38744 20.1263 1.87371 19.6125 2.0264 19.0527L3.42159 13.937C3.52462 13.5592 3.72444 13.2149 4.00132 12.938L13.9696 2.96967C15.3671 1.5722 17.6328 1.5722 19.0303 2.96967ZM15.0303 4.03033L5.06198 13.9987C4.96969 14.0909 4.90308 14.2057 4.86874 14.3316L3.81889 18.1811L7.66833 17.1312C7.79425 17.0969 7.90903 17.0303 8.00132 16.938L17.9696 6.96967C18.7813 6.15799 18.7813 4.842 17.9696 4.03033C17.158 3.21865 15.842 3.21865 15.0303 4.03033Z" fill="black"/>
</svg>
