<svg width="24" height="24" viewBox="0 0 24 24" fill="none" xmlns="http://www.w3.org/2000/svg">
<path d="M9.8361 2.03416C9.94862 2.07244 10.0585 2.11797 10.1652 2.17047L11.4479 2.80201C11.796 2.97341 12.204 2.97341 12.5522 2.80201L13.8349 2.17047C15.1975 1.4996 16.8459 2.06036 17.5168 3.42295L17.5903 3.58527L17.6531 3.75201L18.1136 5.10561C18.2385 5.47298 18.527 5.76148 18.8944 5.88645L20.248 6.34691C21.6859 6.83604 22.455 8.39817 21.9658 9.83604C21.9276 9.94855 21.882 10.0585 21.8295 10.1651L21.198 11.4478C21.0266 11.796 21.0266 12.204 21.198 12.5521L21.8295 13.8348C22.5004 15.1974 21.9396 16.8459 20.5771 17.5167C20.4704 17.5692 20.3605 17.6148 20.248 17.653L18.8944 18.1135C18.527 18.2385 18.2385 18.527 18.1136 18.8943L17.6531 20.2479C17.164 21.6858 15.6018 22.4549 14.164 21.9658C14.0514 21.9275 13.9415 21.882 13.8349 21.8295L12.5522 21.1979C12.204 21.0265 11.796 21.0265 11.4479 21.1979L10.1652 21.8295C8.80257 22.5003 7.15414 21.9396 6.48327 20.577C6.43078 20.4704 6.38525 20.3605 6.34697 20.2479L5.88651 18.8943C5.76154 18.527 5.47304 18.2385 5.10567 18.1135L3.75207 17.653C2.31421 17.1639 1.5451 15.6018 2.03422 14.1639C2.0725 14.0514 2.11803 13.9415 2.17053 13.8348L2.80207 12.5521C2.97348 12.204 2.97348 11.796 2.80207 11.4478L2.17053 10.1651C1.49966 8.80251 2.06042 7.15408 3.42301 6.48321C3.52964 6.43072 3.63955 6.38519 3.75207 6.34691L5.10567 5.88645C5.47304 5.76148 5.76154 5.47298 5.88651 5.10561L6.34697 3.75201C6.8361 2.31415 8.39823 1.54504 9.8361 2.03416ZM7.76706 4.23509L7.3066 5.58869C7.03166 6.3969 6.39696 7.0316 5.58875 7.30654L4.23515 7.76699C4.184 7.78439 4.13404 7.80509 4.08557 7.82895C3.46622 8.13389 3.21133 8.88318 3.51626 9.50254L4.14781 10.7853C4.5249 11.5512 4.5249 12.4488 4.14781 13.2147L3.51626 14.4974C3.4924 14.5459 3.47171 14.5958 3.45431 14.647C3.23198 15.3006 3.58157 16.0106 4.23515 16.2329L5.58875 16.6934C6.39696 16.9683 7.03166 17.603 7.3066 18.4113L7.76706 19.7649C7.78445 19.816 7.80515 19.866 7.82901 19.9144C8.13395 20.5338 8.88324 20.7887 9.5026 20.4837L10.7853 19.8522C11.5512 19.4751 12.4488 19.4751 13.2147 19.8522L14.4975 20.4837C14.5459 20.5076 14.5959 20.5283 14.647 20.5457C15.3006 20.768 16.0107 20.4184 16.233 19.7649L16.6935 18.4113C16.9684 17.603 17.6031 16.9683 18.4113 16.6934L19.7649 16.2329C19.8161 16.2156 19.866 16.1949 19.9145 16.171C20.5338 15.8661 20.7887 15.1168 20.4838 14.4974L19.8523 13.2147C19.4752 12.4488 19.4752 11.5512 19.8523 10.7853L20.4838 9.50254C20.5077 9.45407 20.5284 9.40411 20.5458 9.35296C20.7681 8.69939 20.4185 7.98932 19.7649 7.76699L18.4113 7.30654C17.6031 7.0316 16.9684 6.3969 16.6935 5.58869L16.233 4.23509L16.2045 4.1593L16.1711 4.08551L16.1088 3.9737C15.773 3.43648 15.0781 3.23032 14.4975 3.5162L13.2147 4.14775C12.4488 4.52484 11.5512 4.52484 10.7853 4.14775L9.5026 3.5162C9.45413 3.49234 9.40417 3.47164 9.35302 3.45425C8.69945 3.23192 7.98939 3.58151 7.76706 4.23509ZM10.0504 14.3889L15.4697 8.96964C15.7626 8.67675 16.2375 8.67675 16.5304 8.96964C16.7966 9.23591 16.8208 9.65257 16.603 9.94618L16.5304 10.0303L10.5304 16.0303C10.2445 16.3162 9.7902 16.3205 9.49899 16.0582L9.42387 15.9801L6.92387 12.9801C6.65869 12.6619 6.70169 12.189 7.01989 11.9238C7.30917 11.6827 7.72632 11.6964 7.999 11.9399L8.0762 12.0198L10.0504 14.3889L15.4697 8.96964L10.0504 14.3889Z" fill="black"/>
</svg>
