<svg width="24" height="24" viewBox="0 0 24 24" fill="none" xmlns="http://www.w3.org/2000/svg">
<path d="M13.3781 3.02627C14.7798 3.10147 16.1492 3.5041 17.391 4.22105C21.6975 6.70741 23.173 12.2141 20.6866 16.5206C18.2003 20.8271 12.6936 22.3026 8.38707 19.8163C7.2143 19.1392 6.22702 18.2232 5.47506 17.1312C5.22365 16.7661 5.38627 16.2619 5.80362 16.1126C9.19524 14.8987 11.0118 13.4919 12.0659 11.4798C13.1756 9.36153 13.4623 7.04117 12.686 3.86058C12.5787 3.42078 12.9261 3.00202 13.3781 3.02627ZM14.3892 4.66388L14.454 5.05331C14.8713 7.75843 14.5191 10.0293 13.3946 12.1759C12.2527 14.3556 10.3943 15.8798 7.3787 17.1156C7.88685 17.6646 8.47755 18.1364 9.13707 18.5172C12.7261 20.5894 17.3154 19.3597 19.3876 15.7706C21.4597 12.1815 20.23 7.59224 16.641 5.52009C16.1356 5.22834 15.6042 4.99837 15.0555 4.83232L14.7242 4.74038L14.3892 4.66388ZM10.9937 3.65321L11 3.75192V9C11 10.1046 10.1046 11 9 11C7.89543 11 7 10.1046 7 9C7 7.89543 7.89543 7 9 7C9.17302 7 9.3409 7.02197 9.50102 7.06327L9.5 4.76403L6 5.82884V10C6 11.1046 5.10457 12 4 12C2.89543 12 2 11.1046 2 10C2 8.89543 2.89543 8 4 8C4.17302 8 4.3409 8.02197 4.50102 8.06327L4.5 5.27308C4.5 4.97963 4.67056 4.71685 4.93029 4.59459L5.03171 4.55555L10.0317 3.03439C10.4493 2.90735 10.8704 3.16119 10.9752 3.55897L10.9937 3.65321Z" fill="black"/>
</svg>
