<svg width="24" height="24" viewBox="0 0 24 24" fill="none" xmlns="http://www.w3.org/2000/svg">
<path d="M19.25 4C20.4926 4 21.5 5.00736 21.5 6.25V17.75C21.5 18.9926 20.4926 20 19.25 20H4.25C3.00736 20 2 18.9926 2 17.75V6.25C2 5.00736 3.00736 4 4.25 4H19.25ZM19.25 5.5H4.25C3.83579 5.5 3.5 5.83579 3.5 6.25V17.75C3.5 18.1642 3.83579 18.5 4.25 18.5H19.25C19.6642 18.5 20 18.1642 20 17.75V6.25C20 5.83579 19.6642 5.5 19.25 5.5ZM11.75 8C12.1642 8 12.5 8.33579 12.5 8.75V11.25H15C15.4142 11.25 15.75 11.5858 15.75 12C15.75 12.4142 15.4142 12.75 15 12.75H12.5V15.25C12.5 15.6642 12.1642 16 11.75 16C11.3358 16 11 15.6642 11 15.25V12.75H8.5C8.08579 12.75 7.75 12.4142 7.75 12C7.75 11.5858 8.08579 11.25 8.5 11.25H11V8.75C11 8.33579 11.3358 8 11.75 8Z" fill="black"/>
</svg>
