<svg width="24" height="24" viewBox="0 0 24 24" fill="none" xmlns="http://www.w3.org/2000/svg">
<path d="M8.24447 13.0035C8.82265 13.0035 9.17004 13.6219 8.90604 14.1076L8.84928 14.197L4.22696 20.499L8.24447 20.4993C8.62417 20.4993 8.93796 20.7815 8.98762 21.1475L8.99447 21.2493C8.99447 21.629 8.71232 21.9428 8.34624 21.9925L8.24447 21.9993H2.7478C2.16962 21.9993 1.82224 21.3809 2.08623 20.8951L2.14299 20.8058L6.76396 14.503L2.74876 14.5035C2.36906 14.5035 2.05526 14.2213 2.0056 13.8552L1.99876 13.7535C1.99876 13.3738 2.28091 13.06 2.64699 13.0103L2.74876 13.0035H8.24447ZM21.2521 2.00069C21.8514 2.00069 22.1949 2.65973 21.8907 3.14492L21.8302 3.22857L13.339 13.497L21.2521 13.4971C21.6318 13.4971 21.9456 13.7792 21.9953 14.1453L22.0021 14.2471C22.0021 14.6268 21.72 14.9406 21.3539 14.9902L21.2521 14.9971H11.7478C11.1485 14.9971 10.805 14.338 11.1093 13.8528L11.1698 13.7692L19.659 3.5L11.7478 3.50069C11.3681 3.50069 11.0543 3.21853 11.0047 2.85246L10.9978 2.75069C10.9978 2.37099 11.28 2.0572 11.646 2.00753L11.7478 2.00069H21.2521Z" fill="black"/>
</svg>
