<svg width="24" height="24" viewBox="0 0 24 24" fill="none" xmlns="http://www.w3.org/2000/svg">
<path d="M21.7803 2.21967C22.0466 2.48594 22.0708 2.9026 21.8529 3.19621L21.7803 3.28033L19.5285 5.531C19.7712 5.54047 20.0047 5.66741 20.1405 5.89034C21.377 7.92009 22.0015 9.97007 22.0015 12.0305C22.0015 14.091 21.377 16.141 20.1405 18.1707C19.925 18.5245 19.4635 18.6365 19.1098 18.421C18.7561 18.2055 18.644 17.7441 18.8595 17.3903C19.9583 15.5868 20.5015 13.8034 20.5015 12.0305C20.5015 10.2577 19.9583 8.47433 18.8595 6.67074C18.7905 6.55743 18.755 6.43307 18.7504 6.30928L15 10.06V19.7518C15 20.4422 14.4404 21.0018 13.75 21.0018C13.4542 21.0018 13.168 20.8969 12.9423 20.7058L8.292 16.768L3.28033 21.7803C3.01406 22.0466 2.5974 22.0708 2.30379 21.8529L2.21967 21.7803C1.9534 21.5141 1.9292 21.0974 2.14705 20.8038L2.21967 20.7197L20.7197 2.21967C21.0126 1.92678 21.4874 1.92678 21.7803 2.21967ZM13.5 11.56L9.356 15.704L13.5 19.2125V11.56ZM14.7041 3.44264C14.8952 3.66835 15 3.95447 15 4.25017V5.814L13.5 7.314V4.78928L8.52478 9H4.25C3.83579 9 3.5 9.33579 3.5 9.75V14.25C3.5 14.6642 3.83579 15 4.25 15L5.815 14.999L4.315 16.499L4.25 16.5C3.00736 16.5 2 15.4926 2 14.25V9.75C2 8.50736 3.00736 7.5 4.25 7.5H7.97522L12.9425 3.29603C13.4694 2.85004 14.2582 2.91568 14.7041 3.44264ZM18.1344 8.88981C18.7083 9.82994 18.9957 10.882 18.9957 12.0305C18.9957 13.1791 18.7083 14.2311 18.1344 15.1713C17.9187 15.5248 17.4571 15.6365 17.1035 15.4207C16.75 15.2049 16.6383 14.7434 16.8541 14.3898C17.2822 13.6883 17.4957 12.907 17.4957 12.0305C17.4957 11.154 17.2822 10.3728 16.8541 9.67127C16.6383 9.31771 16.75 8.85615 17.1035 8.64036C17.4571 8.42457 17.9187 8.53625 18.1344 8.88981Z" fill="black"/>
</svg>
