<svg width="24" height="24" viewBox="0 0 24 24" fill="none" xmlns="http://www.w3.org/2000/svg">
<path d="M14.7041 3.44085C14.8952 3.66656 15 3.95268 15 4.24838V19.75C15 20.4404 14.4404 21 13.75 21C13.4542 21 13.168 20.8951 12.9423 20.704L7.97513 16.4982H4.25C3.00736 16.4982 2 15.4908 2 14.2482V9.74821C2 8.50557 3.00736 7.49821 4.25 7.49821H7.97522L12.9425 3.29423C13.4694 2.84825 14.2582 2.91389 14.7041 3.44085ZM13.5 4.78748L8.52478 8.99821H4.25C3.83579 8.99821 3.5 9.33399 3.5 9.74821V14.2482C3.5 14.6624 3.83579 14.9982 4.25 14.9982H8.52487L13.5 19.2108V4.78748Z" fill="black"/>
</svg>
