<svg width="24" height="24" viewBox="0 0 24 24" fill="none" xmlns="http://www.w3.org/2000/svg">
<path d="M16.5 11C16.7931 11 17.0806 11.0245 17.3608 11.0717L17.5341 11.7878C17.7931 12.8616 18.8735 13.5221 19.9473 13.2631L20.0451 13.2369L20.6462 13.058C21.0087 13.525 21.2991 14.0545 21.4998 14.6285L21.0526 15.0588C20.2566 15.8246 20.2322 17.0907 20.9981 17.8867L21.0526 17.9412L21.4998 18.3714C21.2993 18.945 21.0091 19.4742 20.6469 19.9409L20.0451 19.7631C18.9858 19.4501 17.8733 20.0551 17.5603 21.1144L17.5341 21.2122L17.3608 21.9282C17.0806 21.9754 16.7931 22 16.5 22C16.2066 22 15.9188 21.9754 15.6383 21.9281L15.4659 21.2122C15.2069 20.1384 14.1265 19.4779 13.0527 19.7368L12.9549 19.7631L12.3531 19.9409C11.9909 19.4742 11.7007 18.945 11.5002 18.3714L11.9474 17.9412C12.7434 17.1753 12.7678 15.9092 12.0019 15.1133L11.9474 15.0588L11.5002 14.6285C11.7007 14.055 11.9909 13.5258 12.3531 13.059L12.9549 13.2369C14.0142 13.5499 15.1267 12.9449 15.4397 11.8856L15.4659 11.7878L15.6383 11.0719C15.9188 11.0246 16.2066 11 16.5 11ZM16.5 15C15.6994 15 15.0503 15.6716 15.0503 16.5C15.0503 17.3284 15.6994 18 16.5 18C17.3006 18 17.9497 17.3284 17.9497 16.5C17.9497 15.6716 17.3006 15 16.5 15ZM12.627 2.50169C12.8656 2.73665 13 3.05752 13 3.3924L12.9998 11.0219C12.4339 11.3843 11.9278 11.8319 11.4997 12.3468L11.5 4.00262L7.56407 7.99998H4.25C3.83579 7.99998 3.5 8.33577 3.5 8.74998V11.25C3.5 11.6642 3.83579 12 4.25 12H7.56417L10.2455 14.7244C10.0856 15.2887 10 15.8844 10 16.5L10.002 16.6144L6.93583 13.5H4.25C3.00736 13.5 2 12.4926 2 11.25V8.74998C2 7.50734 3.00736 6.49998 4.25 6.49998H6.93593L10.8593 2.51538C11.3437 2.02346 12.1351 2.01733 12.627 2.50169Z" fill="black"/>
</svg>
