<svg width="24" height="24" viewBox="0 0 24 24" fill="none" xmlns="http://www.w3.org/2000/svg">
<path d="M14.7041 3.44265C14.8952 3.66836 15 3.95448 15 4.25018V19.7518C15 20.4422 14.4404 21.0018 13.75 21.0018C13.4542 21.0018 13.168 20.8969 12.9423 20.7058L7.97513 16.5H4.25C3.00736 16.5 2 15.4926 2 14.25V9.75001C2 8.50737 3.00736 7.50001 4.25 7.50001H7.97522L12.9425 3.29603C13.4694 2.85005 14.2582 2.91569 14.7041 3.44265ZM13.5 4.78928L8.52478 9.00001H4.25C3.83579 9.00001 3.5 9.33579 3.5 9.75001V14.25C3.5 14.6642 3.83579 15 4.25 15H8.52487L13.5 19.2126V4.78928ZM17.5 9.89572V6.75001C17.5 6.10321 18.2521 5.7751 18.725 6.16891L18.8011 6.2413L21.8011 9.4913C22.0679 9.78037 22.063 10.2203 21.8063 10.5032L21.7301 10.5762L20.0221 11.9993L21.7304 13.424C22.0323 13.6759 22.0846 14.1124 21.8672 14.4263L21.8012 14.5086L18.8012 17.7601C18.3626 18.2355 17.5872 17.9665 17.5068 17.3563L17.5 17.2515V14.1006L17.2334 14.3228C16.9152 14.5879 16.4423 14.5449 16.1771 14.2266C15.9361 13.9373 15.9497 13.5202 16.1933 13.2475L16.2732 13.1703L17.5 12.1482V11.849L16.2729 10.8255C15.9549 10.5602 15.9121 10.0873 16.1774 9.7692C16.4186 9.48002 16.8313 9.41837 17.1434 9.60888L17.2337 9.67362L17.5 9.89572V6.75001V9.89572ZM19 13.1V15.3326L20.1641 14.0709L19 13.1ZM19 8.66824V10.8985L20.1637 9.9289L19 8.66824Z" fill="black"/>
</svg>
