<svg width="24" height="24" viewBox="0 0 24 24" fill="none" xmlns="http://www.w3.org/2000/svg">
<path d="M17.5 12C20.5375 12 23 14.4624 23 17.5C23 20.5375 20.5375 23 17.5 23C14.4624 23 12 20.5375 12 17.5C12 14.4624 14.4624 12 17.5 12ZM12.6728 2.75961L15.3563 8.20791L21.3672 9.07651C21.9828 9.16546 22.2289 9.92191 21.7834 10.356L20.415 11.6887C19.9202 11.44 19.3893 11.2527 18.8322 11.1366L19.6468 10.3435L14.7508 9.63599C14.5061 9.60063 14.2945 9.44691 14.1853 9.2251L12 4.78838L9.81467 9.2251C9.70542 9.44691 9.49385 9.60063 9.24912 9.63599L4.35426 10.3433L7.89853 13.7927C8.07573 13.9651 8.15654 14.2138 8.11455 14.4575L7.27466 19.3314L11.0013 17.3687C11.0004 17.4123 11 17.4561 11 17.5C11 18.0076 11.0582 18.5016 11.1682 18.9758L6.6265 21.3682C6.07602 21.6581 5.4322 21.1904 5.53786 20.5772L6.56925 14.5921L2.21687 10.3563C1.771 9.92234 2.01692 9.16549 2.63269 9.07651L8.6436 8.20791L11.3272 2.75961C11.6021 2.20147 12.3979 2.20147 12.6728 2.75961ZM17.5 13.9992L17.4101 14.0073C17.206 14.0443 17.0451 14.2052 17.008 14.4093L17 14.4992L16.9996 16.9992L14.4976 17L14.4077 17.008C14.2037 17.0451 14.0427 17.206 14.0057 17.4101L13.9976 17.5L14.0057 17.5898C14.0427 17.7939 14.2037 17.9549 14.4077 17.9919L14.4976 18L17.0006 17.9992L17.0011 20.5035L17.0091 20.5933C17.0462 20.7974 17.2071 20.9584 17.4112 20.9954L17.5011 21.0035L17.591 20.9954C17.795 20.9584 17.956 20.7974 17.993 20.5933L18.0011 20.5035L18.0006 17.9992L20.5045 18L20.5944 17.9919C20.7985 17.9549 20.9594 17.7939 20.9965 17.5898L21.0045 17.5L20.9965 17.4101C20.9594 17.206 20.7985 17.0451 20.5944 17.008L20.5045 17L17.9996 16.9992L18 14.4992L17.9919 14.4093C17.9549 14.2052 17.7939 14.0443 17.5898 14.0073L17.5 13.9992Z" fill="black"/>
</svg>
