<svg width="24" height="24" viewBox="0 0 24 24" fill="none" xmlns="http://www.w3.org/2000/svg">
<path d="M15.1501 7.788L20.7196 2.21967C21.0125 1.92678 21.4874 1.92678 21.7803 2.21967C22.0466 2.48594 22.0708 2.9026 21.8529 3.19621L21.7803 3.28033L16.6641 8.396L21.3672 9.07654C21.9828 9.16549 22.2289 9.92194 21.7834 10.356L17.4358 14.5921L18.4622 20.5779C18.5673 21.1908 17.9237 21.658 17.3734 21.3682L12 18.5378L6.6265 21.3682C6.07602 21.6582 5.4322 21.1904 5.53786 20.5773L5.75714 19.303L3.2803 21.7803C3.01404 22.0466 2.59737 22.0708 2.30376 21.8529L2.21964 21.7803C1.95337 21.5141 1.92917 21.0974 2.14702 20.8038L2.21964 20.7197L20.7196 2.21967L15.1501 7.788ZM15.3391 9.721L7.59614 17.464L7.27466 19.3314L11.6504 17.0265C11.8692 16.9113 12.1307 16.9113 12.3495 17.0265L16.7267 19.3322L15.8908 14.4569C15.849 14.2136 15.9297 13.9653 16.1066 13.793L19.6468 10.3435L15.3391 9.721ZM12.6728 2.75964L14.4491 6.36503L13.3281 7.48603L12 4.78841L9.81467 9.22512C9.70542 9.44694 9.49385 9.60066 9.24912 9.63602L4.35426 10.3433L7.45414 13.36L6.39314 14.421L2.21687 10.3563C1.771 9.92237 2.01692 9.16552 2.63269 9.07654L8.6436 8.20794L11.3272 2.75964C11.6021 2.2015 12.3979 2.2015 12.6728 2.75964Z" fill="black"/>
</svg>
