<svg width="24" height="24" viewBox="0 0 24 24" fill="none" xmlns="http://www.w3.org/2000/svg">
<path d="M8.6436 8.20791L11.3272 2.75961C11.6021 2.20147 12.3979 2.20147 12.6728 2.75961L15.3563 8.20791L21.3672 9.07651C21.9828 9.16546 22.2289 9.92191 21.7834 10.356L17.4358 14.5921L18.4622 20.5778C18.5673 21.1908 17.9237 21.658 17.3734 21.3682L12 18.5378L6.6265 21.3682C6.07602 21.6581 5.4322 21.1904 5.53786 20.5772L6.56925 14.5921L2.21687 10.3563C1.771 9.92234 2.01692 9.16549 2.63269 9.07651L8.6436 8.20791ZM12 4.78838L9.81467 9.2251C9.70542 9.44691 9.49385 9.60063 9.24912 9.63599L4.35426 10.3433L7.89853 13.7927C8.07573 13.9651 8.15654 14.2138 8.11455 14.4575L7.27466 19.3314L11.6504 17.0265C11.8692 16.9113 12.1307 16.9113 12.3495 17.0265L16.7267 19.3321L15.8908 14.4569C15.849 14.2136 15.9297 13.9653 16.1066 13.793L19.6468 10.3435L14.7508 9.63599C14.5061 9.60063 14.2945 9.44691 14.1853 9.2251L12 4.78838Z" fill="black"/>
</svg>
