<svg width="24" height="24" viewBox="0 0 24 24" fill="none" xmlns="http://www.w3.org/2000/svg">
<path d="M12 2.99999C13.1135 2.99999 14.1797 3.20219 15.164 3.57188L13.9808 4.76433C13.3498 4.59199 12.6856 4.49999 12 4.49999C7.85786 4.49999 4.5 7.85785 4.5 12C4.5 13.4249 4.89727 14.7893 5.63583 15.9704C5.93764 16.453 6.29368 16.9002 6.69639 17.303C7.09848 17.7051 7.5449 18.0607 8.02668 18.3623C9.20844 19.1021 10.5739 19.5 12 19.5C16.1421 19.5 19.5 16.1421 19.5 12C19.5 11.3434 19.4156 10.7064 19.2571 10.0995L20.4505 8.89619C20.8059 9.86371 21 10.9092 21 12C21 16.9706 16.9706 21 12 21C10.2904 21 8.64945 20.5218 7.23081 19.6338C6.65294 19.2721 6.1177 18.8457 5.63566 18.3636C5.1529 17.8808 4.72601 17.3446 4.36401 16.7657C3.4774 15.3478 3 13.7082 3 12C3 7.02943 7.02944 2.99999 12 2.99999ZM21.0602 2.67194L21.2062 2.8079C22.2817 3.88404 22.285 5.62714 21.2135 6.70726L14.9096 13.0617C14.7291 13.2437 14.5049 13.3764 14.2585 13.4471L10.0461 14.656C9.78064 14.7321 9.50371 14.5787 9.42754 14.3133C9.40169 14.2232 9.40168 14.1276 9.42752 14.0375L10.6378 9.81788C10.7074 9.57531 10.837 9.35421 11.0147 9.17505L17.3236 2.81514C18.3448 1.78576 19.9803 1.73645 21.0602 2.67194ZM18.3886 3.87152L12.0796 10.2314L11.3669 12.7164L13.8447 12.0053L20.1486 5.65085C20.6057 5.18999 20.6349 4.46511 20.2371 3.97052L20.1415 3.86446C19.6555 3.38236 18.8707 3.38552 18.3886 3.87152Z" fill="black"/>
</svg>
