<svg width="24" height="24" viewBox="0 0 24 24" fill="none" xmlns="http://www.w3.org/2000/svg">
<path d="M18 2C18.1739 2 18.3412 2.06037 18.4743 2.16902L18.5498 2.23991L21.8221 5.76824L21.8528 5.80714C21.9545 5.94281 22.0004 6.09665 22.0004 6.24775L21.9989 8.16674C21.9989 9.16092 21.6204 10.0667 20.9996 10.7478L20.9988 21.25C20.9988 21.6297 20.7166 21.9435 20.3505 21.9932L20.2488 22H3.75126C3.37156 22 3.05777 21.7178 3.0081 21.3518L3.00126 21.25L3.00047 10.7478C2.42742 10.1191 2.06079 9.29893 2.00778 8.39453L2.00112 8.16674L2.00092 6.29097C1.99285 6.15366 2.0225 6.01238 2.09685 5.88313L2.16211 5.78767L2.20129 5.74193L5.45018 2.23991C5.56845 2.11243 5.72652 2.03081 5.89668 2.00715L6.00001 2H18ZM15.082 10.4421L15.07 10.4598C14.3711 11.3944 13.2556 11.9993 11.9988 11.9993C10.735 11.9993 9.61405 11.3876 8.91593 10.4441C8.21847 11.3876 7.09752 11.9993 5.83369 11.9993C5.36459 11.9993 4.91517 11.915 4.49975 11.7608L4.50101 20.499H5.99963L6.00001 13.751C6.00001 13.3713 6.28217 13.0575 6.64824 13.0079L6.75001 13.001H11.246C11.6257 13.001 11.9395 13.2832 11.9891 13.6492L11.996 13.751L11.9956 20.499H19.498L19.4983 11.7615C19.0834 11.9153 18.6347 11.9993 18.1663 11.9993C16.9016 11.9993 15.78 11.3867 15.082 10.4421ZM10.495 14.501H7.50001V20.499H10.495V14.501ZM17.2547 13.001C17.6344 13.001 17.9482 13.2832 17.9979 13.6492L18.0047 13.751V17.253C18.0047 17.6327 17.7226 17.9465 17.3565 17.9962L17.2547 18.003H13.7533C13.3736 18.003 13.0598 17.7209 13.0101 17.3548L13.0033 17.253V13.751C13.0033 13.3713 13.2855 13.0575 13.6515 13.0079L13.7533 13.001H17.2547ZM16.504 14.501H14.503V16.503H16.504V14.501ZM8.16601 7.002H3.50101L3.50112 8.16674L3.50729 8.33777L3.53567 8.569L3.56842 8.72528L3.6178 8.89726L3.67215 9.0451L3.71283 9.1391C3.744 9.20697 3.77833 9.27309 3.81564 9.33727L3.91858 9.49873L3.97286 9.57344L4.10163 9.72909L4.24341 9.87318L4.33965 9.95811L4.38174 9.99243C4.69627 10.2429 5.07698 10.4138 5.49342 10.4747L5.67399 10.4939L5.83369 10.4993C7.06826 10.4993 8.07881 9.54019 8.16088 8.32644L8.16626 8.16674L8.16601 7.002ZM14.331 7.002H9.66601L9.66626 8.16674C9.66626 9.34763 10.5438 10.3236 11.6823 10.478L11.8391 10.4939L11.9988 10.4993C13.2334 10.4993 14.244 9.54019 14.326 8.32644L14.3314 8.16674L14.331 7.002ZM20.498 7.002H15.833L15.8338 8.16674C15.8338 9.34763 16.7113 10.3236 17.8498 10.478L18.0066 10.4939L18.1663 10.4993C18.7306 10.4993 19.2481 10.2989 19.6516 9.96542L19.7413 9.88731L19.8572 9.7736L20.0033 9.60441C20.0574 9.53545 20.1076 9.46337 20.1537 9.38849L20.2573 9.20179L20.3202 9.06383L20.3784 8.90873L20.4082 8.81314L20.4464 8.66108L20.4748 8.50352L20.4928 8.33678L20.4989 8.16674L20.498 7.002ZM9.06163 3.499H6.32701L4.46901 5.502H8.44563L9.06163 3.499ZM13.3686 3.499H10.6306L10.0146 5.502H13.9846L13.3686 3.499ZM17.672 3.499H14.9376L15.5536 5.502H19.53L17.672 3.499Z" fill="black"/>
</svg>
