<svg width="24" height="24" viewBox="0 0 24 24" fill="none" xmlns="http://www.w3.org/2000/svg">
<path d="M14.0358 2.7775C15.5028 2.38441 17.0107 3.25501 17.4038 4.72204L20.1214 14.8643C20.5145 16.3313 19.6439 17.8392 18.1769 18.2323L11.8984 19.9146C10.4313 20.3077 8.92342 19.4371 8.53033 17.9701L5.81273 7.82787C5.41964 6.36084 6.29024 4.85291 7.75727 4.45982L14.0358 2.7775ZM5.80272 11.658L7.5644 18.2289C7.74537 18.9043 8.09961 19.487 8.56649 19.9419L8.12364 19.9181C6.60694 19.8386 5.44184 18.5447 5.52133 17.028L5.80272 11.658ZM14.424 4.22638L8.1455 5.90871C7.47867 6.08739 7.08294 6.77281 7.26162 7.43964L9.97922 17.5819C10.1579 18.2487 10.8433 18.6444 11.5101 18.4657L17.7887 16.7834C18.4555 16.6047 18.8512 15.9193 18.6725 15.2525L15.9549 5.11027C15.7763 4.44344 15.0908 4.04771 14.424 4.22638ZM4.87813 10.1798L4.5227 16.9756C4.48608 17.6743 4.64315 18.3384 4.94696 18.9156L4.53256 18.755C3.11466 18.2107 2.40645 16.6201 2.95073 15.2021L4.87813 10.1798ZM9.74114 7.03407C10.2746 6.89113 10.8229 7.20771 10.9659 7.74118C11.1088 8.27465 10.7922 8.82298 10.2588 8.96593C9.72531 9.10887 9.17697 8.79228 9.03403 8.25882C8.89109 7.72535 9.20767 7.17702 9.74114 7.03407Z" fill="black"/>
</svg>
