<svg width="24" height="24" viewBox="0 0 24 24" fill="none" xmlns="http://www.w3.org/2000/svg">
<path fill-rule="evenodd" clip-rule="evenodd" d="M6.25 3C4.45507 3 3 4.45507 3 6.25V17.75C3 19.5449 4.45507 21 6.25 21H17.75C19.5449 21 21 19.5449 21 17.75V6.25C21 4.45507 19.5449 3 17.75 3H6.25ZM4.5 6.25C4.5 5.2835 5.2835 4.5 6.25 4.5H11.25V7H9.75C8.23122 7 7 8.23122 7 9.75V11.25H4.5V6.25ZM7 12.75H4.5V17.75C4.5 18.7165 5.2835 19.5 6.25 19.5H11.25V17H9.75C8.23122 17 7 15.7688 7 14.25V12.75ZM11.25 15.5H9.75C9.05964 15.5 8.5 14.9404 8.5 14.25V12.75H11.25V15.5ZM12.75 17V19.5H17.75C18.7165 19.5 19.5 18.7165 19.5 17.75V12.75H17V14.25C17 15.7688 15.7688 17 14.25 17H12.75ZM15.5 12.75V14.25C15.5 14.9404 14.9404 15.5 14.25 15.5H12.75V12.75H15.5ZM17 11.25H19.5V6.25C19.5 5.2835 18.7165 4.5 17.75 4.5H12.75V7H14.25C15.7688 7 17 8.23122 17 9.75V11.25ZM12.75 8.5H14.25C14.9404 8.5 15.5 9.05964 15.5 9.75V11.25H12.75V8.5ZM11.25 8.5V11.25H8.5V9.75C8.5 9.05964 9.05964 8.5 9.75 8.5H11.25Z" fill="black"/>
</svg>
