<svg width="24" height="24" viewBox="0 0 24 24" fill="none" xmlns="http://www.w3.org/2000/svg">
<path d="M19.25 1.99985C19.661 1.99985 19.9885 2.32848 19.9998 2.72733L19.9959 2.82836L18.9959 12.3284C18.9594 12.6754 18.69 12.9464 18.353 12.9928L18.25 12.9998H17.5212L18.9881 21.1181L18.9994 21.2194C19.0156 21.5885 18.757 21.9219 18.3833 21.9894C18.0097 22.0569 17.6507 21.835 17.5368 21.4836L17.512 21.3847L16.9002 17.9998H14.1032L13.4958 21.3841C13.4226 21.7917 13.0327 22.0628 12.625 21.9895C12.2513 21.9224 11.9923 21.5892 12.0082 21.2201L12.0195 21.1187L12.5792 17.9998H8.10324L7.49584 21.3841C7.42256 21.7917 7.03266 22.0628 6.62498 21.9895C6.25128 21.9224 5.99235 21.5892 6.00824 21.2201L6.0195 21.1187L7.47824 12.9998H4.75002C4.339 12.9998 4.01153 12.6712 4.00024 12.2724L4.00414 12.1713L5.00414 2.67133C5.04067 2.32432 5.31001 2.05329 5.64705 2.00688L5.75002 1.99985H19.25ZM13.4782 12.9998H9.00224L8.37324 16.4998H12.8492L13.4782 12.9998ZM15.9962 12.9998H15.0022L14.3732 16.4998H16.6282L15.9962 12.9998ZM18.417 3.49985H6.42402L5.58202 11.4998H17.575L18.417 3.49985Z" fill="black"/>
</svg>
