<svg width="24" height="24" viewBox="0 0 24 24" fill="none" xmlns="http://www.w3.org/2000/svg">
<path d="M17.3546 10.1468C18.5947 11.3891 19.9689 12 21.5 12C21.7455 12 21.9496 12.1769 21.9919 12.4101L22 12.5V15.5013C22 18.7196 20.3587 20.9075 17.1581 21.9743C17.0555 22.0086 16.9445 22.0086 16.8419 21.9743C13.7382 20.9398 12.1009 18.8512 12.0045 15.791L12 15.5013V12.5C12 12.2239 12.2239 12 12.5 12C14.0292 12 15.4042 11.389 16.6473 10.1464C16.8427 9.95105 17.1595 9.95123 17.3546 10.1468ZM18.25 2C19.7125 2 20.9084 3.1417 20.995 4.58248L21 4.75L21.0007 10.9728C20.4795 10.9151 19.9811 10.7649 19.5004 10.5181L19.5 4.75C19.5 4.10279 19.0081 3.57047 18.3778 3.50645L18.25 3.5H4.75C4.10279 3.5 3.57047 3.99187 3.50645 4.62219L3.5 4.75V18.25C3.5 18.8972 3.99187 19.4295 4.62219 19.4935L4.75 19.5L11.9962 19.5011C12.317 20.0526 12.7138 20.5533 13.1846 21.001L4.75 21C3.28747 21 2.0916 19.8583 2.00502 18.4175L2 18.25V4.75C2 3.28747 3.1417 2.0916 4.58248 2.00502L4.75 2H18.25ZM14.9657 13.8386L14.8964 13.8964L14.8386 13.9657C14.7205 14.1362 14.7205 14.3638 14.8386 14.5343L14.8964 14.6036L16.293 16L14.8964 17.3964L14.8386 17.4657C14.7205 17.6362 14.7205 17.8638 14.8386 18.0343L14.8964 18.1036L14.9657 18.1614C15.1362 18.2795 15.3638 18.2795 15.5343 18.1614L15.6036 18.1036L17 16.707L18.3964 18.1036L18.4657 18.1614C18.6362 18.2795 18.8638 18.2795 19.0343 18.1614L19.1036 18.1036L19.1614 18.0343C19.2795 17.8638 19.2795 17.6362 19.1614 17.4657L19.1036 17.3964L17.707 16L19.1036 14.6036L19.1614 14.5343C19.2795 14.3638 19.2795 14.1362 19.1614 13.9657L19.1036 13.8964L19.0343 13.8386C18.8638 13.7205 18.6362 13.7205 18.4657 13.8386L18.3964 13.8964L17 15.293L15.6036 13.8964L15.5343 13.8386C15.3882 13.7373 15.2001 13.7229 15.0419 13.7952L14.9657 13.8386Z" fill="black"/>
</svg>
