<svg width="24" height="24" viewBox="0 0 24 24" fill="none" xmlns="http://www.w3.org/2000/svg">
<path d="M16.5001 11C19.5376 11 22.0001 13.4624 22.0001 16.5C22.0001 19.5376 19.5376 22 16.5001 22C13.4625 22 11.0001 19.5376 11.0001 16.5C11.0001 13.4624 13.4625 11 16.5001 11ZM18.2496 1.99957C19.7122 1.99957 20.908 3.14128 20.9946 4.58205L20.9996 4.74957L21.0009 11.8104C20.5565 11.3837 20.0515 11.0197 19.5003 10.7323L19.4996 4.74957C19.4996 4.10236 19.0078 3.57004 18.3774 3.50603L18.2496 3.49957H4.74963C4.10242 3.49957 3.5701 3.99145 3.50609 4.62177L3.49963 4.74957V18.2496C3.49963 18.8968 3.99151 19.4291 4.62183 19.4931L4.74963 19.4996L10.7324 19.5002C11.0197 20.0515 11.3838 20.5564 11.8104 21.0008L4.74963 20.9996C3.2871 20.9996 2.09123 19.8579 2.00465 18.4171L1.99963 18.2496V4.74957C1.99963 3.28704 3.14134 2.09117 4.58211 2.00459L4.74963 1.99957H18.2496ZM16.5002 12.9984C16.2241 12.9984 16.0002 13.2223 16.0002 13.4984L16.0001 15.999L13.5015 15.9985C13.2254 15.9985 13.0015 16.2224 13.0015 16.4985C13.0015 16.7747 13.2254 16.9985 13.5015 16.9985L16.0001 16.999L16.0002 19.5026C16.0002 19.7787 16.2241 20.0026 16.5002 20.0026C16.7764 20.0026 17.0002 19.7787 17.0002 19.5026L17.0001 16.999L19.5042 17.0003C19.7804 17.0003 20.0042 16.7764 20.0042 16.5003C20.0042 16.2241 19.7804 16.0003 19.5042 16.0003L17.0001 15.999L17.0002 13.4984C17.0002 13.2223 16.7764 12.9984 16.5002 12.9984Z" fill="black"/>
</svg>
