<svg width="24" height="24" viewBox="0 0 24 24" fill="none" xmlns="http://www.w3.org/2000/svg">
<path d="M16.4994 10.9994C19.537 10.9994 21.9994 13.4618 21.9994 16.4994C21.9994 19.537 19.537 21.9994 16.4994 21.9994C13.4618 21.9994 10.9994 19.537 10.9994 16.4994C10.9994 13.4618 13.4618 10.9994 16.4994 10.9994ZM18.25 2C19.7125 2 20.9084 3.1417 20.995 4.58248L21 4.75L21.0008 11.8104C20.5566 11.384 20.052 11.02 19.5011 10.7328L19.5 4.75C19.5 4.10279 19.0081 3.57047 18.3778 3.50645L18.25 3.5H4.75C4.10279 3.5 3.57047 3.99187 3.50645 4.62219L3.5 4.75V18.25C3.5 18.8972 3.99187 19.4295 4.62219 19.4935L4.75 19.5L10.7328 19.5011C11.02 20.052 11.384 20.5566 11.8104 21.0008L4.75 21C3.28747 21 2.0916 19.8583 2.00502 18.4175L2 18.25V4.75C2 3.28747 3.1417 2.0916 4.58248 2.00502L4.75 2H18.25ZM15.7186 13.588L15.6494 13.6458L13.1187 16.1794L13.0824 16.2287L13.049 16.2895L13.0199 16.3698L13.0064 16.4414L13.0029 16.4994L13.0105 16.5867L13.0199 16.629L13.0489 16.7092L13.0828 16.7705L13.1337 16.8365L15.6494 19.353C15.8446 19.5482 16.1612 19.5482 16.3565 19.353C16.53 19.1794 16.5493 18.91 16.4143 18.7151L16.3565 18.6458L14.7104 16.9994H19.4994C19.7449 16.9994 19.949 16.8225 19.9913 16.5893L19.9994 16.4994C19.9994 16.2539 19.8225 16.0498 19.5893 16.0075L19.4994 15.9994H14.7104L16.3565 14.353C16.53 14.1794 16.5493 13.91 16.4143 13.7151L16.3565 13.6458C16.1829 13.4723 15.9135 13.453 15.7186 13.588Z" fill="black"/>
</svg>
