<svg width="24" height="24" viewBox="0 0 24 24" fill="none" xmlns="http://www.w3.org/2000/svg">
<path d="M19.2505 1.99957C20.713 1.99957 21.9089 3.14128 21.9955 4.58205L22.0005 4.74957V19.2504C22.0005 20.713 20.8588 21.9088 19.418 21.9954L19.2505 22.0004H4.74963C3.2871 22.0004 2.09123 20.8587 2.00465 19.4179L1.99963 19.2504V4.74957C1.99963 3.28704 3.14134 2.09117 4.58211 2.00459L4.74963 1.99957H19.2505ZM19.2505 3.49957L18.1596 3.49857L4.06535 20.2967C4.22835 20.4035 4.41784 20.4733 4.62183 20.494L4.74963 20.5004L5.85263 20.4996L19.9435 3.70914C19.7786 3.59903 19.5859 3.52712 19.3783 3.50603L19.2505 3.49957ZM20.4996 5.37957L7.81063 20.4996H9.76863L20.4996 7.71057V5.37957ZM20.4996 10.0446L11.7266 20.4996H13.6856L20.4996 12.3796V10.0446ZM20.4996 14.7126L15.6446 20.4996H17.6026L20.4996 17.0466V14.7126ZM19.6045 20.4496C20.0789 20.3097 20.436 19.896 20.4926 19.3914L19.6045 20.4496ZM16.2016 3.49857H14.2436L3.49863 16.3036V18.6366L16.2016 3.49857ZM12.2846 3.49857H10.3266L3.49863 11.6346V13.9696L12.2846 3.49857ZM8.36863 3.49857H6.40863L3.49863 6.96657V9.30157L8.36863 3.49857ZM4.40941 3.54643C3.96517 3.6718 3.62134 4.03659 3.52606 4.49265L3.50563 4.62457L4.40941 3.54643Z" fill="black"/>
</svg>
