<svg width="24" height="24" viewBox="0 0 24 24" fill="none" xmlns="http://www.w3.org/2000/svg">
<path d="M18.25 2C20.2543 2 21.8913 3.57236 21.9948 5.55084L22 5.75V18.25C22 20.2543 20.4276 21.8913 18.4492 21.9948L18.25 22H5.75C3.74574 22 2.10873 20.4276 2.0052 18.4492L2 18.25V5.75C2 3.74574 3.57236 2.10873 5.55084 2.0052L5.75 2H18.25ZM18.25 3.5H5.75C4.55914 3.5 3.58436 4.42516 3.50519 5.59595L3.5 5.75V18.25C3.5 19.4409 4.42516 20.4156 5.59595 20.4948L5.75 20.5H18.25C19.4409 20.5 20.4156 19.5748 20.4948 18.404L20.5 18.25V5.75C20.5 4.55914 19.5748 3.58436 18.404 3.50519L18.25 3.5Z" fill="black"/>
</svg>
