<svg width="24" height="24" viewBox="0 0 24 24" fill="none" xmlns="http://www.w3.org/2000/svg">
<path d="M19.7488 3.99956C20.9915 3.99956 21.9988 5.00692 21.9988 6.24956V17.7518C21.9988 18.9945 20.9915 20.0018 19.7488 20.0018H4.25C3.00736 20.0018 2 18.9945 2 17.7518V6.24956C2 5.00692 3.00736 3.99956 4.25 3.99956H19.7488ZM19.7488 5.49956H4.25C3.83579 5.49956 3.5 5.83534 3.5 6.24956V17.7518C3.5 18.166 3.83579 18.5018 4.25 18.5018H19.7488C20.163 18.5018 20.4988 18.166 20.4988 17.7518V6.24956C20.4988 5.83534 20.163 5.49956 19.7488 5.49956ZM10.25 15.5H13.75C14.1642 15.5 14.5 15.8358 14.5 16.25C14.5 16.6297 14.2178 16.9435 13.8518 16.9931L13.75 17H10.25C9.83579 17 9.5 16.6642 9.5 16.25C9.5 15.8703 9.78215 15.5565 10.1482 15.5068L10.25 15.5H13.75H10.25Z" fill="black"/>
</svg>
