<svg width="24" height="24" viewBox="0 0 24 24" fill="none" xmlns="http://www.w3.org/2000/svg">
<path fill-rule="evenodd" clip-rule="evenodd" d="M3 6.25C3 4.45507 4.45507 3 6.25 3H17.75C19.5449 3 21 4.45507 21 6.25V12.0218C20.5368 11.7253 20.0335 11.4858 19.5 11.3135V10H15.5V11.3135C14.9665 11.4858 14.4632 11.7253 14 12.0218L14 10H10L10 14H12.0218C11.7253 14.4632 11.4858 14.9665 11.3135 15.5H10V19.5H11.3135C11.4858 20.0335 11.7253 20.5368 12.0218 21H6.25C4.45507 21 3 19.5449 3 17.75V6.25ZM6.25 4.5C5.2835 4.5 4.5 5.2835 4.5 6.25V8.5H8.5V4.5H6.25ZM4.5 10H8.5L8.5 14H4.5V10ZM15.5 8.5V4.5H17.75C18.7165 4.5 19.5 5.2835 19.5 6.25V8.5H15.5ZM14 4.5V8.5H10V4.5H14ZM4.5 15.5H8.5V19.5H6.25C5.2835 19.5 4.5 18.7165 4.5 17.75V15.5Z" fill="black"/>
<path fill-rule="evenodd" clip-rule="evenodd" d="M23 17.5C23 20.5376 20.5376 23 17.5 23C14.4624 23 12 20.5376 12 17.5C12 14.4624 14.4624 12 17.5 12C20.5376 12 23 14.4624 23 17.5ZM17.5 16.7929L15.8536 15.1464C15.6583 14.9512 15.3417 14.9512 15.1464 15.1464C14.9512 15.3417 14.9512 15.6583 15.1464 15.8536L16.7929 17.5L15.1464 19.1464C14.9512 19.3417 14.9512 19.6583 15.1464 19.8536C15.3417 20.0488 15.6583 20.0488 15.8536 19.8536L17.5 18.2071L19.1464 19.8536C19.3417 20.0488 19.6583 20.0488 19.8536 19.8536C20.0488 19.6583 20.0488 19.3417 19.8536 19.1464L18.2071 17.5L19.8536 15.8536C20.0488 15.6583 20.0488 15.3417 19.8536 15.1464C19.6583 14.9512 19.3417 14.9512 19.1464 15.1464L17.5 16.7929Z" fill="black"/>
</svg>
