<svg width="24" height="24" viewBox="0 0 24 24" fill="none" xmlns="http://www.w3.org/2000/svg">
<path d="M11.75 7C13.0986 7 13.9287 7.96911 13.9956 9.32894L14 9.50848V11.624L16.2191 12.0269C16.3059 12.0427 16.3921 12.062 16.4774 12.0848C18.1517 12.5321 19.1698 14.2081 18.821 15.884L18.7783 16.0635L17.7302 19.9867C17.5121 20.8028 16.8573 21.4232 16.0413 21.6031L15.876 21.6331L13.4578 21.9801C12.5332 22.1128 11.6296 21.6605 11.1775 20.8567L11.0981 20.7019L11.069 20.6393C10.8342 20.1345 10.4818 19.6948 10.0427 19.3564L9.84929 19.2176L7.96555 17.9618L7.87166 17.9034L7.77427 17.851L5.41136 16.6756C5.16187 16.5515 5.00176 16.2993 4.99559 16.0207C4.97101 14.9121 5.46111 14.0568 6.41454 13.5801C7.11639 13.2291 8.04959 13.249 9.24075 13.5967L9.49995 13.6762V9.50848C9.49995 8.05521 10.3427 7 11.75 7ZM11.75 8.5C11.29 8.5 11.0376 8.77494 11.0038 9.36636L11 9.50848V14.7525C11 15.2865 10.4577 15.6494 9.96406 15.4459C8.50343 14.8436 7.52264 14.7031 7.08536 14.9217C6.83136 15.0487 6.66514 15.2126 6.57557 15.4407L6.53711 15.5603L8.44236 16.508L8.62323 16.6053L8.79761 16.7137L10.6813 17.9695C11.364 18.4247 11.9221 19.0411 12.3072 19.7624L12.4291 20.0067L12.4582 20.0692C12.5822 20.3358 12.8485 20.5023 13.1361 20.5029L13.2447 20.4953L15.663 20.1483C15.9231 20.111 16.1419 19.941 16.2444 19.7046L16.281 19.5995L17.3292 15.6763C17.5786 14.7426 17.0239 13.7834 16.0902 13.5339L16.021 13.5169L13.116 12.988C12.7949 12.9297 12.5528 12.6722 12.5076 12.3571L12.5 12.25V9.50848C12.5 8.81887 12.2453 8.5 11.75 8.5ZM11.7488 2C15.7532 2 18.9994 5.24621 18.9994 9.25062C18.9994 10.2367 18.8026 11.1768 18.446 12.0338C18.0707 11.702 17.6316 11.4335 17.1415 11.2489C17.3733 10.6271 17.4994 9.9536 17.4994 9.25062C17.4994 6.07464 14.9248 3.5 11.7488 3.5C8.57281 3.5 5.99817 6.07464 5.99817 9.25062C5.99817 10.4042 6.33784 11.4784 6.92262 12.3788C6.58489 12.4339 6.26704 12.5358 5.96733 12.6856C5.80637 12.7661 5.65465 12.8551 5.51241 12.9521C4.86867 11.8697 4.49817 10.6034 4.49817 9.25062C4.49817 5.24621 7.74438 2 11.7488 2ZM11.7488 4.50178C14.3715 4.50178 16.4976 6.62791 16.4976 9.25062C16.4976 9.86873 16.3795 10.4593 16.1647 11.0009L15 10.7892V9.50848L14.9959 9.31367L14.9976 9.25062C14.9976 8.57003 14.7883 7.93832 14.4306 7.41633L14.3413 7.28383C13.7833 6.49647 12.8919 6 11.75 6C10.5749 6 9.66514 6.52568 9.11086 7.35305C8.7267 7.88672 8.49995 8.54219 8.49995 9.25062L8.50229 9.36135L8.49995 9.50848V12.3984L8.23783 12.3621C8.00042 12.3324 7.78153 12.2186 7.62089 12.0413C7.20693 11.5844 6.99995 10.6541 6.99995 9.25062C6.99995 6.62791 9.12608 4.50178 11.7488 4.50178Z" fill="black"/>
</svg>
