<svg width="24" height="24" viewBox="0 0 24 24" fill="none" xmlns="http://www.w3.org/2000/svg">
<path d="M11.75 6C13.0987 6 13.9288 6.96911 13.9956 8.32895L14 8.50848V10.624L16.2192 11.0269C16.306 11.0427 16.3921 11.062 16.4774 11.0848C18.1517 11.5321 19.1698 13.2081 18.821 14.884L18.7784 15.0635L17.7302 18.9867C17.5122 19.8028 16.8573 20.4232 16.0413 20.6031L15.8761 20.6331L13.4579 20.9801C12.5333 21.1128 11.6296 20.6605 11.1775 19.8567L11.0982 19.7019L11.0691 19.6393C10.8343 19.1345 10.4818 18.6948 10.0427 18.3564L9.84933 18.2176L7.9656 16.9618L7.87171 16.9034L7.77432 16.851L5.4114 15.6756C5.16192 15.5515 5.00181 15.2993 4.99563 15.0207C4.97105 13.9121 5.46115 13.0568 6.41459 12.5801C7.11643 12.2292 8.04963 12.249 9.24079 12.5967L9.5 12.6762V8.50848C9.5 7.05521 10.3427 6 11.75 6ZM11.75 7.5C11.29 7.5 11.0376 7.77494 11.0039 8.36636L11 8.50848V13.7525C11 14.2865 10.4578 14.6494 9.96411 14.4459C8.50348 13.8436 7.52269 13.7031 7.08541 13.9217C6.8314 14.0487 6.66519 14.2126 6.57561 14.4407L6.53716 14.5603L8.44241 15.508L8.62328 15.6053L8.79765 15.7137L10.6814 16.9695C11.3641 17.4247 11.9222 18.0411 12.3072 18.7624L12.4291 19.0067L12.4582 19.0692C12.5823 19.3358 12.8485 19.5023 13.1362 19.5029L13.2448 19.4953L15.663 19.1483C15.9232 19.111 16.1419 18.941 16.2445 18.7046L16.2811 18.5995L17.3292 14.6763C17.5787 13.7426 17.024 12.7834 16.0902 12.5339L16.021 12.517L13.116 11.988C12.795 11.9297 12.5528 11.6722 12.5076 11.3571L12.5 11.25V8.50848C12.5 7.81887 12.2453 7.5 11.75 7.5ZM11.7488 2.50021C14.9247 2.50021 17.4992 5.07476 17.4992 8.25062C17.4992 8.9534 17.3732 9.62673 17.1424 10.2492L16.9983 10.1966C16.8536 10.1457 16.6487 10.0802 16.3909 10.0209C16.1502 9.96557 15.9078 9.92828 15.6635 9.90906C15.8797 9.39949 15.9992 8.83902 15.9992 8.25062C15.9992 5.90319 14.0963 4.00021 11.7488 4.00021C9.4014 4.00021 7.49842 5.90319 7.49842 8.25062C7.49842 9.29483 7.87497 10.2511 8.49968 10.991C8.17618 11.0189 7.90147 11.0601 7.67555 11.1145C7.32455 11.199 7.08752 11.2842 6.92335 11.3769C6.33818 10.4787 5.99842 9.40433 5.99842 8.25062C5.99842 5.07476 8.57297 2.50021 11.7488 2.50021Z" fill="black"/>
</svg>
