<svg width="24" height="24" viewBox="0 0 24 24" fill="none" xmlns="http://www.w3.org/2000/svg">
<path d="M12 14C13.1046 14 14 13.1046 14 12C14 10.8954 13.1046 10 12 10C10.8954 10 10 10.8954 10 12C10 13.1046 10.8954 14 12 14Z" fill="black"/>
<path fill-rule="evenodd" clip-rule="evenodd" d="M6 12C6 8.68629 8.68629 6 12 6C15.3137 6 18 8.68629 18 12C18 15.3137 15.3137 18 12 18C8.68629 18 6 15.3137 6 12ZM12 7.5C9.51472 7.5 7.5 9.51472 7.5 12C7.5 14.4853 9.51472 16.5 12 16.5C14.4853 16.5 16.5 14.4853 16.5 12C16.5 9.51472 14.4853 7.5 12 7.5Z" fill="black"/>
<path fill-rule="evenodd" clip-rule="evenodd" d="M1.99792 12C1.99792 6.47599 6.47602 1.99789 12 1.99789C17.524 1.99789 22.0021 6.47599 22.0021 12C22.0021 17.524 17.524 22.0021 12 22.0021C6.47602 22.0021 1.99792 17.524 1.99792 12ZM12 3.49789C7.30445 3.49789 3.49792 7.30441 3.49792 12C3.49792 16.6956 7.30445 20.5021 12 20.5021C16.6956 20.5021 20.5021 16.6956 20.5021 12C20.5021 7.30441 16.6956 3.49789 12 3.49789Z" fill="black"/>
</svg>
