<svg width="24" height="24" viewBox="0 0 24 24" fill="none" xmlns="http://www.w3.org/2000/svg">
<path fill-rule="evenodd" clip-rule="evenodd" d="M6.99999 2C7.31389 2.00001 7.59458 2.19551 7.70343 2.48994L10.6552 10.4745C10.6595 10.4853 10.6635 10.4962 10.6673 10.5072L10.8898 11.109L10.0617 13.195L9.4354 11.5008H4.56374L3.45097 14.5101C3.30731 14.8986 2.8759 15.0971 2.4874 14.9534C2.0989 14.8098 1.90041 14.3784 2.04407 13.9899L3.33192 10.5071C3.3357 10.4961 3.33973 10.4852 3.344 10.4744L6.29651 2.48988C6.40538 2.19546 6.68609 1.99999 6.99999 2ZM5.11841 10.0008H8.88087L6.99987 4.91271L5.11841 10.0008Z" fill="black"/>
<path fill-rule="evenodd" clip-rule="evenodd" d="M13.8058 6.47329C13.9193 6.18746 14.1957 5.99986 14.5032 6C14.8108 6.00014 15.087 6.18799 15.2002 6.47391L20.7551 20.5042L21.2491 20.5042C21.6633 20.5042 21.9991 20.84 21.9991 21.2542C21.9991 21.6684 21.6633 22.0042 21.2491 22.0042L20.259 22.0042C20.2553 22.0042 20.2517 22.0043 20.248 22.0043C20.2427 22.0043 20.2375 22.0043 20.2322 22.0042L18.7499 22.0041C18.3357 22.0041 17.9999 21.6683 17.9999 21.2541C18 20.8399 18.3357 20.5041 18.75 20.5041L19.1418 20.5041L17.9524 17.5H11.0425L9.85001 20.5042L10.2491 20.5042C10.6633 20.5042 10.9991 20.84 10.9991 21.2542C10.9991 21.6684 10.6633 22.0042 10.2491 22.0042L8.75918 22.0042C8.7559 22.0042 8.75262 22.0043 8.74933 22.0043C8.74328 22.0043 8.73721 22.0043 8.73114 22.0042L7.74992 22.0041C7.33571 22.0041 6.99993 21.6683 6.99994 21.2541C6.99995 20.8399 7.33574 20.5041 7.74996 20.5041L8.23616 20.5041L13.8058 6.47329ZM17.3585 16H11.638L14.502 8.78508L17.3585 16Z" fill="black"/>
</svg>
