<svg width="24" height="24" viewBox="0 0 24 24" fill="none" xmlns="http://www.w3.org/2000/svg">
<path d="M4.75 12.0002H19.2507C19.6649 12.0002 20.0007 12.336 20.0007 12.7502C20.0007 13.1299 19.7185 13.4437 19.3524 13.4934L19.2507 13.5002L16.2763 13.5001C17.1552 14.3133 17.6124 15.2931 17.6124 16.4347C17.6124 19.26 14.3804 21.0745 10.8577 20.6652C8.6233 20.4055 7.04896 19.5096 6.22285 17.9632C6.02767 17.5979 6.16562 17.1435 6.53097 16.9483C6.89632 16.7531 7.35071 16.8911 7.54589 17.2564C8.11607 18.3237 9.2483 18.968 11.0308 19.1752C13.7738 19.494 16.1124 18.181 16.1124 16.4347C16.1124 15.2627 15.3072 14.3078 13.547 13.5486L13.431 13.5001L4.75 13.5002C4.3703 13.5002 4.05651 13.2181 4.00685 12.852L4 12.7502C4 12.3705 4.28215 12.0567 4.64823 12.0071L4.75 12.0002H19.2507H4.75ZM6.26098 8.12342C6.41313 5.29229 9.08273 3.65473 12.5845 4.06168C14.7732 4.31604 16.4484 5.11488 17.5674 6.47097C17.8311 6.79045 17.7858 7.26316 17.4663 7.5268C17.1469 7.79044 16.6742 7.74518 16.4105 7.4257C15.5584 6.39306 14.2394 5.76411 12.4113 5.55165C9.69368 5.23582 7.76098 6.35654 7.76098 8.12342C7.76098 8.89544 7.99478 9.47155 8.59075 10.1045L8.71896 10.2373C8.81323 10.3328 8.91566 10.4324 8.96956 10.4764L9 10.4979H7.08082L7.05613 10.459C6.91314 10.2526 6.1997 9.2636 6.26098 8.12342Z" fill="black"/>
</svg>
