<svg width="24" height="24" viewBox="0 0 24 24" fill="none" xmlns="http://www.w3.org/2000/svg">
<path d="M4.7876 16.0166C5.2889 16.0166 5.67912 16.1294 5.95825 16.355C6.23739 16.5806 6.37695 16.8734 6.37695 17.2334C6.37695 17.8737 6.05225 18.2747 5.40283 18.4365V18.4536C5.74919 18.4969 6.02262 18.6228 6.22314 18.8313C6.42367 19.0398 6.52393 19.2956 6.52393 19.5986C6.52393 20.0566 6.35645 20.4189 6.02148 20.6855C5.68652 20.9522 5.22396 21.0854 4.63379 21.0854C4.12793 21.0854 3.71664 21.0034 3.3999 20.8394V19.8994C3.72803 20.1387 4.11084 20.2583 4.54834 20.2583C4.82406 20.2583 5.03882 20.1991 5.19263 20.0806C5.34644 19.9621 5.42334 19.7969 5.42334 19.585C5.42334 19.3662 5.32821 19.1976 5.13794 19.0791C4.94767 18.9606 4.6862 18.9014 4.35352 18.9014H3.89893V18.0742H4.31934C4.95736 18.0742 5.27637 17.8623 5.27637 17.4385C5.27637 17.0397 5.03142 16.8403 4.5415 16.8403C4.21338 16.8403 3.89437 16.9463 3.58447 17.1582V16.2764C3.92855 16.1032 4.32959 16.0166 4.7876 16.0166ZM19.75 18C20.1642 18 20.5 18.3358 20.5 18.75C20.5 19.1642 20.1642 19.5 19.75 19.5H10.75C10.3358 19.5 10 19.1642 10 18.75C10 18.3358 10.3358 18 10.75 18H19.75ZM4.96191 9.5166C5.21029 9.5166 5.43302 9.54907 5.63013 9.61401C5.82723 9.67896 5.99414 9.77181 6.13086 9.89258C6.26758 10.0133 6.37183 10.1597 6.4436 10.3318C6.51538 10.5038 6.55127 10.6958 6.55127 10.9077C6.55127 11.1333 6.51652 11.3338 6.44702 11.5093C6.37752 11.6847 6.28524 11.8442 6.17017 11.9878C6.05509 12.1313 5.92236 12.2629 5.77197 12.3826L5.54211 12.559L5.30371 12.7295C5.19434 12.807 5.08895 12.8839 4.98755 12.9602C4.88615 13.0365 4.79671 13.1117 4.71924 13.1858C4.64176 13.2598 4.58024 13.3322 4.53467 13.4028C4.48909 13.4735 4.46631 13.5407 4.46631 13.6045H6.54443V14.5H3.28369V14.1309C3.28369 13.8802 3.32585 13.6552 3.41016 13.4558C3.49447 13.2564 3.60042 13.0776 3.72803 12.9192C3.85563 12.7608 3.9952 12.6207 4.14673 12.4988C4.24775 12.4175 4.34548 12.3416 4.43991 12.2709L4.5791 12.1689C4.72266 12.0664 4.84855 11.9684 4.95679 11.875C5.06502 11.7816 5.15617 11.6887 5.23022 11.5964C5.30428 11.5042 5.35954 11.4107 5.396 11.3162C5.43245 11.2216 5.45068 11.1208 5.45068 11.0137C5.45068 10.804 5.39144 10.6457 5.27295 10.5386C5.15446 10.4315 4.97331 10.3779 4.72949 10.3779C4.30794 10.3779 3.90462 10.5454 3.51953 10.8804V9.93018C3.94564 9.65446 4.42643 9.5166 4.96191 9.5166ZM19.75 11.4937C20.1642 11.4937 20.5 11.8294 20.5 12.2437C20.5 12.6579 20.1642 12.9937 19.75 12.9937H10.75C10.3358 12.9937 10 12.6579 10 12.2437C10 11.8294 10.3358 11.4937 10.75 11.4937H19.75ZM5.69489 2.98926V8H4.61823V4.20605C4.55898 4.25846 4.48892 4.30802 4.40802 4.35474C4.32713 4.40145 4.24111 4.4436 4.14997 4.4812C4.05882 4.5188 3.96426 4.5507 3.86628 4.5769C3.76829 4.60311 3.67145 4.62191 3.57575 4.6333V3.72412C3.85602 3.64209 4.12034 3.53727 4.36872 3.40967C4.61709 3.28206 4.84154 3.14193 5.04206 2.98926H5.69489ZM19.75 5C20.1642 5 20.5 5.33579 20.5 5.75C20.5 6.16421 20.1642 6.5 19.75 6.5H10.75C10.3358 6.5 10 6.16421 10 5.75C10 5.33579 10.3358 5 10.75 5H19.75Z" fill="black"/>
</svg>
