<svg width="24" height="24" viewBox="0 0 24 24" fill="none" xmlns="http://www.w3.org/2000/svg">
<path d="M13.25 18C13.6642 18 14 18.3358 14 18.75C14 19.1642 13.6642 19.5 13.25 19.5H4.25C3.83579 19.5 3.5 19.1642 3.5 18.75C3.5 18.3358 3.83579 18 4.25 18H13.25ZM13.25 11.4937C13.6642 11.4937 14 11.8294 14 12.2437C14 12.6579 13.6642 12.9937 13.25 12.9937H4.25C3.83579 12.9937 3.5 12.6579 3.5 12.2437C3.5 11.8294 3.83579 11.4937 4.25 11.4937H13.25ZM18.9539 16.0166C19.4552 16.0166 19.8454 16.1294 20.1246 16.355C20.4037 16.5806 20.5433 16.8734 20.5433 17.2334C20.5433 17.8737 20.2186 18.2747 19.5691 18.4365V18.4536C19.9155 18.4969 20.1889 18.6228 20.3895 18.8313C20.59 19.0398 20.6902 19.2956 20.6902 19.5986C20.6902 20.0566 20.5228 20.4189 20.1878 20.6855C19.8528 20.9522 19.3903 21.0854 18.8001 21.0854C18.2942 21.0854 17.8829 21.0034 17.5662 20.8394V19.8994C17.8943 20.1387 18.2771 20.2583 18.7146 20.2583C18.9904 20.2583 19.2051 20.1991 19.3589 20.0806C19.5127 19.9621 19.5896 19.7969 19.5896 19.585C19.5896 19.3662 19.4945 19.1976 19.3042 19.0791C19.114 18.9606 18.8525 18.9014 18.5198 18.9014H18.0652V18.0742H18.4856C19.1237 18.0742 19.4427 17.8623 19.4427 17.4385C19.4427 17.0397 19.1977 16.8403 18.7078 16.8403C18.3797 16.8403 18.0607 16.9463 17.7508 17.1582V16.2764C18.0949 16.1032 18.4959 16.0166 18.9539 16.0166ZM19.1282 9.5166C19.3766 9.5166 19.5993 9.54907 19.7964 9.61401C19.9935 9.67896 20.1604 9.77181 20.2972 9.89258C20.4339 10.0133 20.5381 10.1597 20.6099 10.3318C20.6817 10.5038 20.7176 10.6958 20.7176 10.9077C20.7176 11.1333 20.6828 11.3338 20.6133 11.5093C20.5438 11.6847 20.4515 11.8442 20.3365 11.9878C20.2214 12.1313 20.0887 12.2629 19.9383 12.3826L19.7084 12.559L19.47 12.7295C19.3606 12.807 19.2553 12.8839 19.1539 12.9602C19.0525 13.0365 18.963 13.1117 18.8855 13.1858C18.8081 13.2598 18.7466 13.3322 18.701 13.4028C18.6554 13.4735 18.6326 13.5407 18.6326 13.6045H20.7107V14.5H17.45V14.1309C17.45 13.8802 17.4922 13.6552 17.5765 13.4558C17.6608 13.2564 17.7667 13.0776 17.8943 12.9192C18.0219 12.7608 18.1615 12.6207 18.313 12.4988C18.4141 12.4175 18.5118 12.3416 18.6062 12.2709L18.7454 12.1689C18.889 12.0664 19.0149 11.9684 19.1231 11.875C19.2313 11.7816 19.3225 11.6887 19.3965 11.5964C19.4706 11.5042 19.5258 11.4107 19.5623 11.3162C19.5988 11.2216 19.617 11.1208 19.617 11.0137C19.617 10.804 19.5577 10.6457 19.4393 10.5386C19.3208 10.4315 19.1396 10.3779 18.8958 10.3779C18.4742 10.3779 18.0709 10.5454 17.6858 10.8804V9.93018C18.1119 9.65446 18.5927 9.5166 19.1282 9.5166ZM19.8612 2.98926V8H18.7845V4.20605C18.7253 4.25846 18.6552 4.30802 18.5743 4.35474C18.4934 4.40145 18.4074 4.4436 18.3163 4.4812C18.2251 4.5188 18.1306 4.5507 18.0326 4.5769C17.9346 4.60311 17.8378 4.62191 17.7421 4.6333V3.72412C18.0223 3.64209 18.2867 3.53727 18.535 3.40967C18.7834 3.28206 19.0078 3.14193 19.2084 2.98926H19.8612ZM13.25 5C13.6642 5 14 5.33579 14 5.75C14 6.16421 13.6642 6.5 13.25 6.5H4.25C3.83579 6.5 3.5 6.16421 3.5 5.75C3.5 5.33579 3.83579 5 4.25 5H13.25Z" fill="black"/>
</svg>
