<svg width="24" height="24" viewBox="0 0 24 24" fill="none" xmlns="http://www.w3.org/2000/svg">
<path d="M10.2118 17.11L15.0431 3.49912C15.2655 2.87274 16.1123 2.83594 16.4081 3.38866L16.4568 3.4992L21.9568 18.9997C22.0953 19.3901 21.8911 19.8188 21.5007 19.9573C21.1429 20.0843 20.7528 19.9233 20.5836 19.5949L20.5431 19.5013L18.9458 15H12.5518L10.9724 19.4521C10.9199 19.6396 10.7953 19.8048 10.6173 19.9045L10.5251 19.9482C10.1719 20.0875 9.77644 19.9401 9.59595 19.6178L9.55224 19.5256L8.55576 17H4.44276L3.44743 19.5209C3.30784 19.874 2.93009 20.0621 2.57139 19.9737L2.47423 19.9426C2.12112 19.803 1.93303 19.4253 2.02143 19.0666L2.05248 18.9694L5.80609 9.47427C6.04148 8.87883 6.84859 8.84415 7.1508 9.36975L7.20128 9.47487L10.2118 17.11L15.0431 3.49912L10.2118 17.11ZM6.5027 11.7923L5.03576 15.5H7.96376L6.5027 11.7923ZM15.7498 5.99248L13.0838 13.5H18.4138L15.7498 5.99248Z" fill="black"/>
</svg>
