<svg width="24" height="24" viewBox="0 0 24 24" fill="none" xmlns="http://www.w3.org/2000/svg">
<path d="M6 20V4H11.8162C13.5989 4 14.8747 4.32342 15.9276 4.98187C16.9805 5.64032 17.5 6.60985 17.5 7.8C17.5 8.66286 17.1182 9.36377 16.4903 10.0139C15.8623 10.6641 15.1625 11.1111 14.2563 11.364V11.4086C15.3928 11.55 16.3008 11.9702 16.9805 12.6695C17.6602 13.3687 18 14.2204 18 15.2245C18 16.6899 17.4763 17.8522 16.429 18.7113C15.3816 19.5704 13.9625 20 12.15 20H6ZM9.6039 6.65551V10.4491H11.1883C11.9321 10.4491 12.5179 10.2687 12.9456 9.90795C13.3733 9.54719 13.5872 9.05068 13.5872 8.41841C13.5872 7.24314 12.7094 6.65551 10.954 6.65551H9.6039ZM9.6039 13.1269V17.3445H11.5565C12.3896 17.3445 13.0423 17.1511 13.5146 16.7643C13.987 16.3775 14.2232 15.8494 14.2232 15.1799C14.2232 14.5402 13.9907 14.0381 13.5258 13.6736C13.0609 13.3092 12.4119 13.1269 11.5788 13.1269H9.6039Z" fill="black"/>
</svg>
