<svg width="24" height="24" viewBox="0 0 24 24" fill="none" xmlns="http://www.w3.org/2000/svg">
<path d="M16.5013 17.9848C16.5013 20.4268 15.3612 22.1835 13.4949 22.1835C12.52 22.1835 12.1535 21.6408 11.8038 20.3877L11.5977 19.6159C11.4967 19.2571 11.321 18.6464 11.0707 17.7849C11.064 17.7618 11.0541 17.74 11.0413 17.7199L8.17452 13.2343C7.49647 12.1733 6.496 11.3578 5.32012 10.9076L4.84684 10.7264C3.60011 10.2491 2.87628 8.94531 3.13041 7.63474L3.5349 5.54866C3.77633 4.30357 4.71999 3.31266 5.95181 3.01075L13.5795 1.14122C16.1107 0.520825 18.6691 2.05576 19.313 4.58109L20.7279 10.1302C21.1714 11.8695 20.1209 13.639 18.3816 14.0825C18.1192 14.1494 17.8495 14.1832 17.5787 14.1832H15.7554C16.2514 15.8161 16.5013 17.0759 16.5013 17.9848ZM4.60298 7.92027C4.48747 8.51599 4.81648 9.10861 5.38317 9.32558L5.85646 9.50679C7.33207 10.0718 8.58756 11.0951 9.43845 12.4265L12.3052 16.9122C12.3952 17.0531 12.4646 17.2061 12.5112 17.3667L13.0631 19.287L13.2748 20.0783C13.4142 20.5663 13.4844 20.6835 13.4949 20.6835C14.3627 20.6835 15.0013 19.6995 15.0013 17.9848C15.0013 17.1004 14.6755 15.6494 14.0175 13.6698C13.8561 13.1842 14.2175 12.6832 14.7292 12.6832H17.5787C17.7245 12.6832 17.8697 12.665 18.011 12.629C18.9476 12.3902 19.5132 11.4374 19.2744 10.5008L17.8595 4.95169C17.419 3.22383 15.6685 2.17362 13.9366 2.5981L6.30889 4.46763C5.6456 4.6302 5.13748 5.16376 5.00748 5.83419L4.60298 7.92027Z" fill="black"/>
</svg>
