<svg width="24" height="24" viewBox="0 0 24 24" fill="none" xmlns="http://www.w3.org/2000/svg">
<path d="M16.5013 5.20228C16.5013 2.76034 15.3612 1.00359 13.4949 1.00359C12.4687 1.00359 12.1166 1.60496 11.7487 3.00317C11.6736 3.29202 11.6367 3.43266 11.5977 3.57126C11.4967 3.93 11.321 4.54075 11.0707 5.40227C11.064 5.42535 11.0541 5.4471 11.0413 5.46718L8.17452 9.95284C7.49647 11.0138 6.496 11.8293 5.32012 12.2795L4.84684 12.4607C3.60011 12.938 2.87628 14.2418 3.13041 15.5524L3.5349 17.6385C3.77633 18.8836 4.71999 19.8745 5.95181 20.1764L13.5795 22.0459C16.1107 22.6663 18.6691 21.1314 19.313 18.606L20.7279 13.0569C21.1714 11.3176 20.1209 9.54813 18.3816 9.10466C18.1192 9.03776 17.8495 9.00391 17.5787 9.00391H15.7554C16.2514 7.37102 16.5013 6.11123 16.5013 5.20228ZM4.60298 15.2669C4.48747 14.6711 4.81648 14.0785 5.38317 13.8615L5.85646 13.6803C7.33207 13.1154 8.58756 12.092 9.43845 10.7606L12.3052 6.27494C12.3952 6.13406 12.4646 5.981 12.5112 5.82043C12.7625 4.95542 12.9392 4.34143 13.0416 3.97754C13.0847 3.82429 13.1256 3.66884 13.1993 3.38487C13.3892 2.66317 13.4826 2.50359 13.4949 2.50359C14.3627 2.50359 15.0013 3.48766 15.0013 5.20228C15.0013 6.08676 14.6755 7.53772 14.0175 9.51735C13.8561 10.0029 14.2175 10.5039 14.7292 10.5039H17.5787C17.7245 10.5039 17.8697 10.5221 18.011 10.5582C18.9476 10.797 19.5132 11.7497 19.2744 12.6863L17.8595 18.2354C17.419 19.9633 15.6685 21.0135 13.9366 20.589L6.30889 18.7195C5.6456 18.5569 5.13748 18.0234 5.00748 17.3529L4.60298 15.2669Z" fill="black"/>
</svg>
