<svg width="24" height="24" viewBox="0 0 24 24" fill="none" xmlns="http://www.w3.org/2000/svg">
<path d="M5.1962 4.14704L5.28032 4.21966L21.7803 20.7188L21.8529 20.8029C22.0708 21.0965 22.0466 21.5132 21.7803 21.7795C21.5141 22.0458 21.0974 22.07 20.8038 21.8521L20.7197 21.7795L18.2266 19.2862C16.6745 20.9556 14.4592 22 12 22C7.30558 22 3.5 18.1944 3.5 13.5C3.5 11.0408 4.54437 8.82548 6.21378 7.27342L4.21968 5.28034L4.14706 5.19623C3.9292 4.90262 3.9534 4.48596 4.21966 4.21968C4.45633 3.983 4.81184 3.93756 5.09414 4.08339L5.1962 4.14704ZM7.27468 8.33551C5.87669 9.61532 5 11.4553 5 13.5C5 17.366 8.13401 20.5 12 20.5C14.0447 20.5 15.8847 19.6233 17.1645 18.2253L12.6172 13.6763C12.4818 13.8719 12.2559 14 12 14C11.6203 14 11.3065 13.7178 11.2568 13.3518L11.25 13.25V12.311L7.27468 8.33551ZM12 5C16.6944 5 20.5 8.80558 20.5 13.5C20.5 14.6634 20.2663 15.7722 19.8432 16.7821L18.6749 15.6147C18.8861 14.9475 19 14.2371 19 13.5C19 9.63401 15.866 6.5 12 6.5C11.2629 6.5 10.5525 6.61392 9.88527 6.82511L8.71692 5.65723C9.72703 5.23389 10.8362 5 12 5ZM12 8C12.3797 8 12.6935 8.28215 12.7432 8.64823L12.75 8.75V9.69L11.3828 8.32371C11.5182 8.12812 11.7441 8 12 8ZM19.1472 5.11371L19.2298 5.17355L20.3882 6.13773C20.7066 6.40272 20.7498 6.87562 20.4849 7.19398C20.2419 7.48581 19.8243 7.54649 19.5112 7.35047L19.4286 7.29063L18.2702 6.32645C17.9518 6.06146 17.9086 5.58856 18.1735 5.2702C18.4165 4.97837 18.8341 4.91769 19.1472 5.11371ZM14.25 2.5C14.6642 2.5 15 2.83579 15 3.25C15 3.6297 14.7178 3.94349 14.3518 3.99315L14.25 4H9.75C9.33579 4 9 3.66421 9 3.25C9 2.8703 9.28215 2.55651 9.64823 2.50685L9.75 2.5H14.25Z" fill="black"/>
</svg>
