<svg width="24" height="24" viewBox="0 0 24 24" fill="none" xmlns="http://www.w3.org/2000/svg">
<path d="M12 4.99806C16.6944 4.99806 20.5 8.80364 20.5 13.4981C20.5 13.8633 20.477 14.2232 20.4323 14.5763C20.0042 14.2934 19.5106 14.1018 18.9792 14.0296C18.9932 13.8554 19 13.6775 19 13.4981C19 9.63207 15.866 6.49806 12 6.49806C8.13401 6.49806 5 9.63207 5 13.4981C5 17.3641 8.13401 20.4981 12 20.4981C13.1751 20.4981 14.2826 20.2085 15.255 19.6969C15.0905 20.0987 15.0016 20.5387 15.0016 20.9987V21.2475L15.0107 21.4164L15.0158 21.4475C14.0785 21.8033 13.062 21.9981 12 21.9981C7.30558 21.9981 3.5 18.1925 3.5 13.4981C3.5 8.80364 7.30558 4.99806 12 4.99806ZM18.5032 14.9975C19.884 14.9975 21.0034 16.1168 21.0034 17.4976C21.0034 18.8232 19.9718 19.9078 18.6676 19.9925L18.5032 19.9978C18.1471 19.9978 17.835 20.183 17.6574 20.4621L17.637 20.497L20.2534 20.4975C20.6331 20.4975 20.9469 20.7796 20.9965 21.1457L21.0034 21.2475C21.0034 21.6272 20.7212 21.941 20.3552 21.9906L20.2534 21.9975H16.7516C16.3719 21.9975 16.0581 21.7153 16.0084 21.3492L16.0016 21.2475V20.9987C16.0016 19.6727 17.0335 18.5878 18.338 18.5031L18.5025 18.4978C19.0556 18.4978 19.5034 18.05 19.5034 17.4976C19.5034 16.9847 19.1173 16.562 18.6199 16.5042L18.5032 16.4975H18.252C17.8721 16.4975 17.5581 16.7798 17.5084 17.146L17.5016 17.2479C17.5016 17.6621 17.1658 17.9979 16.7516 17.9979C16.3374 17.9979 16.0016 17.6621 16.0016 17.2479C16.0016 16.0568 16.9269 15.0818 18.0979 15.0027L18.252 14.9975H18.5032ZM12 8.00001C12.3797 8.00001 12.6935 8.28216 12.7432 8.64824L12.75 8.75001V13.25C12.75 13.6642 12.4142 14 12 14C11.6203 14 11.3065 13.7179 11.2568 13.3518L11.25 13.25V8.75001C11.25 8.3358 11.5858 8.00001 12 8.00001ZM19.1616 5.121L19.2428 5.18271L20.3737 6.16853C20.6859 6.44071 20.7184 6.91448 20.4462 7.22671C20.1967 7.51292 19.7778 7.56405 19.4692 7.36093L19.388 7.29922L18.2572 6.31341C17.9449 6.04122 17.9125 5.56746 18.1847 5.25523C18.4342 4.96901 18.853 4.91788 19.1616 5.121ZM14.25 2.48672C14.6642 2.48672 15 2.82251 15 3.23672C15 3.61642 14.7178 3.93022 14.3518 3.97988L14.25 3.98672H9.75C9.33579 3.98672 9 3.65094 9 3.23672C9 2.85703 9.28215 2.54323 9.64823 2.49357L9.75 2.48672H14.25Z" fill="black"/>
</svg>
