<svg width="24" height="24" viewBox="0 0 24 24" fill="none" xmlns="http://www.w3.org/2000/svg">
<path d="M15.2496 13C16.2161 13 16.9996 13.7835 16.9996 14.75V19.25C16.9996 20.2165 16.2161 21 15.2496 21H3.74963C2.78313 21 1.99963 20.2165 1.99963 19.25V14.75C1.99963 13.7835 2.78313 13 3.74963 13H15.2496ZM20.9999 14.8989L20.9996 20.25C20.9996 20.6642 20.6639 21 20.2496 21C19.8699 21 19.5562 20.7178 19.5065 20.3518L19.4996 20.25L19.4993 14.9117C19.7315 14.9694 19.9745 15 20.2246 15C20.4927 15 20.7526 14.9648 20.9999 14.8989ZM15.2496 14.5H3.74963C3.61156 14.5 3.49963 14.6119 3.49963 14.75V19.25C3.49963 19.3881 3.61156 19.5 3.74963 19.5H15.2496C15.3877 19.5 15.4996 19.3881 15.4996 19.25V14.75C15.4996 14.6119 15.3877 14.5 15.2496 14.5ZM20.2494 10.0919C21.3032 10.0919 22.1575 10.9462 22.1575 12C22.1575 13.0538 21.3032 13.9081 20.2494 13.9081C19.1956 13.9081 18.3413 13.0538 18.3413 12C18.3413 10.9462 19.1956 10.0919 20.2494 10.0919ZM15.2452 3C16.2117 3 16.9952 3.7835 16.9952 4.75V9.25C16.9952 10.2165 16.2117 11 15.2452 11H3.74524C2.77874 11 1.99524 10.2165 1.99524 9.25V4.75C1.99524 3.83183 2.70235 3.07881 3.60171 3.0058L3.74524 3H15.2452ZM15.2452 4.5H3.74524L3.68792 4.5066C3.57747 4.53251 3.49524 4.63165 3.49524 4.75V9.25C3.49524 9.38807 3.60717 9.5 3.74524 9.5H15.2452C15.3833 9.5 15.4952 9.38807 15.4952 9.25V4.75C15.4952 4.61193 15.3833 4.5 15.2452 4.5ZM20.2496 3C20.6293 3 20.9431 3.28215 20.9928 3.64823L20.9996 3.75L20.9999 9.10113C20.7526 9.03516 20.4927 9 20.2246 9C19.9745 9 19.7315 9.03061 19.4993 9.08829L19.4996 3.75C19.4996 3.33579 19.8354 3 20.2496 3Z" fill="black"/>
</svg>
