<svg width="24" height="24" viewBox="0 0 24 24" fill="none" xmlns="http://www.w3.org/2000/svg">
<path d="M16.5821 17.5271C16.8433 17.8486 16.7944 18.3209 16.4729 18.5821L12.4729 21.8321C12.1974 22.056 11.8026 22.056 11.5271 21.8321L7.52706 18.5821C7.20558 18.3209 7.15671 17.8486 7.41791 17.5271C7.67911 17.2056 8.15147 17.1567 8.47294 17.4179L12 20.2837L15.5271 17.4179C15.8485 17.1567 16.3209 17.2056 16.5821 17.5271ZM4.92578 9.48486C5.4681 9.48486 5.88281 9.66317 6.16992 10.0198C6.45703 10.3764 6.604 10.8885 6.61084 11.5562V12.4722C6.61084 13.1603 6.46843 13.6867 6.18359 14.0513C5.89876 14.4159 5.48177 14.5981 4.93262 14.5981C4.3903 14.5981 3.97559 14.4193 3.68848 14.0615C3.40137 13.7038 3.25439 13.1911 3.24756 12.5234V11.6074C3.24756 10.9124 3.39168 10.3849 3.67993 10.0249C3.96818 9.66487 4.38346 9.48486 4.92578 9.48486ZM8.94189 9.48486C9.48421 9.48486 9.89892 9.66317 10.186 10.0198C10.4731 10.3764 10.6201 10.8885 10.627 11.5562V12.4722C10.627 13.1603 10.4845 13.6867 10.1997 14.0513C9.91488 14.4159 9.49789 14.5981 8.94873 14.5981C8.40641 14.5981 7.9917 14.4193 7.70459 14.0615C7.41748 13.7038 7.27051 13.1911 7.26367 12.5234V11.6074C7.26367 10.9124 7.40779 10.3849 7.69604 10.0249C7.98429 9.66487 8.39957 9.48486 8.94189 9.48486ZM14.9336 9.48486C15.4759 9.48486 15.8906 9.66317 16.1777 10.0198C16.4648 10.3764 16.6118 10.8885 16.6187 11.5562V12.4722C16.6187 13.1603 16.4762 13.6867 16.1914 14.0513C15.9066 14.4159 15.4896 14.5981 14.9404 14.5981C14.3981 14.5981 13.9834 14.4193 13.6963 14.0615C13.4092 13.7038 13.2622 13.1911 13.2554 12.5234V11.6074C13.2554 10.9124 13.3995 10.3849 13.6877 10.0249C13.976 9.66487 14.3913 9.48486 14.9336 9.48486ZM18.9497 9.48486C19.492 9.48486 19.9067 9.66317 20.1938 10.0198C20.481 10.3764 20.6279 10.8885 20.6348 11.5562V12.4722C20.6348 13.1603 20.4924 13.6867 20.2075 14.0513C19.9227 14.4159 19.5057 14.5981 18.9565 14.5981C18.4142 14.5981 17.9995 14.4193 17.7124 14.0615C17.4253 13.7038 17.2783 13.1911 17.2715 12.5234V11.6074C17.2715 10.9124 17.4156 10.3849 17.7039 10.0249C17.9921 9.66487 18.4074 9.48486 18.9497 9.48486ZM12 13C12.1618 13 12.2957 13.049 12.4016 13.147C12.5076 13.245 12.5605 13.3726 12.5605 13.5298C12.5605 13.6847 12.5081 13.8106 12.4033 13.9075C12.2985 14.0043 12.1641 14.0527 12 14.0527C11.8382 14.0527 11.7049 14.0043 11.6001 13.9075C11.4953 13.8106 11.4429 13.6847 11.4429 13.5298C11.4429 13.3726 11.4958 13.245 11.6018 13.147C11.7078 13.049 11.8405 13 12 13ZM4.92578 10.2847C4.69336 10.2847 4.52189 10.3741 4.41138 10.553C4.30086 10.7319 4.24219 11.0116 4.23535 11.3921V12.6021C4.23535 13.0077 4.29061 13.309 4.40112 13.5061C4.51164 13.7032 4.6888 13.8018 4.93262 13.8018C5.17415 13.8018 5.34847 13.7072 5.45557 13.5181C5.56266 13.3289 5.61849 13.0396 5.62305 12.6499V11.4673C5.62305 11.0548 5.56665 10.7546 5.45386 10.5667C5.34106 10.3787 5.16504 10.2847 4.92578 10.2847ZM8.94189 10.2847C8.70947 10.2847 8.538 10.3741 8.42749 10.553C8.31698 10.7319 8.2583 11.0116 8.25146 11.3921V12.6021C8.25146 13.0077 8.30672 13.309 8.41724 13.5061C8.52775 13.7032 8.70491 13.8018 8.94873 13.8018C9.19027 13.8018 9.36458 13.7072 9.47168 13.5181C9.57878 13.3289 9.6346 13.0396 9.63916 12.6499V11.4673C9.63916 11.0548 9.58276 10.7546 9.46997 10.5667C9.35718 10.3787 9.18115 10.2847 8.94189 10.2847ZM14.9336 10.2847C14.7012 10.2847 14.5297 10.3741 14.4192 10.553C14.3087 10.7319 14.25 11.0116 14.2432 11.3921V12.6021C14.2432 13.0077 14.2984 13.309 14.4089 13.5061C14.5195 13.7032 14.6966 13.8018 14.9404 13.8018C15.182 13.8018 15.3563 13.7072 15.4634 13.5181C15.5705 13.3289 15.6263 13.0396 15.6309 12.6499V11.4673C15.6309 11.0548 15.5745 10.7546 15.4617 10.5667C15.3489 10.3787 15.1729 10.2847 14.9336 10.2847ZM18.9497 10.2847C18.7173 10.2847 18.5458 10.3741 18.4353 10.553C18.3432 10.702 18.2871 10.9211 18.267 11.2102L18.2593 11.3921V12.6021C18.2593 13.0077 18.3145 13.309 18.425 13.5061C18.5356 13.7032 18.7127 13.8018 18.9565 13.8018C19.1981 13.8018 19.3724 13.7072 19.4795 13.5181C19.5687 13.3605 19.6224 13.1332 19.6404 12.8364L19.647 12.6499V11.4673C19.647 11.0548 19.5906 10.7546 19.4778 10.5667C19.365 10.3787 19.189 10.2847 18.9497 10.2847ZM12 10.2007C12.1618 10.2007 12.2957 10.2497 12.4016 10.3477C12.5076 10.4456 12.5605 10.5732 12.5605 10.7305C12.5605 10.8854 12.5081 11.0113 12.4033 11.1082C12.2985 11.205 12.1641 11.2534 12 11.2534C11.8382 11.2534 11.7049 11.205 11.6001 11.1082C11.4953 11.0113 11.4429 10.8854 11.4429 10.7305C11.4429 10.5732 11.4958 10.4456 11.6018 10.3477C11.7078 10.2497 11.8405 10.2007 12 10.2007ZM7.52706 5.41791L11.5271 2.16791C11.772 1.9689 12.1111 1.94679 12.377 2.10158L12.4729 2.16791L16.4729 5.41791C16.7944 5.67911 16.8433 6.15147 16.5821 6.47294C16.3446 6.7652 15.9327 6.83215 15.6182 6.64566L15.5271 6.58209L12 3.71635L8.47294 6.58209C8.15147 6.84329 7.67911 6.79442 7.41791 6.47294C7.18046 6.18069 7.19926 5.76375 7.44617 5.49411L7.52706 5.41791L11.5271 2.16791L7.52706 5.41791Z" fill="black"/>
</svg>
