<svg width="24" height="24" viewBox="0 0 24 24" fill="none" xmlns="http://www.w3.org/2000/svg">
<path d="M19.4993 15C20.8244 15 21.9086 16.0312 21.9932 17.335L21.9985 17.4993V19.5036C21.9985 20.8839 20.8796 22.0029 19.4993 22.0029C18.1742 22.0029 17.0899 20.9717 17.0053 19.668L17 19.5036V17.4993C17 16.119 18.119 15 19.4993 15ZM12 4.99806C16.6944 4.99806 20.5 8.80364 20.5 13.4981C20.5 13.714 20.4919 13.928 20.4761 14.1399C20.1657 14.0482 19.8379 14 19.4993 14C19.3226 14 19.149 14.0131 18.9794 14.0384C18.993 13.8612 19 13.6804 19 13.4981C19 9.63207 15.866 6.49806 12 6.49806C8.13401 6.49806 5 9.63207 5 13.4981C5 17.3641 8.13401 20.4981 12 20.4981C12.5159 20.4981 13.0188 20.4422 13.5029 20.3363L13.5025 21.2467L13.514 21.4317L13.5149 21.8635C13.0233 21.9519 12.517 21.9981 12 21.9981C7.30558 21.9981 3.5 18.1925 3.5 13.4981C3.5 8.80364 7.30558 4.99806 12 4.99806ZM15.9959 15.6496L16.0025 15.75V21.2466C16.0025 21.6608 15.6667 21.9966 15.2525 21.9966C14.8728 21.9966 14.559 21.7145 14.5093 21.3484L14.5025 21.2466L14.502 16.792L13.9897 16.965C13.6298 17.0858 13.2425 16.9182 13.0789 16.5869L13.04 16.4926C12.9192 16.1327 13.0869 15.7454 13.4181 15.5818L13.5124 15.543L15.0138 15.039C15.4674 14.8868 15.9355 15.1916 15.9959 15.6496ZM19.4993 16.5C18.9868 16.5 18.5644 16.8858 18.5067 17.3827L18.5 17.4993V19.5036C18.5 20.0555 18.9474 20.5029 19.4993 20.5029C20.0117 20.5029 20.4341 20.1171 20.4918 19.6202L20.4985 19.5036V17.4993C20.4985 16.9474 20.0512 16.5 19.4993 16.5ZM12 8.00001C12.3797 8.00001 12.6935 8.28216 12.7432 8.64824L12.75 8.75001V13.25C12.75 13.6642 12.4142 14 12 14C11.6203 14 11.3065 13.7179 11.2568 13.3518L11.25 13.25V8.75001C11.25 8.3358 11.5858 8.00001 12 8.00001ZM19.1616 5.121L19.2428 5.18271L20.3737 6.16853C20.6859 6.44071 20.7184 6.91448 20.4462 7.22671C20.1967 7.51292 19.7778 7.56405 19.4692 7.36093L19.388 7.29922L18.2572 6.31341C17.9449 6.04122 17.9125 5.56746 18.1847 5.25523C18.4342 4.96901 18.853 4.91788 19.1616 5.121ZM14.25 2.48672C14.6642 2.48672 15 2.82251 15 3.23672C15 3.61642 14.7178 3.93022 14.3518 3.97988L14.25 3.98672H9.75C9.33579 3.98672 9 3.65094 9 3.23672C9 2.85703 9.28215 2.54323 9.64823 2.49357L9.75 2.48672H14.25Z" fill="black"/>
</svg>
