<svg width="24" height="24" viewBox="0 0 24 24" fill="none" xmlns="http://www.w3.org/2000/svg">
<path d="M11.9962 19.0105C12.3759 19.0105 12.6897 19.2927 12.7393 19.6587L12.7462 19.7605V21.2605C12.7462 21.6747 12.4104 22.0105 11.9962 22.0105C11.6165 22.0105 11.3027 21.7284 11.253 21.3623L11.2462 21.2605V19.7605C11.2462 19.3463 11.582 19.0105 11.9962 19.0105ZM18.0179 16.9377L19.0785 17.9984C19.3714 18.2912 19.3714 18.7661 19.0785 19.059C18.7857 19.3519 18.3108 19.3519 18.0179 19.059L16.9572 17.9984C16.6643 17.7055 16.6643 17.2306 16.9572 16.9377C17.2501 16.6448 17.725 16.6448 18.0179 16.9377ZM7.03465 16.9377C7.32755 17.2306 7.32755 17.7055 7.03465 17.9984L5.97399 19.059C5.6811 19.3519 5.20623 19.3519 4.91333 19.059C4.62044 18.7661 4.62044 18.2912 4.91333 17.9984L5.97399 16.9377C6.26689 16.6448 6.74176 16.6448 7.03465 16.9377ZM12 6.475C15.0514 6.475 17.525 8.94862 17.525 12C17.525 15.0514 15.0514 17.525 12 17.525C8.94862 17.525 6.475 15.0514 6.475 12C6.475 8.94862 8.94862 6.475 12 6.475ZM12 7.975C9.77705 7.975 7.975 9.77705 7.975 12C7.975 14.2229 9.77705 16.025 12 16.025C14.2229 16.025 16.025 14.2229 16.025 12C16.025 9.77705 14.2229 7.975 12 7.975ZM11.25 9C11.6297 9 11.9435 9.28215 11.9932 9.64823L12 9.75V12.003L13.2497 12.0037C13.6294 12.0037 13.9432 12.2859 13.9928 12.6519L13.9997 12.7537C13.9997 13.1334 13.7175 13.4472 13.3514 13.4969L13.2497 13.5037H11.25C10.8703 13.5037 10.5565 13.2216 10.5068 12.8555L10.5 12.7537V9.75C10.5 9.33578 10.8358 9 11.25 9ZM21.2498 11.2683C21.664 11.2683 21.9998 11.6041 21.9998 12.0183C21.9998 12.398 21.7176 12.7118 21.3515 12.7614L21.2498 12.7683H19.7498C19.3355 12.7683 18.9998 12.4325 18.9998 12.0183C18.9998 11.6386 19.2819 11.3248 19.648 11.2751L19.7498 11.2683H21.2498ZM4.25024 11.2395C4.66446 11.2395 5.00024 11.5753 5.00024 11.9895C5.00024 12.3692 4.71809 12.683 4.35201 12.7326L4.25024 12.7395H2.75024C2.33603 12.7395 2.00024 12.4037 2.00024 11.9895C2.00024 11.6098 2.2824 11.296 2.64847 11.2463L2.75024 11.2395H4.25024ZM5.88988 4.86836L5.97399 4.94098L7.03465 6.00164C7.32755 6.29454 7.32755 6.76941 7.03465 7.0623C6.76839 7.32857 6.35172 7.35278 6.05811 7.13492L5.97399 7.0623L4.91333 6.00164C4.62044 5.70875 4.62044 5.23388 4.91333 4.94098C5.1796 4.67472 5.59626 4.65051 5.88988 4.86836ZM19.0785 4.94098C19.3448 5.20725 19.369 5.62391 19.1512 5.91752L19.0785 6.00164L18.0179 7.0623C17.725 7.3552 17.2501 7.3552 16.9572 7.0623C16.691 6.79604 16.6668 6.37937 16.8846 6.08576L16.9572 6.00164L18.0179 4.94098C18.3108 4.64809 18.7857 4.64809 19.0785 4.94098ZM12.0002 1.98949C12.3799 1.98949 12.6937 2.27164 12.7434 2.63772L12.7502 2.73949V4.23949C12.7502 4.6537 12.4145 4.98949 12.0002 4.98949C11.6205 4.98949 11.3068 4.70733 11.2571 4.34126L11.2502 4.23949V2.73949C11.2502 2.32527 11.586 1.98949 12.0002 1.98949Z" fill="black"/>
</svg>
