<svg width="24" height="24" viewBox="0 0 24 24" fill="none" xmlns="http://www.w3.org/2000/svg">
<path d="M10.0492 15.4209L16.306 6.94496C16.5131 6.66436 16.8963 6.58094 17.2013 6.75003C17.4759 6.90222 17.6105 7.21642 17.5413 7.51423L17.5106 7.61265L13.6405 17.4116C13.2205 18.4751 12.018 18.9967 10.9545 18.5767C10.8711 18.5437 10.7898 18.5054 10.7113 18.4619C9.71106 17.9074 9.34966 16.647 9.90412 15.6468L9.97301 15.5315L10.0492 15.4209L16.306 6.94496L10.0492 15.4209ZM13.85 12.7977L11.256 16.3117L11.216 16.374C11.0632 16.6497 11.1628 16.9971 11.4385 17.1499L11.5055 17.1816C11.7692 17.2857 12.0638 17.1797 12.2045 16.9439L12.2454 16.8606L13.85 12.7977ZM18.6095 7.414C19.364 8.02531 20.047 8.75086 20.6317 9.58598C21.1562 10.335 21.6612 11.2421 21.9517 11.9843C22.1026 12.3701 21.9123 12.8051 21.5265 12.956C21.1408 13.107 20.7058 12.9166 20.5548 12.5309C20.4575 12.2823 20.3277 12.0047 20.1775 11.7191L18.128 12.9024C17.7693 13.1095 17.3106 12.9866 17.1035 12.6279C16.9137 12.299 17.0011 11.8862 17.2933 11.6601L17.378 11.6033L19.3963 10.4365L19.1659 10.1227C18.842 9.70019 18.4876 9.31332 18.1081 8.96307L18.4883 7.99879C18.5262 7.90286 18.555 7.80537 18.5751 7.70733L18.5988 7.55998L18.6095 7.414ZM15.9809 5.85274C15.8319 5.9393 15.6945 6.04939 15.5744 6.18137L15.4601 6.32059L14.9192 7.05352C14.2174 6.80959 13.4887 6.65175 12.7502 6.58308L12.75 9.25593C12.75 9.67014 12.4142 10.0059 12 10.0059C11.6203 10.0059 11.3065 9.72377 11.2568 9.3577L11.25 9.25593L11.2496 6.56665C9.65292 6.68018 8.0655 7.21429 6.65888 8.19921C5.84293 8.77055 5.13151 9.52145 4.54014 10.4039L6.62236 11.606C6.98108 11.8131 7.10398 12.2718 6.89688 12.6305C6.70703 12.9593 6.30578 13.09 5.96392 12.95L5.87236 12.905L3.79816 11.708C3.6704 11.9743 3.55175 12.2483 3.44254 12.5293C3.29248 12.9154 2.85786 13.1067 2.47178 12.9567C2.0857 12.8066 1.89437 12.372 2.04444 11.9859C2.85088 9.91107 4.12372 8.14318 5.79851 6.97048C8.89041 4.80551 12.7329 4.51198 15.9809 5.85274Z" fill="black"/>
</svg>
