<svg width="24" height="24" viewBox="0 0 24 24" fill="none" xmlns="http://www.w3.org/2000/svg">
<path fill-rule="evenodd" clip-rule="evenodd" d="M3.38512 6.99695C3.95773 6.68098 5.72117 5.87823 7.96084 6.52984L7.96246 6.53031C9.19434 6.89172 9.86774 7.64088 10.1986 8.47003C10.4993 9.22368 10.4988 10.0062 10.4985 10.4603C10.4985 10.4738 10.4985 10.4871 10.4985 10.5V14.5037V16.25C10.4985 16.6642 10.1627 17 9.7485 17C9.33429 17 8.9985 16.6642 8.9985 16.25V15.9494C8.87408 16.0234 8.74209 16.0981 8.60343 16.1717C7.65146 16.6772 6.2756 17.1904 4.84609 16.9331C3.26232 16.6481 2.27037 15.3382 2.04591 13.9815C1.81748 12.6008 2.36169 11.0443 3.94794 10.2845C5.38792 9.59476 6.93793 9.65612 8.07049 9.8574C8.41199 9.91809 8.72336 9.99288 8.99259 10.0681C8.97952 9.71682 8.93783 9.35788 8.80538 9.02592C8.63905 8.60906 8.31403 8.19689 7.54098 7.96988C5.84606 7.47709 4.51469 8.08686 4.10982 8.31027C3.74715 8.51039 3.29093 8.37863 3.09081 8.01596C2.89069 7.6533 3.02245 7.19707 3.38512 6.99695ZM8.9985 11.6386C8.70564 11.5401 8.29139 11.4202 7.80802 11.3343C6.82165 11.159 5.63338 11.1404 4.59594 11.6373C3.70477 12.0642 3.3884 12.9062 3.52579 13.7367C3.66714 14.591 4.26739 15.3049 5.11177 15.4568C6.0502 15.6257 7.05912 15.2934 7.89995 14.8469C8.3091 14.6296 8.6526 14.3991 8.89337 14.2229C8.93112 14.1953 8.96621 14.1691 8.9985 14.1446V11.6386Z" fill="black"/>
<path fill-rule="evenodd" clip-rule="evenodd" d="M17.1903 6.0396L17.1898 6.0409L17.1872 6.04723L17.1759 6.07453C17.1659 6.09908 17.1508 6.13608 17.1316 6.18426C17.093 6.28065 17.0377 6.42159 16.9717 6.59692C16.9263 6.71749 16.876 6.85396 16.8227 7.00306H20.2485C20.6627 7.00306 20.9985 7.33885 20.9985 7.75306C20.9985 8.16727 20.6627 8.50306 20.2485 8.50306H16.3356C16.2201 8.89266 16.1382 9.2336 16.0462 9.85548C16.753 9.73608 17.4832 9.74162 18.1772 9.86672C18.3085 9.64904 18.5472 9.50347 18.8199 9.50347C19.2342 9.50347 19.5699 9.83925 19.5699 10.2535C19.5699 10.2714 19.5698 10.2895 19.5695 10.3076C20.7875 10.8849 21.7767 11.9444 21.9616 13.5005C22.2936 16.2941 20.1051 17.7439 19.2733 18.2949C19.231 18.3229 19.1923 18.3486 19.1576 18.372C18.8141 18.6034 18.348 18.5126 18.1165 18.1691C17.8851 17.8256 17.9759 17.3595 18.3194 17.128C18.3415 17.1131 18.364 17.098 18.3869 17.0826C19.2614 16.4948 20.6925 15.5328 20.4721 13.6775C20.3784 12.8897 19.9461 12.2757 19.2936 11.8623C19.1463 12.3396 18.9446 12.8298 18.6993 13.2968C18.1576 14.328 17.336 15.3739 16.248 15.9263C15.6333 16.2384 14.9338 16.3916 14.1773 16.286C12.8142 16.0958 11.978 15.0482 11.9759 13.806C11.9739 12.5979 12.743 11.3516 14.1933 10.5112C14.2822 10.4596 14.3728 10.4108 14.4649 10.3647C14.5771 9.45417 14.6678 8.94777 14.78 8.50306H12.7485C12.3343 8.50306 11.9985 8.16727 11.9985 7.75306C11.9985 7.33885 12.3343 7.00306 12.7485 7.00306H15.2354C15.3564 6.6419 15.4726 6.3215 15.5679 6.06833C15.6379 5.88252 15.6969 5.73214 15.7387 5.6275C15.7596 5.57516 15.7763 5.53421 15.7879 5.50594L15.8013 5.47318L15.8051 5.46422L15.8066 5.46056C15.9665 5.07848 16.406 4.89821 16.7881 5.05816C17.1702 5.21809 17.3502 5.65754 17.1903 6.0396ZM14.4177 12.1689C13.7179 12.7336 13.4752 13.3574 13.4759 13.8035C13.4768 14.3132 13.7763 14.7155 14.3847 14.8004C14.573 14.8267 14.7561 14.825 14.9348 14.7977C14.8625 14.5767 14.7847 14.3138 14.7112 14.0167C14.583 13.4985 14.466 12.868 14.4177 12.1689ZM16.2816 14.0777C16.697 13.6893 17.0694 13.1742 17.3714 12.5992C17.5977 12.1685 17.7688 11.7343 17.8849 11.3381C17.2277 11.2234 16.532 11.2521 15.8946 11.4216C15.8866 12.2641 16.0149 13.0402 16.1673 13.6565C16.2048 13.808 16.2435 13.9489 16.2816 14.0777Z" fill="black"/>
</svg>
