<svg width="24" height="24" viewBox="0 0 24 24" fill="none" xmlns="http://www.w3.org/2000/svg">
<path d="M21.7803 2.21967C22.0466 2.48594 22.0708 2.9026 21.8529 3.19621L21.7803 3.28033L18.9958 6.06575L18.9996 6.15715L19.0009 21.2451C19.0009 21.8563 18.309 22.2109 17.8129 21.8539L12.0017 17.673L6.19054 21.8539C5.6944 22.2109 5.00252 21.8563 5.00252 21.2451L5.002 20.058L3.28033 21.7803C3.01406 22.0466 2.5974 22.0708 2.30379 21.8529L2.21967 21.7803C1.9534 21.5141 1.9292 21.0974 2.14705 20.8038L2.21967 20.7197L20.7197 2.21967C21.0126 1.92678 21.4874 1.92678 21.7803 2.21967ZM17.5 7.56L6.502 18.558L6.50252 19.7816L11.5637 16.1402C11.8254 15.952 12.1781 15.952 12.4397 16.1402L17.5009 19.7816L17.5 7.56ZM15.7509 2.99919C16.3438 2.99919 16.8996 3.15795 17.3782 3.43529L16.245 4.56989C16.0883 4.52387 15.9225 4.49919 15.7509 4.49919H8.25252C7.28603 4.49919 6.50252 5.28269 6.50252 6.24919L6.502 14.312L5.002 15.812L5.00252 6.24919C5.00252 4.45426 6.4576 2.99919 8.25252 2.99919H15.7509Z" fill="black"/>
</svg>
