<svg width="24" height="24" viewBox="0 0 24 24" fill="none" xmlns="http://www.w3.org/2000/svg">
<path d="M11 21.2485C11 21.6627 10.6642 21.9985 10.25 21.9985C9.87032 21.9985 9.55652 21.7164 9.50686 21.3503L9.50001 21.2485L9.49915 16.9993L8.75415 17C7.56329 17 6.58851 16.0749 6.50934 14.9041L6.50415 14.75V9.25003C6.50415 8.26554 7.13644 7.42872 8.01709 7.12353L8.01648 2.74731C8.01648 2.36762 8.29864 2.05382 8.66471 2.00416L8.76648 1.99731H15.2673C15.647 1.99731 15.9608 2.27947 16.0104 2.64554L16.0173 2.74731L16.0176 7.13287C16.8335 7.42713 17.4304 8.17956 17.4978 9.07961L17.5042 9.25003V14.75C17.5042 15.9409 16.579 16.9157 15.4082 16.9948L15.2542 17L14.4992 16.9993L14.5001 21.2455C14.5001 21.6597 14.1643 21.9955 13.7501 21.9955C13.3704 21.9955 13.0566 21.7134 13.007 21.3473L13.0001 21.2455L12.9992 16.9993H10.9992L11 21.2485ZM15.2542 8.50003H8.75415C8.37446 8.50003 8.06066 8.78218 8.011 9.14826L8.00415 9.25003V14.75C8.00415 15.1297 8.2863 15.4435 8.65238 15.4932L8.75415 15.5L13.7501 15.497L13.7932 15.4993L15.2542 15.5C15.6338 15.5 15.9476 15.2179 15.9973 14.8518L16.0042 14.75V9.25003C16.0042 8.87033 15.722 8.55654 15.3559 8.50688L15.2542 8.50003ZM14.517 3.49703H9.51601V6.99903H14.517V3.49703Z" fill="black"/>
</svg>
