<svg width="24" height="24" viewBox="0 0 24 24" fill="none" xmlns="http://www.w3.org/2000/svg">
<path d="M15.2673 1.99729C15.647 1.99729 15.9608 2.27944 16.0104 2.64552L16.0173 2.74729L16.0176 7.13284C16.8335 7.4271 17.4304 8.17954 17.4978 9.07959L17.5042 9.25V19.75C17.5042 20.9409 16.579 21.9156 15.4082 21.9948L15.2542 22H8.75415C7.56329 22 6.58851 21.0748 6.50934 19.904L6.50415 19.75V9.25C6.50415 8.26551 7.13644 7.4287 8.01709 7.1235L8.01648 2.74729C8.01648 2.36759 8.29864 2.0538 8.66471 2.00413L8.76648 1.99729H15.2673ZM15.2542 8.5H8.75415C8.37446 8.5 8.06066 8.78215 8.011 9.14823L8.00415 9.25V19.75C8.00415 20.1297 8.2863 20.4435 8.65238 20.4932L8.75415 20.5H15.2542C15.6338 20.5 15.9476 20.2178 15.9973 19.8518L16.0042 19.75V9.25C16.0042 8.8703 15.722 8.55651 15.3559 8.50685L15.2542 8.5ZM14.517 3.497H9.51601V6.999H14.517V3.497Z" fill="black"/>
</svg>
