<svg width="24" height="24" viewBox="0 0 24 24" fill="none" xmlns="http://www.w3.org/2000/svg">
<path d="M3.65141 6.61647L11.1529 11.3694C11.3673 11.5052 11.4828 11.7227 11.4994 11.9464L11.4985 7.25001C11.4985 6.83579 11.8342 6.50001 12.2485 6.50001H15.2485C15.6627 6.50001 15.9985 6.83579 15.9985 7.25001V16.75C15.9985 17.1642 15.6627 17.5 15.2485 17.5H12.2485C11.8342 17.5 11.4985 17.1642 11.4985 16.75L11.4993 12.0598C11.4826 12.2836 11.367 12.501 11.1525 12.6367L3.65106 17.3838C3.15168 17.6998 2.5 17.341 2.5 16.75V7.25001C2.5 6.65885 3.15205 6.30008 3.65141 6.61647ZM21.2477 6.50038C21.6619 6.50038 21.9977 6.83617 21.9977 7.25038V16.7496C21.9977 17.1638 21.6619 17.4996 21.2477 17.4996H18.2477C17.8335 17.4996 17.4977 17.1638 17.4977 16.7496V7.25038C17.4977 6.83617 17.8335 6.50038 18.2477 6.50038H21.2477ZM14.4985 8.00001H12.9985V16H14.4985V8.00001ZM20.4977 8.00038H18.9977V15.9996H20.4977V8.00038ZM4 8.61308V15.3878L9.34954 12.0025L4 8.61308Z" fill="black"/>
</svg>
