<svg width="24" height="24" viewBox="0 0 24 24" fill="none" xmlns="http://www.w3.org/2000/svg">
<path d="M21.7803 2.21967C22.0466 2.48594 22.0708 2.9026 21.8529 3.19621L21.7803 3.28033L17.343 7.717L20.8639 5.605C21.3638 5.30486 22 5.66493 22 6.248V17.75C22 18.333 21.364 18.6931 20.8641 18.3931L17 16.075V16.25C17 18.0449 15.5449 19.5 13.75 19.5H5.56L3.28033 21.7803C3.01406 22.0466 2.5974 22.0708 2.30379 21.8529L2.21967 21.7803C1.9534 21.5141 1.9292 21.0974 2.14705 20.8038L2.21967 20.7197L3.78687 19.1528L3.785 19.151L4.9621 17.9764L15.4764 7.4621L15.476 7.46L16.6528 6.28687L20.7197 2.21967C21.0126 1.92678 21.4874 1.92678 21.7803 2.21967ZM13.75 4.5C14.4729 4.5 15.1406 4.736 15.6804 5.13515L14.5962 6.21781C14.3454 6.07901 14.0569 6 13.75 6H5.25C4.2835 6 3.5 6.7835 3.5 7.75V16.25C3.5 16.5569 3.57901 16.8454 3.71781 17.0962L2.63515 18.1804C2.236 17.6406 2 16.9729 2 16.25V7.75C2 5.95507 3.45507 4.5 5.25 4.5H13.75ZM15.5 9.56L7.06 18H13.75C14.7165 18 15.5 17.2165 15.5 16.25V9.56ZM20.5 7.5731L17 9.6745V14.3254L20.5 16.4254V7.5731Z" fill="black"/>
</svg>
