<svg width="24" height="24" viewBox="0 0 24 24" fill="none" xmlns="http://www.w3.org/2000/svg">
<path d="M14.5 13.4436L14.6547 13.5898L20.4832 19.4565L20.4935 19.379L20.5 19.2512V13.7488C20.5 13.3346 20.8358 12.9988 21.25 12.9988C21.6297 12.9988 21.9435 13.281 21.9932 13.6471L22 13.7488V19.2512C22 20.7137 20.8583 21.9096 19.4175 21.9962L19.25 22.0012H13.75C13.3358 22.0012 13 21.6654 13 21.2512C13 20.8715 13.2822 20.5577 13.6482 20.508L13.75 20.5012H19.25C19.2994 20.5012 19.3482 20.4983 19.3961 20.4927L13.594 14.6505C12.7572 13.8137 11.4252 13.7738 10.5412 14.5309L10.4121 14.6505L4.54565 20.4846L4.62219 20.4947L4.75 20.5012H10.25L10.3518 20.508C10.7178 20.5577 11 20.8715 11 21.2512C11 21.6309 10.7178 21.9447 10.3518 21.9943L10.25 22.0012H4.75L4.58248 21.9962C3.19934 21.913 2.09181 20.8076 2.00543 19.4253L2 19.2512V13.7488L2.00685 13.6471C2.05651 13.281 2.3703 12.9988 2.75 12.9988C3.1297 12.9988 3.44349 13.281 3.49315 13.6471L3.5 13.7488V19.2512L3.509 19.3978L9.35141 13.5898C10.7654 12.1759 13.0276 12.1271 14.5 13.4436ZM16.0235 6.01179C17.1319 6.01179 18.0304 6.91031 18.0304 8.01869C18.0304 9.12708 17.1319 10.0256 16.0235 10.0256C14.9152 10.0256 14.0166 9.12708 14.0166 8.01869C14.0166 6.91031 14.9152 6.01179 16.0235 6.01179ZM10.25 1.99884C10.6642 1.99884 11 2.33463 11 2.74884C11 3.12854 10.7178 3.44233 10.3518 3.49199L10.25 3.49884H4.75C4.10279 3.49884 3.57047 3.99072 3.50645 4.62104L3.5 4.74884V10.2512C3.5 10.6654 3.16421 11.0012 2.75 11.0012C2.3703 11.0012 2.05651 10.719 2.00685 10.3529L2 10.2512V4.74884C2 3.28631 3.1417 2.09044 4.58248 2.00386L4.75 1.99884H10.25ZM19.25 1.99884L19.4175 2.00386C20.8007 2.08697 21.9082 3.19241 21.9946 4.57467L22 4.74884V10.2512L21.9932 10.3529C21.9435 10.719 21.6297 11.0012 21.25 11.0012C20.8703 11.0012 20.5565 10.719 20.5068 10.3529L20.5 10.2512V4.74884L20.4935 4.62104C20.4338 4.03274 19.9661 3.56504 19.3778 3.50529L19.25 3.49884H13.75L13.6482 3.49199C13.2822 3.44233 13 3.12854 13 2.74884C13 2.36914 13.2822 2.05535 13.6482 2.00569L13.75 1.99884H19.25ZM16.0235 7.51179C15.7436 7.51179 15.5166 7.73874 15.5166 8.01869C15.5166 8.29865 15.7436 8.5256 16.0235 8.5256C16.3035 8.5256 16.5304 8.29865 16.5304 8.01869C16.5304 7.73874 16.3035 7.51179 16.0235 7.51179Z" fill="black"/>
</svg>
