<svg width="24" height="24" viewBox="0 0 24 24" fill="none" xmlns="http://www.w3.org/2000/svg">
<path d="M10.9093 2.78216C11.9491 2.20625 13.2471 2.54089 13.885 3.5224L13.9678 3.66023L21.7267 17.6685C21.9115 18.0021 22.0085 18.3773 22.0085 18.7587C22.0085 19.9495 21.0833 20.9243 19.9125 21.0035L19.7585 21.0087H4.24272C3.86141 21.0087 3.48636 20.9118 3.15277 20.7271C2.11293 20.1513 1.70789 18.8734 2.20145 17.812L2.27435 17.6687L10.0311 3.66046C10.2357 3.2911 10.54 2.98674 10.9093 2.78216ZM20.4146 18.3953L12.6556 4.38702C12.4549 4.02467 11.9985 3.89363 11.6361 4.09433C11.5438 4.14547 11.4636 4.21533 11.4006 4.299L11.3434 4.3871L3.5866 18.3954C3.38594 18.7577 3.51704 19.2141 3.87941 19.4148C3.9628 19.461 4.05397 19.4907 4.14797 19.5027L4.24272 19.5087H19.7585C20.1727 19.5087 20.5085 19.1729 20.5085 18.7587C20.5085 18.6633 20.4903 18.5691 20.4552 18.4811L20.4146 18.3953L12.6556 4.38702L20.4146 18.3953ZM12.0004 16.0018C12.5519 16.0018 12.9991 16.4489 12.9991 17.0004C12.9991 17.552 12.5519 17.9991 12.0004 17.9991C11.4488 17.9991 11.0017 17.552 11.0017 17.0004C11.0017 16.4489 11.4488 16.0018 12.0004 16.0018ZM11.9962 8.49955C12.3759 8.49925 12.6899 8.78115 12.7399 9.14718L12.7468 9.24895L12.7504 13.7505C12.7507 14.1648 12.4152 14.5008 12.001 14.5011C11.6213 14.5014 11.3073 14.2195 11.2573 13.8535L11.2504 13.7517L11.2468 9.25015C11.2465 8.83594 11.582 8.49988 11.9962 8.49955Z" fill="black"/>
</svg>
