<svg width="24" height="24" viewBox="0 0 24 24" fill="none" xmlns="http://www.w3.org/2000/svg">
<path d="M11.7501 2.0004C12.1298 2.0004 12.4436 2.28266 12.4932 2.64876L12.5 2.75053L12.499 6.0964L14.6715 4.18877C14.9827 3.91537 15.4566 3.946 15.73 4.25717C16.0034 4.56834 15.9727 5.04223 15.6616 5.31562L12.499 8.0934L12.498 10.9994H15.407L18.1865 7.83864C18.4351 7.55584 18.8494 7.50496 19.1563 7.70354L19.2449 7.77061C19.5277 8.01926 19.5786 8.43351 19.38 8.74049L19.313 8.82909L17.405 10.9984L20.75 10.9992C21.1296 10.9992 21.4435 11.2813 21.4932 11.6474L21.5 11.7492C21.5 12.1289 21.2179 12.4427 20.8518 12.4924L20.75 12.4992L17.402 12.4994L19.311 14.6719C19.5595 14.9548 19.5568 15.3721 19.3204 15.6511L19.2426 15.7304C18.9597 15.9789 18.5423 15.9762 18.2634 15.7398L18.1841 15.662L15.405 12.4994L12.497 12.4984L12.498 15.4064L15.6616 18.1862C15.9444 18.4347 15.9955 18.849 15.797 19.156L15.73 19.2446C15.4814 19.5275 15.0672 19.5785 14.7601 19.3801L14.6715 19.313L12.498 17.4034L12.4968 20.7505C12.4967 21.1302 12.2145 21.4439 11.8484 21.4936L11.7467 21.5004C11.367 21.5004 11.0532 21.2181 11.0036 20.852L10.9968 20.7503L10.996 17.4064L8.82869 19.3129C8.51762 19.5864 8.04372 19.5559 7.77022 19.2448C7.49671 18.9338 7.52717 18.4599 7.83824 18.1864L10.997 15.4084V12.4994H8.312L5.31512 15.9116C5.04172 16.2227 4.56784 16.2534 4.25667 15.98C3.94549 15.7066 3.91487 15.2327 4.18826 14.9215L6.316 12.4994L2.75005 12.5004C2.37035 12.5004 2.05652 12.2183 2.00685 11.8522L2 11.7504C2 11.3707 2.28211 11.0569 2.64818 11.0072L2.74995 11.0004H5.874L4.18798 9.07818C3.91476 8.76685 3.94566 8.29299 4.25699 8.01977C4.56831 7.74655 5.04218 7.77745 5.3154 8.08877L7.87 10.9994H10.998V8.0914L7.83824 5.31326C7.55544 5.06462 7.50457 4.65036 7.70314 4.34339L7.77022 4.25478C8.01886 3.97199 8.43311 3.92111 8.74009 4.11969L8.82869 4.18676L10.999 6.0944L11 2.75026C11.0001 2.40508 11.2333 2.11446 11.5507 2.02718L11.6484 2.00724L11.7501 2.0004Z" fill="black"/>
</svg>
