<svg width="24" height="24" viewBox="0 0 24 24" fill="none" xmlns="http://www.w3.org/2000/svg">
<path d="M8.99994 17C10.1045 17 10.9999 17.8955 10.9999 19C10.9999 20.1046 10.1045 21 8.99994 21C7.89537 21 6.99994 20.1046 6.99994 19C6.99994 17.8955 7.89537 17 8.99994 17ZM18.9979 10C20.6557 10 21.9999 11.343 21.9999 13C21.9999 14.657 20.6557 16 18.9979 16L18.9672 15.9999L18.8654 16.0067L17.6996 16.0071C17.8905 16.3801 17.9981 16.8022 17.9981 17.2496C17.9981 18.7792 16.8454 20.0056 15.3231 20.0056C13.8181 20.0056 12.9075 19.1239 12.6627 17.9027C12.5813 17.4966 12.8446 17.1013 13.2507 17.0199C13.6569 16.9385 14.0521 17.2018 14.1335 17.6079C14.2468 18.1732 14.5901 18.5056 15.3231 18.5056C15.9955 18.5056 16.4981 17.9708 16.4981 17.2496C16.4981 16.5614 15.9302 16 15.2254 16L2.73657 16.0067C2.32236 16.0067 1.98657 15.6709 1.98657 15.2567C1.98657 14.877 2.26873 14.5632 2.6348 14.5135L2.73657 14.5067L15.1236 14.5069L15.2254 14.5C15.2895 14.5 15.3532 14.5022 15.4163 14.5064L18.888 14.508L18.9424 14.502L19.1426 14.4932C19.9044 14.4205 20.4999 13.7796 20.4999 13C20.4999 12.1717 19.8276 11.5 18.9979 11.5C18.2492 11.5 17.6238 12.0488 17.5132 12.7705L17.4856 13.0089C17.414 13.3713 17.0838 13.6341 16.7048 13.6112C16.2913 13.5863 15.9764 13.2309 16.0013 12.8174C16.0966 11.2382 17.4082 10 18.9979 10ZM8.99994 18.5C8.7238 18.5 8.49994 18.7239 8.49994 19C8.49994 19.2762 8.7238 19.5 8.99994 19.5C9.27608 19.5 9.49994 19.2762 9.49994 19C9.49994 18.7239 9.27608 18.5 8.99994 18.5ZM12.0003 3.99939C14.2096 3.99939 16.0006 5.79039 16.0006 7.99971C16.0006 10.2017 14.2215 11.9881 12.0223 12H2.75555C2.34134 12 2.00555 11.6642 2.00555 11.25C2.00555 10.8703 2.28771 10.5565 2.65378 10.5069L2.75555 10.5H12.0003L12.1647 10.4947C13.4689 10.41 14.5006 9.32536 14.5006 7.99971C14.5006 6.61882 13.3811 5.49939 12.0003 5.49939C10.6194 5.49939 9.49994 6.61882 9.49994 7.99971C9.49994 8.41392 9.16415 8.74971 8.74994 8.74971C8.33573 8.74971 7.99994 8.41392 7.99994 7.99971C7.99994 5.79039 9.79094 3.99939 12.0003 3.99939ZM4.00555 5.00002C5.11012 5.00002 6.00555 5.89545 6.00555 7.00002C6.00555 8.10459 5.11012 9.00002 4.00555 9.00002C2.90098 9.00002 2.00555 8.10459 2.00555 7.00002C2.00555 5.89545 2.90098 5.00002 4.00555 5.00002ZM19.9999 4.00002C21.1045 4.00002 21.9999 4.89545 21.9999 6.00002C21.9999 7.10459 21.1045 8.00002 19.9999 8.00002C18.8954 8.00002 17.9999 7.10459 17.9999 6.00002C17.9999 4.89545 18.8954 4.00002 19.9999 4.00002ZM4.00555 6.50002C3.72941 6.50002 3.50555 6.72388 3.50555 7.00002C3.50555 7.27616 3.72941 7.50002 4.00555 7.50002C4.28169 7.50002 4.50555 7.27616 4.50555 7.00002C4.50555 6.72388 4.28169 6.50002 4.00555 6.50002ZM19.9999 5.50002C19.7238 5.50002 19.4999 5.72388 19.4999 6.00002C19.4999 6.27616 19.7238 6.50002 19.9999 6.50002C20.2761 6.50002 20.4999 6.27616 20.4999 6.00002C20.4999 5.72388 20.2761 5.50002 19.9999 5.50002Z" fill="black"/>
</svg>
