<svg width="24" height="24" viewBox="0 0 24 24" fill="none" xmlns="http://www.w3.org/2000/svg">
<path d="M7.74494 19.5H16.2463C16.6601 19.5 16.9956 19.8358 16.9956 20.25C16.9956 20.6297 16.7137 20.9435 16.348 20.9932L16.2463 21H7.74494C7.3311 21 6.99561 20.6642 6.99561 20.25C6.99561 19.8703 7.27751 19.5565 7.64326 19.5068L7.74494 19.5H16.2463H7.74494ZM4.75006 16.5192H19.2501C19.6643 16.5192 20.0001 16.855 20.0001 17.2692C20.0001 17.6489 19.7179 17.9627 19.3518 18.0124L19.2501 18.0192H4.75006C4.33584 18.0192 4.00006 17.6834 4.00006 17.2692C4.00006 16.8895 4.28221 16.5757 4.64829 16.5261L4.75006 16.5192ZM12.0001 3.00482C15.1686 3.00482 16.966 5.10211 17.2275 7.63495L17.3074 7.63495C19.3465 7.63495 20.9995 9.28367 20.9995 11.3175C20.9995 13.3513 19.3465 15 17.3074 15H6.69269C4.65361 15 3.00061 13.3513 3.00061 11.3175C3.00061 9.28367 4.65361 7.63495 6.69271 7.63495L6.77266 7.63495C7.03559 5.08546 8.83152 3.00482 12.0001 3.00482ZM12.0001 4.50241C9.92873 4.50241 8.12335 6.13565 8.12335 8.39163C8.12335 8.74908 7.8044 9.02958 7.43918 9.02956L6.74863 9.02954C5.48764 9.02954 4.4654 10.0308 4.4654 11.266C4.4654 12.5011 5.48764 13.5024 6.74863 13.5024H17.2515C18.5125 13.5024 19.5347 12.5011 19.5347 11.266C19.5347 10.0308 18.5125 9.02954 17.2515 9.02954L16.5609 9.02956C16.1957 9.02958 15.8768 8.74908 15.8768 8.39163C15.8768 6.10671 14.0714 4.50241 12.0001 4.50241Z" fill="black"/>
</svg>
