<svg width="24" height="24" viewBox="0 0 24 24" fill="none" xmlns="http://www.w3.org/2000/svg">
<path d="M13.0022 6.01014C16.1707 6.01014 17.9681 8.10743 18.2296 10.6403L18.3095 10.6403C20.3486 10.6403 22.0016 12.289 22.0016 14.3228C22.0016 16.3566 20.3486 18.0053 18.3095 18.0053L17.6909 18.0036L16.1401 20.6283C15.933 20.987 15.4743 21.1099 15.1156 20.9028C14.7868 20.7129 14.6561 20.3117 14.7961 19.9698L14.8411 19.8783L15.9589 18.0036H13.8229L12.2719 20.6283C12.0648 20.987 11.6061 21.1099 11.2474 20.9028C10.9186 20.7129 10.7879 20.3117 10.9279 19.9698L10.9729 19.8783L12.0909 18.0036H9.95492L8.4037 20.6283C8.1966 20.987 7.7379 21.1099 7.37918 20.9028C7.05036 20.7129 6.91968 20.3117 7.05971 19.9698L7.10466 19.8783L8.22192 18.0036L7.69479 18.0053C5.65571 18.0053 4.00271 16.3566 4.00271 14.3228C4.00271 12.289 5.65571 10.6403 7.69482 10.6403L7.77476 10.6403C8.0377 8.09078 9.83363 6.01014 13.0022 6.01014ZM13.0022 7.50773C10.9308 7.50773 9.12545 9.14097 9.12545 11.3969C9.12545 11.7544 8.8065 12.0349 8.44129 12.0349L7.75073 12.0349C6.48974 12.0349 5.4675 13.0361 5.4675 14.2713C5.4675 15.5064 6.48974 16.5077 7.75073 16.5077H18.2536C19.5146 16.5077 20.5368 15.5064 20.5368 14.2713C20.5368 13.0361 19.5146 12.0349 18.2536 12.0349L17.563 12.0349C17.1978 12.0349 16.8789 11.7544 16.8789 11.3969C16.8789 9.11203 15.0735 7.50773 13.0022 7.50773ZM4.36778 10.1656C4.51309 10.5164 4.3725 10.9143 4.05329 11.1002L3.96189 11.1455L3.03562 11.5292C2.65294 11.6877 2.21421 11.506 2.0557 11.1233C1.9104 10.7725 2.05099 10.3746 2.37019 10.1886L2.4616 10.1433L3.38786 9.75968C3.77055 9.60116 4.20927 9.78289 4.36778 10.1656ZM10.8548 5.33236L10.6832 5.38995C10.1491 5.57862 9.66039 5.83402 9.22291 6.14802C8.68948 5.97415 8.09319 5.9825 7.5337 6.21425C6.28791 6.73027 5.69632 8.1585 6.21234 9.40429C6.27295 9.55061 6.34614 9.68791 6.43014 9.81544C5.93793 9.95285 5.47697 10.1713 5.06361 10.4547C4.97479 10.3046 4.89559 10.1451 4.82652 9.97832C3.99348 7.96716 4.94852 5.66147 6.95968 4.82843C8.30198 4.27243 9.77547 4.51295 10.8548 5.33236ZM2.94104 5.36345L3.04654 5.39835L3.97281 5.78202C4.35549 5.94053 4.53722 6.37926 4.3787 6.76194C4.2346 7.10984 3.85892 7.29165 3.50429 7.20274L3.39878 7.16784L2.47252 6.78417C2.08983 6.62565 1.90811 6.18693 2.06662 5.80424C2.21072 5.45635 2.58641 5.27454 2.94104 5.36345ZM6.75626 2.37702L6.80153 2.46843L7.1852 3.39469C7.34372 3.77738 7.16199 4.2161 6.77931 4.37462C6.42851 4.51992 6.03063 4.37933 5.84466 4.06012L5.79939 3.96872L5.41571 3.04245C5.2572 2.65977 5.43893 2.22104 5.82161 2.06253C6.1724 1.91723 6.57029 2.05782 6.75626 2.37702ZM11.1096 2.05852C11.4575 2.20262 11.6393 2.5783 11.5504 2.93294L11.5155 3.03844L11.1318 3.96471C10.9733 4.34739 10.5346 4.52912 10.1519 4.3706C9.80401 4.2265 9.6222 3.85082 9.71111 3.49619L9.74601 3.39068L10.1297 2.46442C10.2882 2.08173 10.7269 1.90001 11.1096 2.05852Z" fill="black"/>
</svg>
