<svg width="24" height="24" viewBox="0 0 24 24" fill="none" xmlns="http://www.w3.org/2000/svg">
<path d="M14.4981 17.5C14.9123 17.5 15.2481 17.8358 15.2481 18.25C15.2481 18.6642 14.9123 19 14.4981 19C14.0838 19 13.7481 18.6642 13.7481 18.25C13.7481 17.8358 14.0838 17.5 14.4981 17.5ZM12.0001 4.0007C15.1686 4.0007 16.966 6.09799 17.2275 8.63083L17.3074 8.63083C19.3465 8.63083 20.9995 10.2795 20.9995 12.3134C20.9995 14.3472 19.3465 15.9959 17.3074 15.9959L16.0003 15.9969C15.9054 16.3023 15.6206 16.5241 15.2839 16.5241C14.9473 16.5241 14.6624 16.3023 14.5676 15.9969L8.98761 15.9957L7.40878 18.6228C7.20167 18.9815 6.74298 19.1044 6.38426 18.8973C6.05544 18.7074 5.92476 18.3062 6.06479 17.9643L6.10974 17.8728L7.25561 15.9957L6.69269 15.9959C4.65361 15.9959 3.00061 14.3472 3.00061 12.3134C3.00061 10.2795 4.65361 8.63083 6.69271 8.63083L6.77266 8.63083C7.03559 6.08134 8.83152 4.0007 12.0001 4.0007ZM11.5778 16.7046C11.9066 16.8944 12.0373 17.2957 11.8973 17.6375L11.8523 17.7291L11.2856 18.6278C11.0785 18.9866 10.6198 19.1095 10.2611 18.9024C9.93226 18.7125 9.80158 18.3113 9.94161 17.9694L9.98657 17.8778L10.5533 16.9791C10.7604 16.6204 11.2191 16.4975 11.5778 16.7046ZM17.2501 17C17.6643 17 18.0001 17.3358 18.0001 17.75C18.0001 18.1642 17.6643 18.5 17.2501 18.5C16.8358 18.5 16.5001 18.1642 16.5001 17.75C16.5001 17.3358 16.8358 17 17.2501 17ZM12.0001 5.49829C9.92873 5.49829 8.12335 7.13153 8.12335 9.38751C8.12335 9.74497 7.8044 10.0255 7.43918 10.0254L6.74863 10.0254C5.48764 10.0254 4.4654 11.0267 4.4654 12.2619C4.4654 13.497 5.48764 14.4983 6.74863 14.4983H17.2515C18.5125 14.4983 19.5347 13.497 19.5347 12.2619C19.5347 11.0267 18.5125 10.0254 17.2515 10.0254L16.5609 10.0254C16.1957 10.0255 15.8768 9.74497 15.8768 9.38751C15.8768 7.10259 14.0714 5.49829 12.0001 5.49829Z" fill="black"/>
</svg>
