<svg width="24" height="24" viewBox="0 0 24 24" fill="none" xmlns="http://www.w3.org/2000/svg">
<path d="M4.33833 17.0013C7.10018 21.7849 13.217 23.424 18.0007 20.6621C19.3034 19.91 20.4001 18.8925 21.2354 17.6796C21.5146 17.274 21.334 16.714 20.8704 16.548C17.103 15.1996 15.0852 13.637 13.9143 11.4019C12.6816 9.04896 12.3631 6.4715 13.2254 2.93849C13.3446 2.44996 12.9588 1.98479 12.4566 2.01174C10.8996 2.09527 9.37855 2.54251 7.99915 3.33891C3.21548 6.10076 1.57648 12.2176 4.33833 17.0013ZM12.5856 12.098C13.8369 14.4866 15.897 16.1971 19.4031 17.5969C18.7948 18.2927 18.0713 18.8893 17.2507 19.3631C13.1845 21.7107 7.985 20.3175 5.63737 16.2513C3.28973 12.185 4.68292 6.98558 8.74915 4.63794C9.6262 4.13158 10.569 3.79156 11.5413 3.62241C10.8942 7.0064 11.3116 9.6661 12.5856 12.098Z" fill="black"/>
</svg>
