<svg width="24" height="24" viewBox="0 0 24 24" fill="none" xmlns="http://www.w3.org/2000/svg">
<path d="M12.0001 4.00069C15.1686 4.00069 16.966 6.09799 17.2275 8.63082L17.3074 8.63082C19.3465 8.63082 20.9995 10.2795 20.9995 12.3133C20.9995 14.3471 19.3465 15.9959 17.3074 15.9959L16.7246 15.9957L15.1429 18.6302C14.9358 18.9889 14.4771 19.1118 14.1184 18.9047C13.7896 18.7148 13.6589 18.3136 13.7989 17.9717L13.8439 17.8802L14.9926 15.9957H12.8566L11.2747 18.6302C11.0676 18.9889 10.6089 19.1118 10.2502 18.9047C9.92135 18.7148 9.79068 18.3136 9.9307 17.9717L9.97566 17.8802L11.1246 15.9957H8.98761L7.40649 18.6302C7.19939 18.9889 6.74069 19.1118 6.38197 18.9047C6.05315 18.7148 5.92247 18.3136 6.0625 17.9717L6.10745 17.8802L7.25561 15.9957L6.69269 15.9959C4.65361 15.9959 3.00061 14.3471 3.00061 12.3133C3.00061 10.2795 4.65361 8.63082 6.69271 8.63082L6.77266 8.63082C7.03559 6.08134 8.83152 4.00069 12.0001 4.00069ZM12.0001 5.49828C9.92873 5.49828 8.12335 7.13153 8.12335 9.3875C8.12335 9.74496 7.8044 10.0255 7.43918 10.0254L6.74863 10.0254C5.48764 10.0254 4.4654 11.0267 4.4654 12.2619C4.4654 13.497 5.48764 14.4983 6.74863 14.4983H17.2515C18.5125 14.4983 19.5347 13.497 19.5347 12.2619C19.5347 11.0267 18.5125 10.0254 17.2515 10.0254L16.5609 10.0254C16.1957 10.0255 15.8768 9.74496 15.8768 9.3875C15.8768 7.10259 14.0714 5.49828 12.0001 5.49828Z" fill="black"/>
</svg>
