<svg width="24" height="24" viewBox="0 0 24 24" fill="none" xmlns="http://www.w3.org/2000/svg">
<path d="M18.9979 9.99999C20.6557 9.99999 21.9999 11.343 21.9999 13C21.9999 14.5978 20.75 15.9037 19.1743 15.9949L18.9672 15.9998L18.8654 16.0067L17.6996 16.007C17.8905 16.3801 17.9981 16.8022 17.9981 17.2496C17.9981 18.7792 16.8454 20.0056 15.3231 20.0056C13.8181 20.0056 12.9075 19.1238 12.6627 17.9027C12.5813 17.4965 12.8446 17.1013 13.2507 17.0199C13.6569 16.9385 14.0521 17.2017 14.1335 17.6079C14.2468 18.1732 14.5901 18.5056 15.3231 18.5056C15.9955 18.5056 16.4981 17.9708 16.4981 17.2496C16.4981 16.5614 15.9302 16 15.2254 16L2.73657 16.0067C2.32236 16.0067 1.98657 15.6709 1.98657 15.2567C1.98657 14.877 2.26873 14.5632 2.6348 14.5135L2.73657 14.5067L15.1236 14.5068L15.2254 14.5C15.2895 14.5 15.3532 14.5022 15.4163 14.5064L18.888 14.508L18.9424 14.502L19.1426 14.4931C19.9044 14.4204 20.4999 13.7795 20.4999 13C20.4999 12.1717 19.8276 11.5 18.9979 11.5C18.2492 11.5 17.6238 12.0488 17.5132 12.7705L17.4856 13.0089C17.414 13.3713 17.0838 13.634 16.7048 13.6112C16.2913 13.5862 15.9764 13.2308 16.0013 12.8174C16.0966 11.2382 17.4082 9.99999 18.9979 9.99999ZM12.0003 12H2.75555C2.34134 12 2.00555 11.6642 2.00555 11.25C2.00555 10.8703 2.28771 10.5565 2.65378 10.5068L2.75555 10.5H12.0003C13.3811 10.5 14.5006 9.38056 14.5006 7.99968C14.5006 6.61879 13.3811 5.49936 12.0003 5.49936C10.6194 5.49936 9.49994 6.61879 9.49994 7.99968C9.49994 8.41389 9.16415 8.74967 8.74994 8.74967C8.33573 8.74967 7.99994 8.41389 7.99994 7.99968C7.99994 5.79036 9.79094 3.99936 12.0003 3.99936C14.2096 3.99936 16.0006 5.79036 16.0006 7.99968C16.0006 10.1349 14.3277 11.8794 12.2211 11.994L12.0003 12H2.75555H12.0003Z" fill="black"/>
</svg>
