<svg width="24" height="24" viewBox="0 0 24 24" fill="none" xmlns="http://www.w3.org/2000/svg">
<path d="M17.7451 10.7508C18.3359 11.3415 18.8473 12.0581 19.237 12.82C19.4256 13.1888 19.2796 13.6407 18.9108 13.8293C18.542 14.0179 18.0902 13.8719 17.9015 13.5031C17.5812 12.8767 17.161 12.288 16.6844 11.8114C14.1218 9.24875 9.96686 9.24875 7.40421 11.8114C6.90639 12.3092 6.50198 12.869 6.19062 13.4845C6.00366 13.8542 5.55247 14.0022 5.18285 13.8153C4.81322 13.6283 4.66515 13.1771 4.85211 12.8075C5.23491 12.0507 5.73295 11.3613 6.34355 10.7508C9.49199 7.60231 14.5966 7.60231 17.7451 10.7508ZM15.6432 13.8196C16.0908 14.2672 16.459 14.8169 16.7153 15.4017C16.8816 15.7811 16.7088 16.2235 16.3294 16.3897C15.95 16.556 15.5077 16.3832 15.3414 16.0038C15.1584 15.586 14.8947 15.1924 14.5825 14.8803C13.1798 13.4775 10.9055 13.4775 9.50278 14.8803C9.19226 15.1908 8.94016 15.5689 8.75558 15.9908C8.58954 16.3703 8.1473 16.5433 7.76783 16.3772C7.38835 16.2112 7.21533 15.769 7.38137 15.3895C7.63882 14.8011 7.99521 14.2665 8.44212 13.8196C10.4306 11.8311 13.6547 11.8311 15.6432 13.8196ZM20.4482 8.27886C20.9573 8.78791 21.4379 9.36949 21.8563 9.97574C22.0916 10.3166 22.006 10.7837 21.6651 11.019C21.3242 11.2543 20.8571 11.1687 20.6218 10.8278C20.2538 10.2946 19.831 9.78291 19.3876 9.33952C15.3075 5.25947 8.69243 5.25947 4.61238 9.33952C4.1905 9.7614 3.77208 10.273 3.39035 10.8233C3.15424 11.1636 2.68695 11.2481 2.34661 11.012C2.00628 10.7759 1.92178 10.3086 2.15788 9.96828C2.58804 9.34822 3.06246 8.76812 3.55172 8.27886C8.21756 3.61302 15.7824 3.61302 20.4482 8.27886ZM13.0608 16.4393C13.6466 17.0251 13.6466 17.975 13.0608 18.5608C12.4749 19.1467 11.525 19.1467 10.9392 18.5608C10.3533 17.975 10.3533 17.0251 10.9392 16.4393C11.525 15.8534 12.4749 15.8534 13.0608 16.4393Z" fill="black"/>
</svg>
