<svg width="24" height="24" viewBox="0 0 24 24" fill="none" xmlns="http://www.w3.org/2000/svg">
<path d="M10.9392 16.4392C11.5251 15.8534 12.475 15.8534 13.0608 16.4392C13.6467 17.0251 13.6467 17.975 13.0608 18.5608C12.475 19.1467 11.5251 19.1467 10.9392 18.5608C10.3534 17.975 10.3534 17.0251 10.9392 16.4392ZM8.44219 13.8196C10.4307 11.8311 13.6548 11.8311 15.6433 13.8196C16.0909 14.2672 16.4591 14.8169 16.7154 15.4017C16.8816 15.7811 16.7089 16.2234 16.3295 16.3897C15.9501 16.5559 15.5078 16.3832 15.3415 16.0038C15.1584 15.586 14.8948 15.1924 14.5826 14.8802C13.1799 13.4775 10.9056 13.4775 9.50285 14.8802C9.19234 15.1908 8.94023 15.5689 8.75565 15.9908C8.58961 16.3703 8.14738 16.5433 7.7679 16.3772C7.38842 16.2112 7.2154 15.769 7.38145 15.3895C7.6389 14.8011 7.99528 14.2665 8.44219 13.8196Z" fill="black"/>
</svg>
