<svg width="24" height="24" viewBox="0 0 24 24" fill="none" xmlns="http://www.w3.org/2000/svg">
<path d="M6.5 12C9.53757 12 12 14.4624 12 17.5C12 20.5376 9.53757 23 6.5 23C3.46243 23 1 20.5376 1 17.5C1 14.4624 3.46243 12 6.5 12ZM6.5 13.9982C5.58183 13.9982 4.82881 14.7053 4.7558 15.6047L4.75 15.7482L4.75034 16.5296C4.35482 16.6313 4.05393 16.9688 4.00652 17.3833L4 17.4982V19.9982C4 20.511 4.38604 20.9337 4.88338 20.9915L5 20.9982H8C8.51284 20.9982 8.93551 20.6121 8.99327 20.1148L9 19.9982V17.4982C9 17.0713 8.73249 16.7069 8.35595 16.5634L8.25068 16.5299L8.25 15.7482C8.25 14.7817 7.4665 13.9982 6.5 13.9982ZM6.5 14.9982C6.8797 14.9982 7.19349 15.2803 7.24315 15.6464L7.25 15.7482V16.4982H5.75V15.7482C5.75 15.334 6.08579 14.9982 6.5 14.9982ZM15.6432 13.8196C16.0908 14.2672 16.4591 14.8169 16.7153 15.4017C16.8816 15.7811 16.7088 16.2235 16.3294 16.3897C15.95 16.556 15.5077 16.3832 15.3415 16.0038C15.1584 15.586 14.8948 15.1924 14.5826 14.8803C13.8365 14.1341 12.8437 13.7849 11.8668 13.8325C11.5304 13.3405 11.1278 12.8973 10.6721 12.5154C12.3838 12.0384 14.2967 12.4731 15.6432 13.8196ZM17.7451 10.7508C18.3359 11.3415 18.8473 12.0581 19.237 12.82C19.4257 13.1888 19.2796 13.6407 18.9108 13.8293C18.5421 14.0179 18.0902 13.8719 17.9016 13.5031C17.5812 12.8767 17.161 12.288 16.6844 11.8114C14.3451 9.47207 10.6789 9.26821 8.10836 11.1998C7.59436 11.0696 7.05531 11 6.5 11C6.36318 11 6.22734 11.0042 6.09261 11.0126C6.17398 10.9241 6.25766 10.8367 6.34358 10.7508C9.49202 7.60231 14.5967 7.60231 17.7451 10.7508ZM20.4483 8.27886C20.9573 8.78791 21.4379 9.36949 21.8564 9.97574C22.0917 10.3166 22.006 10.7837 21.6651 11.019C21.3242 11.2543 20.8571 11.1687 20.6218 10.8278C20.2538 10.2946 19.831 9.78291 19.3876 9.33952C15.3075 5.25947 8.69246 5.25947 4.61241 9.33952C4.19053 9.7614 3.77212 10.273 3.39038 10.8233C3.15428 11.1636 2.68698 11.2481 2.34665 11.012C2.00631 10.7759 1.92181 10.3086 2.15792 9.96828C2.58808 9.34822 3.06249 8.76812 3.55175 8.27886C8.21759 3.61302 15.7824 3.61302 20.4483 8.27886Z" fill="black"/>
</svg>
