<svg width="24" height="24" viewBox="0 0 24 24" fill="none" xmlns="http://www.w3.org/2000/svg">
<path d="M17.7451 10.7507C18.3359 11.3415 18.8473 12.0581 19.237 12.82C19.4257 13.1888 19.2796 13.6407 18.9108 13.8293C18.5421 14.0179 18.0902 13.8719 17.9016 13.5031C17.5812 12.8767 17.161 12.2879 16.6844 11.8114C14.1218 9.24874 9.9669 9.24874 7.40425 11.8114C6.90643 12.3092 6.50202 12.869 6.19066 13.4845C6.0037 13.8541 5.5525 14.0022 5.18288 13.8153C4.81326 13.6283 4.66519 13.1771 4.85214 12.8075C5.23495 12.0507 5.73299 11.3613 6.34359 10.7507C9.49203 7.60229 14.5967 7.60229 17.7451 10.7507ZM15.6432 13.8196C16.0909 14.2672 16.4591 14.8169 16.7154 15.4017C16.8816 15.7811 16.7088 16.2234 16.3294 16.3897C15.95 16.5559 15.5077 16.3832 15.3415 16.0038C15.1584 15.586 14.8948 15.1924 14.5826 14.8802C13.1798 13.4775 10.9056 13.4775 9.50282 14.8802C9.1923 15.1908 8.9402 15.5689 8.75562 15.9908C8.58957 16.3703 8.14734 16.5433 7.76787 16.3772C7.38839 16.2112 7.21537 15.769 7.38141 15.3895C7.63886 14.8011 7.99525 14.2665 8.44216 13.8196C10.4307 11.8311 13.6547 11.8311 15.6432 13.8196ZM13.0608 16.4392C13.6467 17.0251 13.6467 17.975 13.0608 18.5608C12.4749 19.1467 11.5251 19.1467 10.9392 18.5608C10.3534 17.975 10.3534 17.0251 10.9392 16.4392C11.5251 15.8534 12.4749 15.8534 13.0608 16.4392Z" fill="black"/>
</svg>
