<svg width="24" height="24" viewBox="0 0 24 24" fill="none" xmlns="http://www.w3.org/2000/svg">
<path d="M21.25 7C21.6297 7 21.9435 7.28215 21.9932 7.64823L22 7.75V15.75C22 16.1297 21.7178 16.4435 21.3518 16.4932L21.25 16.5H4.75C4.3703 16.5 4.05651 16.2178 4.00685 15.8518L4 15.75V14H2.75C2.3703 14 2.05651 13.7178 2.00685 13.3518L2 13.25V7.75C2 7.3703 2.28215 7.05651 2.64823 7.00685L2.75 7H21.25ZM20.5 14H5.5V15H20.5V14ZM20.5 8.5H3.5V12.5H20.5V8.5ZM18.25 9.75C18.6642 9.75 19 10.0858 19 10.5C19 10.9142 18.6642 11.25 18.25 11.25C17.8358 11.25 17.5 10.9142 17.5 10.5C17.5 10.0858 17.8358 9.75 18.25 9.75Z" fill="black"/>
</svg>
