<svg width="1220" height="320" viewBox="0 0 1220 320" fill="none" xmlns="http://www.w3.org/2000/svg">
<path d="M584.167 230C587.388 230 590 232.612 590 235.833V242.5C590 244.826 588.639 246.834 586.669 247.771L586.667 280.833C586.667 287.737 581.07 293.333 574.167 293.333H545.833C538.93 293.333 533.333 287.737 533.333 280.833L533.334 247.772C531.363 246.836 530 244.827 530 242.5V235.833C530 232.612 532.612 230 535.833 230H584.167ZM581.667 248.333H538.333V280.833C538.333 284.975 541.691 288.333 545.833 288.333H574.167C578.309 288.333 581.667 284.975 581.667 280.833V248.333ZM553.333 258.333H566.667C568.047 258.333 569.167 259.453 569.167 260.833C569.167 262.099 568.226 263.145 567.006 263.311L566.667 263.333H553.333C551.953 263.333 550.833 262.214 550.833 260.833C550.833 259.568 551.774 258.522 552.994 258.356L553.333 258.333H566.667H553.333ZM584.167 235H535.833C535.373 235 535 235.373 535 235.833V242.5C535 242.96 535.373 243.333 535.833 243.333H584.167C584.627 243.333 585 242.96 585 242.5V235.833C585 235.373 584.627 235 584.167 235Z" fill="#161616"/>
<path d="M479.177 266.666C483.319 266.666 486.677 270.024 486.677 274.166V277.183C486.677 280.829 485.085 284.293 482.319 286.668C477.101 291.147 469.633 293.337 460 293.337C450.368 293.337 442.906 291.148 437.696 286.669C434.934 284.295 433.345 280.833 433.345 277.191V274.166C433.345 270.024 436.703 266.666 440.845 266.666H479.177ZM479.177 271.666H440.845C439.464 271.666 438.345 272.786 438.345 274.166V277.191C438.345 279.376 439.298 281.453 440.956 282.878C445.149 286.483 451.469 288.337 460 288.337C468.533 288.337 474.859 286.482 479.062 282.874C480.722 281.449 481.677 279.371 481.677 277.183V274.166C481.677 272.786 480.558 271.666 479.177 271.666ZM459.662 226.691L460.001 226.668C461.267 226.668 462.313 227.609 462.478 228.829L462.501 229.168L462.498 231.665L474.167 231.667C478.309 231.667 481.667 235.025 481.667 239.167V254.182C481.667 258.324 478.309 261.682 474.167 261.682H445.833C441.691 261.682 438.333 258.324 438.333 254.182V239.167C438.333 235.025 441.691 231.667 445.833 231.667L457.498 231.665L457.501 229.168C457.501 227.903 458.442 226.857 459.662 226.691L460.001 226.668L459.662 226.691ZM474.167 236.667H445.833C444.453 236.667 443.333 237.786 443.333 239.167V254.182C443.333 255.563 444.453 256.682 445.833 256.682H474.167C475.547 256.682 476.667 255.563 476.667 254.182V239.167C476.667 237.786 475.547 236.667 474.167 236.667ZM452.498 241.667C454.797 241.667 456.662 243.531 456.662 245.831C456.662 248.131 454.797 249.995 452.498 249.995C450.198 249.995 448.333 248.131 448.333 245.831C448.333 243.531 450.198 241.667 452.498 241.667ZM467.473 241.667C469.773 241.667 471.638 243.531 471.638 245.831C471.638 248.131 469.773 249.995 467.473 249.995C465.174 249.995 463.309 248.131 463.309 245.831C463.309 243.531 465.174 241.667 467.473 241.667Z" fill="#161616"/>
<path d="M333.333 266.663L363.333 266.667C366.846 266.667 369.727 269.385 369.982 272.836L370 273.333V278.333C369.997 290 357.613 293.333 348.333 293.333C339.26 293.333 327.216 290.147 326.685 279.099L326.667 278.333V273.33C326.667 269.817 329.388 266.936 332.836 266.682L333.333 266.663ZM370.733 266.667H386.667C390.179 266.667 393.06 269.388 393.315 272.836L393.333 273.333V276.667C393.33 286.873 383.807 290 376.667 290C374.4 290 371.897 289.68 369.533 288.927C370.653 287.64 371.557 286.17 372.207 284.503C374.017 284.92 375.717 285 376.667 285L377.555 284.98C380.839 284.836 387.843 283.769 388.309 277.35L388.333 276.667V273.333C388.333 272.516 387.741 271.835 386.965 271.694L386.667 271.667H373.163C372.883 269.995 372.185 268.477 371.182 267.199L370.733 266.667H386.667H370.733ZM333.333 271.663L332.998 271.697C332.583 271.781 332.3 272.006 332.153 272.15C332.009 272.297 331.784 272.578 331.7 272.993L331.667 273.33V278.333C331.667 281.697 333.167 284.073 336.39 285.807C339.144 287.29 343.065 288.188 347.275 288.317L348.333 288.333L349.391 288.317C353.601 288.188 357.52 287.29 360.277 285.807C363.295 284.182 364.805 281.991 364.982 278.95L365 278.33V273.333C365 272.516 364.407 271.835 363.632 271.694L363.333 271.667L333.333 271.663ZM348.333 230C356.617 230 363.333 236.717 363.333 245C363.333 253.283 356.617 260 348.333 260C340.05 260 333.333 253.283 333.333 245C333.333 236.717 340.05 230 348.333 230ZM378.333 236.667C384.777 236.667 390 241.89 390 248.333C390 254.777 384.777 260 378.333 260C371.89 260 366.667 254.777 366.667 248.333C366.667 241.89 371.89 236.667 378.333 236.667ZM348.333 235C342.82 235 338.333 239.487 338.333 245C338.333 250.513 342.82 255 348.333 255C353.847 255 358.333 250.513 358.333 245C358.333 239.487 353.847 235 348.333 235ZM378.333 241.667C374.657 241.667 371.667 244.657 371.667 248.333C371.667 252.01 374.657 255 378.333 255C382.01 255 385 252.01 385 248.333C385 244.657 382.01 241.667 378.333 241.667Z" fill="#161616"/>
<path d="M167.5 226.671C168.766 226.671 169.812 227.612 169.977 228.832L170 229.171V231.678C170 233.787 169.347 235.744 168.232 237.357C173.077 239.019 176.578 243.58 176.665 248.972C177.102 248.57 177.689 248.327 178.333 248.327L180.823 248.327C184.965 248.309 188.309 244.938 188.292 240.796L188.271 235.844C188.266 234.463 189.38 233.339 190.761 233.333C192.142 233.328 193.266 234.442 193.271 235.823L193.292 240.775C193.319 247.456 188.101 252.934 181.507 253.306L180.792 253.327H178.333C177.693 253.327 177.108 253.086 176.666 252.689L176.667 258.333H190.838C192.219 258.333 193.338 259.453 193.338 260.833C193.338 262.099 192.398 263.145 191.177 263.311L190.838 263.333H176.667V269.998L177.459 270L178.174 270.02C184.548 270.38 189.637 275.511 189.944 281.888L189.959 282.552L189.938 287.504C189.932 288.884 188.808 289.999 187.428 289.993C186.162 289.988 185.12 289.043 184.959 287.822L184.938 287.483L184.959 282.531C184.975 278.561 181.905 275.299 178.003 275.019L177.49 275L175.904 275C173.781 281.763 167.463 286.668 160 286.668C152.537 286.668 146.219 281.763 144.096 275L142.469 275C138.327 275.017 134.983 278.389 135 282.531L135.021 287.483C135.026 288.864 133.912 289.988 132.531 289.993C131.15 289.999 130.026 288.884 130.021 287.504L130 282.552C129.972 275.871 135.191 270.393 141.785 270.02L142.5 270L143.333 269.998V263.333H129.167C127.786 263.333 126.667 262.214 126.667 260.833C126.667 259.568 127.607 258.522 128.827 258.356L129.167 258.333H143.333V253.325L142.5 253.327L141.785 253.306C135.411 252.947 130.322 247.815 130.015 241.439L130 240.775L130.021 235.823C130.026 234.442 131.15 233.328 132.531 233.333C133.797 233.339 134.839 234.283 134.999 235.504L135.021 235.844L135 240.796C134.984 244.765 138.054 248.027 141.956 248.307L142.469 248.327L143.362 248.326C143.706 243.219 147.117 238.952 151.77 237.354C150.777 235.923 150.151 234.218 150.024 232.375L150 231.678V229.171C150 227.791 151.119 226.671 152.5 226.671C153.766 226.671 154.812 227.612 154.977 228.832L155 229.171V231.678C155 234.44 157.239 236.678 160 236.678C162.599 236.678 164.735 234.695 164.977 232.16L165 231.678V229.171C165 227.791 166.119 226.671 167.5 226.671ZM164.167 241.678H155.833C151.691 241.678 148.333 245.036 148.333 249.178V270.002C148.333 276.445 153.557 281.668 160 281.668C166.443 281.668 171.667 276.445 171.667 270.002V249.178C171.667 245.036 168.309 241.678 164.167 241.678Z" fill="#161616"/>
<path d="M280.002 253.333C287.367 253.333 293.338 259.304 293.338 266.669C293.338 270.052 292.077 273.142 290.001 275.493L290.001 290.829C290.001 292.732 287.986 293.894 286.367 293.059L286.069 292.878L280.001 288.637L273.935 292.878C272.376 293.968 270.269 292.982 270.027 291.177L270.004 290.829L270 275.489C267.926 273.139 266.667 270.051 266.667 266.669C266.667 259.304 272.637 253.333 280.002 253.333ZM284.998 279.037C283.455 279.661 281.769 280.004 280.002 280.004C278.233 280.004 276.544 279.66 275 279.034L275.001 286.031L278.57 283.54C279.323 283.015 280.293 282.949 281.099 283.343L281.434 283.54L284.998 286.031L284.998 279.037ZM284.167 230.014C289.042 230.014 293.028 233.82 293.317 238.622L293.333 239.181L293.338 256.667C291.99 254.873 290.289 253.36 288.338 252.231L288.333 239.181C288.333 237.023 286.694 235.249 284.593 235.036L284.167 235.014H235.833C233.676 235.014 231.902 236.654 231.688 238.755L231.667 239.181V270.847C231.667 273.005 233.306 274.779 235.407 274.992L235.833 275.014L265.572 275.018L265.985 275.693L266.43 276.349L266.667 276.66L266.663 280.014H235.833C230.958 280.014 226.972 276.208 226.683 271.406L226.667 270.847V239.181C226.667 234.306 230.472 230.319 235.275 230.031L235.833 230.014H284.167ZM280.002 258.333C275.399 258.333 271.667 262.065 271.667 266.669C271.667 271.272 275.399 275.004 280.002 275.004C284.606 275.004 288.338 271.272 288.338 266.669C288.338 262.065 284.606 258.333 280.002 258.333ZM257.5 261.667C258.881 261.667 260 262.786 260 264.167C260 265.432 259.059 266.478 257.839 266.644L257.5 266.667H242.5C241.119 266.667 240 265.547 240 264.167C240 262.901 240.941 261.855 242.161 261.689L242.5 261.667H257.5ZM277.5 243.333C278.881 243.333 280 244.453 280 245.833C280 247.099 279.059 248.145 277.839 248.311L277.5 248.333H242.5C241.119 248.333 240 247.214 240 245.833C240 244.568 240.941 243.522 242.161 243.356L242.5 243.333H277.5Z" fill="#161616"/>
<path d="M632.797 239.525C642.6 226.473 662.896 222.675 677.343 231.658C691.609 240.528 696.856 257.582 691.013 273.582C685.496 288.691 670.958 294.677 660.481 287.077C656.556 284.23 655.034 280.661 654.299 274.864L653.948 271.571L653.796 270.247C653.387 267.133 652.759 265.738 651.448 265.007C649.663 264.012 648.474 263.989 646.13 264.898L644.96 265.383L644.364 265.643C640.985 267.11 638.737 267.626 635.893 267.03L635.226 266.873L634.681 266.718C625.384 263.837 624.007 251.227 632.797 239.525ZM636.078 261.913L636.487 262.035L636.934 262.137C638.397 262.427 639.648 262.186 641.724 261.331L643.731 260.474C647.738 258.831 650.348 258.67 653.883 260.64C656.941 262.345 658.134 264.965 658.742 269.506L658.919 271.036L659.1 272.808L659.257 274.216C659.83 278.754 660.873 281.185 663.417 283.03C671.001 288.531 681.865 284.058 686.316 271.867C691.37 258.027 686.897 243.486 674.703 235.904C662.456 228.289 645.042 231.548 636.795 242.528C629.879 251.736 630.727 260.126 636.078 261.913ZM673.492 255.265C672.897 253.042 674.216 250.758 676.439 250.162C678.662 249.567 680.946 250.886 681.542 253.108C682.137 255.331 680.818 257.616 678.596 258.212C676.373 258.807 674.088 257.488 673.492 255.265ZM675.141 266.894C674.546 264.671 675.865 262.387 678.087 261.791C680.31 261.195 682.595 262.515 683.191 264.737C683.786 266.96 682.467 269.245 680.244 269.84C678.021 270.436 675.737 269.117 675.141 266.894ZM666.897 245.256C666.302 243.034 667.621 240.749 669.844 240.153C672.067 239.558 674.351 240.877 674.947 243.099C675.542 245.322 674.223 247.607 672.001 248.203C669.778 248.798 667.493 247.479 666.897 245.256ZM666.803 275.251C666.207 273.028 667.526 270.743 669.749 270.148C671.972 269.552 674.256 270.871 674.852 273.094C675.448 275.317 674.128 277.602 671.906 278.197C669.683 278.793 667.398 277.474 666.803 275.251ZM655.146 242.018C654.551 239.795 655.87 237.51 658.092 236.915C660.315 236.319 662.6 237.638 663.196 239.861C663.791 242.084 662.472 244.368 660.249 244.964C658.026 245.56 655.742 244.24 655.146 242.018Z" fill="#161616"/>
<path d="M160 126.667C162.38 126.667 164.729 126.916 167.02 127.408C168.955 127.823 169.663 130.216 168.266 131.617C166.716 133.171 165.833 135.262 165.833 137.5C165.833 141.401 168.537 144.757 172.286 145.621C173.52 145.905 174.346 147.066 174.211 148.325C174.181 148.596 174.167 148.877 174.167 149.167C174.167 153.769 177.898 157.5 182.5 157.5C184.922 157.5 187.171 156.464 188.745 154.684C190.175 153.067 192.845 153.901 193.1 156.046C193.255 157.349 193.333 158.67 193.333 160C193.333 178.409 178.409 193.333 160 193.333C141.591 193.333 126.667 178.409 126.667 160C126.667 141.591 141.591 126.667 160 126.667ZM160 131.667C144.352 131.667 131.667 144.352 131.667 160C131.667 175.648 144.352 188.333 160 188.333C174.789 188.333 186.932 177.003 188.22 162.549L188.283 161.695L188.307 161.17L187.662 161.464C186.56 161.926 185.391 162.242 184.183 162.394L183.27 162.478L182.5 162.5C175.813 162.5 170.276 157.577 169.314 151.158L169.231 150.489L169.183 149.867L168.7 149.665C164.42 147.742 161.4 143.653 160.905 138.885L160.85 138.165L160.833 137.5C160.833 136.01 161.079 134.559 161.545 133.193L161.851 132.383L162.133 131.75L161.212 131.692L160 131.667ZM170 173.333C171.841 173.333 173.333 174.826 173.333 176.667C173.333 178.508 171.841 180 170 180C168.159 180 166.667 178.508 166.667 176.667C166.667 174.826 168.159 173.333 170 173.333ZM146.667 170C148.508 170 150 171.492 150 173.333C150 175.174 148.508 176.667 146.667 176.667C144.826 176.667 143.333 175.174 143.333 173.333C143.333 171.492 144.826 170 146.667 170ZM160 156.667C161.841 156.667 163.333 158.159 163.333 160C163.333 161.841 161.841 163.333 160 163.333C158.159 163.333 156.667 161.841 156.667 160C156.667 158.159 158.159 156.667 160 156.667ZM143.333 146.667C145.174 146.667 146.667 148.159 146.667 150C146.667 151.841 145.174 153.333 143.333 153.333C141.492 153.333 140 151.841 140 150C140 148.159 141.492 146.667 143.333 146.667Z" fill="#161616"/>
<path d="M30 132.5C30 131.119 31.1193 130 32.5 130C33.8807 130 35 131.119 35 132.5V185H87.5C88.8807 185 90 186.119 90 187.5C90 188.881 88.8807 190 87.5 190H32.5C31.1193 190 30 188.881 30 187.5V132.5Z" fill="#161616"/>
<path fill-rule="evenodd" clip-rule="evenodd" d="M76.6667 133.333C71.1438 133.333 66.6667 137.81 66.6667 143.333C66.6667 148.856 71.1438 153.333 76.6667 153.333C82.1895 153.333 86.6667 148.856 86.6667 143.333C86.6667 137.81 82.1895 133.333 76.6667 133.333ZM71.6667 143.333C71.6667 140.572 73.9052 138.333 76.6667 138.333C79.4281 138.333 81.6667 140.572 81.6667 143.333C81.6667 146.095 79.4281 148.333 76.6667 148.333C73.9052 148.333 71.6667 146.095 71.6667 143.333Z" fill="#161616"/>
<path fill-rule="evenodd" clip-rule="evenodd" d="M40 150C40 144.477 44.4772 140 50 140C55.5228 140 60 144.477 60 150C60 155.523 55.5228 160 50 160C44.4772 160 40 155.523 40 150ZM50 145C47.2386 145 45 147.239 45 150C45 152.761 47.2386 155 50 155C52.7614 155 55 152.761 55 150C55 147.239 52.7614 145 50 145Z" fill="#161616"/>
<path fill-rule="evenodd" clip-rule="evenodd" d="M70 160C64.4772 160 60 164.477 60 170C60 175.523 64.4772 180 70 180C75.5228 180 80 175.523 80 170C80 164.477 75.5228 160 70 160ZM65 170C65 167.239 67.2386 165 70 165C72.7614 165 75 167.239 75 170C75 172.761 72.7614 175 70 175C67.2386 175 65 172.761 65 170Z" fill="#161616"/>
<path d="M1030 132.492C1030 131.111 1031.12 129.992 1032.5 129.992H1087.51C1089.57 129.992 1090.75 132.344 1089.51 133.992L1075.63 152.496L1089.51 171C1090.75 172.648 1089.57 175 1087.51 175L1035 174.999V190.831C1035 192.097 1034.06 193.143 1032.84 193.308L1032.5 193.331C1031.23 193.331 1030.19 192.391 1030.02 191.171L1030 190.831V132.492ZM1082.51 134.992H1035V170H1082.51L1070.51 153.996C1069.84 153.107 1069.84 151.885 1070.51 150.996L1082.51 134.992Z" fill="#161616"/>
<path d="M1147.52 150C1150.74 150 1153.35 152.611 1153.35 155.833V187.5C1153.35 190.722 1150.74 193.333 1147.52 193.333H1132.5C1129.28 193.333 1126.67 190.722 1126.67 187.5V155.833C1126.67 152.611 1129.28 150 1132.5 150H1147.52ZM1147.52 155H1132.5C1132.04 155 1131.67 155.373 1131.67 155.833V187.5C1131.67 187.96 1132.04 188.333 1132.5 188.333H1147.52C1147.98 188.333 1148.35 187.96 1148.35 187.5V155.833C1148.35 155.373 1147.98 155 1147.52 155ZM1140.83 180C1142.21 180 1143.33 181.119 1143.33 182.5C1143.33 183.766 1142.39 184.812 1141.17 184.977L1140.83 185H1139.17C1137.79 185 1136.67 183.881 1136.67 182.5C1136.67 181.234 1137.61 180.188 1138.83 180.023L1139.17 180H1140.83ZM1185.83 126.667C1189.8 126.667 1193.05 129.751 1193.32 133.653L1193.33 134.167V164.167C1193.33 168.136 1190.25 171.385 1186.35 171.649L1185.83 171.667H1173.35V178.333H1177.5C1178.88 178.333 1180 179.453 1180 180.833C1180 182.099 1179.06 183.145 1177.84 183.311L1177.5 183.333H1156.67V178.333H1168.35V171.667H1156.67V166.667H1185.83C1187.1 166.667 1188.14 165.726 1188.31 164.506L1188.33 164.167V134.167C1188.33 132.786 1187.21 131.667 1185.83 131.667H1140.83C1139.57 131.667 1138.52 132.607 1138.36 133.827L1138.33 134.167V146.667H1133.33V134.167C1133.33 130.197 1136.42 126.948 1140.32 126.684L1140.83 126.667H1185.83Z" fill="#161616"/>
<path d="M375.829 126.667C379.972 126.667 383.329 130.025 383.329 134.167V185.833C383.329 189.975 379.972 193.333 375.829 193.333H340.833C336.691 193.333 333.333 189.975 333.333 185.833V134.167C333.333 130.025 336.691 126.667 340.833 126.667H375.829ZM375.829 131.667H340.833C339.453 131.667 338.333 132.786 338.333 134.167V185.833C338.333 187.214 339.453 188.333 340.833 188.333H375.829C377.21 188.333 378.329 187.214 378.329 185.833V134.167C378.329 132.786 377.21 131.667 375.829 131.667ZM386.667 170.006H389.167C390.432 170.006 391.478 170.947 391.644 172.167L391.667 172.506V177.5C391.667 178.766 390.726 179.812 389.506 179.977L389.167 180H386.667V170.006H389.167H386.667ZM386.667 156.673H389.167C390.432 156.673 391.478 157.614 391.644 158.834L391.667 159.173V164.167C391.667 165.432 390.726 166.478 389.506 166.644L389.167 166.667H386.667V156.673H389.167H386.667ZM386.667 143.34H389.167C390.432 143.34 391.478 144.28 391.644 145.501L391.667 145.84V150.833C391.667 152.099 390.726 153.145 389.506 153.311L389.167 153.333H386.667V143.34H389.167H386.667ZM370.829 136.667C372.21 136.667 373.329 137.786 373.329 139.167V147.495C373.329 148.876 372.21 149.995 370.829 149.995H345.833C344.453 149.995 343.333 148.876 343.333 147.495V139.167C343.333 137.786 344.453 136.667 345.833 136.667H370.829ZM368.329 141.667H348.333V144.995H368.329V141.667Z" fill="#161616"/>
<path d="M893.023 238.74C893.229 239.434 893.333 240.153 893.333 240.877V279.128C893.333 283.27 889.975 286.628 885.833 286.628C885.11 286.628 884.39 286.523 883.696 286.317L865.317 280.852C863.126 285.335 858.528 288.331 853.333 288.331C846.193 288.331 840.363 282.717 840.016 275.663L840 274.997L839.997 273.328L832.03 270.959C828.848 270.013 826.667 267.089 826.667 263.77V256.23C826.667 252.911 828.849 249.986 832.03 249.041L883.697 233.687C887.667 232.508 891.843 234.77 893.023 238.74ZM844.997 274.815L845 274.997C845 279.6 848.731 283.331 853.333 283.331C856.284 283.331 858.928 281.783 860.413 279.399L844.997 274.815ZM885.121 238.48L833.455 253.834C832.394 254.149 831.667 255.124 831.667 256.23V263.77C831.667 264.876 832.394 265.851 833.454 266.166L885.121 281.524C885.352 281.593 885.592 281.628 885.833 281.628C887.214 281.628 888.333 280.509 888.333 279.128V240.877C888.333 240.636 888.298 240.396 888.23 240.165C887.836 238.841 886.445 238.087 885.121 238.48Z" fill="#161616"/>
<path d="M946.885 83.144L968.552 34.8107C969.117 33.5508 970.596 32.9873 971.856 33.5521C973.011 34.0698 973.581 35.3559 973.233 36.5371L973.115 36.856L951.448 85.1893C950.883 86.4492 949.404 87.0127 948.144 86.4479C946.989 85.9302 946.419 84.6441 946.767 83.4629L946.885 83.144L968.552 34.8107L946.885 83.144ZM927.399 58.2322L941.566 44.0656C942.542 43.0893 944.125 43.0893 945.101 44.0656C945.989 44.9531 946.069 46.342 945.343 47.3207L945.101 47.6011L932.702 60L945.101 72.3989C946.077 73.3752 946.077 74.9581 945.101 75.9344C944.214 76.822 942.825 76.9027 941.846 76.1765L941.566 75.9344L927.399 61.7678C926.511 60.8802 926.431 59.4913 927.157 58.5126L927.399 58.2322L941.566 44.0656L927.399 58.2322ZM974.899 44.0656C975.786 43.178 977.175 43.0973 978.154 43.8235L978.434 44.0656L992.601 58.2322C993.489 59.1198 993.569 60.5087 992.843 61.4874L992.601 61.7678L978.434 75.9344C977.458 76.9107 975.875 76.9107 974.899 75.9344C974.011 75.0469 973.931 73.658 974.657 72.6793L974.899 72.3989L987.298 60L974.899 47.6011C973.923 46.6248 973.923 45.0419 974.899 44.0656Z" fill="#161616"/>
<path d="M849.964 28.3333C853.795 28.3333 857.403 29.8902 860.017 32.5556C862.628 29.8902 866.236 28.3333 870.068 28.3333H882.516C883.897 28.3333 885.016 29.4526 885.016 30.8333L885.016 33.3467L890.849 33.3486C892.115 33.3486 893.161 34.2891 893.326 35.5093L893.349 35.8486V87.5C893.349 88.7657 892.408 89.8116 891.188 89.9772L890.849 90H829.182C827.917 90 826.871 89.0595 826.705 87.8392L826.682 87.5V35.8486C826.682 34.5829 827.623 33.5369 828.843 33.3714L829.182 33.3486L835.012 33.3467L835.015 30.8333C835.015 29.5677 835.955 28.5217 837.176 28.3562L837.515 28.3333H849.964ZM835.012 38.3467H831.682V85L856.493 84.9994C854.838 83.0691 852.462 81.8627 849.89 81.6885L849.244 81.6667H837.515C836.249 81.6667 835.203 80.7262 835.038 79.5059L835.015 79.1667L835.012 38.3467ZM885.016 79.1667C885.016 80.5474 883.897 81.6667 882.516 81.6667H870.788C867.97 81.6667 865.331 82.9082 863.538 84.9994L888.349 85V38.3467H885.016L885.016 79.1667ZM880.02 33.33L870.068 33.3333L869.42 33.3564C866.63 33.5556 864.085 35.0325 862.516 37.3733V79.2567L862.594 79.2004C864.975 77.5732 867.816 76.6667 870.788 76.6667L880.02 76.6633L880.019 35.9933L880.011 35.8486L880.019 35.7L880.02 33.33ZM849.964 33.3333L840.012 33.33L840.02 35.8486L840.012 35.9433V76.6633L849.244 76.6667C851.918 76.6667 854.487 77.4009 856.709 78.7341L857.512 79.2533V37.37C856.067 35.2123 853.787 33.7879 851.251 33.4249L850.612 33.3564L849.964 33.3333Z" fill="#161616"/>
<path d="M660 26.6713C673.347 26.6713 684.167 37.4911 684.167 50.838C684.167 57.8249 681.164 64.237 675.29 69.9777C675.033 70.2283 674.835 70.5302 674.706 70.862L674.601 71.203L670.831 87.5217C670.089 90.7347 667.345 93.0625 664.101 93.3113L663.523 93.3333H656.478C653.179 93.3333 650.293 91.1832 649.321 88.0775L649.17 87.5198L645.404 71.2038C645.297 70.7375 645.058 70.3119 644.715 69.9775C639.117 64.5101 636.126 58.4338 635.854 51.8322L635.833 50.838L635.846 50.0403C636.267 37.0626 646.92 26.6713 660 26.6713ZM667.05 81.6647H652.947L654.042 86.3955C654.277 87.4164 655.119 88.1693 656.134 88.3097L656.478 88.3333H663.523C664.571 88.3333 665.494 87.6827 665.859 86.7259L665.959 86.3961L667.05 81.6647ZM660 31.6713C649.661 31.6713 641.234 39.858 640.847 50.1028L640.833 50.838L640.856 51.7614C641.11 56.9726 643.524 61.8251 648.209 66.4005C649.089 67.2604 649.742 68.3214 650.114 69.4879L650.276 70.0796L651.793 76.6647H668.203L669.73 70.0775C670.006 68.8796 670.573 67.7712 671.375 66.8476L671.795 66.4017C676.477 61.8263 678.891 56.9734 679.144 51.7615L679.167 50.838L679.153 50.1028C678.766 39.858 670.339 31.6713 660 31.6713Z" fill="#161616"/>
<path d="M470.843 126.667C474.704 126.667 477.884 129.584 478.298 133.335L482.524 133.333C485.584 133.333 488.094 135.69 488.338 138.688L488.357 139.167V149.167C488.357 154.943 483.835 159.664 478.138 159.983L477.437 160.002C475.211 166.97 469.109 172.205 461.667 173.172L461.665 178.333H467.51C473.287 178.333 478.008 182.855 478.326 188.552L478.343 189.167V190.833C478.343 192.099 477.403 193.145 476.183 193.311L475.843 193.333H442.5C441.234 193.333 440.188 192.393 440.023 191.173L440 190.833V189.167C440 183.39 444.522 178.669 450.219 178.35L450.833 178.333H456.665L456.666 173.171C449.229 172.2 443.131 166.967 440.906 160.002L440.818 160C434.835 160 429.985 155.15 429.985 149.167V139.167C429.985 135.945 432.597 133.333 435.818 133.333L440.046 133.335C440.459 129.584 443.639 126.667 447.5 126.667H470.843ZM467.51 183.333H450.833C448.067 183.333 445.751 185.258 445.151 187.842L445.059 188.333H473.284C472.904 185.673 470.728 183.591 468.023 183.356L467.51 183.333ZM470.843 131.667H447.5C446.119 131.667 445 132.786 445 134.167V154.162C445 161.988 451.345 168.333 459.172 168.333C466.999 168.333 473.343 161.988 473.343 154.162V134.167C473.343 132.786 472.224 131.667 470.843 131.667ZM482.524 138.333H478.343V154.943C481.01 154.568 483.098 152.389 483.335 149.68L483.357 149.167V139.167C483.357 138.772 483.083 138.442 482.715 138.355L482.524 138.333ZM440 138.333H435.818C435.358 138.333 434.985 138.706 434.985 139.167V149.167C434.985 152.111 437.166 154.545 440 154.943V138.333Z" fill="#161616"/>
<path d="M969.993 136.667C982.88 136.667 993.326 147.113 993.326 160C993.326 172.618 983.31 182.897 970.795 183.32L969.993 183.333H950.007C937.12 183.333 926.674 172.887 926.674 160C926.674 147.382 936.69 137.103 949.205 136.68L950.007 136.667H969.993ZM969.993 141.667H950.007C939.882 141.667 931.674 149.875 931.674 160C931.674 169.878 939.486 177.932 949.27 178.319L950.007 178.333H969.993C980.118 178.333 988.326 170.125 988.326 160C988.326 150.122 980.514 142.068 970.73 141.681L969.993 141.667ZM946.667 150C948.047 150 949.167 151.119 949.167 152.5L949.164 157.493L954.167 157.496C955.547 157.496 956.667 158.615 956.667 159.996C956.667 161.377 955.547 162.496 954.167 162.496L949.164 162.493L949.167 167.5C949.167 168.881 948.047 170 946.667 170C945.286 170 944.167 168.881 944.167 167.5L944.164 162.493L939.167 162.496C937.786 162.496 936.667 161.377 936.667 159.996C936.667 158.615 937.786 157.496 939.167 157.496L944.164 157.493L944.167 152.5C944.167 151.119 945.286 150 946.667 150ZM969.167 161.667C971.468 161.667 973.333 163.532 973.333 165.833C973.333 168.135 971.468 170 969.167 170C966.865 170 965 168.135 965 165.833C965 163.532 966.865 161.667 969.167 161.667ZM975.833 150C978.135 150 980 151.865 980 154.167C980 156.468 978.135 158.333 975.833 158.333C973.532 158.333 971.667 156.468 971.667 154.167C971.667 151.865 973.532 150 975.833 150Z" fill="#161616"/>
<path d="M863.333 126.681C868.659 126.681 873.012 130.844 873.313 136.078L873.33 136.663L880.833 136.667C883.724 136.667 886.123 138.769 886.586 141.529L886.647 142.022L886.667 142.501L886.664 155.004L880.005 155.004C877.526 155.004 875.451 156.815 875.072 159.134L875.021 159.575L875.005 160.004C875.005 162.483 876.815 164.558 879.135 164.938L879.576 164.988L880.005 165.004L886.664 165.004L886.667 177.509C886.667 180.569 884.31 183.079 881.311 183.323L880.833 183.342L873.33 183.34L873.316 183.916C873.035 188.768 869.294 192.693 864.522 193.258L863.921 193.311L863.333 193.328C858.008 193.328 853.654 189.165 853.35 183.926L853.333 183.34L845.833 183.342C842.943 183.342 840.543 181.24 840.081 178.481L840.019 177.988L840 177.509L839.997 170.003L839.453 169.987C834.601 169.706 830.676 165.965 830.111 161.194L830.058 160.592L830.041 160.004C830.041 154.679 834.204 150.325 839.453 150.021L839.997 150.003L840 142.5C840 139.609 842.102 137.21 844.861 136.747L845.354 136.686L845.833 136.667L853.33 136.663L853.35 136.093C853.631 131.24 857.373 127.316 862.144 126.751L862.746 126.698L863.333 126.681ZM863.333 131.681C860.734 131.681 858.598 133.664 858.356 136.201L858.333 136.683L858.328 141.663L845.833 141.667C845.439 141.667 845.108 141.941 845.022 142.309L845 142.501L844.997 155.004L840.041 155.004C837.279 155.004 835.041 157.243 835.041 160.004C835.041 162.603 837.024 164.739 839.559 164.981L840.041 165.004L844.997 165.004L845 177.509C845 177.903 845.274 178.234 845.642 178.32L845.833 178.342L858.328 178.34L858.333 183.328C858.333 186.089 860.572 188.328 863.333 188.328C865.932 188.328 868.068 186.345 868.31 183.811L868.333 183.33L868.328 178.34L880.833 178.342C881.228 178.342 881.558 178.068 881.645 177.7L881.667 177.509L881.663 170L879.921 170.003L879.323 169.981C874.285 169.641 870.309 165.59 870.023 160.511L870.006 159.92L870.028 159.322C870.368 154.285 874.419 150.309 879.423 150.021L880.005 150.004L881.663 150.003L881.667 142.5C881.667 142.184 881.491 141.91 881.232 141.768L881.024 141.689L880.833 141.667L868.328 141.663L868.333 136.681C868.333 133.919 866.095 131.681 863.333 131.681Z" fill="#161616"/>
<path d="M755.621 45.2179L756.075 45.6364L791.006 80.595C793.96 83.5505 793.958 88.3406 791.003 91.2942C788.047 94.2477 783.257 94.246 780.304 91.2905L745.374 56.3345C742.449 53.4042 742.45 48.6579 745.377 45.7283L745.899 45.2383C748.69 42.8463 752.822 42.8397 755.621 45.2179ZM758.447 55.0867L754.82 58.7133L783.84 87.7562C784.842 88.7584 786.466 88.759 787.468 87.7575C788.47 86.7559 788.471 85.1315 787.469 84.1292L758.447 55.0867ZM743.827 70.0228L744.167 70C745.432 70 746.478 70.9405 746.644 72.1608L746.667 72.5V75H749.167C750.432 75 751.478 75.9405 751.644 77.1608L751.667 77.5C751.667 78.7657 750.726 79.8116 749.506 79.9772L749.167 80H746.667V82.5C746.667 83.7657 745.726 84.8116 744.506 84.9772L744.167 85C742.901 85 741.855 84.0595 741.689 82.8392L741.667 82.5V80H739.167C737.901 80 736.855 79.0595 736.689 77.8392L736.667 77.5C736.667 76.2343 737.607 75.1884 738.827 75.0228L739.167 75H741.667V72.5C741.667 71.2343 742.607 70.1884 743.827 70.0228L744.167 70L743.827 70.0228ZM749.004 49.1721L748.913 49.2633C747.937 50.2405 747.936 51.8244 748.911 52.8011L751.283 55.1767L754.913 51.5467L752.481 49.1156C751.501 48.1956 749.962 48.2142 749.004 49.1721ZM777.161 36.6895L777.5 36.6667C778.766 36.6667 779.812 37.6072 779.977 38.8274L780 39.1667V41.6667H782.5C783.766 41.6667 784.812 42.6072 784.977 43.8274L785 44.1667C785 45.4323 784.059 46.4783 782.839 46.6438L782.5 46.6667H780V49.1667C780 50.4323 779.059 51.4783 777.839 51.6438L777.5 51.6667C776.234 51.6667 775.188 50.7262 775.023 49.5059L775 49.1667V46.6667H772.5C771.234 46.6667 770.188 45.7262 770.023 44.5059L770 44.1667C770 42.901 770.941 41.855 772.161 41.6895L772.5 41.6667H775V39.1667C775 37.901 775.941 36.855 777.161 36.6895L777.5 36.6667L777.161 36.6895ZM737.161 30.0228L737.5 30C738.766 30 739.812 30.9405 739.977 32.1608L740 32.5V35H742.5C743.766 35 744.812 35.9405 744.977 37.1608L745 37.5C745 38.7657 744.059 39.8116 742.839 39.9772L742.5 40H740V42.5C740 43.7657 739.059 44.8116 737.839 44.9772L737.5 45C736.234 45 735.188 44.0595 735.023 42.8392L735 42.5V40H732.5C731.234 40 730.188 39.0595 730.023 37.8392L730 37.5C730 36.2343 730.941 35.1884 732.161 35.0228L732.5 35H735V32.5C735 31.2343 735.941 30.1884 737.161 30.0228L737.5 30L737.161 30.0228Z" fill="#161616"/>
<path d="M1150.68 233.329L1150.83 233.325L1150.99 233.329C1151.06 233.334 1151.14 233.341 1151.21 233.353L1151.26 233.365C1151.55 233.411 1151.83 233.513 1152.1 233.673L1152.27 233.784L1169.18 245.669L1186.07 233.796C1187.63 232.7 1189.74 233.685 1189.98 235.492L1190 235.841V271.282C1190 271.98 1189.71 272.641 1189.21 273.11L1188.94 273.328L1170.61 286.216C1169.72 286.841 1168.65 286.789 1167.85 286.293L1150.83 274.322L1133.93 286.204C1132.37 287.3 1130.26 286.315 1130.02 284.508L1130 284.159V248.717C1130 248.02 1130.29 247.359 1130.79 246.89L1131.06 246.672L1149.39 233.784C1149.61 233.634 1149.83 233.523 1150.06 233.448L1150.46 233.355L1150.68 233.329ZM1185 240.654L1171.67 250.027V279.357L1185 269.984V240.654ZM1148.33 240.643L1135 250.016V279.346L1148.33 269.973V240.643ZM1153.34 240.643V269.973L1166.67 279.346V250.016L1153.34 240.643Z" fill="#161616"/>
<path d="M770.833 226.667C772.099 226.667 773.145 227.607 773.311 228.827L773.333 229.167L773.335 236.917C778.232 237.912 782.09 241.77 783.083 246.667L790.833 246.667C792.214 246.667 793.333 247.786 793.333 249.167C793.333 250.432 792.393 251.478 791.173 251.644L790.833 251.667H783.333V257.5H790.833C792.099 257.5 793.145 258.441 793.311 259.661L793.333 260C793.333 261.266 792.393 262.312 791.173 262.477L790.833 262.5H783.333V268.333H790.833C792.099 268.333 793.145 269.274 793.311 270.494L793.333 270.833C793.333 272.099 792.393 273.145 791.173 273.311L790.833 273.333L783.083 273.336C782.088 278.232 778.231 282.088 773.335 283.083L773.333 290.833C773.333 292.214 772.214 293.333 770.833 293.333C769.568 293.333 768.522 292.393 768.356 291.173L768.333 290.833V283.33H762.497L762.5 290.833C762.5 292.099 761.56 293.145 760.339 293.311L760 293.333C758.734 293.333 757.688 292.393 757.523 291.173L757.5 290.833L757.497 283.33H751.667V290.833C751.667 292.099 750.726 293.145 749.506 293.311L749.167 293.333C747.901 293.333 746.855 292.393 746.69 291.173L746.667 290.833L746.668 283.084C741.77 282.09 737.911 278.232 736.917 273.333L729.167 273.333C727.786 273.333 726.667 272.214 726.667 270.833C726.667 269.568 727.607 268.522 728.827 268.356L729.167 268.333L736.667 268.33V262.497L729.167 262.5C727.901 262.5 726.855 261.559 726.69 260.339L726.667 260C726.667 258.734 727.607 257.688 728.827 257.523L729.167 257.5L736.667 257.497V251.663L729.167 251.667C727.901 251.667 726.855 250.726 726.69 249.506L726.667 249.167C726.667 247.901 727.607 246.855 728.827 246.689L729.167 246.667L736.917 246.663C737.913 241.767 741.771 237.91 746.668 236.916L746.667 229.167C746.667 227.786 747.786 226.667 749.167 226.667C750.432 226.667 751.478 227.607 751.644 228.827L751.667 229.167V236.663H757.497L757.5 229.167C757.5 227.901 758.441 226.855 759.661 226.689L760 226.667C761.266 226.667 762.312 227.607 762.477 228.827L762.5 229.167L762.497 236.663H768.333V229.167C768.333 228.016 769.111 227.047 770.169 226.756L770.494 226.689L770.833 226.667ZM770.833 241.667H749.167C745.025 241.667 741.667 245.025 741.667 249.167V270.833C741.667 274.975 745.025 278.333 749.167 278.333H770.833C774.975 278.333 778.333 274.975 778.333 270.833V249.167C778.333 245.025 774.975 241.667 770.833 241.667ZM760.016 250.016C765.539 250.016 770.016 254.494 770.016 260.016C770.016 265.539 765.539 270.016 760.016 270.016C754.494 270.016 750.016 265.539 750.016 260.016C750.016 254.494 754.494 250.016 760.016 250.016ZM760.016 255.016C757.255 255.016 755.016 257.255 755.016 260.016C755.016 262.778 757.255 265.016 760.016 265.016C762.778 265.016 765.016 262.778 765.016 260.016C765.016 257.255 762.778 255.016 760.016 255.016Z" fill="#161616"/>
<path d="M1085.82 236.667C1089.96 236.667 1093.32 240.025 1093.32 244.167V275.849C1093.32 279.991 1089.96 283.349 1085.82 283.349H1034.17C1030.02 283.349 1026.67 279.991 1026.67 275.849V244.167C1026.67 240.025 1030.02 236.667 1034.17 236.667H1085.82ZM1085.82 241.667H1034.17C1032.79 241.667 1031.67 242.786 1031.67 244.167V275.849C1031.67 277.229 1032.79 278.349 1034.17 278.349H1085.82C1087.2 278.349 1088.32 277.229 1088.32 275.849V244.167C1088.32 242.786 1087.2 241.667 1085.82 241.667ZM1042.5 268.333H1077.5C1078.88 268.333 1080 269.453 1080 270.833C1080 272.099 1079.06 273.145 1077.84 273.311L1077.5 273.333H1042.5C1041.12 273.333 1040 272.214 1040 270.833C1040 269.568 1040.94 268.522 1042.16 268.356L1042.5 268.333H1077.5H1042.5ZM1075 256.667C1076.84 256.667 1078.33 258.159 1078.33 260C1078.33 261.841 1076.84 263.333 1075 263.333C1073.16 263.333 1071.67 261.841 1071.67 260C1071.67 258.159 1073.16 256.667 1075 256.667ZM1055.02 256.667C1056.86 256.667 1058.35 258.159 1058.35 260C1058.35 261.841 1056.86 263.333 1055.02 263.333C1053.18 263.333 1051.68 261.841 1051.68 260C1051.68 258.159 1053.18 256.667 1055.02 256.667ZM1045.02 256.667C1046.86 256.667 1048.35 258.159 1048.35 260C1048.35 261.841 1046.86 263.333 1045.02 263.333C1043.18 263.333 1041.68 261.841 1041.68 260C1041.68 258.159 1043.18 256.667 1045.02 256.667ZM1065.02 256.667C1066.86 256.667 1068.35 258.159 1068.35 260C1068.35 261.841 1066.86 263.333 1065.02 263.333C1063.18 263.333 1061.68 261.841 1061.68 260C1061.68 258.159 1063.18 256.667 1065.02 256.667ZM1040 246.667C1041.84 246.667 1043.33 248.159 1043.33 250C1043.33 251.841 1041.84 253.333 1040 253.333C1038.16 253.333 1036.67 251.841 1036.67 250C1036.67 248.159 1038.16 246.667 1040 246.667ZM1049.98 246.667C1051.82 246.667 1053.32 248.159 1053.32 250C1053.32 251.841 1051.82 253.333 1049.98 253.333C1048.14 253.333 1046.65 251.841 1046.65 250C1046.65 248.159 1048.14 246.667 1049.98 246.667ZM1059.98 246.667C1061.82 246.667 1063.32 248.159 1063.32 250C1063.32 251.841 1061.82 253.333 1059.98 253.333C1058.14 253.333 1056.65 251.841 1056.65 250C1056.65 248.159 1058.14 246.667 1059.98 246.667ZM1069.98 246.667C1071.82 246.667 1073.32 248.159 1073.32 250C1073.32 251.841 1071.82 253.333 1069.98 253.333C1068.14 253.333 1066.65 251.841 1066.65 250C1066.65 248.159 1068.14 246.667 1069.98 246.667ZM1079.98 246.667C1081.82 246.667 1083.32 248.159 1083.32 250C1083.32 251.841 1081.82 253.333 1079.98 253.333C1078.14 253.333 1076.65 251.841 1076.65 250C1076.65 248.159 1078.14 246.667 1079.98 246.667Z" fill="#161616"/>
<path d="M374.167 30C381.07 30 386.667 35.5964 386.667 42.5V72.5C386.667 78.4175 382.555 83.3746 377.032 84.67L385.242 88.5762C386.488 89.1698 387.017 90.6616 386.424 91.9082C385.88 93.0509 384.581 93.5909 383.408 93.2157L383.092 93.0905L366.099 85H353.896L336.908 93.0905C335.662 93.6841 334.17 93.1548 333.576 91.9082C332.983 90.6616 333.512 89.1698 334.759 88.5762L342.966 84.6696C337.445 83.3738 333.333 78.417 333.333 72.5V42.5C333.333 35.5964 338.93 30 345.833 30H374.167ZM381.666 66.6667H338.333L338.333 72.5C338.333 76.6421 341.691 80 345.833 80H374.167C378.309 80 381.667 76.6421 381.667 72.5L381.666 66.6667ZM346.667 70C348.508 70 350 71.4924 350 73.3333C350 75.1743 348.508 76.6667 346.667 76.6667C344.826 76.6667 343.333 75.1743 343.333 73.3333C343.333 71.4924 344.826 70 346.667 70ZM373.333 70C375.174 70 376.667 71.4924 376.667 73.3333C376.667 75.1743 375.174 76.6667 373.333 76.6667C371.492 76.6667 370 75.1743 370 73.3333C370 71.4924 371.492 70 373.333 70ZM374.167 35H345.833C341.691 35 338.333 38.3579 338.333 42.5L338.333 61.6667H381.666L381.667 42.5C381.667 38.3579 378.309 35 374.167 35ZM364.167 40C365.547 40 366.667 41.1193 366.667 42.5C366.667 43.8807 365.547 45 364.167 45H355.833C354.453 45 353.333 43.8807 353.333 42.5C353.333 41.1193 354.453 40 355.833 40H364.167Z" fill="#161616"/>
<path d="M60 226.663C78.4123 226.663 93.3385 241.589 93.3385 260.002C93.3385 278.414 78.4123 293.34 60 293.34C41.5877 293.34 26.6615 278.414 26.6615 260.002C26.6615 241.589 41.5877 226.663 60 226.663ZM69.7963 275.001H50.2037C52.3771 283.048 56.155 288.34 60 288.34C63.845 288.34 67.6229 283.048 69.7963 275.001ZM45.0277 275.003L35.9528 275.002C39.1472 280.112 43.9254 284.131 49.6 286.371C47.8591 283.638 46.4224 280.217 45.3657 276.319L45.0277 275.003ZM84.0472 275.002L74.9723 275.003C73.8931 279.449 72.3344 283.335 70.3965 286.371C75.7197 284.271 80.252 280.608 83.4299 275.947L84.0472 275.002ZM43.6447 253.333H32.4527L32.4369 253.39C31.9299 255.511 31.6615 257.725 31.6615 260.002C31.6615 263.522 32.3035 266.893 33.4767 270.003L44.0539 270.002C43.5796 266.838 43.3282 263.477 43.3282 260.002C43.3282 257.722 43.4364 255.491 43.6447 253.333ZM71.3231 253.333H48.6769C48.4502 255.467 48.3282 257.7 48.3282 260.002C48.3282 263.533 48.6153 266.901 49.1273 270.002H70.8727C71.3847 266.901 71.6718 263.533 71.6718 260.002C71.6718 257.7 71.5498 255.467 71.3231 253.333ZM87.5487 253.33L76.3553 253.333C76.5636 255.491 76.6718 257.722 76.6718 260.002C76.6718 263.477 76.4204 266.838 75.9461 270.002L86.5233 270.003C87.6965 266.893 88.3385 263.522 88.3385 260.002C88.3385 257.704 88.065 255.47 87.5487 253.33ZM49.6035 233.632L49.5271 233.661C42.7028 236.377 37.1827 241.668 34.1672 248.334L44.3276 248.335C45.3721 242.493 47.1949 237.406 49.6035 233.632ZM60 231.663L59.6145 231.681C55.3964 232.067 51.3214 238.74 49.429 248.334H70.571C68.6839 238.767 64.6265 232.104 60.421 231.684L60 231.663ZM70.4 233.632L70.7561 234.213C72.9868 237.921 74.6806 242.787 75.6724 248.335L85.8328 248.334C82.9507 241.963 77.7807 236.848 71.3707 234.037L70.4 233.632Z" fill="#161616"/>
<path d="M1153.5 71.4029L1174.35 43.1498C1175.04 42.2145 1176.32 41.9364 1177.34 42.5C1178.25 43.0073 1178.7 44.0546 1178.47 45.0474L1178.37 45.3754L1165.47 78.0387C1164.07 81.5835 1160.06 83.3222 1156.52 81.9222C1156.24 81.8123 1155.97 81.6845 1155.7 81.5394C1152.37 79.6912 1151.17 75.4901 1153.01 72.1558L1153.24 71.7715L1153.5 71.4029L1174.35 43.1498L1153.5 71.4029ZM1166.17 62.6591L1157.52 74.3723L1157.39 74.5799C1156.88 75.4989 1157.21 76.6569 1158.13 77.1663L1158.35 77.2718C1159.23 77.6188 1160.21 77.2656 1160.68 76.4797L1160.82 76.2021L1166.17 62.6591ZM1182.03 44.7132C1184.55 46.7509 1186.82 49.1694 1188.77 51.9532C1190.52 54.4501 1192.2 57.4734 1193.17 59.9476C1193.68 61.2334 1193.04 62.6836 1191.76 63.1867C1190.47 63.6899 1189.02 63.0554 1188.52 61.7696C1188.19 60.9408 1187.76 60.0155 1187.26 59.0636L1180.43 63.0078C1179.23 63.6982 1177.7 63.2885 1177.01 62.0928C1176.38 60.9967 1176.67 59.6206 1177.64 58.8671L1177.93 58.6777L1184.65 54.7881L1183.89 53.7424C1182.81 52.3339 1181.63 51.0443 1180.36 49.8768L1181.63 46.6625C1181.75 46.3428 1181.85 46.0178 1181.92 45.691L1182 45.1998L1182.03 44.7132ZM1173.27 39.5091C1172.77 39.7976 1172.32 40.1645 1171.91 40.6045L1171.53 41.0685L1169.73 43.5117C1167.39 42.6985 1164.96 42.1724 1162.5 41.9435L1162.5 50.853C1162.5 52.2337 1161.38 53.353 1160 53.353C1158.73 53.353 1157.69 52.4125 1157.52 51.1922L1157.5 50.853L1157.5 41.8887C1152.18 42.2672 1146.89 44.0475 1142.2 47.3306C1139.48 49.2351 1137.11 51.7381 1135.13 54.6796L1142.07 58.6866C1143.27 59.3769 1143.68 60.9059 1142.99 62.1016C1142.36 63.1977 1141.02 63.6333 1139.88 63.1666L1139.57 63.0167L1132.66 59.0267C1132.23 59.9141 1131.84 60.8277 1131.48 61.7643C1130.98 63.0512 1129.53 63.689 1128.24 63.1888C1126.95 62.6886 1126.31 61.2398 1126.81 59.9529C1129.5 53.0368 1133.75 47.1439 1139.33 43.2349C1149.63 36.0183 1162.44 35.0398 1173.27 39.5091Z" fill="#161616"/>
<path d="M290.002 45.0375C293.008 46.9628 295 50.3321 295 54.1667V74.1667C295 83.8316 287.165 91.6667 277.5 91.6667H247.5C243.665 91.6667 240.296 89.6744 238.371 86.6685L277.5 86.6667C284.404 86.6667 290 81.0702 290 74.1667L290.002 45.0375ZM237.5 33.3333H275.833C281.61 33.3333 286.331 37.8549 286.65 43.5519L286.667 44.1667V72.5C286.667 78.2768 282.145 82.9975 276.448 83.3162L275.833 83.3333H237.5C231.723 83.3333 227.003 78.8118 226.684 73.1147L226.667 72.5V44.1667C226.667 38.3899 231.188 33.6692 236.885 33.3505L237.5 33.3333ZM281.667 49.6633L257.831 62.2123C257.206 62.5411 256.477 62.5881 255.823 62.3532L255.502 62.2123L231.667 49.6667V72.5C231.667 75.5606 234.024 78.0706 237.022 78.314L237.5 78.3333H275.833C278.894 78.3333 281.404 75.9763 281.647 72.9784L281.667 72.5V49.6633ZM275.833 38.3333H237.5C234.439 38.3333 231.929 40.6904 231.686 43.6882L231.673 44.02L256.667 57.1749L281.665 44.0161C281.585 40.864 279.005 38.3333 275.833 38.3333Z" fill="#161616"/>
<path d="M156.071 26.6775L156.406 26.7331L184.739 33.3998C185.756 33.6389 186.504 34.4791 186.643 35.4905L186.667 35.8333V84.1667C186.667 85.2108 186.02 86.1314 185.068 86.4988L184.739 86.6002L156.406 93.2669C154.949 93.6097 153.548 92.6076 153.356 91.1719L153.333 90.8333V29.1667C153.333 27.7848 154.438 26.7127 155.742 26.6671L156.071 26.6775ZM158.333 32.3232V87.6768L181.667 82.1866V37.8134L158.333 32.3232ZM150 33.3333V38.3333H138.333V81.6667H150V86.6667H135.833C134.568 86.6667 133.522 85.7262 133.356 84.5059L133.333 84.1667V35.8333C133.333 34.5677 134.274 33.5217 135.494 33.3562L135.833 33.3333H150ZM166.667 56.6667C168.508 56.6667 170 58.159 170 60C170 61.8409 168.508 63.3333 166.667 63.3333C164.826 63.3333 163.333 61.8409 163.333 60C163.333 58.159 164.826 56.6667 166.667 56.6667Z" fill="#161616"/>
<path fill-rule="evenodd" clip-rule="evenodd" d="M1033.33 38.3333C1033.33 31.89 1038.56 26.6667 1045 26.6667C1051.44 26.6667 1056.67 31.89 1056.67 38.3333C1056.67 43.6319 1053.13 48.1054 1048.3 49.5278C1050.59 57.0374 1057.57 62.5 1065.83 62.5H1066.94C1068.08 57.258 1072.75 53.3333 1078.33 53.3333C1084.78 53.3333 1090 58.5567 1090 65C1090 71.4433 1084.78 76.6667 1078.33 76.6667C1072.75 76.6667 1068.08 72.7419 1066.94 67.5H1065.83C1058.4 67.5 1051.77 64.021 1047.5 58.6018L1047.5 70.2685C1052.74 71.4129 1056.67 76.0815 1056.67 81.6667C1056.67 88.11 1051.44 93.3333 1045 93.3333C1038.56 93.3333 1033.33 88.11 1033.33 81.6667C1033.33 76.0815 1037.26 71.4129 1042.5 70.2685L1042.5 49.7315C1037.26 48.5871 1033.33 43.9185 1033.33 38.3333ZM1045 31.6667C1041.32 31.6667 1038.33 34.6514 1038.33 38.3333C1038.33 42.0152 1041.32 45 1045 45C1048.68 45 1051.67 42.0152 1051.67 38.3333C1051.67 34.6514 1048.68 31.6667 1045 31.6667ZM1045 75C1041.32 75 1038.33 77.9848 1038.33 81.6667C1038.33 85.3486 1041.32 88.3333 1045 88.3333C1048.68 88.3333 1051.67 85.3486 1051.67 81.6667C1051.67 77.9848 1048.68 75 1045 75ZM1071.67 65C1071.67 61.3181 1074.65 58.3333 1078.33 58.3333C1082.02 58.3333 1085 61.3181 1085 65C1085 68.6819 1082.02 71.6667 1078.33 71.6667C1074.65 71.6667 1071.67 68.6819 1071.67 65Z" fill="#161616"/>
<path d="M254.762 186.413L266.637 181.373C267.081 184.307 265.51 187.282 262.653 188.495C259.795 189.708 256.564 188.771 254.762 186.413ZM272.871 126.978C279.823 130.777 285.043 135.654 288.477 141.602C291.911 147.55 293.525 154.509 293.338 162.429C293.306 163.809 292.16 164.902 290.78 164.869C289.4 164.837 288.307 163.691 288.34 162.311C288.505 155.273 287.101 149.22 284.147 144.102C281.192 138.984 276.651 134.741 270.474 131.366C269.262 130.704 268.816 129.185 269.478 127.974C270.14 126.762 271.659 126.316 272.871 126.978ZM242.371 141.717C251.911 137.47 263.052 141.486 267.703 150.869L268.031 151.567L272.322 161.206L277.983 166.105C278.292 166.373 278.56 166.684 278.87 167.188L279.066 167.569C279.997 169.673 279.046 172.134 276.942 173.066L242.52 188.299C241.988 188.534 241.414 188.656 240.833 188.656C238.532 188.656 236.667 186.79 236.667 184.49L236.663 176.681L232.522 167.376C228.143 157.542 232.552 146.089 242.371 141.717ZM237.09 165.343L241.663 175.617L241.666 183.209L273.716 169.025L268.207 164.258L263.484 153.647L263.201 153.043C259.763 146.108 251.495 143.128 244.405 146.285C237.107 149.534 233.835 158.033 237.09 165.343ZM272.079 138.981C275.302 140.738 277.886 143.296 279.8 146.612C281.714 149.927 282.638 153.443 282.548 157.114C282.514 158.494 281.368 159.586 279.988 159.552C278.608 159.518 277.516 158.372 277.55 156.992C277.616 154.253 276.931 151.642 275.47 149.112C274.009 146.581 272.091 144.682 269.685 143.37C268.473 142.709 268.026 141.191 268.687 139.979C269.348 138.766 270.867 138.32 272.079 138.981Z" fill="#161616"/>
<path d="M567.5 26.6667C568.766 26.6667 569.812 27.6072 569.977 28.8274L570 29.1667V36.6667H587.5C588.881 36.6667 590 37.786 590 39.1667V90.8333C590 92.214 588.881 93.3333 587.5 93.3333H577.5C576.119 93.3333 575 92.214 575 90.8333V81.6667H568.333V90.8333C568.333 92.214 567.214 93.3333 565.833 93.3333H555.833C554.453 93.3333 553.333 92.214 553.333 90.8333V39.1667C553.333 37.786 554.453 36.6667 555.833 36.6667H565V31.6667H535V90.8333C535 92.214 533.881 93.3333 532.5 93.3333C531.234 93.3333 530.188 92.3928 530.023 91.1726L530 90.8333V29.1667C530 27.901 530.941 26.855 532.161 26.6895L532.5 26.6667H567.5ZM585 41.6667H558.333V88.3333H563.333V79.1667C563.333 77.786 564.453 76.6667 565.833 76.6667H577.5C578.881 76.6667 580 77.786 580 79.1667V88.3333H585V41.6667ZM546.667 76.6667V83.3333H540V76.6667H546.667ZM570 66.6667V73.3333H563.333V66.6667H570ZM580 66.6667V73.3333H573.333V66.6667H580ZM546.667 66.6667V73.3333H540V66.6667H546.667ZM570 56.6667V63.3333H563.333V56.6667H570ZM580 56.6667V63.3333H573.333V56.6667H580ZM546.667 56.6667V63.3333H540V56.6667H546.667ZM546.667 46.6667V53.3333H540V46.6667H546.667ZM570 46.6667V53.3333H563.333V46.6667H570ZM580 46.6667V53.3333H573.333V46.6667H580ZM546.667 36.6667V43.3333H540V36.6667H546.667Z" fill="#161616"/>
<path d="M65.8333 26.6667C69.8029 26.6667 73.0521 29.7505 73.316 33.6532L73.3333 34.1667C73.3333 33.8844 73.3177 33.6057 73.2874 33.3315L79.1667 33.3333C83.3088 33.3333 86.6667 36.6912 86.6667 40.8333V85.8333C86.6667 89.9755 83.3088 93.3333 79.1667 93.3333H40.8333C36.6912 93.3333 33.3333 89.9755 33.3333 85.8333V40.8333C33.3333 36.6912 36.6912 33.3333 40.8333 33.3333L46.7126 33.3315C46.6911 33.5258 46.677 33.7224 46.6706 33.9209L46.6667 34.1667C46.6667 30.0245 50.0245 26.6667 54.1667 26.6667H65.8333ZM65.8333 41.6667H54.1667C51.5198 41.6667 49.1932 40.2956 47.8584 38.2249L47.9301 38.334L40.8333 38.3333C39.4526 38.3333 38.3333 39.4526 38.3333 40.8333V85.8333C38.3333 87.214 39.4526 88.3333 40.8333 88.3333H79.1667C80.5474 88.3333 81.6667 87.214 81.6667 85.8333V40.8333C81.6667 39.4526 80.5474 38.3333 79.1667 38.3333L72.0699 38.334L72.1416 38.2249C70.8068 40.2956 68.4802 41.6667 65.8333 41.6667ZM65.8333 31.6667H54.1667C52.786 31.6667 51.6667 32.786 51.6667 34.1667C51.6667 35.5474 52.786 36.6667 54.1667 36.6667H65.8333C67.214 36.6667 68.3333 35.5474 68.3333 34.1667C68.3333 32.786 67.214 31.6667 65.8333 31.6667ZM46.6667 68.3333H60C61.3807 68.3333 62.5 67.214 62.5 65.8333C62.5 64.4526 61.3807 63.3333 60 63.3333H46.6667C45.286 63.3333 44.1667 64.4526 44.1667 65.8333C44.1667 67.214 45.286 68.3333 46.6667 68.3333ZM46.6667 55H73.3333C74.714 55 75.8333 53.8807 75.8333 52.5C75.8333 51.1193 74.714 50 73.3333 50H46.6667C45.286 50 44.1667 51.1193 44.1667 52.5C44.1667 53.8807 45.286 55 46.6667 55ZM46.6667 81.6667H66.6667C68.0474 81.6667 69.1667 80.5474 69.1667 79.1667C69.1667 77.786 68.0474 76.6667 66.6667 76.6667H46.6667C45.286 76.6667 44.1667 77.786 44.1667 79.1667C44.1667 80.5474 45.286 81.6667 46.6667 81.6667Z" fill="#161616"/>
<path d="M989.591 229.418L990.101 229.899L990.582 230.409C994.753 235.093 994.593 242.276 990.101 246.768L950.207 286.662C949.284 287.585 948.136 288.251 946.877 288.595L929.824 293.245C927.958 293.754 926.246 292.042 926.755 290.176L931.405 273.123C931.749 271.864 932.415 270.716 933.338 269.793L973.232 229.899C977.724 225.407 984.907 225.247 989.591 229.418ZM970.001 240.202L936.873 273.329C936.566 273.636 936.344 274.019 936.229 274.439L932.73 287.27L945.561 283.771C945.981 283.656 946.363 283.434 946.671 283.127L979.797 249.999L970.001 240.202ZM941.75 256.665L936.75 261.665L929.167 261.667C927.786 261.667 926.667 260.547 926.667 259.167C926.667 257.786 927.786 256.667 929.167 256.667L941.75 256.665ZM955.083 243.332L950.083 248.332L929.167 248.333C927.786 248.333 926.667 247.214 926.667 245.833C926.667 244.453 927.786 243.333 929.167 243.333L955.083 243.332ZM976.768 233.434L973.534 236.665L983.331 246.465L986.566 243.232C989.271 240.527 989.271 236.14 986.566 233.434C983.86 230.729 979.473 230.729 976.768 233.434ZM968.417 229.999L963.417 234.999L929.167 235C927.786 235 926.667 233.881 926.667 232.5C926.667 231.119 927.786 230 929.167 230L968.417 229.999Z" fill="#161616"/>
<path d="M782.5 186.667H737.5C731.723 186.667 727.003 182.145 726.684 176.448L726.667 175.833V140.833C726.667 136.864 729.751 133.615 733.653 133.351L734.167 133.333H775.833C779.803 133.333 783.052 136.417 783.316 140.32L783.333 140.833V143.333H785.833C789.803 143.333 793.052 146.417 793.316 150.32L793.333 150.833V175.833C793.333 181.61 788.812 186.331 783.115 186.65L782.5 186.667H737.5H782.5ZM737.5 181.667H782.5C785.561 181.667 788.071 179.31 788.314 176.312L788.333 175.833V150.833C788.333 149.568 787.393 148.522 786.173 148.356L785.833 148.333H783.333V174.167C783.333 175.432 782.393 176.478 781.173 176.644L780.833 176.667C779.568 176.667 778.522 175.726 778.356 174.506L778.333 174.167V140.833C778.333 139.568 777.393 138.522 776.173 138.356L775.833 138.333H734.167C732.901 138.333 731.855 139.274 731.69 140.494L731.667 140.833V175.833C731.667 178.894 734.024 181.404 737.022 181.647L737.5 181.667H782.5H737.5ZM760.82 168.333H770.841C772.222 168.333 773.341 169.453 773.341 170.833C773.341 172.099 772.4 173.145 771.18 173.311L770.841 173.333H760.82C759.439 173.333 758.32 172.214 758.32 170.833C758.32 169.568 759.261 168.522 760.481 168.356L760.82 168.333H770.841H760.82ZM750.811 156.682C752.192 156.682 753.311 157.801 753.311 159.182V170.833C753.311 172.214 752.192 173.333 750.811 173.333H739.159C737.779 173.333 736.659 172.214 736.659 170.833V159.182C736.659 157.801 737.779 156.682 739.159 156.682H750.811ZM748.311 161.682H741.659V168.333H748.311V161.682ZM760.82 156.682H770.841C772.222 156.682 773.341 157.801 773.341 159.182C773.341 160.447 772.4 161.493 771.18 161.659L770.841 161.682H760.82C759.439 161.682 758.32 160.562 758.32 159.182C758.32 157.916 759.261 156.87 760.481 156.704L760.82 156.682H770.841H760.82ZM739.159 145.008H770.841C772.222 145.008 773.341 146.128 773.341 147.508C773.341 148.774 772.4 149.82 771.18 149.985L770.841 150.008H739.159C737.779 150.008 736.659 148.889 736.659 147.508C736.659 146.243 737.6 145.197 738.82 145.031L739.159 145.008H770.841H739.159Z" fill="#161616"/>
<path d="M579.167 130C585.15 130 590 134.85 590 140.833V163.762C590 165.751 589.21 167.659 587.803 169.066L569.066 187.803C567.659 189.21 565.751 190 563.762 190H540.833C534.85 190 530 185.15 530 179.167V140.833C530 134.85 534.85 130 540.833 130H579.167ZM579.167 135H540.833C537.612 135 535 137.612 535 140.833V179.167C535 182.388 537.612 185 540.833 185H563.333L563.336 174.788C562.599 174.898 561.85 174.971 561.089 175.007L560.003 175.032C555.508 175.032 551.4 173.759 547.744 171.231C546.609 170.446 546.325 168.888 547.11 167.753C547.896 166.617 549.453 166.333 550.589 167.119C553.405 169.067 556.521 170.032 560.003 170.032C561.544 170.032 563.013 169.843 564.417 169.463C566.07 166.034 569.471 163.616 573.461 163.356L574.171 163.333H585V140.833C585 137.612 582.388 135 579.167 135ZM581.463 168.333H574.171C571.111 168.334 568.6 170.691 568.355 173.689L568.336 174.167L568.333 181.463L581.463 168.333ZM550.001 145.837C552.301 145.837 554.166 147.702 554.166 150.001C554.166 152.301 552.301 154.166 550.001 154.166C547.702 154.166 545.837 152.301 545.837 150.001C545.837 147.702 547.702 145.837 550.001 145.837ZM570.001 145.837C572.301 145.837 574.166 147.702 574.166 150.001C574.166 152.301 572.301 154.166 570.001 154.166C567.702 154.166 565.837 152.301 565.837 150.001C565.837 147.702 567.702 145.837 570.001 145.837Z" fill="#161616"/>
<path d="M670.832 163.333C674.054 163.333 676.666 165.945 676.666 169.167V184.167C676.666 187.388 674.054 190 670.832 190H632.499C629.277 190 626.666 187.388 626.666 184.167V169.167C626.666 165.945 629.277 163.333 632.499 163.333H670.832ZM690 169.663L689.999 187.5C689.999 188.881 688.88 190 687.499 190C686.233 190 685.187 189.059 685.022 187.839L684.999 187.5L684.998 169.706C685.772 169.898 686.582 170 687.416 170C688.309 170 689.175 169.883 690 169.663ZM670.832 168.333H632.499C632.039 168.333 631.666 168.706 631.666 169.167V184.167C631.666 184.627 632.039 185 632.499 185H670.832C671.292 185 671.666 184.627 671.666 184.167V169.167C671.666 168.706 671.292 168.333 670.832 168.333ZM687.498 153.64C691.011 153.64 693.858 156.487 693.858 160C693.858 163.513 691.011 166.36 687.498 166.36C683.986 166.36 681.138 163.513 681.138 160C681.138 156.487 683.986 153.64 687.498 153.64ZM670.818 130C674.039 130 676.651 132.612 676.651 135.833V150.833C676.651 154.055 674.039 156.667 670.818 156.667H632.484C629.263 156.667 626.651 154.055 626.651 150.833V135.833C626.651 132.773 629.008 130.263 632.006 130.019L632.484 130H670.818ZM670.818 135H632.484L632.293 135.022C631.925 135.108 631.651 135.439 631.651 135.833V150.833C631.651 151.294 632.024 151.667 632.484 151.667H670.818C671.278 151.667 671.651 151.294 671.651 150.833V135.833C671.651 135.373 671.278 135 670.818 135ZM687.499 130C688.765 130 689.811 130.941 689.976 132.161L689.999 132.5L690 150.337C689.175 150.117 688.309 150 687.416 150C686.582 150 685.772 150.102 684.998 150.294L684.999 132.5C684.999 131.119 686.118 130 687.499 130Z" fill="#161616"/>
<path d="M447.356 33.3333C448.892 33.3333 450.384 33.8043 451.636 34.6745L452.158 35.0717L460.073 41.6667H485.833C489.622 41.6667 492.755 44.4766 493.262 48.1263L493.316 48.6532L493.333 49.1667V79.1667C493.333 83.1362 490.249 86.3855 486.347 86.6494L485.833 86.6667H434.167C430.197 86.6667 426.948 83.5828 426.684 79.6802L426.667 79.1667V40.8333C426.667 36.8638 429.751 33.6145 433.653 33.3506L434.167 33.3333H447.356ZM452.158 53.2617C450.978 54.2445 449.53 54.8383 448.011 54.9714L447.356 55L431.667 54.9967V79.1667C431.667 80.4323 432.607 81.4783 433.827 81.6438L434.167 81.6667H485.833C487.099 81.6667 488.145 80.7262 488.311 79.5059L488.333 79.1667V49.1667C488.333 47.901 487.393 46.855 486.173 46.6895L485.833 46.6667H460.07L452.158 53.2617ZM447.356 38.3333H434.167C432.901 38.3333 431.855 39.2738 431.689 40.4941L431.667 40.8333V49.9967L447.356 50C447.824 50 448.28 49.8688 448.674 49.6246L448.957 49.4206L455.26 44.1633L448.957 38.9128C448.597 38.6133 448.163 38.4221 447.704 38.3577L447.356 38.3333Z" fill="#161616"/>
</svg>
